<?xml version="1.0" encoding="UTF-8" standalone="no"?>
<svg
   xmlns:dc="http://purl.org/dc/elements/1.1/"
   xmlns:cc="http://creativecommons.org/ns#"
   xmlns:rdf="http://www.w3.org/1999/02/22-rdf-syntax-ns#"
   xmlns:svg="http://www.w3.org/2000/svg"
   xmlns="http://www.w3.org/2000/svg"
   xmlns:sodipodi="http://sodipodi.sourceforge.net/DTD/sodipodi-0.dtd"
   xmlns:inkscape="http://www.inkscape.org/namespaces/inkscape"
   width="210mm"
   height="297mm"
   viewBox="0 0 210 297"
   version="1.1"
   id="svg8"
   inkscape:version="1.0.1 (3bc2e813f5, 2020-09-07)"
   sodipodi:docname="Outline.svg">
  <defs
     id="defs2">
    <inkscape:path-effect
       effect="bspline"
       id="path-effect947"
       is_visible="true"
       lpeversion="1"
       weight="33.333333"
       steps="2"
       helper_size="0"
       apply_no_weight="true"
       apply_with_weight="true"
       only_selected="false" />
    <inkscape:path-effect
       effect="bspline"
       id="path-effect929"
       is_visible="true"
       lpeversion="1"
       weight="33.333333"
       steps="2"
       helper_size="0"
       apply_no_weight="true"
       apply_with_weight="true"
       only_selected="false" />
    <inkscape:path-effect
       effect="bspline"
       id="path-effect925"
       is_visible="true"
       lpeversion="1"
       weight="33.333333"
       steps="2"
       helper_size="0"
       apply_no_weight="true"
       apply_with_weight="true"
       only_selected="false" />
    <inkscape:path-effect
       effect="bspline"
       id="path-effect921"
       is_visible="true"
       lpeversion="1"
       weight="33.333333"
       steps="2"
       helper_size="0"
       apply_no_weight="true"
       apply_with_weight="true"
       only_selected="false" />
    <inkscape:path-effect
       effect="bspline"
       id="path-effect917"
       is_visible="true"
       lpeversion="1"
       weight="33.333333"
       steps="2"
       helper_size="0"
       apply_no_weight="true"
       apply_with_weight="true"
       only_selected="false" />
    <inkscape:path-effect
       effect="bspline"
       id="path-effect913"
       is_visible="true"
       lpeversion="1"
       weight="33.333333"
       steps="2"
       helper_size="0"
       apply_no_weight="true"
       apply_with_weight="true"
       only_selected="false" />
    <inkscape:path-effect
       effect="bspline"
       id="path-effect907"
       is_visible="true"
       lpeversion="1"
       weight="33.333333"
       steps="2"
       helper_size="0"
       apply_no_weight="true"
       apply_with_weight="true"
       only_selected="false" />
    <inkscape:path-effect
       effect="bspline"
       id="path-effect903"
       is_visible="true"
       lpeversion="1"
       weight="33.333333"
       steps="2"
       helper_size="0"
       apply_no_weight="true"
       apply_with_weight="true"
       only_selected="false" />
    <inkscape:path-effect
       effect="bspline"
       id="path-effect899"
       is_visible="true"
       lpeversion="1"
       weight="33.333333"
       steps="2"
       helper_size="0"
       apply_no_weight="true"
       apply_with_weight="true"
       only_selected="false" />
    <inkscape:path-effect
       effect="bspline"
       id="path-effect895"
       is_visible="true"
       lpeversion="1"
       weight="33.333333"
       steps="2"
       helper_size="0"
       apply_no_weight="true"
       apply_with_weight="true"
       only_selected="false" />
    <inkscape:path-effect
       effect="bspline"
       id="path-effect890"
       is_visible="true"
       lpeversion="1"
       weight="33.333333"
       steps="2"
       helper_size="0"
       apply_no_weight="true"
       apply_with_weight="true"
       only_selected="false" />
    <inkscape:path-effect
       effect="bspline"
       id="path-effect886"
       is_visible="true"
       lpeversion="1"
       weight="33.333333"
       steps="2"
       helper_size="0"
       apply_no_weight="true"
       apply_with_weight="true"
       only_selected="false" />
    <inkscape:path-effect
       effect="bspline"
       id="path-effect882"
       is_visible="true"
       lpeversion="1"
       weight="33.333333"
       steps="2"
       helper_size="0"
       apply_no_weight="true"
       apply_with_weight="true"
       only_selected="false" />
    <inkscape:path-effect
       effect="bspline"
       id="path-effect863"
       is_visible="true"
       lpeversion="1"
       weight="33.333333"
       steps="2"
       helper_size="0"
       apply_no_weight="true"
       apply_with_weight="true"
       only_selected="false" />
    <inkscape:path-effect
       effect="bspline"
       id="path-effect859"
       is_visible="true"
       lpeversion="1"
       weight="33.333333"
       steps="2"
       helper_size="0"
       apply_no_weight="true"
       apply_with_weight="true"
       only_selected="false" />
    <inkscape:path-effect
       effect="bspline"
       id="path-effect855"
       is_visible="true"
       lpeversion="1"
       weight="33.333333"
       steps="2"
       helper_size="0"
       apply_no_weight="true"
       apply_with_weight="true"
       only_selected="false" />
    <inkscape:path-effect
       effect="bspline"
       id="path-effect851"
       is_visible="true"
       lpeversion="1"
       weight="33.333333"
       steps="2"
       helper_size="0"
       apply_no_weight="true"
       apply_with_weight="true"
       only_selected="false" />
    <inkscape:path-effect
       effect="bspline"
       id="path-effect847"
       is_visible="true"
       lpeversion="1"
       weight="33.333333"
       steps="2"
       helper_size="0"
       apply_no_weight="true"
       apply_with_weight="true"
       only_selected="false" />
    <inkscape:path-effect
       effect="bspline"
       id="path-effect843"
       is_visible="true"
       lpeversion="1"
       weight="33.333333"
       steps="2"
       helper_size="0"
       apply_no_weight="true"
       apply_with_weight="true"
       only_selected="false" />
    <inkscape:path-effect
       effect="bspline"
       id="path-effect849"
       is_visible="true"
       lpeversion="1"
       weight="33.333333"
       steps="2"
       helper_size="0"
       apply_no_weight="true"
       apply_with_weight="true"
       only_selected="false" />
  </defs>
  <sodipodi:namedview
     id="base"
     pagecolor="#ffffff"
     bordercolor="#666666"
     borderopacity="1.0"
     inkscape:pageopacity="0.0"
     inkscape:pageshadow="2"
     inkscape:zoom="0.98994949"
     inkscape:cx="465.68318"
     inkscape:cy="700.6751"
     inkscape:document-units="mm"
     inkscape:current-layer="layer1"
     inkscape:document-rotation="0"
     showgrid="false"
     inkscape:window-width="1366"
     inkscape:window-height="705"
     inkscape:window-x="-8"
     inkscape:window-y="-8"
     inkscape:window-maximized="1" />
  <metadata
     id="metadata5">
    <rdf:RDF>
      <cc:Work
         rdf:about="">
        <dc:format>image/svg+xml</dc:format>
        <dc:type
           rdf:resource="http://purl.org/dc/dcmitype/StillImage" />
        <dc:title></dc:title>
      </cc:Work>
    </rdf:RDF>
  </metadata>
  <g
     inkscape:label="Layer 1"
     inkscape:groupmode="layer"
     id="layer1">
    <path
       id="path847-5"
       style="fill:none;stroke:#000000;stroke-width:0.130361px;stroke-linecap:butt;stroke-linejoin:miter;stroke-opacity:1"
       d="m 85.436057,122.08587 c -1.908864,0.0931 -3.817471,0.18624 -5.803938,0.43455 -1.986497,0.2483 -4.050516,0.65162 -5.912844,1.10168 -1.862317,0.45006 -3.523118,0.94638 -4.935385,1.45852 -1.412267,0.51214 -2.575847,1.0399 -3.724277,1.62187 -1.14843,0.58198 -2.281515,1.21858 -3.379604,1.94434 -1.098079,0.72576 -2.161008,1.54062 -2.829802,2.10187 -0.668805,0.56125 -0.943384,0.86874 -1.080545,1.09376 -0.137182,0.22503 -0.137407,0.36767 -0.03857,0.66398 0.09882,0.29629 0.296655,0.7459 0.510663,0.96529 0.214018,0.21939 0.444475,0.20866 0.823091,0.24159 0.378615,0.0329 0.905175,0.10959 1.349619,0.19189 0.444445,0.0823 0.80657,0.17047 1.157729,0.23631 0.351159,0.0659 0.691341,0.10951 0.954718,0.1644 0.263387,0.0549 0.45002,0.12077 0.620101,0.18662 0.170101,0.0659 0.323937,0.13179 0.241587,0.18661 -0.08235,0.0548 -0.400957,0.0984 -0.900275,0.19718 -0.499317,0.0987 -1.179324,0.25247 -1.788397,0.46097 -0.609063,0.2085 -1.146854,0.4721 -1.690057,0.74644 -0.543204,0.27435 -1.092013,0.5595 -1.602307,0.87226 -0.510294,0.31275 -0.982154,0.65317 -1.432092,1.0208 -0.449928,0.36763 -0.878148,0.76267 -1.136042,1.06997 -0.257934,0.3073 -0.345686,0.5268 -0.334638,0.73534 0.01105,0.20853 0.12107,0.4056 0.236309,0.57569 0.115249,0.17008 0.235787,0.3132 0.235767,0.39542 -1e-5,0.0823 -0.120681,0.10411 -0.565116,0.14802 -0.444434,0.0439 -1.212693,0.10939 -2.136763,0.18185 -0.924069,0.0724 -2.003642,0.15194 -2.982063,0.29234 -0.9784,0.14042 -1.855576,0.34186 -2.666453,0.55138 -0.810886,0.20951 -1.555412,0.4271 -2.215011,0.6793 -0.659587,0.25218 -1.234053,0.5391 -1.835433,0.88441 -0.60138,0.34531 -1.229696,0.74874 -1.776766,1.16777 -0.54707,0.41903 -1.012711,0.85359 -1.416226,1.26874 -0.403505,0.41514 -0.744782,0.81066 -1.066796,1.15983 -0.322024,0.34918 -0.625041,0.65191 -0.815163,0.92354 -0.190121,0.27162 -0.267468,0.51207 -0.314014,0.70996 -0.04655,0.19789 -0.0622,0.35334 -0.01166,0.52018 0.05053,0.16685 0.16694,0.34522 0.306618,0.55085 0.139668,0.20563 0.302404,0.43845 0.461498,0.62855 0.159084,0.1901 0.31428,0.33751 0.434542,0.46944 0.120262,0.13192 0.205896,0.24855 0.279653,0.34943 0.07376,0.10086 0.135647,0.18582 0.18608,0.27119 0.05043,0.0854 0.0892,0.17105 0.08511,0.27965 -0.0041,0.1086 -0.05023,0.24043 -0.09677,0.36846 -0.04655,0.12804 -0.0934,0.25224 -0.14379,0.38803 -0.05043,0.13578 -0.104641,0.28332 -0.116303,0.48898 -0.01166,0.20567 0.01913,0.46944 0.03857,0.69834 0.01944,0.2289 0.02752,0.42273 0.0624,0.64388 0.03499,0.22115 0.09688,0.46922 0.197712,0.73693 0.100866,0.26772 0.240452,0.55489 0.345195,0.78768 0.104753,0.23279 0.174674,0.41135 0.260093,0.55877 0.08542,0.14742 0.186223,0.26386 0.275427,0.37638 0.0892,0.11253 0.166767,0.22112 0.240524,0.31032 0.07376,0.0892 0.14378,0.15932 0.225199,0.2252 0.08143,0.0659 0.174439,0.12815 0.255868,0.21357 0.08143,0.0853 0.151504,0.19378 0.201937,0.30239 0.05043,0.10862 0.08112,0.21722 0.08931,0.32194 0.0082,0.10473 -0.0082,0.2057 -0.01954,0.31824 -0.01166,0.11253 -0.01944,0.23685 0,0.39595 0.01944,0.1591 0.06588,0.35297 0.116293,0.53921 0.05043,0.18624 0.10462,0.3646 0.162828,0.56247 0.05821,0.19789 0.120241,0.41531 0.228902,0.64812 0.108661,0.23279 0.26397,0.48064 0.465723,0.77551 0.201752,0.29487 0.45006,0.63666 0.640192,0.87331 0.190121,0.23667 0.322362,0.36855 0.450398,0.4927 0.128036,0.12415 0.251858,0.24028 0.395423,0.3489 0.143555,0.10861 0.306486,0.20975 0.469436,0.3378 0.162951,0.12806 0.325851,0.28325 0.492689,0.42292 0.166838,0.13966 0.337461,0.2639 0.539213,0.37639 0.201753,0.11249 0.434573,0.21333 0.61692,0.27542 0.182356,0.0621 0.314597,0.0848 0.46204,0.11207 0.147442,0.0272 0.310035,0.0584 0.476832,0.0429 0.166633,-0.0155 0.337553,-0.0776 0.508023,-0.13956 0.201721,-0.35695 0.40329,-0.71413 0.426614,-1.05939 0.02332,-0.34527 -0.131852,-0.67888 -0.302915,-1.13024 -0.171074,-0.45135 -0.357492,-1.01992 -0.484239,-1.57482 -0.126737,-0.55489 -0.193415,-1.09537 -0.235767,-1.43949 -0.04235,-0.34411 -0.06066,-0.4917 0.08348,-0.55348 0.14421,-0.0618 0.451196,-0.0378 0.947854,0.001 0.496647,0.0388 1.182894,0.0924 2.337114,0.0105 1.15423,-0.0818 2.777763,-0.29963 3.695193,-0.38485 0.917431,-0.0852 1.133014,-0.0386 1.434732,0.028 0.301729,0.0666 0.690697,0.15379 1.173585,0.32775 0.482878,0.17397 1.064157,0.43633 1.626623,0.80936 0.562476,0.37303 1.108983,0.85818 1.655174,1.34274 0.438808,0.56539 0.877933,1.13063 1.434732,1.87772 0.556798,0.74709 1.231127,1.67577 1.846543,3.1597 0.615425,1.4839 1.171467,3.52211 1.548385,4.71546 0.376917,1.19335 0.57421,1.54098 0.60582,1.73447 0.03161,0.19348 -0.102544,0.23224 -0.741151,0.41604 -0.638606,0.18382 -1.781072,0.51244 -2.680211,1.14451 -0.89913,0.63207 -1.55392,1.56669 -1.991919,2.19174 -0.43797,0.62506 -0.65831,0.93992 -0.811992,1.05993 -0.153672,0.11999 -0.2399,0.0441 -0.608459,-0.28177 -0.36856,-0.32588 -1.019811,-0.9018 -1.527772,-1.19367 -0.507972,-0.29187 -0.87244,-0.29951 -1.210055,-0.14431 -0.337624,0.15518 -0.648283,0.47342 -0.725825,1.10591 -0.07754,0.63249 0.07795,1.57904 0.244758,2.25412 0.166859,0.6751 0.345369,1.07882 0.558773,1.47068 0.213404,0.39186 0.461385,0.77217 0.441949,1.2571 -0.01637,0.40692 -0.219675,0.88666 -0.317186,1.31738 -0.325226,5e-5 -2.064612,0.002 -2.449192,0.002 -2.166788,0 -6.500823,-3e-5 -9.094726,0.10468 -2.593913,0.1047 -3.447724,0.31439 -4.156702,0.66079 -0.708977,0.34641 -1.272834,0.82957 -1.651471,1.22434 -0.378646,0.39476 -0.571887,0.70058 -0.781332,1.09534 -0.209456,0.39475 -0.434921,0.87819 -0.547674,1.30521 -0.112743,0.42702 -0.1126,0.7978 -0.1126,5.71778 0,4.91997 7.2e-5,14.38871 0.0092,19.12832 0.0092,4.73961 0.02619,4.74964 0.04655,4.75459 0.02025,0.005 0.04368,0.005 0.06557,0.005 0.02189,0 0.04225,4e-5 0.103607,0.0137 0.06138,0.0137 0.163473,0.0408 17.040194,0.0544 16.876732,0.0136 50.526649,0.0134 67.378909,-0.002 16.85227,-0.0155 16.90615,-0.0464 16.93924,-0.0682 0.033,-0.0217 0.0455,-0.0342 0.0518,-0.0512 0.006,-0.0172 0.006,-0.0389 0.006,-0.0798 v -4.91636 c 0,-4.81542 -3.6e-4,-14.38572 -0.002,-19.20815 -0.002,-4.82242 -0.005,-4.89665 -0.0407,-5.07177 -0.0359,-0.17512 -0.10437,-0.45146 -0.17128,-0.67931 -0.0669,-0.22784 -0.13265,-0.40755 -0.2067,-0.58414 -0.0741,-0.1766 -0.15645,-0.34985 -0.26747,-0.53499 -0.11106,-0.18513 -0.25075,-0.3817 -0.42874,-0.60529 -0.17798,-0.22358 -0.39411,-0.47409 -0.61481,-0.69199 -0.2207,-0.2179 -0.44605,-0.40332 -0.6867,-0.57992 -0.24065,-0.1766 -0.49664,-0.34477 -0.64759,-0.43454 -0.15095,-0.0898 -0.19664,-0.10097 -0.42448,-0.17075 -0.22788,-0.0698 -0.63796,-0.19772 -1.01818,-0.28177 -0.38023,-0.0841 -0.73052,-0.12396 -1.1022,-0.1496 -0.37168,-0.0257 -0.76471,-0.0374 -2.05588,-0.0375 -1.29121,-1e-4 -3.4806,0.0112 -16.2076,0.027 -1.03994,0.001 -2.72278,0.002 -3.89134,0.004 -0.12984,-0.7608 -0.22481,-1.28678 -0.29868,-1.66997 -0.0878,-0.45541 -0.15955,-0.80097 -0.21991,-1.10275 -0.0604,-0.30179 -0.1094,-0.56015 -0.1533,-0.72476 -0.0439,-0.16461 -0.0825,-0.23579 -0.2416,-0.72688 -0.15912,-0.49108 -0.43885,-1.40155 -0.59524,-1.93377 -0.15642,-0.53223 -0.18947,-0.68602 -0.16757,-0.89181 0.0219,-0.2058 0.0988,-0.46353 0.14272,-0.62538 0.044,-0.16185 0.0548,-0.22787 0.0439,-0.32935 -0.0109,-0.10148 -0.0437,-0.23892 -0.0903,-0.38432 -0.0466,-0.14539 -0.10667,-0.299 -0.19722,-0.46361 -0.0905,-0.16461 -0.21147,-0.33982 -0.32668,-0.50169 -0.11522,-0.16186 -0.22488,-0.30991 -0.33462,-0.48001 -0.10976,-0.1701 -0.21941,-0.36226 -0.3209,-0.5022 -0.10148,-0.13993 -0.19494,-0.22775 -0.28547,-0.33199 -0.0905,-0.10422 -0.17813,-0.22508 -0.26591,-0.32934 -0.0878,-0.10425 -0.17574,-0.1922 -0.2178,-0.26115 -0.0421,-0.069 -0.0383,-0.11873 -0.0169,-0.14379 0.0214,-0.0251 0.0606,-0.0247 0.16916,-0.0111 0.10867,0.0135 0.28674,0.0403 0.46522,0.083 0.17847,0.0427 0.35687,0.10077 0.51014,0.13957 0.15326,0.0389 0.28131,0.0586 0.39964,0.0819 0.11834,0.0233 0.22728,0.0503 0.31454,0.0873 0.0874,0.0369 0.15312,0.0836 0.19772,0.20195 0.0446,0.11836 0.0678,0.30824 0.1163,0.46731 0.0485,0.15907 0.12216,0.28718 0.20565,0.39384 0.0834,0.10668 0.1768,0.19203 0.25638,0.24635 0.0796,0.0543 0.14545,0.0772 0.22308,0.10837 0.0776,0.031 0.16665,0.0703 0.26749,0.10519 0.10087,0.0349 0.21367,0.0659 0.28547,0.0873 0.0718,0.0214 0.10259,0.033 0.30821,0.0951 0.20563,0.0621 0.5858,0.17453 0.92724,0.28124 0.34142,0.10669 0.64426,0.20744 1.01285,0.35102 0.36859,0.14356 0.80269,0.32971 1.21006,0.51595 0.4074,0.18624 0.78763,0.3727 1.08636,0.55507 0.29873,0.18237 0.51611,0.36057 0.77605,0.54291 0.25997,0.18234 0.56295,0.36841 0.7142,0.4615 0.15122,0.0931 0.80277,0.74519 1.0007,0.9082 0.19796,0.16303 0.59378,0.48894 0.90028,0.76443 0.3065,0.27546 0.52355,0.5003 0.71366,0.6904 0.19011,0.19011 0.35325,0.34519 0.50062,0.55084 0.14743,0.20565 0.27922,0.46204 0.39173,0.66767 0.11252,0.20563 0.20571,0.36043 0.28918,0.48847 0.0834,0.12803 0.15734,0.22914 0.23684,0.34943 0.0795,0.12027 0.16463,0.25986 0.2791,0.36846 0.11449,0.1086 0.25786,0.18617 0.40916,0.25798 0.15133,0.0717 0.31037,0.13785 0.47526,0.15911 0.16489,0.0213 0.33592,-0.002 0.49691,-0.037 0.16102,-0.0349 0.31238,-0.0817 0.42873,-0.13797 0.11636,-0.0563 0.19792,-0.12189 0.2638,-0.21887 0.066,-0.097 0.1163,-0.22527 0.157,-0.35524 0.0408,-0.12996 0.0716,-0.26173 0.0778,-0.44405 0.006,-0.18233 -0.0137,-0.41518 -0.037,-0.61693 -0.0233,-0.20174 -0.0502,-0.37203 -0.0677,-0.52917 -0.0175,-0.15715 -0.0256,-0.30101 -0.0449,-0.46784 -0.0193,-0.16683 -0.0502,-0.3567 -0.0676,-0.51965 -0.0175,-0.16296 -0.0211,-0.29875 -0.0327,-0.42873 -0.0116,-0.12997 -0.0312,-0.2543 -0.0719,-0.4483 -0.0407,-0.19398 -0.10285,-0.45787 -0.16495,-0.79929 -0.0621,-0.34142 -0.12434,-0.76019 -0.22519,-1.20636 -0.10086,-0.44619 -0.24046,-0.91952 -0.35684,-1.32689 -0.11639,-0.40738 -0.20942,-0.74876 -0.34521,-1.15614 -0.13579,-0.40737 -0.31404,-0.88091 -0.49639,-1.29993 -0.18233,-0.419 -0.36884,-0.78388 -0.54344,-1.11753 -0.17458,-0.33367 -0.33728,-0.63637 -0.54291,-1.00495 -0.20565,-0.36859 -0.45427,-0.80289 -0.67931,-1.17147 -0.22502,-0.36859 -0.42645,-0.67096 -0.61269,-0.9542 -0.18625,-0.28322 -0.35726,-0.54733 -0.49691,-0.73745 -0.13967,-0.19011 -0.24802,-0.30633 -0.36055,-0.43825 -0.11252,-0.13191 -0.2291,-0.27964 -0.40757,-0.49692 -0.17848,-0.21726 -0.41888,-0.50394 -0.62063,-0.74062 -0.20176,-0.23667 -0.36481,-0.42293 -0.54716,-0.6053 -0.18234,-0.18235 -0.38418,-0.36077 -0.53551,-0.50432 -0.1513,-0.14354 -0.25198,-0.25248 -0.32563,-0.3378 -0.0737,-0.0853 -0.1206,-0.14724 -0.0973,-0.17445 0.0233,-0.0276 0.11691,-0.0202 0.27595,-0.008 0.15907,0.0117 0.38386,0.0273 0.76018,0.0661 0.37636,0.0388 0.90383,0.10076 1.31897,0.16282 0.41515,0.0621 0.71802,0.12433 1.00124,0.19031 0.28323,0.066 0.54709,0.13566 0.84583,0.22097 0.29874,0.0853 0.63224,0.18634 0.87278,0.2601 0.24055,0.0738 0.38808,0.12001 0.58786,0.19295 0.19978,0.0729 0.45203,0.1726 0.72898,0.2881 0.27697,0.11551 0.57868,0.24711 0.84476,0.37058 0.26612,0.12345 0.49649,0.23852 0.68303,0.35102 0.18654,0.11249 0.32915,0.22261 0.50749,0.35154 0.17832,0.12894 0.39225,0.27687 0.59524,0.42503 0.203,0.14815 0.39507,0.29621 0.59263,0.42239 0.19749,0.12618 0.40069,0.23029 0.60369,0.35101 0.20302,0.12073 0.40586,0.25829 0.58414,0.42292 0.17832,0.16462 0.33213,0.35626 0.51596,0.54555 0.18381,0.18929 0.39793,0.37623 0.58998,0.56829 0.19203,0.19205 0.36165,0.38914 0.51804,0.57569 0.1564,0.18656 0.29925,0.36257 0.41448,0.53815 0.11518,0.17558 0.20288,0.35088 0.32086,0.54292 0.11798,0.19204 0.2662,0.40088 0.40338,0.59842 0.13717,0.19753 0.26345,0.38376 0.38694,0.50168 0.1235,0.11792 0.24387,0.16751 0.3468,0.19665 0.10293,0.0295 0.18855,0.0382 0.32618,0.0232 0.1376,-0.0148 0.32763,-0.0539 0.47894,-0.0946 0.1513,-0.0407 0.26373,-0.0833 0.36844,-0.15119 0.10476,-0.0679 0.20179,-0.1612 0.27543,-0.27172 0.0737,-0.11053 0.1238,-0.23834 0.1549,-0.3489 0.0311,-0.11057 0.043,-0.20366 0.0471,-0.29869 0.004,-0.095 -3e-4,-0.19212 -0.009,-0.31824 -0.0102,-0.12612 -0.025,-0.28112 -0.0444,-0.4208 -0.0194,-0.13966 -0.043,-0.26366 -0.0741,-0.44406 -0.031,-0.18041 -0.0695,-0.41745 -0.10255,-0.62115 -0.0331,-0.20368 -0.0605,-0.37432 -0.0915,-0.53921 -0.031,-0.16489 -0.0657,-0.32394 -0.10255,-0.4927 -0.0368,-0.16876 -0.0756,-0.34738 -0.10467,-0.47154 -0.0292,-0.12415 -0.0486,-0.19357 -0.0778,-0.30027 -0.029,-0.10669 -0.0678,-0.25066 -0.10466,-0.37481 -0.0368,-0.12416 -0.072,-0.22853 -0.16758,-0.47895 -0.0955,-0.2504 -0.25176,-0.64644 -0.37375,-0.96793 -0.12199,-0.32149 -0.2098,-0.56875 -0.32775,-0.84582 -0.11799,-0.27709 -0.26614,-0.58419 -0.43349,-0.91615 -0.16735,-0.33195 -0.35404,-0.68865 -0.53234,-1.02609 -0.17832,-0.33745 -0.34797,-0.65573 -0.50433,-0.92459 -0.15637,-0.26885 -0.29931,-0.48846 -0.45569,-0.7052 -0.15636,-0.21674 -0.32629,-0.43043 -0.4964,-0.64442 l -0.31294,-0.34572 -0.24688,-0.32935 c -0.0109,-0.0274 -0.022,-0.0546 0.0137,-0.0766 0.0357,-0.022 0.11809,-0.0388 0.20035,-0.0497 0.0823,-0.011 0.16462,-0.0166 0.24687,-0.0217 l 0.27965,-0.14855 0.16494,-0.14802 0.29602,-0.31295 0.11525,-0.34521 0.0492,-0.18132 -0.0656,-0.47735 -0.4446,-0.77341 -0.41127,-0.70785 -0.2802,-0.26379 0.50698,0.14907 1.1408,0.79191 0.79137,0.58151 0.69834,0.48898 0.69834,0.53552 0.55875,0.41921 0.58204,0.48846 0.44194,0.46574 0.20987,0.20934 0.30239,0.20987 c 0.26722,0.2216 0.53448,0.44327 0.75858,0.63912 0.22415,0.19586 0.40522,0.36595 0.58629,0.53604 l 0.46097,0.46045 c 0.19753,0.20849 0.39544,0.41712 0.56829,0.57622 0.17284,0.15911 0.32052,0.26897 0.46045,0.37322 0.1399,0.10425 0.27172,0.20289 0.43084,0.2659 0.15909,0.0631 0.34564,0.0906 0.5075,0.0988 0.16186,0.008 0.29897,-0.003 0.42237,-0.0386 0.12342,-0.0357 0.23315,-0.0957 0.33462,-0.1808 0.10148,-0.085 0.19491,-0.19478 0.27172,-0.30449 0.0768,-0.10971 0.13717,-0.21923 0.17288,-0.33991 0.0357,-0.12069 0.0463,-0.25268 0.0354,-0.39808 -0.011,-0.14539 -0.0437,-0.30443 -0.1068,-0.48 -0.063,-0.17557 -0.15626,-0.36745 -0.26325,-0.59789 -0.107,-0.23045 -0.22776,-0.49941 -0.34575,-0.73534 -0.11795,-0.23594 -0.2331,-0.43899 -0.32087,-0.60635 -0.0878,-0.16735 -0.14824,-0.2989 -0.2305,-0.46626 -0.0822,-0.16735 -0.18662,-0.37067 -0.28547,-0.57093 -0.0987,-0.20027 -0.19189,-0.3978 -0.29337,-0.57887 -0.10148,-0.18107 -0.21125,-0.34522 -0.31824,-0.51806 -0.10702,-0.17284 -0.21147,-0.35404 -0.29657,-0.54609 -0.0851,-0.19204 -0.15041,-0.39524 -0.33146,-0.7327 -0.18105,-0.33745 -0.47744,-0.80947 -0.73534,-1.24019 -0.25788,-0.43071 -0.47734,-0.82021 -0.66661,-1.13023 -0.18928,-0.31001 -0.3486,-0.54027 -0.51597,-0.80089 -0.16736,-0.26062 -0.34298,-0.55123 -0.50485,-0.80089 -0.16185,-0.24965 -0.30996,-0.45856 -0.46361,-0.68353 -0.15363,-0.22496 -0.31289,-0.46643 -0.48847,-0.70785 -0.17558,-0.24142 -0.36724,-0.48237 -0.64705,-0.82256 -0.27984,-0.34019 -0.64786,-0.7795 -0.94415,-1.13341 -0.29628,-0.3539 -0.52096,-0.62278 -0.7459,-0.91084 -0.22497,-0.28807 -0.44979,-0.5953 -0.66928,-0.88336 -0.21948,-0.28807 -0.43384,-0.55686 -0.71365,-0.86962 -0.27984,-0.31276 -0.62523,-0.66952 -1.02027,-1.06732 -0.39506,-0.39781 -0.83968,-0.83667 -1.19633,-1.17411 -0.35663,-0.33745 -0.62559,-0.57312 -0.89447,-0.81728 -0.26885,-0.24417 -0.53765,-0.49664 -0.75437,-0.67772 -0.21671,-0.18107 -0.38104,-0.29103 -0.87646,-0.68882 -0.49545,-0.39779 -1.32157,-1.08342 -1.91316,-1.55049 -0.59159,-0.46709 -0.94884,-0.71526 -1.28249,-0.92671 -0.33367,-0.21146 -0.64382,-0.38614 -0.92512,-0.55878 -0.28128,-0.17264 -0.53337,-0.34366 -0.77973,-0.49692 -0.24636,-0.15326 -0.4869,-0.2889 -0.69253,-0.40335 -0.20561,-0.11446 -0.37673,-0.20723 -0.62907,-0.34732 -0.25237,-0.1401 -0.58606,-0.32746 -1.00549,-0.53076 -0.41939,-0.20328 -0.92429,-0.42274 -1.25077,-0.55718 -0.32644,-0.13443 -0.47479,-0.18364 -0.63119,-0.23578 -0.15636,-0.0522 -0.32116,-0.1071 -0.45833,-0.15648 -0.13712,-0.0494 -0.24658,-0.0932 -0.10943,-0.0878 0.13717,0.005 0.52124,0.06 0.94099,0.12318 0.41974,0.0631 0.87508,0.13464 1.39086,0.21145 0.51577,0.0768 1.09205,0.15906 1.55843,0.23314 0.46637,0.0741 0.82309,0.13986 1.14133,0.18925 0.31825,0.0494 0.598,0.0825 0.97111,0.16758 0.37312,0.0851 0.83939,0.22202 1.218,0.32352 0.37857,0.10148 0.66921,0.1675 0.91611,0.24159 0.24692,0.0741 0.45014,0.15618 0.63122,0.20829 0.18104,0.0522 0.34027,0.0745 0.50484,0.0471 0.16457,-0.0274 0.3346,-0.10466 0.45252,-0.19242 0.11792,-0.0878 0.18343,-0.18624 0.27118,-0.31243 0.0878,-0.12621 0.19785,-0.2801 0.25269,-0.4282 0.0548,-0.1481 0.0546,-0.29082 0.019,-0.47736 -0.0356,-0.18655 -0.10659,-0.41654 -0.21356,-0.61957 -0.10696,-0.20303 -0.24969,-0.37894 -0.4335,-0.51067 -0.18377,-0.13173 -0.40888,-0.21938 -0.63383,-0.32088 -0.22495,-0.10148 -0.4499,-0.217 -0.78187,-0.39807 -0.33194,-0.18105 -0.77104,-0.4277 -1.39931,-0.75965 -0.62823,-0.33196 -1.44556,-0.74918 -2.2631,-1.16618 l -2.68233,-1.25341 -5.23775,-2.11827 -5.19126,-1.58327 -3.25906,-0.79138 -1.32689,-0.16282 0.65181,-0.62855 0.23314,-0.65181 -0.23314,-0.7216 -0.907666,-0.62855 -1.24548,-0.20934 -2.781696,-0.4541 -1.38504,-0.13956 -0.90821,-0.16336 -1.80372,-0.22097 z"
       sodipodi:nodetypes="csssssssssscsssscsssssssssssssssssssssssssssssscsssssscsscsssssssssssscscssssssssssscssssssssssssssccsssssssccssscscssccsssssssssssccsssssscsssssssssscscsssscscsssssssssssssscsscscsccssssccsssssssssssssssssccsssssssssssssssssssssccssssscscsssccsssssssscccscccccccccccccccccccccsccsscscsssscsssscsssssssssssssssssssssssssssssscsssscsscsssssssssscccccccccccccccc" />
  </g>
</svg>
