<?xml version="1.0" encoding="UTF-8" standalone="no"?>
<svg
   xmlns:dc="http://purl.org/dc/elements/1.1/"
   xmlns:cc="http://creativecommons.org/ns#"
   xmlns:rdf="http://www.w3.org/1999/02/22-rdf-syntax-ns#"
   xmlns:svg="http://www.w3.org/2000/svg"
   xmlns="http://www.w3.org/2000/svg"
   xmlns:sodipodi="http://sodipodi.sourceforge.net/DTD/sodipodi-0.dtd"
   xmlns:inkscape="http://www.inkscape.org/namespaces/inkscape"
   width="210mm"
   height="297mm"
   viewBox="0 0 210 297"
   version="1.1"
   id="svg8"
   inkscape:version="1.0.1 (3bc2e813f5, 2020-09-07)"
   sodipodi:docname="PCB_outline.svg">
  <defs
     id="defs2">
    <inkscape:path-effect
       effect="bspline"
       id="path-effect947"
       is_visible="true"
       lpeversion="1"
       weight="33.333333"
       steps="2"
       helper_size="0"
       apply_no_weight="true"
       apply_with_weight="true"
       only_selected="false" />
    <inkscape:path-effect
       effect="bspline"
       id="path-effect929"
       is_visible="true"
       lpeversion="1"
       weight="33.333333"
       steps="2"
       helper_size="0"
       apply_no_weight="true"
       apply_with_weight="true"
       only_selected="false" />
    <inkscape:path-effect
       effect="bspline"
       id="path-effect925"
       is_visible="true"
       lpeversion="1"
       weight="33.333333"
       steps="2"
       helper_size="0"
       apply_no_weight="true"
       apply_with_weight="true"
       only_selected="false" />
    <inkscape:path-effect
       effect="bspline"
       id="path-effect921"
       is_visible="true"
       lpeversion="1"
       weight="33.333333"
       steps="2"
       helper_size="0"
       apply_no_weight="true"
       apply_with_weight="true"
       only_selected="false" />
    <inkscape:path-effect
       effect="bspline"
       id="path-effect917"
       is_visible="true"
       lpeversion="1"
       weight="33.333333"
       steps="2"
       helper_size="0"
       apply_no_weight="true"
       apply_with_weight="true"
       only_selected="false" />
    <inkscape:path-effect
       effect="bspline"
       id="path-effect913"
       is_visible="true"
       lpeversion="1"
       weight="33.333333"
       steps="2"
       helper_size="0"
       apply_no_weight="true"
       apply_with_weight="true"
       only_selected="false" />
    <inkscape:path-effect
       effect="bspline"
       id="path-effect907"
       is_visible="true"
       lpeversion="1"
       weight="33.333333"
       steps="2"
       helper_size="0"
       apply_no_weight="true"
       apply_with_weight="true"
       only_selected="false" />
    <inkscape:path-effect
       effect="bspline"
       id="path-effect903"
       is_visible="true"
       lpeversion="1"
       weight="33.333333"
       steps="2"
       helper_size="0"
       apply_no_weight="true"
       apply_with_weight="true"
       only_selected="false" />
    <inkscape:path-effect
       effect="bspline"
       id="path-effect899"
       is_visible="true"
       lpeversion="1"
       weight="33.333333"
       steps="2"
       helper_size="0"
       apply_no_weight="true"
       apply_with_weight="true"
       only_selected="false" />
    <inkscape:path-effect
       effect="bspline"
       id="path-effect895"
       is_visible="true"
       lpeversion="1"
       weight="33.333333"
       steps="2"
       helper_size="0"
       apply_no_weight="true"
       apply_with_weight="true"
       only_selected="false" />
    <inkscape:path-effect
       effect="bspline"
       id="path-effect890"
       is_visible="true"
       lpeversion="1"
       weight="33.333333"
       steps="2"
       helper_size="0"
       apply_no_weight="true"
       apply_with_weight="true"
       only_selected="false" />
    <inkscape:path-effect
       effect="bspline"
       id="path-effect886"
       is_visible="true"
       lpeversion="1"
       weight="33.333333"
       steps="2"
       helper_size="0"
       apply_no_weight="true"
       apply_with_weight="true"
       only_selected="false" />
    <inkscape:path-effect
       effect="bspline"
       id="path-effect882"
       is_visible="true"
       lpeversion="1"
       weight="33.333333"
       steps="2"
       helper_size="0"
       apply_no_weight="true"
       apply_with_weight="true"
       only_selected="false" />
    <inkscape:path-effect
       effect="bspline"
       id="path-effect863"
       is_visible="true"
       lpeversion="1"
       weight="33.333333"
       steps="2"
       helper_size="0"
       apply_no_weight="true"
       apply_with_weight="true"
       only_selected="false" />
    <inkscape:path-effect
       effect="bspline"
       id="path-effect859"
       is_visible="true"
       lpeversion="1"
       weight="33.333333"
       steps="2"
       helper_size="0"
       apply_no_weight="true"
       apply_with_weight="true"
       only_selected="false" />
    <inkscape:path-effect
       effect="bspline"
       id="path-effect855"
       is_visible="true"
       lpeversion="1"
       weight="33.333333"
       steps="2"
       helper_size="0"
       apply_no_weight="true"
       apply_with_weight="true"
       only_selected="false" />
    <inkscape:path-effect
       effect="bspline"
       id="path-effect851"
       is_visible="true"
       lpeversion="1"
       weight="33.333333"
       steps="2"
       helper_size="0"
       apply_no_weight="true"
       apply_with_weight="true"
       only_selected="false" />
    <inkscape:path-effect
       effect="bspline"
       id="path-effect847"
       is_visible="true"
       lpeversion="1"
       weight="33.333333"
       steps="2"
       helper_size="0"
       apply_no_weight="true"
       apply_with_weight="true"
       only_selected="false" />
    <inkscape:path-effect
       effect="bspline"
       id="path-effect843"
       is_visible="true"
       lpeversion="1"
       weight="33.333333"
       steps="2"
       helper_size="0"
       apply_no_weight="true"
       apply_with_weight="true"
       only_selected="false" />
    <inkscape:path-effect
       effect="bspline"
       id="path-effect849"
       is_visible="true"
       lpeversion="1"
       weight="33.333333"
       steps="2"
       helper_size="0"
       apply_no_weight="true"
       apply_with_weight="true"
       only_selected="false" />
  </defs>
  <sodipodi:namedview
     id="base"
     pagecolor="#ffffff"
     bordercolor="#666666"
     borderopacity="1.0"
     inkscape:pageopacity="0.0"
     inkscape:pageshadow="2"
     inkscape:zoom="0.98994949"
     inkscape:cx="493.78295"
     inkscape:cy="450.01531"
     inkscape:document-units="mm"
     inkscape:current-layer="layer1"
     inkscape:document-rotation="0"
     showgrid="false"
     inkscape:window-width="1366"
     inkscape:window-height="705"
     inkscape:window-x="-8"
     inkscape:window-y="-8"
     inkscape:window-maximized="1" />
  <metadata
     id="metadata5">
    <rdf:RDF>
      <cc:Work
         rdf:about="">
        <dc:format>image/svg+xml</dc:format>
        <dc:type
           rdf:resource="http://purl.org/dc/dcmitype/StillImage" />
        <dc:title />
      </cc:Work>
    </rdf:RDF>
  </metadata>
  <g
     inkscape:label="Layer 1"
     inkscape:groupmode="layer"
     id="layer1">
    <path
       style="fill:none;stroke:#000000;stroke-width:0.130361px;stroke-linecap:butt;stroke-linejoin:miter;stroke-opacity:1"
       d="m 74.885382,147.21096 c -0.186158,-0.14349 -0.558613,-0.43059 -0.698376,-0.64401 -0.139762,-0.21342 -0.04663,-0.35313 0.05812,-0.57038 0.104748,-0.21724 0.221143,-0.5121 0.403498,-0.87682 0.182356,-0.36472 0.430657,-0.79925 0.69061,-1.21052 0.259953,-0.41127 0.531529,-0.79923 0.748804,-1.09799 0.217274,-0.29875 0.38022,-0.50825 0.581972,-0.74881 0.201752,-0.24055 0.442299,-0.51214 0.616903,-0.6945 0.174603,-0.18236 0.283234,-0.27547 0.28328,-0.31814 4.7e-5,-0.0427 -0.108571,-0.0349 -0.259888,-0.0233 -0.151316,0.0116 -0.345312,0.0271 -0.550962,0.0698 -0.205651,0.0427 -0.422914,0.1125 -0.675128,0.2483 -0.252214,0.1358 -0.53931,0.33754 -0.775978,0.50825 -0.236669,0.17072 -0.422905,0.31039 -0.58584,0.42678 -0.162936,0.11638 -0.302626,0.20951 -0.446186,0.31815 -0.143561,0.10864 -0.290997,0.23279 -0.360833,0.24835 -0.06983,0.0156 -0.06207,-0.0775 -0.02715,-0.19005 0.03492,-0.11255 0.09699,-0.24446 0.178466,-0.38027 0.08147,-0.1358 0.182364,-0.27549 0.236689,-0.38406 0.05432,-0.10856 0.0621,-0.18619 -0.01933,-0.18627 -0.08143,-7e-5 -0.252147,0.0775 -0.442282,0.21333 -0.190136,0.13581 -0.399644,0.3298 -0.570364,0.5044 -0.17072,0.1746 -0.302627,0.32978 -0.426788,0.49663 -0.12416,0.16684 -0.240548,0.34531 -0.33367,0.55097 -0.09312,0.20567 -0.162954,0.43843 -0.201751,0.62467 -0.0388,0.18624 -0.04657,0.32594 -0.05822,0.47337 -0.01165,0.14743 -0.02716,0.30261 -0.03492,0.42675 -0.0078,0.12414 -0.0078,0.21731 -0.04647,0.2367 -0.03872,0.0194 -0.11633,-0.0349 -0.213313,-0.0932 -0.09698,-0.0582 -0.21339,-0.12029 -0.349191,-0.21339 -0.1358,-0.0931 -0.290986,-0.21725 -0.465574,-0.33754 -0.174588,-0.12028 -0.368577,-0.23667 -0.50824,-0.32589 -0.139663,-0.0892 -0.225054,-0.15131 -0.329795,-0.22503 -0.104742,-0.0737 -0.228907,-0.15907 -0.259999,-0.097 -0.03109,0.0621 0.03099,0.27161 0.116348,0.51604 0.08536,0.24443 0.194,0.52378 0.333694,0.7876 0.139694,0.26382 0.3104,0.51212 0.53933,0.76042 0.22893,0.24829 0.516023,0.49659 0.81866,0.70609 0.302637,0.20949 0.62077,0.3802 0.935031,0.51597 0.314261,0.13578 0.624656,0.23665 0.93115,0.31035 0.306495,0.0737 0.609119,0.12026 0.853518,0.12024 0.244399,-2e-5 0.430642,-0.0466 0.523711,-0.0931 0.09307,-0.0465 0.09307,-0.0931 0.07376,-0.128 -0.01931,-0.0349 -0.05808,-0.0582 -0.07759,-0.0699 -0.0195,-0.0117 -0.01955,-0.0116 -0.205711,-0.15511 z"
       id="path893"
       inkscape:path-effect="#path-effect895"
       inkscape:original-d="m 75.071539,147.35446 c -0.372325,-0.28698 -0.744782,-0.57408 -1.117373,-0.86131 0.09319,-0.13955 0.186357,-0.27923 0.279336,-0.41903 0.116528,-0.29473 0.232922,-0.58959 0.349184,-0.88458 0.248442,-0.43442 0.49674,-0.86895 0.744925,-1.30362 0.271714,-0.38786 0.543296,-0.77582 0.814754,-1.16393 0.163084,-0.20939 0.326035,-0.41889 0.488852,-0.62853 0.240677,-0.27146 0.481231,-0.54304 0.721642,-0.81476 0.108764,-0.093 0.217404,-0.1861 0.325902,-0.27934 -0.108508,0.008 -0.217138,0.0156 -0.325902,0.0233 -0.193865,0.0156 -0.387853,0.0312 -0.581964,0.0465 -0.217148,0.07 -0.434419,0.13981 -0.651813,0.20951 -0.286977,0.20189 -0.574077,0.40363 -0.86131,0.60525 -0.1861,0.1398 -0.372334,0.27948 -0.558691,0.41902 -0.139545,0.0932 -0.279212,0.18636 -0.419013,0.27934 -0.147309,0.12428 -0.294742,0.24844 -0.442296,0.37246 0.0082,-0.093 0.01565,-0.18609 0.02332,-0.27935 0.0622,-0.13178 0.124282,-0.26369 0.186223,-0.39573 0.100968,-0.13955 0.201886,-0.27922 0.302629,-0.41902 0.0082,-0.0774 0.01565,-0.15506 0.02332,-0.23279 -0.170582,0.0777 -0.341287,0.15533 -0.512125,0.23279 -0.209384,0.19412 -0.418891,0.38811 -0.62853,0.58197 -0.131781,0.15533 -0.263694,0.31051 -0.395741,0.46558 -0.116262,0.1786 -0.232657,0.35706 -0.349174,0.53541 -0.06977,0.23292 -0.139545,0.4657 -0.209517,0.69836 -0.0072,0.1398 -0.01534,0.27948 -0.02332,0.41902 -0.01545,0.15532 -0.03089,0.31051 -0.04655,0.46557 1.23e-4,0.0932 1.23e-4,0.18637 0,0.27935 -0.07744,-0.0542 -0.155063,-0.10851 -0.232789,-0.16295 -0.116272,-0.0619 -0.232657,-0.12403 -0.349185,-0.18624 -0.155064,-0.12402 -0.31025,-0.24817 -0.465569,-0.37246 -0.193865,-0.11626 -0.387853,-0.23265 -0.581974,-0.34917 -0.08522,-0.0619 -0.170583,-0.12404 -0.256063,-0.18623 -0.124026,-0.0852 -0.248175,-0.17059 -0.372467,-0.25608 0.0622,0.20965 0.124292,0.41915 0.186233,0.62853 0.108764,0.27948 0.217404,0.55883 0.325902,0.83804 0.170848,0.24844 0.341553,0.49674 0.512135,0.74492 0.287243,0.24844 0.574343,0.49673 0.86131,0.74492 0.31828,0.17085 0.636417,0.34155 0.954431,0.51214 0.310516,0.10096 0.620899,0.20187 0.931149,0.30261 0.302762,0.0466 0.60538,0.0932 0.907876,0.13968 0.186356,-0.0464 0.37259,-0.093 0.558691,-0.13968 1.23e-4,-0.0464 1.23e-4,-0.093 0,-0.13967 -0.03867,-0.0231 -0.07744,-0.0464 -0.116395,-0.0699 z" />
    <path
       style="fill:none;stroke:#000000;stroke-width:0.130361px;stroke-linecap:butt;stroke-linejoin:miter;stroke-opacity:1"
       d="m 79.616675,135.29362 c 0.0384,-0.29076 0.115216,-0.87236 0.18106,-1.41556 0.06584,-0.5432 0.120713,-1.04798 0.142664,-1.6241 0.02195,-0.57611 0.01097,-1.22356 0.0055,-1.72835 -0.0055,-0.5048 -0.0055,-0.86691 -0.04937,-1.26745 -0.04388,-0.40053 -0.131661,-0.83947 -0.213965,-1.27843 -0.08231,-0.43896 -0.15912,-0.8779 -0.241421,-1.2949 -0.0823,-0.417 -0.170092,-0.81205 -0.214004,-1.05349 -0.04391,-0.24145 -0.04391,-0.32921 0.01653,-0.3402 0.06044,-0.011 0.181137,0.0548 0.263406,0.1317 0.08227,0.0769 0.126149,0.16461 0.13709,0.0933 0.01094,-0.0713 -0.01102,-0.30177 -0.05492,-0.66939 -0.0439,-0.36762 -0.10974,-0.87241 -0.181063,-1.30587 -0.07132,-0.43346 -0.148139,-0.79559 -0.241407,-1.1632 -0.09327,-0.36762 -0.203005,-0.74072 -0.340175,-1.18517 -0.13717,-0.44444 -0.301768,-0.96019 -0.438944,-1.41012 -0.137176,-0.44993 -0.246912,-0.834 -0.356647,-1.18516 -0.109734,-0.35115 -0.219467,-0.66938 -0.290803,-0.9108 -0.07134,-0.24142 -0.104244,-0.40604 0.03298,-0.31277 0.137226,0.0933 0.444483,0.44443 0.696869,0.76267 0.252387,0.31825 0.449906,0.60356 0.652915,0.94376 0.203009,0.3402 0.411501,0.73524 0.548651,1.05348 0.137151,0.31824 0.202989,0.55965 0.296279,0.82851 0.09329,0.26886 0.214003,0.56515 0.312758,0.83948 0.09876,0.27434 0.175574,0.52673 0.23592,0.78462 0.06035,0.25789 0.104237,0.52124 0.159113,0.79011 0.05488,0.26886 0.120717,0.5432 0.175574,0.91631 0.05486,0.37311 0.09875,0.84496 0.142657,1.19613 0.04391,0.35117 0.0878,0.58159 0.104238,0.80655 0.01644,0.22495 0.0055,0.44442 -0.01097,0.53222 -0.01643,0.0878 -0.0384,0.0439 -0.07679,-0.0274 -0.0384,-0.0713 -0.09328,-0.17009 -0.159109,-0.26886 -0.06583,-0.0988 -0.142633,-0.19752 -0.170114,-0.0823 -0.02748,0.11522 -0.0055,0.44443 -3.8e-5,0.74071 0.0055,0.29628 -0.0055,0.55965 -0.0055,0.87241 5e-6,0.31277 0.01098,0.67489 0.01647,1.05349 0.0055,0.37859 0.0055,0.77363 0.0055,1.17417 0,0.40055 0,0.80657 -0.0055,1.23455 -0.0055,0.42798 -0.01647,0.87789 -0.0494,1.23452 -0.03293,0.35663 -0.0878,0.62 -0.15913,0.9547 -0.07133,0.33471 -0.159118,0.74072 -0.252396,1.06443 -0.09328,0.3237 -0.192045,0.56514 -0.285306,0.7297 -0.09326,0.16457 -0.181061,0.25237 -0.241385,0.25243 -0.06032,6e-5 -0.09322,-0.0877 -0.109704,-0.13167 -0.01648,-0.044 -0.0165,-0.044 0.0219,-0.33472 z"
       id="path897"
       inkscape:path-effect="#path-effect899"
       inkscape:original-d="m 79.578274,135.58437 c 0.07693,-0.58149 0.153754,-1.16309 0.230447,-1.74483 0.05493,-0.50467 0.109858,-1.00945 0.164608,-1.51436 -0.01084,-0.64733 -0.02179,-1.29478 -0.03294,-1.94236 1.43e-4,-0.36201 1.43e-4,-0.72412 0,-1.08639 -0.08767,-0.43882 -0.175441,-0.87776 -0.263356,-1.31685 -0.07672,-0.43882 -0.153509,-0.87777 -0.230448,-1.31684 -0.08767,-0.39493 -0.175451,-0.78998 -0.263376,-1.18515 1.33e-4,-0.0877 1.33e-4,-0.17546 0,-0.26338 0.120844,0.066 0.241556,0.13181 0.362135,0.19753 0.04409,0.0879 0.08787,0.17571 0.131689,0.26337 -0.02179,-0.23033 -0.04378,-0.46077 -0.06588,-0.69135 -0.06568,-0.50467 -0.131556,-1.00945 -0.197528,-1.51437 -0.07672,-0.362 -0.153498,-0.72414 -0.230447,-1.0864 -0.109613,-0.37297 -0.219338,-0.74608 -0.329206,-1.11931 -0.164485,-0.51565 -0.329083,-1.0314 -0.493813,-1.5473 -0.109613,-0.38396 -0.219348,-0.76803 -0.329216,-1.15224 -0.109613,-0.31811 -0.219348,-0.63633 -0.329216,-0.95471 -0.03274,-0.16447 -0.06568,-0.32908 -0.09872,-0.49382 0.307396,0.3513 0.614658,0.70245 0.921788,1.05348 0.197661,0.28545 0.395178,0.57076 0.592583,0.85596 0.208637,0.39519 0.417131,0.79023 0.625492,1.18515 0.06598,0.24156 0.131821,0.48297 0.197527,0.72427 0.120845,0.29642 0.241557,0.59271 0.362136,0.88886 0.07693,0.25253 0.153764,0.50492 0.230457,0.75719 0.04409,0.2635 0.08787,0.52687 0.131678,0.7901 0.06598,0.27449 0.131811,0.54883 0.197528,0.82303 0.04409,0.47202 0.08787,0.94388 0.131688,1.41561 0.04409,0.23059 0.08787,0.46103 0.131688,0.69134 -0.01084,0.21962 -0.02179,0.43909 -0.03294,0.65843 -0.02179,-0.0438 -0.04378,-0.0877 -0.06588,-0.13169 -0.05473,-0.0986 -0.109602,-0.1974 -0.164608,-0.29629 -0.07672,-0.0986 -0.153488,-0.19738 -0.230436,-0.29628 0.0221,0.32934 0.04409,0.65855 0.06588,0.98762 -0.01084,0.26351 -0.02179,0.52688 -0.03294,0.79011 0.01115,0.36228 0.0221,0.72441 0.03294,1.0864 1.33e-4,0.3952 1.33e-4,0.79024 0,1.18516 1.33e-4,0.40617 1.33e-4,0.81219 0,1.21809 -0.01084,0.45006 -0.02179,0.89997 -0.03294,1.34976 -0.05473,0.2635 -0.109603,0.52687 -0.164598,0.7901 -0.08767,0.40618 -0.175462,0.81219 -0.263377,1.2181 -0.09862,0.24154 -0.197394,0.48297 -0.296286,0.72426 -0.08767,0.0879 -0.175452,0.17571 -0.263377,0.26336 -0.03274,-0.0877 -0.06567,-0.17545 -0.09872,-0.26336 z" />
    <path
       id="path905"
       style="fill:none;stroke:#000000;stroke-width:0.130361px;stroke-linecap:butt;stroke-linejoin:miter;stroke-opacity:1"
       d="m 90.837291,139.46906 c -0.01637,-0.40041 -0.03273,-0.80094 -0.04941,-1.20163 0.0221,-0.35652 0.04409,-0.71316 0.06588,-1.06993 -0.0051,-0.23033 -0.01084,-0.46076 -0.01647,-0.69134 -0.09309,-0.63088 -0.186428,-1.26185 -0.279826,-1.89297 -0.03826,-0.3236 -0.07672,-0.64731 -0.115229,-0.97118 -0.06025,-0.21934 -0.120578,-0.43881 -0.181057,-0.65841 -0.137049,-0.37847 -0.274221,-0.75706 -0.411515,-1.13579 -0.27422,-0.58148 -0.548564,-1.16307 -0.82304,-1.7448 -0.191901,-0.21936 -0.383945,-0.43883 -0.576112,-0.65843 -0.08767,-0.0877 -0.175452,-0.17546 -0.263367,-0.26337 -0.191922,-0.15351 -0.383956,-0.30713 -0.576123,-0.4609 -0.180945,-0.12058 -0.362002,-0.2413 -0.543203,-0.36213 -0.08214,-0.0327 -0.164475,-0.0657 -0.246907,-0.0987 0.0221,0.17571 0.04409,0.35128 0.06588,0.52673 0.07693,0.24704 0.153775,0.49395 0.230457,0.74074 0.126328,0.32934 0.252523,0.65854 0.378596,0.98762 0.09892,0.45006 0.19765,0.89997 0.296286,1.34977 0.06046,0.22509 0.120834,0.45005 0.181057,0.67488 0.04409,0.22509 0.08788,0.45006 0.131689,0.67489 0.126328,0.38421 0.252533,0.76828 0.378595,1.15223 -0.03274,0.20864 0.01657,0.56528 -0.01647,0.77365 0.01657,0.23608 0.01657,0.68599 0.03294,0.92179 -0.126072,-0.30714 -0.318106,-0.97653 -0.444434,-1.28392 -0.120579,-0.24679 -0.241291,-0.49368 -0.362126,-0.74073 -0.131555,-0.24678 -0.263243,-0.49368 -0.395055,-0.74072 -0.159002,-0.30166 -0.318116,-0.60343 -0.477364,-0.90534 -0.175441,-0.20837 -0.351026,-0.41687 -0.526733,-0.62549 -0.197405,-0.29068 -0.378462,-0.51564 -0.576123,-0.80657 -0.378462,-0.37848 -0.773517,-0.8229 -1.152235,-1.20163 -0.334576,-0.24677 -0.669265,-0.49368 -1.004097,-0.74072 -0.285187,-0.14801 -0.570497,-0.29615 -0.85595,-0.44443 -0.301646,-0.10412 -0.603416,-0.20836 -0.905328,-0.31275 -0.263244,-0.0164 -0.526611,-0.0328 -0.79011,-0.0494 m 0,0 c 0.219603,-0.0877 0.439084,-0.17544 0.658421,-0.26336 0.268993,-0.0986 0.537843,-0.19739 0.80657,-0.29629 0.170224,-0.0492 0.340316,-0.0986 0.510274,-0.14815 0.208637,-0.0273 0.417141,-0.0547 0.625512,-0.0824 0.197661,-0.0383 0.395178,-0.0767 0.592572,-0.11522 0.192178,-0.0164 0.384212,-0.0328 0.576123,-0.0494 0.07693,1.3e-4 0.153765,1.3e-4 0.230447,0 -0.09861,-0.12058 -0.197394,-0.24129 -0.296286,-0.36212 -0.142542,-0.19742 -0.285187,-0.39493 -0.427985,-0.59259 -0.153498,-0.23581 -0.307129,-0.47174 -0.460884,-0.70781 -0.159002,-0.14253 -0.318116,-0.28518 -0.477364,-0.42797 -0.197394,-0.1919 -0.394922,-0.38395 -0.592582,-0.57612 -0.104119,-0.1151 -0.208371,-0.23032 -0.312746,-0.34567 -0.224831,-0.20837 -0.449795,-0.41688 -0.674882,-0.6255 -0.137049,-0.0712 -0.27421,-0.14252 -0.411515,-0.21398 -0.09861,-0.0657 -0.197394,-0.13156 -0.296286,-0.19754 -0.08214,-0.0547 -0.164485,-0.1096 -0.246917,-0.16459 0.09892,-0.0109 0.197661,-0.0219 0.296297,-0.0329 0.06056,1.3e-4 0.120834,1.3e-4 0.181067,0 0.225087,0.0166 0.450051,0.033 0.674882,0.0494 0.225097,0.0495 0.45005,0.0989 0.674881,0.14814 0.153765,0.0385 0.307386,0.0769 0.460894,0.11522 0.153765,0.0769 0.307396,0.15377 0.460895,0.23045 0.109868,0.0495 0.219603,0.0989 0.329215,0.14814 0.159248,0.10438 0.318363,0.20864 0.477354,0.31275 0.05494,0.0221 0.109869,0.0441 0.164608,0.0659 0.0221,1.5e-4 0.04409,1.5e-4 0.06588,0 0.0221,-0.0383 0.04409,-0.0767 0.06588,-0.11522 1.33e-4,-0.12607 1.33e-4,-0.25225 0,-0.37859 -0.04921,-0.1535 -0.09861,-0.30713 -0.148138,-0.46089 -0.04378,-0.10961 -0.08767,-0.21935 -0.131688,-0.32921 -0.0712,-0.10413 -0.142532,-0.20837 -0.213987,-0.31276 -0.0712,-0.12607 -0.142532,-0.25225 -0.213988,-0.37859 -0.06567,-0.0986 -0.131555,-0.1974 -0.197527,-0.29629 -0.30714,-0.31262 -0.614393,-0.62537 -0.921788,-0.93825 -0.137049,-0.20288 -0.274221,-0.40589 -0.411515,-0.60904 -0.131556,-0.12059 -0.263244,-0.24129 -0.395055,-0.36213 -0.164475,-0.13705 -0.329083,-0.27421 -0.493824,-0.41152 -0.109602,-0.10412 -0.219338,-0.20837 -0.329206,-0.31274 -0.104119,-0.13705 -0.208371,-0.27423 -0.312746,-0.41152 -0.126072,-0.10413 -0.252267,-0.20837 -0.378595,-0.31275 -0.131556,-0.0821 -0.263234,-0.16448 -0.395055,-0.24691 -0.120579,-0.1096 -0.241291,-0.21934 -0.362125,-0.32921 -0.04921,-0.0602 -0.09862,-0.12058 -0.148149,-0.18107 0.137305,0.0275 0.274477,0.0549 0.411515,0.0824 0.23058,0.0989 0.461027,0.19766 0.691341,0.2963 0.2635,0.11535 0.526867,0.23057 0.7901,0.34567 0.24705,0.13182 0.493947,0.2635 0.740731,0.39505 0.241557,0.12085 0.48297,0.24155 0.724261,0.36214 0.23059,0.12632 0.461027,0.25252 0.691351,0.37859 0.181201,0.0824 0.362259,0.16473 0.543193,0.2469 0.203144,0.11536 0.406155,0.23059 0.609043,0.34568 0.175707,0.12633 0.351291,0.25253 0.526743,0.37859 0.164731,0.0934 0.329339,0.18668 0.493814,0.27983 0.142788,0.088 0.285442,0.17571 0.427974,0.26336 0.137305,0.0989 0.274477,0.19766 0.411505,0.2963 0.164741,0.10987 0.329349,0.2196 0.493824,0.3292 0.104385,0.10988 0.208627,0.21962 0.312756,0.32922 0.296419,0.25802 0.592705,0.51589 0.888869,0.77365 0.203143,0.23058 0.406154,0.46102 0.609042,0.69134 0.186684,0.21961 0.373225,0.43909 0.559653,0.65842 0.131821,0.20315 0.263499,0.40616 0.395055,0.60905 0.08245,0.15924 0.164731,0.31836 0.246907,0.47735 0.0934,0.19218 0.186684,0.38421 0.279836,0.57612 0.07693,0.17023 0.153755,0.34032 0.230437,0.51028 0.03304,0.0934 0.06598,0.18668 0.09882,0.27983 0.05493,0.16473 0.109868,0.32933 0.164608,0.49382 0.06598,0.22508 0.131811,0.45005 0.197528,0.67487 0.03857,0.16475 0.07693,0.32935 0.115218,0.49382 0.02762,0.0934 0.05493,0.18669 0.08235,0.27983 0.06046,0.51041 0.120835,1.02069 0.181068,1.53084 0.03857,0.29093 0.07693,0.58173 0.115218,0.87241 0.05504,0.23606 0.109858,0.47199 0.164598,0.7078 1.43e-4,0.2251 1.43e-4,0.45005 0,0.67488 -0.0051,0.0934 -0.01084,0.18668 -0.01647,0.27984 -0.04921,0.87255 -0.09861,1.74494 -0.148138,2.61722 -0.02179,0.21411 -0.04378,0.42811 -0.06588,0.64196 -0.03274,0.14828 -0.06567,0.29642 -0.09882,0.44444 -0.04378,0.47749 -0.08767,0.95484 -0.131678,1.43207 -0.08215,0.18669 -0.164485,0.37323 -0.246917,0.55965 -0.04921,0.23608 -0.09862,0.47201 -0.148138,0.70781 -0.03826,0.15377 -0.07672,0.30739 -0.115229,0.46089"
       sodipodi:nodetypes="ccccccccccccccccccccccccccccccccccccccccccccccccccccccccccccccccccccccccccccccccccccccccccccccccccccccccccccccccccccc" />
    <path
       style="fill:none;stroke:#000000;stroke-width:0.130361px;stroke-linecap:butt;stroke-linejoin:miter;stroke-opacity:1"
       d="m 89.674065,117.09371 c 0.05486,-0.21943 0.164596,-0.65837 0.224966,-1.17961 0.06037,-0.52124 0.07135,-1.12478 0.07684,-1.72285 0.0055,-0.59807 0.0055,-1.19064 -0.0713,-1.70091 -0.07679,-0.51027 -0.23042,-0.93824 -0.40052,-1.50888 -0.170099,-0.57064 -0.356646,-1.28392 -0.493781,-1.69544 -0.137136,-0.41152 -0.224922,-0.52125 -0.268878,-0.60354 -0.04395,-0.0823 -0.04395,-0.13719 0.131702,-0.14274 0.175658,-0.006 0.526817,0.0384 0.757266,0.0878 0.230448,0.0494 0.340184,0.10428 0.345631,0.0275 0.0054,-0.0768 -0.09332,-0.28528 -0.279855,-0.55964 -0.186535,-0.27435 -0.460871,-0.61453 -0.674858,-0.8779 -0.213988,-0.26337 -0.367619,-0.44992 -0.669386,-0.71331 -0.301767,-0.26338 -0.751678,-0.60356 -1.091861,-0.82854 -0.340182,-0.22499 -0.570619,-0.33472 -0.83948,-0.44995 -0.268862,-0.11523 -0.57612,-0.23594 -0.784611,-0.31275 -0.20849,-0.0768 -0.318254,-0.10972 -0.400558,-0.13166 -0.0823,-0.0219 -0.137172,-0.0329 -0.06037,0.0879 0.0768,0.12077 0.285297,0.37315 0.444411,0.58166 0.159114,0.20851 0.268849,0.37311 0.351172,0.47734 0.08232,0.10424 0.137188,0.14813 0.0055,0.0987 -0.131676,-0.0494 -0.449917,-0.19207 -0.740722,-0.30181 -0.290805,-0.10975 -0.554166,-0.18657 -0.844964,-0.27436 -0.290798,-0.0878 -0.609037,-0.18655 -0.877903,-0.24694 -0.268866,-0.0604 -0.488339,-0.0824 -0.55971,0.0165 -0.07137,0.0988 0.0054,0.3183 0.09326,0.50486 0.08781,0.18656 0.186563,0.34017 0.312774,0.49929 0.12621,0.15911 0.279845,0.32371 0.1372,0.29076 -0.142646,-0.0329 -0.581598,-0.26339 -0.979737,-0.43071 -0.398139,-0.16731 -0.755446,-0.27145 -1.135885,-0.29833 -0.380439,-0.0269 -0.783915,0.0236 -1.071055,0.0895 -0.28714,0.066 -0.457848,0.14742 -0.673148,0.21532 -0.215301,0.0679 -0.475264,0.12221 -0.741006,0.14164 -0.265743,0.0194 -0.53733,0.004 -0.754598,-0.004 -0.217269,-0.008 -0.38023,-0.008 -0.457882,0.0816 -0.07765,0.0893 -0.06988,0.26776 -0.03493,0.44236 0.03495,0.1746 0.09703,0.34532 0.213449,0.55094 0.11642,0.20563 0.287128,0.44618 0.455903,0.67315 0.168776,0.22697 0.3356,0.44035 0.527658,0.66149 0.192058,0.22114 0.409319,0.45004 0.826414,0.81474 0.417095,0.3647 1.033971,0.86518 1.489855,1.17942 0.455885,0.31424 0.750748,0.44228 1.037847,0.60525 0.2871,0.16297 0.566444,0.36083 0.814751,0.52184 0.248307,0.161 0.465581,0.28516 0.682851,0.38796 0.217271,0.1028 0.434533,0.18427 0.638214,0.27545 0.203682,0.0912 0.393805,0.19206 0.535451,0.26191 0.141646,0.0698 0.234683,0.10861 0.211397,0.0602 -0.02329,-0.0485 -0.162952,-0.18426 -0.345316,-0.39183 -0.182365,-0.20757 -0.407381,-0.4869 -0.618831,-0.73715 -0.21145,-0.25025 -0.409319,-0.4714 -0.566441,-0.62854 -0.157122,-0.15715 -0.273509,-0.25026 -0.384106,-0.37246 -0.110596,-0.1222 -0.215344,-0.2735 -0.170687,-0.32011 0.04466,-0.0466 0.238617,0.0116 0.438431,0.0814 0.199813,0.0699 0.405434,0.15132 0.800732,0.3712 0.395298,0.21987 0.980238,0.57808 1.420853,0.89987 0.440616,0.32179 0.736893,0.6071 1.016728,0.87321 0.279835,0.26612 0.543205,0.51303 0.770897,0.77367 0.227692,0.26064 0.419724,0.53497 0.611759,0.82852 0.192035,0.29355 0.384068,0.6063 0.548669,0.88887 0.1646,0.28258 0.301774,0.53498 0.455408,0.82578 0.153634,0.29081 0.323725,0.62001 0.41972,0.8724 0.096,0.25239 0.117952,0.42796 0.128924,0.51568 0.01097,0.0877 0.01087,0.0877 0.06573,-0.13178 z"
       id="path911"
       inkscape:path-effect="#path-effect913"
       inkscape:original-d="m 89.619207,117.31314 c 0.109868,-0.43882 0.219613,-0.87776 0.329216,-1.31684 0.01115,-0.60344 0.0221,-1.20698 0.03294,-1.81067 1.33e-4,-0.59245 1.33e-4,-1.18502 0,-1.77773 -0.153499,-0.42786 -0.30713,-0.85583 -0.460894,-1.28392 -0.186429,-0.71318 -0.37298,-1.42646 -0.559653,-2.13989 -0.08767,-0.1096 -0.175452,-0.21933 -0.263377,-0.3292 1.33e-4,-0.0547 1.33e-4,-0.1096 0,-0.16461 0.351292,0.0441 0.702451,0.088 1.053477,0.13169 0.109868,0.055 0.219603,0.10987 0.329216,0.16461 -0.09862,-0.20838 -0.197405,-0.41688 -0.296297,-0.62551 -0.27422,-0.34006 -0.548553,-0.68024 -0.823019,-1.02055 -0.153509,-0.18643 -0.30714,-0.37298 -0.460905,-0.55966 -0.449794,-0.34007 -0.899712,-0.68024 -1.349762,-1.02056 -0.230325,-0.10961 -0.460762,-0.21934 -0.691342,-0.32921 -0.30714,-0.12059 -0.614402,-0.24129 -0.921788,-0.36213 -0.109612,-0.0327 -0.219348,-0.0657 -0.329216,-0.0987 -0.05473,-0.0109 -0.109612,-0.0218 -0.164608,-0.0329 0.208637,0.25252 0.417131,0.50491 0.625502,0.75718 0.109868,0.16474 0.219604,0.32934 0.329216,0.49382 0.05493,0.0441 0.109868,0.0879 0.164598,0.13168 -0.318106,-0.14253 -0.636346,-0.28519 -0.954708,-0.42797 -0.263244,-0.0767 -0.52661,-0.1535 -0.79011,-0.23045 -0.318106,-0.0986 -0.636335,-0.1974 -0.954708,-0.2963 -0.219348,-0.0218 -0.438818,-0.0438 -0.658421,-0.0659 0.07693,0.21962 0.153754,0.43909 0.230447,0.65842 0.09892,0.15378 0.19766,0.3074 0.296286,0.46091 0.153764,0.16473 0.307396,0.32934 0.460894,0.49381 -0.438818,-0.23032 -0.877769,-0.46077 -1.316843,-0.69134 -0.357205,-0.10402 -0.714512,-0.20816 -1.071962,-0.31243 -0.403382,0.0506 -0.806867,0.10097 -1.210505,0.15132 -0.170582,0.0816 -0.341287,0.16308 -0.512125,0.24442 -0.259817,0.0544 -0.519767,0.10878 -0.779839,0.16295 -0.271459,-0.0153 -0.54304,-0.0309 -0.814754,-0.0465 -0.162818,1.3e-4 -0.325779,1.3e-4 -0.488862,0 0.0082,0.1786 0.01565,0.35707 0.02332,0.53541 0.0622,0.17084 0.124282,0.34155 0.186233,0.51213 0.170838,0.24069 0.341554,0.48123 0.512125,0.72164 0.166972,0.21353 0.333799,0.42691 0.500494,0.64017 0.217404,0.22904 0.434665,0.45794 0.651803,0.68672 0.617032,0.50064 1.23391,1.00112 1.850666,1.50148 0.294997,0.12817 0.589861,0.2562 0.884593,0.3841 0.279478,0.198 0.558814,0.39588 0.838036,0.59361 0.217394,0.12428 0.434665,0.24844 0.651803,0.37246 0.217405,0.0816 0.434665,0.16308 0.651803,0.24443 0.190244,0.10096 0.380345,0.20188 0.570323,0.30261 0.0933,0.039 0.186367,0.0777 0.279346,0.11641 -0.139535,-0.13567 -0.279203,-0.27146 -0.419014,-0.40739 -0.224902,-0.27922 -0.449917,-0.55855 -0.675086,-0.83803 -0.197742,-0.22102 -0.395607,-0.44217 -0.593605,-0.66344 -0.116262,-0.093 -0.232657,-0.1861 -0.349185,-0.27935 -0.10462,-0.15119 -0.209374,-0.30249 -0.31426,-0.45394 0.194131,0.0584 0.388109,0.11653 0.581974,0.1746 0.205763,0.0816 0.411382,0.16308 0.616879,0.24443 0.585104,0.35836 1.170045,0.71657 1.754874,1.07467 0.296419,0.28545 0.592695,0.57076 0.888858,0.85595 0.26351,0.24704 0.526877,0.49395 0.79011,0.74072 0.192178,0.27449 0.384212,0.54882 0.576123,0.82303 0.192167,0.31289 0.384211,0.62563 0.576113,0.93826 0.137304,0.25252 0.274476,0.50492 0.411514,0.75718 0.170235,0.32935 0.340326,0.65855 0.510284,0.98762 0.0221,0.17573 0.04399,0.3513 0.06588,0.52675 z" />
    <path
       style="fill:none;stroke:#000000;stroke-width:0.130361px;stroke-linecap:butt;stroke-linejoin:miter;stroke-opacity:1"
       d="m 51.982201,108.76469 c -0.2057,-0.25232 -0.617212,-0.75711 -0.916256,-1.14942 -0.299043,-0.3923 -0.4856,-0.67214 -0.438959,-0.83957 0.04664,-0.16743 0.326474,-0.2223 0.677619,-0.32929 0.351145,-0.107 0.773624,-0.26612 1.105569,-0.41426 0.331944,-0.14815 0.573355,-0.28531 0.82026,-0.43895 0.246906,-0.15363 0.499297,-0.32372 0.683097,-0.46363 0.1838,-0.1399 0.299018,-0.24963 0.392291,-0.36211 0.09327,-0.11248 0.16459,-0.22768 0.145458,-0.28531 -0.01913,-0.0576 -0.128867,-0.0576 -0.282509,-0.0494 -0.153643,0.008 -0.351155,0.0247 -0.545947,0.0439 -0.194791,0.0192 -0.386828,0.0412 -0.570635,0.0577 -0.183806,0.0165 -0.359387,0.0274 -0.510282,0.0384 -0.150895,0.011 -0.277084,0.0219 -0.249694,-0.0384 0.02739,-0.0604 0.208458,-0.19204 0.422459,-0.32373 0.214,-0.13168 0.460907,-0.26337 0.713312,-0.38957 0.252405,-0.1262 0.510276,-0.24691 0.75444,-0.36488 0.244164,-0.11796 0.474608,-0.23319 0.71605,-0.3347 0.241442,-0.10151 0.493821,-0.1893 0.746227,-0.27709 0.252407,-0.0878 0.504786,-0.17557 1.065565,-0.33445 0.560779,-0.15887 1.429892,-0.38883 2.159328,-0.58141 0.729437,-0.19258 1.319158,-0.34776 1.93218,-0.47191 0.613022,-0.12415 1.249294,-0.21727 1.939901,-0.32979 0.690607,-0.11251 1.435512,-0.24442 2.056301,-0.31037 0.62079,-0.066 1.117386,-0.066 1.707116,-0.11252 0.589729,-0.0466 1.272546,-0.13967 1.93212,-0.21726 0.659574,-0.0776 1.295852,-0.13967 1.78859,-0.17459 0.492738,-0.0349 0.841925,-0.0427 1.136783,-0.0699 0.294859,-0.0272 0.535392,-0.0737 0.496617,-0.18232 -0.03878,-0.108581 -0.35691,-0.27929 -0.698336,-0.399592 -0.341427,-0.120302 -0.706125,-0.190137 -1.346315,-0.197914 -0.64019,-0.0078 -1.555803,0.04654 -2.382204,0.0931 -0.826401,0.04656 -1.563549,0.08536 -2.444273,0.162955 -0.880725,0.0776 -1.904975,0.193986 -2.766293,0.290981 -0.861319,0.097 -1.55967,0.17459 -2.432639,0.32202 -0.872969,0.14743 -1.920494,0.36469 -2.871073,0.66344 -0.950579,0.29874 -1.804117,0.67895 -2.471457,1.0165 -0.66734,0.33755 -1.148424,0.6324 -1.598486,0.91175 -0.450063,0.27935 -0.869074,0.54317 -1.354064,0.93504 -0.48499,0.39187 -1.035911,0.91176 -1.392857,1.26095 -0.356946,0.34918 -0.519897,0.52765 -0.597482,0.77603 -0.07758,0.24838 -0.06981,0.56651 0.108724,0.93122 0.178537,0.3647 0.52771,0.77595 0.822567,1.16782 0.294857,0.39187 0.535401,0.76432 0.748812,1.03201 0.213412,0.26768 0.399639,0.43062 0.562407,0.41162 0.162768,-0.019 0.302222,-0.21986 0.371963,-0.3203 0.06974,-0.10044 0.0697,-0.10045 -0.135995,-0.35277 z"
       id="path915"
       inkscape:path-effect="#path-effect917"
       inkscape:original-d="m 52.1879,109.01701 c -0.411392,-0.50465 -0.822897,-1.00944 -1.234544,-1.51436 -0.186429,-0.2797 -0.37298,-0.55954 -0.559663,-0.8395 0.279969,-0.0547 0.559796,-0.1096 0.839489,-0.16459 0.422624,-0.159 0.845106,-0.31811 1.267464,-0.47736 0.241557,-0.13705 0.48297,-0.27421 0.724261,-0.41151 0.252533,-0.16997 0.504923,-0.34006 0.75719,-0.51028 0.115362,-0.10961 0.23058,-0.21934 0.345676,-0.32921 0.07151,-0.1151 0.142788,-0.23033 0.213987,-0.34568 -0.109612,1.3e-4 -0.219347,1.3e-4 -0.329216,0 -0.197404,0.0166 -0.394922,0.033 -0.592582,0.0494 -0.191912,0.0221 -0.383946,0.0441 -0.576113,0.0659 -0.175451,0.0112 -0.351036,0.0221 -0.526743,0.0329 -0.126073,0.0112 -0.252268,0.0221 -0.378596,0.0329 0.181201,-0.13155 0.362269,-0.26323 0.543204,-0.39504 0.24704,-0.13156 0.493946,-0.26325 0.74072,-0.39506 0.258027,-0.12059 0.5159,-0.24129 0.773651,-0.36213 0.23058,-0.1151 0.461027,-0.23032 0.691341,-0.34568 0.252533,-0.0877 0.504923,-0.17545 0.75719,-0.26337 0.252534,-0.0877 0.504924,-0.17545 0.757181,-0.26336 0.869288,-0.22984 1.738403,-0.45979 2.607406,-0.68989 0.589872,-0.15505 1.17959,-0.31025 1.769185,-0.46557 0.636428,-0.093 1.272702,-0.1861 1.908863,-0.27935 0.745058,-0.13178 1.489963,-0.26369 2.234755,-0.39574 0.49676,1.4e-4 0.993356,1.4e-4 1.48984,0 0.682993,-0.093 1.365813,-0.18609 2.048531,-0.27934 0.636427,-0.0619 1.272701,-0.12402 1.908853,-0.18623 0.349327,-0.007 0.698502,-0.0153 1.047553,-0.0233 0.240677,-0.0465 0.481221,-0.093 0.721632,-0.13968 -0.318014,-0.170583 -0.636151,-0.341288 -0.954421,-0.512136 -0.364581,-0.06967 -0.729274,-0.139535 -1.0941,-0.209507 -0.915527,0.05442 -1.831137,0.108774 -2.7469,0.162951 -0.737038,0.03898 -1.474188,0.07775 -2.211481,0.116405 -1.024148,0.116518 -2.048398,0.232913 -3.072792,0.349177 -0.698246,0.0777 -1.396595,0.15532 -2.095087,0.23279 -1.04743,0.2174 -2.094953,0.43467 -3.14263,0.6518 -0.853443,0.38036 -1.706978,0.76058 -2.560666,1.14066 -0.480965,0.29501 -0.962053,0.58986 -1.443284,0.88459 -0.41889,0.26397 -0.837904,0.52779 -1.25705,0.79148 -0.550804,0.52003 -1.101731,1.03991 -1.65279,1.55968 -0.162818,0.1786 -0.325769,0.35707 -0.488853,0.53541 0.0082,0.31828 0.01565,0.63642 0.02332,0.95443 0.349318,0.41139 0.698492,0.82264 1.047544,1.23378 0.240677,0.37259 0.481221,0.74504 0.721642,1.11737 0.186356,0.16308 0.37259,0.32601 0.558691,0.48882 0.139586,-0.20073 0.279049,-0.40157 0.418379,-0.60256 z" />
    <path
       style="fill:none;stroke:#000000;stroke-width:0.130361px;stroke-linecap:butt;stroke-linejoin:miter;stroke-opacity:1"
       d="m 68.922153,112.84373 c -0.283149,-0.0815 -0.849602,-0.24441 -1.334579,-0.38408 -0.484976,-0.13967 -0.888474,-0.25606 -1.156172,-0.33752 -0.267697,-0.0815 -0.399623,-0.12803 -0.426811,-0.16687 -0.02719,-0.0388 0.05037,-0.0699 0.124083,-0.0892 0.07371,-0.0194 0.1436,-0.0272 0.225027,-0.0543 0.08143,-0.0272 0.174598,-0.0738 0.244415,-0.10477 0.06982,-0.031 0.116389,-0.0465 0.06212,-0.10466 -0.05426,-0.0581 -0.209436,-0.159 -0.411187,-0.26377 -0.201752,-0.10477 -0.450063,-0.2134 -0.640162,-0.29875 -0.190099,-0.0853 -0.322021,-0.14744 -0.388059,-0.21722 -0.06604,-0.0698 -0.06604,-0.14743 -0.01168,-0.19018 0.05435,-0.0427 0.163022,-0.0505 0.310459,-0.0622 0.147438,-0.0116 0.333669,-0.0271 0.457797,-0.0426 0.124128,-0.0155 0.186233,-0.031 0.174635,-0.0697 -0.0116,-0.0387 -0.09699,-0.10081 -0.256058,-0.18231 -0.159072,-0.0815 -0.391851,-0.18237 -0.725518,-0.31429 -0.333666,-0.13191 -0.76819,-0.29486 -1.113493,-0.41902 -0.345303,-0.12415 -0.601367,-0.20951 -1.078591,-0.39186 -0.477224,-0.18235 -1.175573,-0.46168 -2.047902,-0.5714 -0.872328,-0.10972 -1.918553,-0.0497 -2.614521,0.002 -0.695969,0.0519 -1.041634,0.0958 -1.346161,0.14246 -0.304528,0.0466 -0.567898,0.096 -0.677635,0.14546 -0.109737,0.0495 -0.06584,0.0988 0.104273,0.13445 0.170112,0.0356 0.466401,0.0576 0.78463,0.0658 0.318229,0.008 0.658417,0.003 1.080923,0.0302 0.422507,0.0274 0.927274,0.0878 1.401882,0.10697 0.474608,0.0192 0.91904,-0.003 1.349765,-3e-5 0.430726,0.003 0.847709,0.0302 1.165967,0.0659 0.318258,0.0357 0.53771,0.0796 0.735247,0.12074 0.197536,0.0412 0.373089,0.0796 0.362081,0.13165 -0.01101,0.0521 -0.20853,0.11794 -0.471886,0.17007 -0.263355,0.0521 -0.592549,0.0905 -1.036995,0.15638 -0.444445,0.0658 -1.004099,0.15912 -1.49518,0.25239 -0.49108,0.0933 -0.913553,0.18655 -1.330561,0.26886 -0.417007,0.0823 -0.828504,0.15363 -1.152237,0.2085 -0.323732,0.0549 -0.559646,0.0933 -0.66394,0.15645 -0.104295,0.0632 -0.07686,0.15101 0.03565,0.18657 0.112512,0.0356 0.310016,0.0191 0.474643,0.0219 0.164627,0.003 0.296294,0.0247 0.389578,0.0632 0.09328,0.0385 0.148133,0.0933 0.186495,0.18387 0.03836,0.0905 0.06032,0.21673 0.0082,0.31267 -0.05211,0.0959 -0.178298,0.16178 -0.438898,0.21391 -0.260599,0.0521 -0.655634,0.0905 -1.006788,0.10976 -0.351155,0.0192 -0.658417,0.0192 -0.957443,-0.074 -0.299025,-0.0932 -0.589828,-0.27978 -0.803841,-0.47729 -0.214014,-0.19751 -0.351175,-0.406 -0.395132,-0.59807 -0.04396,-0.19207 0.0054,-0.36765 0.04384,-0.53774 0.03842,-0.17008 0.06587,-0.33468 0.0933,-0.45541 0.02743,-0.12073 0.05486,-0.19757 0.01929,-0.25243 -0.03557,-0.0549 -0.13436,-0.0878 -0.290781,-0.0632 -0.15642,0.0246 -0.370419,0.10695 -0.529585,0.24142 -0.159165,0.13447 -0.263413,0.32101 -0.353947,0.56521 -0.09053,0.24419 -0.167347,0.54595 -0.22496,0.75994 -0.05761,0.21399 -0.09602,0.34018 -0.10697,0.52402 -0.01095,0.18384 0.0055,0.42525 0.0165,0.62002 0.01098,0.19478 0.01647,0.34294 0.05343,0.49122 0.03697,0.14827 0.105336,0.29664 0.333065,0.36788 0.227729,0.0712 0.614773,0.0655 1.088119,0.0324 0.473346,-0.0331 1.032992,-0.0934 1.666739,-0.13729 0.633747,-0.0439 1.341526,-0.0713 1.906669,-0.10973 0.565143,-0.0384 0.987627,-0.0878 2.106974,-0.10424 1.119347,-0.0165 2.935457,1e-5 4.035579,0.0165 1.100121,0.0165 1.484187,0.0329 1.8765,0.0549 0.392313,0.022 0.792853,0.0494 1.138534,0.0879 0.345682,0.0384 0.636478,0.0878 0.913091,0.11366 0.276613,0.0258 0.539035,0.0282 0.670185,0.0293 0.13115,0.001 0.131126,8.8e-4 -0.152023,-0.0806 z"
       id="path919"
       inkscape:path-effect="#path-effect921"
       inkscape:original-d="m 69.205302,112.92518 c -0.566323,-0.16282 -1.132779,-0.32576 -1.699357,-0.48885 -0.403372,-0.11626 -0.806867,-0.23266 -1.210494,-0.34917 -0.131781,-0.0464 -0.263694,-0.093 -0.39573,-0.13967 0.07775,-0.0309 0.155319,-0.0619 0.232779,-0.0931 0.06997,-0.007 0.139801,-0.0153 0.209517,-0.0233 0.09319,-0.0464 0.186357,-0.093 0.279335,-0.13968 0.04665,-0.0153 0.09319,-0.0309 0.139678,-0.0465 -0.155063,-0.10077 -0.31025,-0.20161 -0.465579,-0.30263 -0.248176,-0.1085 -0.496484,-0.21714 -0.744915,-0.32589 -0.131791,-0.0619 -0.263694,-0.12403 -0.39574,-0.18625 1.33e-4,-0.0774 1.33e-4,-0.15505 0,-0.23277 0.108763,-0.007 0.217393,-0.0153 0.325901,-0.0233 0.186367,-0.0153 0.37259,-0.0309 0.558691,-0.0465 0.0622,-0.0153 0.124282,-0.0309 0.186234,-0.0465 -0.08521,-0.0619 -0.170582,-0.12402 -0.256073,-0.18622 -0.232656,-0.10077 -0.465446,-0.20162 -0.698359,-0.30263 -0.434419,-0.16282 -0.868941,-0.32577 -1.303616,-0.48885 -0.255939,-0.0852 -0.511992,-0.17059 -0.768198,-0.25607 -0.698246,-0.27922 -1.396594,-0.55856 -2.095086,-0.83803 -1.046132,0.0601 -2.092356,0.12008 -3.138733,0.17993 -0.345553,0.044 -0.691218,0.0879 -1.037017,0.13169 -0.263244,0.0495 -0.52661,0.0989 -0.79011,0.14813 0.04399,0.0495 0.08787,0.0989 0.131688,0.14815 0.29642,0.0221 0.592706,0.0441 0.888869,0.0659 0.340315,-0.005 0.680498,-0.0108 1.020557,-0.0165 0.504924,0.0606 1.009704,0.12084 1.514371,0.18106 0.444567,-0.0219 0.889002,-0.0438 1.333303,-0.0659 0.417141,0.0275 0.834129,0.0549 1.251004,0.0824 0.219604,0.0441 0.439074,0.0879 0.658422,0.13169 0.175707,0.0386 0.351282,0.0769 0.526733,0.11522 -0.197394,0.066 -0.394922,0.13182 -0.592572,0.19752 -0.329093,0.0386 -0.658299,0.0769 -0.987638,0.11523 -0.55954,0.0934 -1.119193,0.18668 -1.678978,0.27983 -0.422369,0.0934 -0.84484,0.18668 -1.267464,0.27983 -0.411392,0.0715 -0.822897,0.14278 -1.234545,0.21399 -0.235807,0.0386 -0.471738,0.0769 -0.707801,0.11522 0.02752,0.0879 0.05504,0.17571 0.08225,0.26337 0.197671,-0.0164 0.395188,-0.0327 0.592582,-0.0494 0.131822,0.0221 0.2635,0.044 0.395055,0.0659 0.05504,0.055 0.109869,0.10987 0.164608,0.16461 0.0221,0.12632 0.04399,0.25252 0.06588,0.37858 -0.126072,0.066 -0.252267,0.13182 -0.378595,0.19754 -0.394932,0.0386 -0.789977,0.0769 -1.185155,0.11523 -0.30714,1.2e-4 -0.614402,1.2e-4 -0.921788,0 -0.29068,-0.18644 -0.581483,-0.37299 -0.872419,-0.55966 -0.137039,-0.20839 -0.27421,-0.41688 -0.411505,-0.62552 0.04951,-0.17544 0.09892,-0.35101 0.148138,-0.52673 0.02752,-0.16449 0.05504,-0.32907 0.08235,-0.49381 0.02752,-0.0767 0.05504,-0.15351 0.08225,-0.23045 -0.09862,-0.0327 -0.197395,-0.0657 -0.296286,-0.0988 -0.213865,0.0824 -0.427852,0.16474 -0.641962,0.24691 -0.104129,0.18669 -0.208371,0.37324 -0.312756,0.55966 -0.07672,0.30191 -0.153499,0.60368 -0.230447,0.90533 -0.03826,0.12634 -0.07672,0.25252 -0.115219,0.37859 0.01657,0.24156 0.03304,0.48297 0.04941,0.72426 0.0051,0.14828 0.01105,0.29643 0.01647,0.44445 0.06854,0.14849 0.136875,0.29687 0.205118,0.44511 0.387168,-0.005 0.774203,-0.0113 1.161105,-0.0172 0.559806,-0.0602 1.119449,-0.12058 1.678979,-0.18106 0.707954,-0.0273 1.415735,-0.0547 2.123413,-0.0823 0.422624,-0.0492 0.845105,-0.0986 1.267464,-0.14814 1.816314,0.0166 3.632424,0.033 5.448441,0.0494 0.384222,0.0166 0.76829,0.033 1.152246,0.0494 0.400671,0.0275 0.801209,0.055 1.201614,0.0824 0.290946,0.0495 0.581739,0.0989 0.872409,0.14814 0.262569,0.003 0.524994,0.005 0.787297,0.007 z" />
    <path
       style="fill:none;stroke:#000000;stroke-width:0.130361px;stroke-linecap:butt;stroke-linejoin:miter;stroke-opacity:1"
       d="m 101.64043,105.14238 c -0.14347,-0.0892 -0.43058,-0.26766 -0.69054,-0.4597 -0.25995,-0.19204 -0.49274,-0.39766 -0.65571,-0.56255 -0.16296,-0.16488 -0.25607,-0.28902 -0.17458,-0.34147 0.0815,-0.0524 0.33755,-0.033 0.6906,-0.0486 0.35306,-0.0155 0.80312,-0.066 1.2008,-0.1203 0.39768,-0.0543 0.74297,-0.11252 1.04751,-0.19594 0.30454,-0.0834 0.56836,-0.19205 0.78175,-0.29487 0.21339,-0.10282 0.37632,-0.1998 0.62851,-0.34141 0.2522,-0.14162 0.59361,-0.32785 0.83801,-0.49273 0.24441,-0.16488 0.39184,-0.30842 0.43265,-0.38407 0.0408,-0.0756 -0.0251,-0.0834 -0.0969,-0.0873 -0.0718,-0.004 -0.14941,-0.004 -0.27938,-0.0175 -0.12998,-0.0136 -0.31231,-0.0407 -0.44421,-0.0601 -0.13189,-0.0194 -0.2134,-0.031 -0.14363,-0.13384 0.0698,-0.10283 0.29091,-0.29681 0.5431,-0.50438 0.2522,-0.20757 0.53542,-0.42872 0.80312,-0.65957 0.2677,-0.23085 0.51987,-0.47139 0.7449,-0.692541 0.22503,-0.22115 0.4229,-0.422892 0.58545,-0.656792 0.16256,-0.233899 0.29136,-0.503203 0.41344,-0.727623 0.12207,-0.22442 0.23819,-0.405526 0.32368,-0.572871 0.0855,-0.167344 0.14035,-0.320975 0.12942,-0.384113 -0.0109,-0.06314 -0.0877,-0.03571 -0.19475,0.07132 -0.10706,0.107033 -0.24422,0.293583 -0.46094,0.499326 -0.21672,0.205744 -0.513,0.430697 -0.83948,0.688584 -0.32647,0.257886 -0.68311,0.54868 -1.08364,0.828506 -0.40054,0.279827 -0.84496,0.548679 -1.24824,0.765409 -0.40327,0.21674 -0.7654,0.38134 -1.1193,0.53497 -0.3539,0.15364 -0.69955,0.29628 -1.0617,0.46638 -0.36215,0.1701 -0.74074,0.36762 -1.02333,0.52675 -0.28259,0.15912 -0.46913,0.27983 -0.57887,0.37585 -0.10974,0.096 -0.14268,0.16744 -0.28525,0.19758 -0.14257,0.0301 -0.39496,0.0192 -0.721439,0.005 -0.326474,-0.0137 -0.726996,-0.0302 -1.034269,-0.0329 -0.307274,-0.003 -0.521268,0.008 -0.684657,0.0652 -0.16339,0.057 -0.276075,0.15988 -0.344073,0.29092 -0.068,0.13105 -0.09129,0.29014 -0.06991,0.44535 0.02138,0.15522 0.08733,0.30652 0.178558,0.43067 0.09123,0.12415 0.207581,0.22112 0.362769,0.36662 0.155189,0.1455 0.349174,0.33949 0.552878,0.49466 0.203704,0.15517 0.417093,0.27156 0.618856,0.37825 0.201763,0.1067 0.391851,0.20369 0.589714,0.29097 0.197867,0.0873 0.403497,0.16488 0.554807,0.21724 0.1513,0.0524 0.24831,0.0795 0.38991,0.0911 0.1416,0.0116 0.32781,0.008 0.46747,-9e-5 0.13966,-0.008 0.23279,-0.0195 0.30842,-0.0486 0.0756,-0.0291 0.1338,-0.0757 0.16289,-0.0989 0.0291,-0.0233 0.0291,-0.0232 -0.11441,-0.11235 z"
       id="path927"
       inkscape:path-effect="#path-effect929"
       inkscape:original-d="m 101.7839,105.23156 c -0.28696,-0.17833 -0.57408,-0.3568 -0.86131,-0.53541 -0.23266,-0.2055 -0.46545,-0.41112 -0.69836,-0.61688 -0.093,-0.12403 -0.1861,-0.24818 -0.279343,-0.37246 0.256193,0.0195 0.512253,0.0389 0.768193,0.0582 0.4502,-0.0503 0.90025,-0.10077 1.35017,-0.15132 0.34545,-0.0581 0.69074,-0.11627 1.03591,-0.1746 0.26396,-0.10849 0.52778,-0.21712 0.79147,-0.3259 0.1631,-0.0969 0.32604,-0.19385 0.48885,-0.29097 0.34157,-0.18612 0.68299,-0.37233 1.02427,-0.5587 0.14757,-0.14342 0.295,-0.28697 0.4423,-0.43065 -0.0659,-0.007 -0.13179,-0.0153 -0.19788,-0.0233 -0.0774,1.2e-4 -0.15505,1.2e-4 -0.23277,0 -0.18223,-0.0271 -0.36457,-0.0542 -0.54705,-0.0814 -0.0813,-0.0116 -0.16283,-0.0231 -0.24444,-0.0349 0.22129,-0.19386 0.44243,-0.38784 0.66345,-0.58196 0.28335,-0.22103 0.56658,-0.44217 0.84968,-0.66345 0.25232,-0.24042 0.50449,-0.480964 0.75654,-0.721651 0.19801,-0.20162 0.39588,-0.403362 0.59362,-0.605237 0.14807,-0.256093 0.25619,-0.535286 0.3841,-0.803123 0.11625,-0.180975 0.23236,-0.362084 0.34834,-0.543315 0.055,-0.153499 0.10987,-0.30713 0.16461,-0.460895 -0.0767,0.02762 -0.1535,0.05494 -0.23045,0.08235 -0.13703,0.186695 -0.27421,0.373235 -0.41151,0.559663 -0.29617,0.225097 -0.59245,0.450051 -0.88887,0.674882 -0.35653,0.290936 -0.71316,0.581739 -1.06995,0.872409 -0.4443,0.268993 -0.88872,0.537847 -1.33329,0.806567 -0.36201,0.16475 -0.72414,0.32934 -1.08639,0.49382 -0.34556,0.14279 -0.69121,0.28544 -1.03702,0.42797 -0.37847,0.19766 -0.75706,0.39518 -1.13579,0.59259 -0.18643,0.12084 -0.37297,0.24155 -0.55966,0.36213 -0.0327,0.0714 -0.0657,0.14279 -0.0987,0.21398 -0.25228,-0.0108 -0.50467,-0.0218 -0.757191,-0.0329 -0.400425,-0.0164 -0.800953,-0.0327 -1.201625,-0.0494 -0.213854,0.0112 -0.427851,0.0221 -0.641962,0.0329 -0.112558,0.10305 -0.22524,0.20598 -0.338054,0.30878 -0.02312,0.15919 -0.04644,0.31827 -0.06987,0.47721 0.06609,0.15144 0.132037,0.30275 0.197865,0.45392 0.116528,0.0972 0.232913,0.19413 0.349175,0.291 0.194131,0.19412 0.388119,0.3881 0.581974,0.58197 0.213527,0.11651 0.426911,0.23291 0.640161,0.34917 0.190244,0.0972 0.380365,0.19412 0.570333,0.29099 0.205764,0.0777 0.411394,0.15532 0.616884,0.23279 0.0971,0.0273 0.19413,0.0544 0.29099,0.0814 0.18636,-0.004 0.37259,-0.007 0.5587,-0.0117 0.0932,-0.0116 0.18635,-0.0231 0.27934,-0.035 0.0583,-0.0465 0.11652,-0.093 0.17458,-0.13967 z" />
  </g>
</svg>
