<?xml version="1.0" encoding="UTF-8" standalone="no"?>
<svg
   xmlns:dc="http://purl.org/dc/elements/1.1/"
   xmlns:cc="http://creativecommons.org/ns#"
   xmlns:rdf="http://www.w3.org/1999/02/22-rdf-syntax-ns#"
   xmlns:svg="http://www.w3.org/2000/svg"
   xmlns="http://www.w3.org/2000/svg"
   xmlns:sodipodi="http://sodipodi.sourceforge.net/DTD/sodipodi-0.dtd"
   xmlns:inkscape="http://www.inkscape.org/namespaces/inkscape"
   width="210mm"
   height="297mm"
   viewBox="0 0 210 297"
   version="1.1"
   id="svg8"
   inkscape:version="1.0.1 (3bc2e813f5, 2020-09-07)"
   sodipodi:docname="PCB_outline¸1.svg">
  <defs
     id="defs2">
    <inkscape:path-effect
       effect="bspline"
       id="path-effect849"
       is_visible="true"
       lpeversion="1"
       weight="33.333333"
       steps="2"
       helper_size="0"
       apply_no_weight="true"
       apply_with_weight="true"
       only_selected="false" />
  </defs>
  <sodipodi:namedview
     id="base"
     pagecolor="#ffffff"
     bordercolor="#666666"
     borderopacity="1.0"
     inkscape:pageopacity="0.0"
     inkscape:pageshadow="2"
     inkscape:zoom="1.4"
     inkscape:cx="365.98296"
     inkscape:cy="364.81628"
     inkscape:document-units="mm"
     inkscape:current-layer="layer1"
     inkscape:document-rotation="0"
     showgrid="false"
     inkscape:window-width="1366"
     inkscape:window-height="705"
     inkscape:window-x="-8"
     inkscape:window-y="-8"
     inkscape:window-maximized="1" />
  <metadata
     id="metadata5">
    <rdf:RDF>
      <cc:Work
         rdf:about="">
        <dc:format>image/svg+xml</dc:format>
        <dc:type
           rdf:resource="http://purl.org/dc/dcmitype/StillImage" />
        <dc:title></dc:title>
      </cc:Work>
    </rdf:RDF>
  </metadata>
  <g
     inkscape:label="Layer 1"
     inkscape:groupmode="layer"
     id="layer1">
    <path
       style="fill:none;stroke:#000000;stroke-width:0.123969px;stroke-linecap:butt;stroke-linejoin:miter;stroke-opacity:1"
       d="m 56.701632,87.534568 c -0.162263,0.05901 -0.324605,0.118039 -0.483217,0.132826 -0.158612,0.01479 -0.313571,-0.01473 -0.453775,-0.04056 -0.140203,-0.02583 -0.265649,-0.04796 -0.439058,-0.106977 -0.173408,-0.05901 -0.394776,-0.154938 -0.586641,-0.261918 -0.191865,-0.10698 -0.354203,-0.225046 -0.51286,-0.357861 -0.158657,-0.132815 -0.313617,-0.280397 -0.468571,-0.40217 -0.154954,-0.121773 -0.309914,-0.217701 -0.446435,-0.320992 -0.136521,-0.103291 -0.254588,-0.213978 -0.376346,-0.332041 -0.121758,-0.118063 -0.247201,-0.243503 -0.428003,-0.46856 -0.180802,-0.225058 -0.416928,-0.549733 -0.608793,-0.830141 -0.191865,-0.280408 -0.339445,-0.516536 -0.442776,-0.737907 -0.103332,-0.221371 -0.162363,-0.427988 -0.217703,-0.616152 -0.05534,-0.188164 -0.107,-0.357889 -0.154971,-0.534997 -0.04797,-0.177107 -0.09224,-0.361562 -0.110715,-0.512869 -0.01847,-0.151307 -0.01111,-0.269342 -4.7e-5,-0.376348 0.01106,-0.107006 0.02583,-0.202919 0.01849,-0.302523 -0.0073,-0.0996 -0.03684,-0.20291 -0.08477,-0.306219 -0.04793,-0.103308 -0.114339,-0.206612 -0.191784,-0.2878 -0.07745,-0.08119 -0.166015,-0.140235 -0.243506,-0.202944 -0.07749,-0.06271 -0.1439,-0.129115 -0.21402,-0.213975 -0.07012,-0.08486 -0.143895,-0.188147 -0.228749,-0.29515 -0.08485,-0.107002 -0.180784,-0.217687 -0.261984,-0.357886 -0.0812,-0.1402 -0.147608,-0.309914 -0.247218,-0.531289 -0.09961,-0.221374 -0.23243,-0.494395 -0.328378,-0.748977 -0.09595,-0.254581 -0.15498,-0.490711 -0.188196,-0.701021 -0.03322,-0.21031 -0.04058,-0.394794 -0.05901,-0.612477 -0.01843,-0.217684 -0.04793,-0.468566 -0.03687,-0.664151 0.01106,-0.195586 0.06271,-0.335781 0.110673,-0.464917 0.04796,-0.129136 0.09224,-0.247207 0.136518,-0.368958 0.04427,-0.12175 0.08855,-0.247203 0.09228,-0.350474 0.0037,-0.10327 -0.03316,-0.184437 -0.08111,-0.265603 -0.04794,-0.08117 -0.106981,-0.162342 -0.177076,-0.258261 -0.07009,-0.09592 -0.151277,-0.206624 -0.265639,-0.332078 -0.114363,-0.125455 -0.261941,-0.265655 -0.413229,-0.446436 -0.151288,-0.180781 -0.306247,-0.40215 -0.439076,-0.597697 -0.132829,-0.195547 -0.243512,-0.365261 -0.291527,-0.523931 -0.04801,-0.15867 -0.03325,-0.306246 0.01102,-0.494432 0.04427,-0.188187 0.118061,-0.416938 0.298862,-0.675247 0.180802,-0.258309 0.468581,-0.546088 0.774813,-0.878145 0.306232,-0.332057 0.630909,-0.708388 1.014631,-1.10318 0.383722,-0.394792 0.826461,-0.808015 1.346705,-1.206498 0.520244,-0.398484 1.117942,-0.782192 1.689836,-1.110568 0.571895,-0.328376 1.117935,-0.601396 1.745181,-0.841219 0.627246,-0.239823 1.335626,-0.446434 2.106756,-0.645671 0.77113,-0.199236 1.60495,-0.391089 2.535397,-0.524615 0.930446,-0.133526 1.957426,-0.208727 2.83619,-0.277638 0.878765,-0.06891 1.609244,-0.131523 2.031888,-0.17327 0.422643,-0.04175 0.537433,-0.06262 0.53744,-0.140807 7e-6,-0.07819 -0.114784,-0.213851 -0.224375,-0.375597 -0.109591,-0.161746 -0.213947,-0.349586 -0.224437,-0.547905 -0.01049,-0.198318 0.073,-0.407028 0.31825,-0.699262 0.245254,-0.292234 0.652234,-0.667908 1.080107,-1.017512 0.427873,-0.349604 0.876593,-0.673101 1.361869,-0.970526 0.485276,-0.297425 1.007047,-0.568745 1.523619,-0.829639 0.516572,-0.260893 1.027904,-0.511341 1.607108,-0.709619 0.579204,-0.198278 1.226195,-0.344374 1.701031,-0.438294 0.474837,-0.09392 0.777467,-0.135662 0.855759,-0.1878 0.07829,-0.05214 -0.06781,-0.114753 -0.229562,-0.177374 -0.161755,-0.06262 -0.339155,-0.125232 -0.589616,-0.177428 -0.250461,-0.0522 -0.573961,-0.09394 -0.907902,-0.156543 -0.333941,-0.06261 -0.678302,-0.146088 -1.100955,-0.224364 -0.422653,-0.07828 -0.923553,-0.151323 -1.283598,-0.182643 -0.360046,-0.03132 -0.579186,-0.02088 -0.78271,-0.229519 -0.203525,-0.208635 -0.39136,-0.636485 -0.485315,-0.918265 -0.09395,-0.28178 -0.09395,-0.41744 0.03649,-0.631429 0.130441,-0.213989 0.391328,-0.506184 1.027335,-1.039918 0.636008,-0.533735 1.647078,-1.308961 2.69132,-1.999138 1.044242,-0.690177 2.121572,-1.295252 3.213699,-1.848693 1.092127,-0.55344 2.198968,-1.055207 3.541989,-1.542233 1.343022,-0.487026 2.922121,-0.959281 4.69313,-1.387271 1.771008,-0.42799 3.733808,-0.811695 5.622889,-1.047824 1.889081,-0.236129 3.704227,-0.324673 5.519487,-0.413222 0,0 6.02135,0.309922 6.02135,0.309922 0,0 1.715638,0.210305 1.715638,0.210305 0,0 0.86336,0.154961 0.86336,0.154961 0,0 1.31717,0.132824 1.31717,0.132824 0,0 2.64541,0.431678 2.64541,0.431678 0,0 1.18435,0.199236 1.18435,0.199236 0,0 0.86335,0.597708 0.86335,0.597708 0,0 0.22137,0.686257 0.22137,0.686257 0,0 -0.22137,0.619844 -0.22137,0.619844 0,0 -0.61984,0.597708 -0.61984,0.597708 0,0 1.26183,0.154961 1.26183,0.154961 0,0 3.09922,0.752669 3.09922,0.752669 0,0 4.93662,1.505337 4.93662,1.505337 0,0 4.9809,2.014496 4.9809,2.014496 0,0 2.55067,1.192088 2.55067,1.192088 0.77745,0.396553 1.55504,0.793173 2.15248,1.108859 0.59745,0.315686 1.01487,0.550484 1.33055,0.72267 0.31569,0.172186 0.52961,0.281755 0.74354,0.378278 0.21394,0.09652 0.42787,0.180009 0.60265,0.305277 0.17477,0.125267 0.31043,0.292229 0.41215,0.48529 0.10171,0.193062 0.16954,0.41222 0.20344,0.589616 0.0339,0.177396 0.0339,0.313057 -0.0183,0.453888 -0.0522,0.140832 -0.15654,0.286925 -0.24002,0.406942 -0.0835,0.120017 -0.1461,0.213933 -0.25825,0.297392 -0.11215,0.08346 -0.27389,0.156504 -0.43039,0.182619 -0.1565,0.02611 -0.30781,0.0052 -0.47999,-0.0443 -0.17218,-0.04955 -0.36524,-0.127816 -0.60005,-0.198271 -0.2348,-0.07045 -0.51134,-0.133068 -0.87137,-0.229593 -0.36004,-0.09653 -0.80354,-0.226967 -1.15836,-0.307857 -0.35482,-0.08089 -0.62093,-0.112198 -0.92356,-0.159154 -0.30263,-0.04696 -0.64178,-0.109568 -1.0853,-0.180012 -0.44352,-0.07044 -0.99139,-0.148711 -1.48186,-0.221759 -0.49047,-0.07305 -0.92355,-0.14088 -1.32272,-0.200887 -0.39916,-0.06001 -0.76441,-0.112183 -0.89485,-0.117382 -0.13044,-0.0052 -0.0261,0.03655 0.10436,0.0835 0.13044,0.04696 0.28697,0.09913 0.43568,0.148702 0.14871,0.04957 0.2896,0.09653 0.60006,0.224373 0.31046,0.127844 0.79049,0.336553 1.18933,0.529878 0.39885,0.193324 0.71649,0.371233 0.95649,0.504463 0.23999,0.13323 0.40233,0.221778 0.59788,0.33062 0.19554,0.108842 0.42429,0.237975 0.65858,0.383721 0.23429,0.145746 0.47411,0.308087 0.7416,0.472268 0.2675,0.16418 0.56265,0.330202 0.87996,0.531291 0.3173,0.20109 0.65673,0.437214 1.21931,0.881393 0.56258,0.444178 1.3483,1.096379 1.81944,1.474659 0.47114,0.37828 0.62767,0.482634 0.83377,0.654836 0.20609,0.172201 0.46176,0.412217 0.71744,0.644409 0.25568,0.232193 0.51135,0.456555 0.8505,0.777457 0.33916,0.320901 0.76179,0.738316 1.13748,1.116614 0.37569,0.378299 0.7044,0.717451 0.97051,1.014872 0.2661,0.297421 0.46959,0.553094 0.6783,0.827034 0.20871,0.273941 0.42264,0.56613 0.63658,0.840066 0.21394,0.273936 0.42787,0.529604 0.70963,0.866153 0.28176,0.336549 0.63135,0.753968 0.89746,1.077477 0.26611,0.323509 0.44873,0.553092 0.6157,0.782681 0.16696,0.229589 0.31827,0.459169 0.46438,0.673101 0.1461,0.213931 0.28698,0.412206 0.4409,0.649622 0.15392,0.237416 0.32088,0.513952 0.48003,0.761799 0.15915,0.247846 0.31047,0.466995 0.49048,0.761803 0.18,0.294808 0.38872,0.665271 0.63396,1.074869 0.24524,0.409599 0.527,0.858324 0.69917,1.179222 0.17216,0.320897 0.23478,0.513963 0.31568,0.696596 0.0809,0.182632 0.18002,0.354805 0.28178,0.519165 0.10175,0.164359 0.20611,0.320892 0.30262,0.493077 0.0965,0.172184 0.18523,0.360035 0.27915,0.550493 0.0939,0.190459 0.19306,0.383501 0.27133,0.542644 0.0783,0.159143 0.13565,0.284374 0.21915,0.443517 0.0835,0.159143 0.19306,0.3522 0.30523,0.576569 0.11218,0.224369 0.22697,0.480039 0.32872,0.699183 0.10175,0.219144 0.19046,0.401775 0.25044,0.568742 0.06,0.166968 0.0913,0.31828 0.10169,0.45654 0.0104,0.138261 -2e-5,0.263491 -0.0339,0.378252 -0.0339,0.114761 -0.0913,0.2191 -0.16436,0.323449 -0.073,0.104349 -0.16174,0.208686 -0.25825,0.28955 -0.0965,0.08086 -0.20085,0.138257 -0.31822,0.172178 -0.11736,0.03392 -0.24781,0.04436 -0.40172,0.03654 -0.15391,-0.0078 -0.33132,-0.0339 -0.48264,-0.09387 -0.15131,-0.05997 -0.27654,-0.15388 -0.40959,-0.253019 -0.13306,-0.09914 -0.27394,-0.2035 -0.43831,-0.354803 -0.16437,-0.151304 -0.35234,-0.349708 -0.54018,-0.547985 0,0 -0.43829,-0.4383 -0.43829,-0.4383 -0.17219,-0.161752 -0.34425,-0.323379 -0.55739,-0.509629 -0.21315,-0.18625 -0.46739,-0.397099 -0.7215,-0.607834 0,0 -0.28778,-0.199235 -0.28778,-0.199235 0,0 -0.19924,-0.199239 -0.19924,-0.199239 0,0 -0.42061,-0.442746 -0.42061,-0.442746 0,0 -0.55343,-0.46488 -0.55343,-0.46488 0,0 -0.5313,-0.398474 -0.5313,-0.398474 0,0 -0.66412,-0.509157 -0.66412,-0.509157 0,0 -0.66412,-0.464885 -0.66412,-0.464885 0,0 -0.75266,-0.553435 -0.75266,-0.553435 0,0 -1.08474,-0.75267 -1.08474,-0.75267 0,0 -0.48194,-0.14172 -0.48194,-0.14172 0,0 0.26611,0.250455 0.26611,0.250455 0,0 0.39134,0.673102 0.39134,0.673102 0,0 0.42264,0.735712 0.42264,0.735712 0,0 0.0626,0.453949 0.0626,0.453949 0,0 -0.047,0.172186 -0.047,0.172186 0,0 -0.10957,0.328721 -0.10957,0.328721 0,0 -0.28176,0.297418 -0.28176,0.297418 0,0 -0.15654,0.140882 -0.15654,0.140882 0,0 -0.26611,0.140877 -0.26611,0.140877 -0.0783,0.0052 -0.15642,0.01043 -0.23467,0.02085 -0.0782,0.01042 -0.15657,0.02609 -0.19051,0.04702 -0.0339,0.02093 -0.0236,0.04692 -0.0131,0.07301 0,0 0.2348,0.313067 0.2348,0.313067 0,0 0.29742,0.328721 0.29742,0.328721 0.16175,0.203495 0.32361,0.407118 0.47231,0.613228 0.1487,0.206111 0.28436,0.41482 0.43306,0.670498 0.1487,0.255679 0.31045,0.558306 0.48003,0.879205 0.16958,0.320898 0.34699,0.660048 0.50613,0.97573 0.15914,0.315682 0.30002,0.607876 0.41219,0.871377 0.11218,0.263501 0.19566,0.498299 0.31167,0.80403 0.11601,0.30573 0.26453,0.682379 0.35538,0.920516 0.0909,0.238137 0.12406,0.337753 0.1591,0.455819 0.035,0.118067 0.0719,0.254578 0.0996,0.356052 0.0277,0.101474 0.0461,0.167871 0.0738,0.285932 0.0277,0.118061 0.0645,0.287778 0.0996,0.448274 0.0351,0.160497 0.0683,0.311767 0.0978,0.468579 0.0295,0.156811 0.0554,0.319143 0.0867,0.512843 0.0314,0.193701 0.0683,0.418763 0.0978,0.590333 0.0295,0.171571 0.0516,0.289628 0.0701,0.42245 0.0184,0.132821 0.0332,0.280406 0.0424,0.400315 0.009,0.119908 0.0129,0.212117 0.009,0.302515 -0.004,0.0904 -0.0148,0.178938 -0.0443,0.284066 -0.0295,0.105128 -0.0775,0.226892 -0.14756,0.332008 -0.0701,0.105115 -0.16233,0.193668 -0.26192,0.258226 -0.0996,0.06456 -0.20658,0.10514 -0.35046,0.143885 -0.14388,0.03874 -0.32467,0.07564 -0.45556,0.0898 -0.13089,0.01416 -0.21185,0.0056 -0.30974,-0.0222 -0.0979,-0.02776 -0.21267,-0.07471 -0.3301,-0.186859 -0.11744,-0.112144 -0.23744,-0.289545 -0.36789,-0.47739 -0.13044,-0.187844 -0.27132,-0.386119 -0.38352,-0.568748 -0.1122,-0.182629 -0.19568,-0.349581 -0.30524,-0.516558 -0.10955,-0.166978 -0.24521,-0.333946 -0.39392,-0.511355 -0.14871,-0.177409 -0.31046,-0.365245 -0.49308,-0.547879 -0.18261,-0.182635 -0.3861,-0.360036 -0.56091,-0.540043 -0.17481,-0.180007 -0.32091,-0.362629 -0.49048,-0.519184 -0.16956,-0.156556 -0.36261,-0.286996 -0.55567,-0.401799 -0.19305,-0.114803 -0.38612,-0.213943 -0.57397,-0.33394 -0.18784,-0.119997 -0.37046,-0.260874 -0.56352,-0.401759 -0.19306,-0.140885 -0.39655,-0.281763 -0.56613,-0.404379 -0.16959,-0.122616 -0.30525,-0.226971 -0.48265,-0.333952 -0.1774,-0.106981 -0.39655,-0.216555 -0.64961,-0.333961 -0.25306,-0.117405 -0.54004,-0.242633 -0.80341,-0.352475 -0.26336,-0.109841 -0.50311,-0.204291 -0.69309,-0.27366 -0.18998,-0.06937 -0.33018,-0.113644 -0.55894,-0.183748 -0.22875,-0.0701 -0.54606,-0.166031 -0.83015,-0.247204 -0.2841,-0.08117 -0.53499,-0.147586 -0.80433,-0.210313 -0.26934,-0.06273 -0.55712,-0.12176 -0.95191,-0.1808 -0.39479,-0.05904 -0.89656,-0.11807 -1.25445,-0.15497 -0.35789,-0.0369 -0.57188,-0.05166 -0.72314,-0.06272 -0.15126,-0.01106 -0.23984,-0.01844 -0.26199,0.0075 -0.0221,0.0259 0.0221,0.08494 0.0922,0.166111 0.0701,0.08117 0.16602,0.184457 0.30992,0.320964 0.1439,0.136506 0.33575,0.306225 0.50916,0.479644 0.1734,0.173418 0.32835,0.35051 0.52021,0.575577 0.19186,0.225067 0.42061,0.498089 0.59033,0.704707 0.16972,0.206618 0.2804,0.34682 0.3874,0.47226 0.10701,0.12544 0.21031,0.236128 0.34312,0.416925 0.13282,0.180797 0.29516,0.431683 0.47226,0.701018 0.1771,0.269335 0.36895,0.557118 0.58294,0.907631 0.21399,0.350512 0.45012,0.763737 0.64566,1.11425 0.19555,0.350513 0.35051,0.63829 0.51654,0.955594 0.16603,0.317305 0.34312,0.664118 0.51652,1.062592 0.17341,0.398473 0.34312,0.848591 0.47225,1.236002 0.12913,0.387411 0.21768,0.712076 0.32837,1.099483 0.11069,0.387406 0.24351,0.837522 0.33942,1.261819 0.0959,0.424297 0.15496,0.822769 0.214,1.147462 0.059,0.324692 0.11806,0.575564 0.15681,0.760042 0.0387,0.184478 0.0572,0.302531 0.0683,0.426131 0.0111,0.12361 0.0148,0.25272 0.0314,0.4077 0.0166,0.15498 0.0461,0.33577 0.0645,0.4944 0.0184,0.15863 0.0258,0.29517 0.0424,0.44461 0.0166,0.14943 0.0424,0.31176 0.0646,0.50362 0.0221,0.19185 0.0406,0.41322 0.035,0.58661 -0.006,0.17339 -0.035,0.29883 -0.0738,0.42241 -0.0387,0.12359 -0.0867,0.24535 -0.14941,0.33755 -0.0627,0.0922 -0.14018,0.15492 -0.25084,0.20842 -0.11066,0.0535 -0.25455,0.0978 -0.40765,0.13097 -0.1531,0.0332 -0.31544,0.0553 -0.47222,0.0351 -0.15679,-0.0203 -0.30805,-0.083 -0.45196,-0.15124 -0.1439,-0.0683 -0.2804,-0.14203 -0.38928,-0.24532 -0.10888,-0.10328 -0.19003,-0.23608 -0.26566,-0.35046 -0.0756,-0.11439 -0.14574,-0.21031 -0.22507,-0.33206 -0.0793,-0.12175 -0.16788,-0.26933 -0.27488,-0.46488 -0.10701,-0.19555 -0.23245,-0.43905 -0.37263,-0.63462 -0.14018,-0.19556 -0.29513,-0.34314 -0.47592,-0.52393 -0.1808,-0.18079 -0.38741,-0.39478 -0.67888,-0.65675 -0.29147,-0.26196 -0.6678,-0.571884 -0.85603,-0.726904 -0.18824,-0.155019 -0.80809,-0.774861 -0.95191,-0.863366 -0.14382,-0.08851 -0.4316,-0.265601 -0.67881,-0.439002 -0.24721,-0.173401 -0.45382,-0.343116 -0.73791,-0.516544 -0.28409,-0.173428 -0.64566,-0.350524 -1.03306,-0.527628 -0.3874,-0.177104 -0.80063,-0.354199 -1.15114,-0.490723 -0.35051,-0.136523 -0.6383,-0.232451 -0.96298,-0.333917 -0.32468,-0.101465 -0.68625,-0.20846 -0.8818,-0.267495 -0.19556,-0.05903 -0.22505,-0.07011 -0.29329,-0.0904 -0.0682,-0.0203 -0.17523,-0.04982 -0.27115,-0.083 -0.0959,-0.03319 -0.1808,-0.0701 -0.25459,-0.09962 -0.0738,-0.02952 -0.13651,-0.05166 -0.21215,-0.103273 -0.0756,-0.05161 -0.16421,-0.132796 -0.24356,-0.234251 -0.0793,-0.101455 -0.14944,-0.223195 -0.19559,-0.374474 -0.0462,-0.151279 -0.0683,-0.332058 -0.11065,-0.44461 -0.0424,-0.112552 -0.10508,-0.15682 -0.1881,-0.191907 -0.083,-0.03509 -0.18633,-0.06091 -0.29886,-0.08306 -0.11253,-0.02215 -0.23429,-0.0406 -0.38003,-0.07748 -0.14573,-0.03688 -0.31544,-0.09222 -0.48517,-0.132823 -0.16973,-0.0406 -0.33944,-0.06643 -0.44277,-0.07935 -0.10333,-0.01292 -0.14023,-0.01292 -0.16054,0.01088 -0.0203,0.02381 -0.0239,0.07136 0.016,0.136877 0.04,0.06551 0.12348,0.149002 0.20695,0.248147 0.0835,0.09914 0.16696,0.213938 0.25306,0.313062 0.0861,0.09912 0.17482,0.182618 0.27133,0.315688 0.0965,0.13307 0.20086,0.315692 0.30522,0.477442 0.10437,0.161749 0.20873,0.302629 0.3183,0.456558 0.10957,0.153928 0.22436,0.320894 0.31044,0.47743 0.0861,0.156536 0.14347,0.302637 0.18781,0.440906 0.0443,0.138269 0.0756,0.268711 0.086,0.365224 0.0104,0.09651 -2e-5,0.159133 -0.0418,0.31304 -0.0417,0.153908 -0.11479,0.399152 -0.13564,0.59485 -0.0209,0.195697 0.0104,0.341794 0.15916,0.847927 0.14871,0.506133 0.41481,1.372268 0.56615,1.839278 0.15134,0.46701 0.18787,0.53484 0.22958,0.69137 0.0417,0.15653 0.0887,0.40175 0.14607,0.68874 0.0574,0.287 0.12523,0.6157 0.20871,1.04879 0.0835,0.43308 0.18262,0.9705 0.3496,1.96711 0.16697,0.99661 0.40176,2.45235 0.51916,3.20893 0.11739,0.75658 0.11739,0.81399 0.12783,0.91835 0.0105,0.10437 0.0313,0.25568 0.047,0.40439 0.0156,0.1487 0.0261,0.2948 0.0391,0.46699 0.013,0.17219 0.0287,0.37046 0.0417,0.57918 0.013,0.20872 0.0235,0.42786 0.0391,0.64179 0.0157,0.21393 0.0365,0.42264 0.0443,0.59221 0.008,0.16957 0.003,0.30003 0.0105,0.44614 0.008,0.1461 0.0287,0.30784 0.0391,0.4435 0.0104,0.13566 0.0104,0.24524 -1e-5,0.36263 -0.0104,0.1174 -0.0313,0.24261 -0.06,0.37044 -0.0287,0.12783 -0.0652,0.25826 -0.10958,0.36261 -0.0444,0.10435 -0.0965,0.1826 -0.17477,0.25823 -0.0782,0.0756 -0.1826,0.14868 -0.3052,0.21129 -0.12259,0.0626 -0.26346,0.11479 -0.40171,0.13828 -0.13824,0.0235 -0.2739,0.0183 -0.42782,-0.0183 -0.15392,-0.0365 -0.3261,-0.10434 -0.46178,-0.18778 -0.13567,-0.0834 -0.23482,-0.1826 -0.3418,-0.32348 -0.10698,-0.14087 -0.22178,-0.32349 -0.31832,-0.52176 -0.0965,-0.19827 -0.17482,-0.4122 -0.24265,-0.5844 -0.0678,-0.17219 -0.12522,-0.30263 -0.19566,-0.44873 -0.0704,-0.14611 -0.15391,-0.30785 -0.24522,-0.47482 -0.0913,-0.16697 -0.19044,-0.33915 -0.33915,-0.56353 -0.1487,-0.22437 -0.34696,-0.5009 -0.53481,-0.77745 -0.18785,-0.27655 -0.36525,-0.55309 -0.54004,-0.7879 -0.17478,-0.23481 -0.34697,-0.42786 -0.55568,-0.66788 -0.20872,-0.24002 -0.45396,-0.527 -0.69658,-0.79051 -0.24263,-0.2635 -0.48264,-0.50352 -0.71483,-0.72528 -0.2322,-0.22176 -0.45656,-0.42525 -0.7305,-0.67832 -0.27394,-0.25306 -0.59744,-0.55569 -0.81659,-0.75137 -0.21915,-0.19569 -0.33393,-0.28438 -0.47742,-0.39656 -0.14349,-0.11218 -0.31568,-0.24785 -0.46439,-0.37828 -0.14871,-0.13044 -0.27394,-0.25567 -0.42264,-0.37308 -0.1487,-0.11742 -0.32089,-0.22699 -0.55308,-0.38092 -0.2322,-0.15392 -0.52438,-0.35219 -0.78267,-0.51917 -0.25828,-0.16698 -0.48265,-0.30265 -0.70701,-0.44092 -0.22437,-0.13827 -0.44874,-0.27915 -0.62353,-0.38611 -0.17479,-0.10697 -0.30002,-0.18002 -0.44351,-0.25047 -0.14349,-0.0705 -0.30524,-0.13829 -0.49048,-0.25045 -0.18524,-0.11216 -0.39395,-0.2687 -0.52961,-0.36524 -0.13567,-0.0965 -0.19827,-0.13306 -0.24785,-0.15136 -0.0496,-0.0183 -0.0861,-0.0183 -0.0913,0.008 -0.005,0.0262 0.0208,0.0783 0.0521,0.14616 0.0313,0.0678 0.0679,0.15135 0.1148,0.24002 0.047,0.0887 0.10438,0.18263 0.16176,0.30004 0.0574,0.1174 0.11478,0.25828 0.16173,0.38611 0.047,0.12783 0.0835,0.24264 0.13045,0.37569 0.047,0.13305 0.10436,0.28438 0.16697,0.47483 0.0626,0.19046 0.13043,0.42002 0.20348,0.66265 0.0731,0.24264 0.15132,0.4983 0.21393,0.73311 0.0626,0.2348 0.10957,0.44871 0.15914,0.67309 0.0496,0.22437 0.10174,0.45917 0.13826,0.67571 0.0365,0.21653 0.0574,0.4148 0.0939,0.69917 0.0365,0.28438 0.0887,0.65484 0.14611,0.994 0.0574,0.33916 0.12002,0.64702 0.17219,0.94183 0.0522,0.29481 0.0939,0.57655 0.13044,0.86354 0.0365,0.28698 0.0678,0.57917 0.0913,0.9105 0.0235,0.33133 0.0391,0.70179 0.0548,1.12705 0.0157,0.42525 0.0313,0.90528 0.0444,1.81579 0.013,0.91051 0.0235,2.25147 0.0209,3.01588 -0.003,0.76442 -0.0183,0.95226 -0.0287,1.11923 -0.0104,0.16697 -0.0156,0.31308 -0.0313,0.50613 -0.0156,0.19305 -0.0417,0.43307 -0.0705,0.62352 -0.0287,0.19044 -0.06,0.33132 -0.0913,0.47481 -0.0313,0.14349 -0.0626,0.28959 -0.10695,0.42524 -0.0444,0.13565 -0.10175,0.26086 -0.16434,0.35214 -0.0626,0.0913 -0.13043,0.14868 -0.19825,0.20868 -0.0678,0.06 -0.13568,0.12263 -0.19828,0.17219 -0.0626,0.0496 -0.12001,0.0861 -0.25564,0.12783 -0.13563,0.0417 -0.34954,0.0887 -0.55041,0.0679 -0.20087,-0.0208 -0.38869,-0.10952 -0.63656,-0.33647 -0.24787,-0.22694 -0.55572,-0.59218 -0.82967,-0.96004 -0.27394,-0.36785 -0.51396,-0.73831 -0.74673,-1.0789 -0.23277,-0.34058 -0.4583,-0.65127 -0.65961,-0.90994 -0.20131,-0.25866 -0.37841,-0.46527 -0.62562,-0.8047 -0.24721,-0.33944 -0.56451,-0.8117 -1.05153,-1.44262 -0.487009,-0.63092 -1.143734,-1.42047 -1.64552,-2.0145 -0.501785,-0.59402 -0.848594,-0.99248 -1.258142,-1.47213 -0.409547,-0.47965 -0.881798,-1.04045 -1.306098,-1.51641 -0.4243,-0.47597 -0.800621,-0.86705 -1.132673,-1.14748 -0.332052,-0.28043 -0.619835,-0.45014 -0.992482,-0.67152 -0.372647,-0.22137 -0.830145,-0.49439 -1.298722,-0.72316 -0.468577,-0.22877 -0.948206,-0.41324 -1.542228,-0.59773 -0.594022,-0.18449 -1.3024,-0.36897 -1.962847,-0.49443 -0.660446,-0.12546 -1.272895,-0.19186 -1.955221,-0.21708 -0.682327,-0.0252 -1.434477,-0.009 -1.954054,-0.006 -0.519576,0.003 -0.806559,-0.008 -1.252693,0.0315 -0.446134,0.0391 -1.051389,0.12783 -1.573188,0.23218 -0.521799,0.10436 -0.960089,0.22437 -1.35144,0.35742 -0.391351,0.13306 -0.735722,0.27915 -1.046186,0.42003 -0.310465,0.14089 -0.587005,0.27655 -0.868786,0.44613 -0.281781,0.16958 -0.568755,0.37307 -0.86987,0.61208 -0.301115,0.23901 -0.616342,0.51351 -0.82192,0.6895 -0.205578,0.17599 -0.301513,0.25348 -0.391915,0.3365 -0.0904,0.083 -0.175266,0.17157 -0.24168,0.24352 -0.06641,0.072 -0.114376,0.12729 -0.166037,0.19741 -0.05166,0.0701 -0.107,0.15497 -0.190018,0.3819 -0.08302,0.22693 -0.193703,0.59589 -0.295811,0.99689 -0.102107,0.401 -0.195635,0.83401 -0.354559,1.12352 -0.158925,0.28951 -0.383283,0.4356 -0.618077,0.55823 -0.234794,0.12262 -0.480011,0.22175 -0.873929,0.25829 -0.393917,0.0365 -0.936558,0.0104 -1.351367,-0.0548 -0.414809,-0.0652 -0.70179,-0.16956 -1.064432,-0.35217 -0.362642,-0.18261 -0.80093,-0.44349 -1.385342,-0.96786 -0.584413,-0.52437 -1.31489,-1.31224 -1.914965,-2.11057 -0.600075,-0.79833 -1.069669,-1.60708 -1.510555,-2.18889 -0.440886,-0.58181 -0.853083,-0.93661 -1.162004,-1.24287 -0.30892,-0.30626 -0.514519,-0.56398 -0.702198,-0.87362 -0.187679,-0.30965 -0.357396,-0.67122 -0.305791,-1.13246 0.05161,-0.46125 0.324627,-1.02205 0.343133,-1.4832 0.01851,-0.46116 -0.217619,-0.82272 -0.420561,-1.19537 -0.202943,-0.37264 -0.372662,-0.75635 -0.531334,-1.39834 -0.158672,-0.64198 -0.306249,-1.542221 -0.232471,-2.143699 0.07378,-0.601477 0.368938,-0.904016 0.689993,-1.051603 0.321055,-0.147586 0.667884,-0.140216 1.150941,0.137324 0.483057,0.277539 1.102304,0.825084 1.452795,1.134992 0.350492,0.309908 0.432182,0.382137 0.578318,0.268026 0.146135,-0.114111 0.356075,-0.413657 0.772584,-1.008057 0.416508,-0.594399 1.039229,-1.483142 1.894275,-2.084221 0.855046,-0.601078 1.941075,-0.913655 2.548361,-1.088451 0.607286,-0.174796 0.735357,-0.211673 0.705278,-0.395678 -0.03008,-0.184004 -0.218132,-0.51479 -0.576573,-1.649626 -0.358441,-1.134835 -0.886882,-3.072767 -1.472129,-4.483926 -0.585247,-1.411159 -1.226858,-2.294266 -1.756354,-3.004724 -0.529495,-0.710457 -0.946897,-1.248276 -1.364184,-1.785946 0,0 0,0 0,0 -0.51941,-0.460807 -1.039054,-0.921821 -1.573949,-1.276565 -0.534895,-0.354745 -1.087607,-0.604582 -1.546814,-0.770017 -0.459206,-0.165436 -0.829257,-0.248037 -1.116186,-0.311387 -0.286929,-0.06335 -0.491771,-0.107677 -1.364225,-0.02662 -0.872455,0.08106 -2.416254,0.287881 -3.513886,0.365722 -1.097631,0.07784 -1.750446,0.02687 -2.222733,-0.01003 -0.472288,-0.0369 -0.764159,-0.05972 -0.901293,-9.77e-4 -0.137134,0.05875 -0.119834,0.19904 -0.07953,0.526291 0.0403,0.327251 0.103597,0.841429 0.224127,1.369108 0.12053,0.52768 0.298129,1.068375 0.460809,1.497602 0.16268,0.429227 0.310219,0.746441 0.288046,1.07477 -0.02217,0.328329 -0.213979,0.667727 -0.405812,1.007175"
       id="path847"
       inkscape:path-effect="#path-effect849"
       inkscape:original-d="m 56.701632,87.534568 c -0.16221,0.05915 -0.32455,0.11819 -0.48702,0.1771 -0.15483,-0.02938 -0.30979,-0.05889 -0.46488,-0.08855 -0.12532,-0.02197 -0.25076,-0.04414 -0.37634,-0.06641 -0.22124,-0.09581 -0.44261,-0.191733 -0.66412,-0.287785 -0.16221,-0.117942 -0.32455,-0.236006 -0.48702,-0.354201 -0.15483,-0.147455 -0.30979,-0.295037 -0.46488,-0.442746 -0.15484,-0.0958 -0.3098,-0.191728 -0.46488,-0.287784 -0.11794,-0.110563 -0.23601,-0.221247 -0.3542,-0.332058 -0.12532,-0.125321 -0.25076,-0.250764 -0.37634,-0.376334 -0.236,-0.324561 -0.47213,-0.649234 -0.70839,-0.974043 -0.14746,-0.23601 -0.29504,-0.472138 -0.44275,-0.708397 -0.0589,-0.206487 -0.11794,-0.413101 -0.17709,-0.619841 -0.0515,-0.169599 -0.10319,-0.339315 -0.15497,-0.509163 -0.0442,-0.184353 -0.0884,-0.368824 -0.13282,-0.55343 0.008,-0.117942 0.0149,-0.236006 0.0221,-0.354196 0.0149,-0.09581 0.0296,-0.191733 0.0443,-0.287789 -0.0294,-0.103183 -0.0589,-0.206488 -0.0885,-0.309919 -0.0663,-0.103183 -0.1327,-0.206492 -0.19923,-0.309923 -0.0884,-0.05891 -0.17698,-0.117942 -0.26565,-0.177101 -0.0663,-0.06628 -0.1327,-0.132696 -0.19924,-0.199234 -0.0737,-0.103183 -0.14745,-0.206487 -0.22137,-0.309923 -0.0958,-0.110563 -0.19173,-0.221247 -0.28779,-0.332057 -0.0663,-0.169599 -0.1327,-0.339316 -0.19923,-0.509163 -0.1327,-0.272903 -0.26552,-0.545924 -0.39847,-0.819081 -0.0589,-0.236005 -0.11794,-0.472133 -0.1771,-0.708392 -0.007,-0.184353 -0.0146,-0.368828 -0.0221,-0.553435 -0.0294,-0.250765 -0.0589,-0.501647 -0.0885,-0.752669 0.0518,-0.140076 0.10343,-0.280279 0.15496,-0.420608 0.0444,-0.117942 0.0887,-0.236005 0.13283,-0.354196 0.0444,-0.125321 0.0887,-0.250765 0.13282,-0.376334 -0.0368,-0.08105 -0.0737,-0.162215 -0.11069,-0.243512 -0.0589,-0.08104 -0.11794,-0.162215 -0.1771,-0.243507 -0.081,-0.110567 -0.16221,-0.221252 -0.24351,-0.332062 -0.14745,-0.140081 -0.29503,-0.280279 -0.44274,-0.420608 -0.15484,-0.221251 -0.3098,-0.44262 -0.46489,-0.664124 -0.11056,-0.169594 -0.22124,-0.33931 -0.33206,-0.509157 0.0149,-0.147456 0.0296,-0.295038 0.0443,-0.442747 0.0739,-0.228628 0.1477,-0.457376 0.22137,-0.686256 0.28791,-0.287662 0.57569,-0.57544 0.86336,-0.863356 0.3248,-0.37621 0.64948,-0.752538 0.97404,-1.129003 0.44287,-0.413106 0.88561,-0.826328 1.32824,-1.23969 0.59783,-0.38359 1.19553,-0.767295 1.79312,-1.151141 0.54618,-0.272903 1.09222,-0.545924 1.63816,-0.819081 0.70852,-0.20649 1.4169,-0.413102 2.12519,-0.619845 0.83396,-0.191733 1.66778,-0.383586 2.50151,-0.57557 1.02714,-0.07508 2.05412,-0.150282 3.08103,-0.22561 0.73062,-0.06249 1.4611,-0.125102 2.19148,-0.187842 0.11492,-0.02075 0.22971,-0.04162 0.34438,-0.06261 -0.11467,-0.135539 -0.22946,-0.2712 -0.34438,-0.406989 -0.10423,-0.187718 -0.20859,-0.375555 -0.31307,-0.563525 0.0836,-0.208589 0.16709,-0.417297 0.25046,-0.626137 0.40711,-0.37556 0.81409,-0.751235 1.22097,-1.127048 0.44885,-0.323381 0.89757,-0.646879 1.34619,-0.970515 0.52191,-0.271202 1.04368,-0.542523 1.56535,-0.81398 0.51147,-0.25033 1.0228,-0.500781 1.53404,-0.751364 0.64713,-0.145975 1.29412,-0.292071 1.94102,-0.438297 0.30276,-0.04162 0.60539,-0.08336 0.9079,-0.125228 -0.14597,-0.06249 -0.29207,-0.125102 -0.43829,-0.187841 -0.17729,-0.06249 -0.35469,-0.125102 -0.53222,-0.187842 -0.32338,-0.04162 -0.64688,-0.08336 -0.97051,-0.125227 -0.34426,-0.08336 -0.68862,-0.166845 -1.03313,-0.250455 -0.50079,-0.07293 -1.00169,-0.145973 -1.50273,-0.219148 -0.21903,0.01056 -0.43817,0.02099 -0.65745,0.03131 -0.18772,-0.427737 -0.37555,-0.855589 -0.56352,-1.283584 1.2e-4,-0.135539 1.2e-4,-0.271199 0,-0.406988 0.26101,-0.292075 0.5219,-0.584267 0.78267,-0.876594 1.01122,-0.77512 2.02229,-1.550347 3.03328,-2.32573 1.07747,-0.604963 2.1548,-1.210038 3.23205,-1.815261 1.10699,-0.501654 2.21383,-1.003423 3.3206,-1.505337 1.57925,-0.472139 3.15835,-0.944391 4.73738,-1.416788 1.96297,-0.38359 3.92577,-0.767296 5.88853,-1.151141 1.81538,-0.08843 5.44578,-0.265648 5.44578,-0.265648 l 6.02135,0.309922 1.715638,0.210305 0.86336,0.154961 1.31717,0.132824 2.64541,0.431678 1.18435,0.199236 0.86335,0.597708 0.22137,0.686257 -0.22137,0.619844 -0.61984,0.597708 1.26183,0.154961 3.09922,0.752669 4.93662,1.505337 4.9809,2.014496 2.55067,1.192088 c 0,0 1.55501,0.793223 2.33236,1.18966 0.41755,0.234927 0.83497,0.469724 1.25228,0.704406 0.21405,0.109699 0.42797,0.21927 0.64179,0.328722 0.21405,0.08361 0.42798,0.167094 0.64179,0.250456 0.13579,0.167095 0.27144,0.334061 0.40699,0.500911 0.0679,0.219272 0.13578,0.438416 0.20349,0.657444 1.2e-4,0.135787 1.2e-4,0.271448 0,0.406989 -0.10423,0.146224 -0.20858,0.292319 -0.31307,0.438298 -0.0625,0.09404 -0.1251,0.187963 -0.18784,0.281761 -0.16163,0.07317 -0.32337,0.146222 -0.48526,0.219149 -0.15119,-0.02075 -0.3025,-0.04162 -0.45395,-0.06261 -0.19293,-0.07814 -0.38599,-0.156409 -0.57917,-0.234801 -0.27642,-0.06249 -0.55296,-0.125104 -0.82963,-0.187842 -0.4434,-0.130321 -0.8869,-0.260765 -1.33055,-0.391336 -0.26598,-0.03118 -0.53209,-0.06249 -0.79832,-0.09392 -0.33904,-0.06249 -0.67819,-0.125104 -1.01748,-0.187842 -0.54775,-0.07814 -1.09561,-0.156409 -1.64361,-0.234802 -0.43295,-0.06771 -0.86603,-0.135538 -1.29924,-0.203495 -0.36512,-0.05205 -0.73036,-0.104231 -1.09574,-0.156535 0.10448,0.04187 0.20884,0.08361 0.31307,0.125229 0.15666,0.0523 0.31319,0.104478 0.4696,0.156534 0.14101,0.04708 0.28189,0.09405 0.42265,0.140881 0.48016,0.208837 0.96019,0.417545 1.44011,0.626137 0.31778,0.178036 0.63542,0.355946 0.95294,0.533736 0.16247,0.08867 0.32481,0.177222 0.48703,0.265649 0.22887,0.129258 0.45762,0.25839 0.68626,0.387403 0.23994,0.162464 0.47976,0.324801 0.71945,0.487021 0.2953,0.166154 0.59045,0.332181 0.8855,0.49809 0.33956,0.236255 0.67899,0.472381 1.01832,0.708393 0.78584,0.652333 1.57156,1.304527 2.35717,1.956624 0.15666,0.104481 0.31319,0.208834 0.4696,0.313069 0.2558,0.240144 0.51147,0.480159 0.76702,0.720059 0.2558,0.22449 0.51147,0.448852 0.76702,0.673098 0.42277,0.41755 0.8454,0.834966 1.26793,1.252277 0.32885,0.339282 0.65757,0.678432 0.98617,1.017474 0.20361,0.255796 0.40711,0.511464 0.61048,0.767018 0.21406,0.292322 0.42798,0.584514 0.64179,0.876594 0.21406,0.255796 0.42799,0.511465 0.6418,0.767018 0.34971,0.41755 0.6993,0.834967 1.04878,1.252276 0.18274,0.229708 0.36537,0.459286 0.54787,0.68875 0.15144,0.229709 0.30275,0.459291 0.45395,0.688756 0.141,0.1984 0.28188,0.396674 0.42264,0.594831 0.1671,0.276666 0.33406,0.553205 0.50091,0.829632 0.15144,0.21927 0.30276,0.438417 0.45395,0.657443 0.20883,0.37059 0.41755,0.741049 0.62614,1.111396 0.28188,0.448856 0.56364,0.897581 0.84529,1.346198 0.0627,0.193181 0.12535,0.386235 0.18783,0.579177 0.0993,0.172312 0.19841,0.344497 0.29742,0.516565 0.10448,0.156658 0.20884,0.313189 0.31307,0.469603 0.0888,0.187961 0.17753,0.375801 0.26611,0.563523 0.0993,0.193181 0.1984,0.38624 0.29742,0.579177 0.0575,0.125354 0.11491,0.250577 0.17218,0.375683 0.1097,0.193181 0.21927,0.38624 0.32872,0.579177 0.11492,0.255797 0.22971,0.511468 0.34438,0.767021 0.0888,0.182747 0.17753,0.365366 0.26611,0.547869 0.0314,0.151443 0.0627,0.302755 0.0939,0.453949 -0.0103,0.125354 -0.0208,0.250578 -0.0313,0.375684 -0.0573,0.10448 -0.11466,0.208834 -0.17219,0.313067 -0.0886,0.104485 -0.17727,0.208835 -0.26611,0.313072 -0.10423,0.05752 -0.20858,0.114915 -0.31306,0.172185 -0.13032,0.01054 -0.26077,0.02099 -0.39134,0.0313 -0.17728,-0.02596 -0.35468,-0.05207 -0.53221,-0.07827 -0.12511,-0.0938 -0.25033,-0.187717 -0.37569,-0.281764 -0.14075,-0.104232 -0.28164,-0.208586 -0.42264,-0.313067 -0.18772,-0.198152 -0.56353,-0.594831 -0.56353,-0.594831 l -0.43829,-0.4383 c 0,0 -0.34425,-0.323375 -0.51657,-0.485257 -0.25398,-0.21061 -0.76232,-0.632206 -0.76232,-0.632206 l -0.28778,-0.199235 -0.19924,-0.199239 -0.42061,-0.442746 -0.55343,-0.46488 -0.5313,-0.398474 -0.66412,-0.509157 -0.66412,-0.464885 -0.75266,-0.553435 -1.08474,-0.75267 -0.48194,-0.14172 0.26611,0.250455 0.39134,0.673102 0.42264,0.735712 0.0626,0.453949 -0.047,0.172186 -0.10957,0.328721 -0.28176,0.297418 -0.15654,0.140882 -0.26611,0.140877 c 0,0 -0.15641,0.01054 -0.2348,0.01565 -0.0781,0.01574 -0.15641,0.03144 -0.2348,0.04696 0.0105,0.02619 0.0313,0.07827 0.0313,0.07827 l 0.2348,0.313067 0.29742,0.328721 c 0,0 0.32362,0.407109 0.48526,0.610485 0.13578,0.208835 0.27144,0.417543 0.40698,0.626139 0.16188,0.302755 0.32363,0.605383 0.48526,0.907899 0.17753,0.339282 0.35493,0.678433 0.53222,1.017476 0.141,0.29232 0.28188,0.584514 0.42264,0.87659 0.0836,0.234928 0.16709,0.469725 0.25046,0.704405 0.14864,0.37678 0.29716,0.753428 0.44556,1.129969 0.0333,0.09974 0.0665,0.199356 0.0996,0.298852 0.037,0.136637 0.0739,0.273147 0.11069,0.40954 0.0186,0.06654 0.037,0.132945 0.0553,0.199235 0.037,0.169842 0.0739,0.339558 0.11069,0.509157 0.0333,0.151396 0.0665,0.302666 0.0996,0.453818 0.026,0.162463 0.0518,0.3248 0.0775,0.487019 0.037,0.225187 0.0739,0.450248 0.11069,0.675191 0.0223,0.118186 0.0444,0.236249 0.0664,0.354196 0.0149,0.147704 0.0297,0.295286 0.0443,0.442746 0.004,0.09236 0.007,0.184597 0.0111,0.276718 -0.011,0.08867 -0.022,0.177217 -0.0332,0.265646 -0.0478,0.121882 -0.0958,0.243633 -0.14389,0.365267 -0.0921,0.08867 -0.18435,0.177218 -0.27672,0.265646 -0.10687,0.04072 -0.21387,0.08127 -0.32099,0.121756 -0.18066,0.03701 -0.36145,0.07391 -0.54237,0.110689 -0.0809,-0.0085 -0.16186,-0.0171 -0.24299,-0.02582 -0.11467,-0.04685 -0.22945,-0.09379 -0.34437,-0.140877 -0.11989,-0.177283 -0.23989,-0.354688 -0.36003,-0.532219 -0.14076,-0.198152 -0.28164,-0.396426 -0.42264,-0.594831 -0.0834,-0.166849 -0.16685,-0.333815 -0.25046,-0.500912 -0.13554,-0.166844 -0.2712,-0.333814 -0.40699,-0.500911 -0.16163,-0.187717 -0.32338,-0.375552 -0.48526,-0.563523 -0.20337,-0.177283 -0.40686,-0.354683 -0.61048,-0.532214 -0.14598,-0.182503 -0.29208,-0.365123 -0.4383,-0.547874 -0.19294,-0.130321 -0.38599,-0.260763 -0.57918,-0.391337 -0.19293,-0.09901 -0.38599,-0.198152 -0.57917,-0.297414 -0.18251,-0.14076 -0.36513,-0.281637 -0.54788,-0.422645 -0.20337,-0.140756 -0.40686,-0.281633 -0.61048,-0.422641 -0.13554,-0.104232 -0.2712,-0.208587 -0.40699,-0.313072 -0.21902,-0.109447 -0.43817,-0.219021 -0.65745,-0.328721 -0.28685,-0.125102 -0.57383,-0.250329 -0.86094,-0.375684 -0.23962,-0.09432 -0.47937,-0.188771 -0.71925,-0.283347 -0.14008,-0.04414 -0.28028,-0.08841 -0.42061,-0.132828 -0.31718,-0.0958 -0.63448,-0.191728 -0.95191,-0.287784 -0.25076,-0.06629 -0.50165,-0.132697 -0.75266,-0.199235 -0.28767,-0.05891 -0.57545,-0.117942 -0.86336,-0.1771 -0.50166,-0.0589 -1.00343,-0.117937 -1.50534,-0.177096 -0.21387,-0.01462 -0.42786,-0.02938 -0.64198,-0.04428 -0.0884,-0.0072 -0.17698,-0.01462 -0.26565,-0.02211 0.0444,0.05916 0.0887,0.11819 0.13283,0.1771 0.0961,0.103431 0.19198,0.20674 0.28778,0.309923 0.19198,0.169843 0.38384,0.339559 0.57557,0.509158 0.15509,0.177222 0.31004,0.354318 0.46488,0.531296 0.22888,0.273152 0.45763,0.546173 0.68626,0.819081 0.11081,0.140329 0.2215,0.280527 0.33206,0.420608 0.10343,0.11081 0.20674,0.221495 0.30992,0.332062 0.16247,0.251013 0.32481,0.501899 0.48703,0.752669 0.19197,0.287906 0.38383,0.575686 0.57557,0.863354 0.23625,0.413354 0.47238,0.826577 0.70839,1.239693 0.15509,0.287906 0.31004,0.575686 0.46488,0.863353 0.17722,0.346943 0.35432,0.693755 0.5313,1.040454 0.16984,0.450248 0.33956,0.900364 0.50916,1.350378 0.0887,0.324804 0.17722,0.649477 0.26565,0.974042 0.13294,0.450248 0.26576,0.900364 0.39847,1.350377 0.0591,0.398596 0.11819,0.79706 0.1771,1.195416 0.0592,0.251013 0.11818,0.501895 0.17709,0.752665 0.0186,0.11819 0.037,0.23625 0.0554,0.3542 0.004,0.12926 0.007,0.25839 0.0111,0.3874 0.0297,0.18091 0.0592,0.3617 0.0885,0.54237 0.007,0.13664 0.0149,0.27315 0.0221,0.40954 0.026,0.16247 0.0518,0.3248 0.0775,0.48703 0.0186,0.22149 0.037,0.44286 0.0553,0.66411 -0.0294,0.12557 -0.0589,0.25101 -0.0885,0.37634 -0.0478,0.12188 -0.0958,0.24363 -0.1439,0.36526 -0.0774,0.0628 -0.15483,0.12557 -0.23244,0.18817 -0.14377,0.0444 -0.28766,0.0887 -0.43168,0.13282 -0.16221,0.0223 -0.32455,0.0444 -0.48702,0.0664 -0.15114,-0.0626 -0.30241,-0.12532 -0.45381,-0.18817 -0.13639,-0.0737 -0.2729,-0.14746 -0.40954,-0.22137 -0.0811,-0.1327 -0.16222,-0.26552 -0.24351,-0.39847 -0.07,-0.0958 -0.14008,-0.19174 -0.21031,-0.28779 -0.0884,-0.14746 -0.17697,-0.29504 -0.26565,-0.44274 -0.12532,-0.24339 -0.25076,-0.4869 -0.37633,-0.73054 -0.15484,-0.14746 -0.3098,-0.29503 -0.46488,-0.44275 -0.2065,-0.21387 -0.41311,-0.42786 -0.61985,-0.64198 -0.37621,-0.3098 -0.75254,-0.619719 -1.129,-0.929773 l -0.61985,-0.619842 c -0.28766,-0.176974 -0.57544,-0.35407 -0.86335,-0.531297 -0.2065,-0.169594 -0.41311,-0.33931 -0.61985,-0.509157 -0.36145,-0.176974 -0.72302,-0.35407 -1.08473,-0.531297 -0.4131,-0.176973 -0.82632,-0.354069 -1.23969,-0.531296 -0.28766,-0.0958 -0.57544,-0.191733 -0.86335,-0.287785 -0.36145,-0.106874 -0.72302,-0.213867 -1.08473,-0.32099 -0.0294,-0.01096 -0.0589,-0.02202 -0.0885,-0.03322 -0.10687,-0.02938 -0.21387,-0.05889 -0.32099,-0.08855 -0.0847,-0.03678 -0.1696,-0.07367 -0.25458,-0.110689 -0.0626,-0.02197 -0.12532,-0.04414 -0.18817,-0.06641 -0.0884,-0.08104 -0.17697,-0.162215 -0.26565,-0.243512 -0.07,-0.121629 -0.14007,-0.243381 -0.2103,-0.365263 -0.022,-0.180666 -0.0441,-0.361449 -0.0664,-0.542363 -0.0626,-0.04414 -0.12532,-0.0884 -0.18817,-0.132823 -0.10318,-0.02572 -0.20649,-0.05153 -0.30992,-0.07748 -0.12163,-0.01832 -0.24339,-0.03678 -0.36526,-0.05535 -0.1696,-0.05522 -0.33932,-0.110558 -0.50917,-0.166028 -0.16959,-0.02572 -0.33931,-0.05152 -0.50915,-0.07748 -0.0368,1.22e-4 -0.0737,1.22e-4 -0.11069,0 -0.003,0.04766 -0.007,0.09519 -0.0109,0.142592 0.0836,0.08361 0.16709,0.167092 0.25045,0.250456 0.0836,0.114915 0.16709,0.229708 0.25046,0.344375 0.0888,0.08361 0.17752,0.167097 0.26611,0.250456 0.10448,0.182746 0.20883,0.36537 0.31306,0.547873 0.10448,0.141004 0.20884,0.281881 0.31307,0.422641 0.11492,0.167097 0.22971,0.334063 0.34438,0.500911 0.0575,0.146224 0.11491,0.29232 0.17219,0.438295 0.0314,0.13057 0.0627,0.261012 0.0939,0.391338 -0.0103,0.06274 -0.0208,0.12535 -0.0313,0.187844 -0.0729,0.245358 -0.14598,0.490594 -0.21915,0.735708 0.0314,0.146223 0.0627,0.29232 0.0939,0.4383 0.26623,0.866277 0.53233,1.732416 0.79832,2.598466 0.0366,0.068 0.0732,0.13579 0.10958,0.2035 0.0471,0.24536 0.094,0.49059 0.14088,0.73571 0.068,0.32885 0.13578,0.65756 0.20349,0.98617 0.0993,0.53756 0.1984,1.07498 0.29742,1.6123 0.23492,1.4559 0.46972,2.91164 0.70441,4.36732 1.2e-4,0.0575 1.2e-4,0.11491 0,0.17218 0.021,0.15144 0.0418,0.30276 0.0626,0.45395 0.0105,0.14623 0.021,0.29232 0.0313,0.4383 0.0158,0.1984 0.0314,0.39667 0.0469,0.59483 0.0106,0.21928 0.021,0.43842 0.0313,0.65744 0.021,0.20884 0.0418,0.41755 0.0626,0.62614 -0.005,0.13057 -0.0103,0.26102 -0.0156,0.39134 0.021,0.16188 0.0418,0.32362 0.0626,0.48526 1.3e-4,0.10969 1.3e-4,0.21927 0,0.32872 -0.0208,0.12535 -0.0416,0.25058 -0.0626,0.37568 -0.0364,0.13057 -0.0729,0.26101 -0.10957,0.39134 -0.0521,0.0784 -0.10424,0.15666 -0.15654,0.2348 -0.10423,0.0732 -0.20859,0.14622 -0.31307,0.21915 -0.14076,0.0523 -0.28163,0.10448 -0.42264,0.15654 -0.13554,-0.005 -0.2712,-0.0103 -0.40699,-0.0157 -0.17207,-0.0677 -0.34425,-0.13554 -0.51657,-0.2035 -0.099,-0.099 -0.19815,-0.19815 -0.29741,-0.29742 -0.11467,-0.1825 -0.22946,-0.36512 -0.34438,-0.54786 -0.0781,-0.21382 -0.1564,-0.42774 -0.2348,-0.6418 -0.0573,-0.13032 -0.11467,-0.26076 -0.17219,-0.39133 -0.0834,-0.16163 -0.16684,-0.32338 -0.25045,-0.48526 -0.099,-0.17207 -0.19815,-0.34425 -0.29742,-0.51656 -0.19815,-0.27643 -0.39642,-0.55296 -0.59483,-0.82964 -0.17728,-0.27642 -0.35468,-0.55296 -0.53221,-0.82963 -0.17207,-0.19293 -0.34425,-0.38599 -0.51657,-0.57918 -0.24511,-0.28685 -0.49035,-0.57383 -0.73571,-0.86094 -0.2399,-0.23989 -0.47991,-0.47991 -0.72006,-0.72006 -0.22424,-0.20337 -0.4486,-0.40686 -0.6731,-0.61048 -0.32338,-0.30251 -0.64688,-0.60514 -0.97051,-0.9079 -0.11467,-0.0886 -0.22946,-0.17728 -0.34438,-0.26611 -0.17206,-0.13554 -0.34425,-0.2712 -0.51656,-0.40699 -0.1251,-0.1251 -0.25033,-0.25033 -0.37569,-0.37568 -0.17206,-0.10945 -0.34425,-0.21902 -0.51656,-0.32872 -0.29207,-0.19816 -0.58426,-0.39643 -0.87659,-0.59483 -0.22424,-0.13554 -0.44861,-0.27121 -0.6731,-0.407 -0.22424,-0.14075 -0.44861,-0.28163 -0.6731,-0.42264 -0.1251,-0.0729 -0.25033,-0.14597 -0.37568,-0.21915 -0.16163,-0.0677 -0.32338,-0.13553 -0.48526,-0.20349 -0.20859,-0.15641 -0.4173,-0.31294 -0.62613,-0.46961 -0.0625,-0.0364 -0.12511,-0.0729 -0.18785,-0.10957 -0.0364,1.2e-4 -0.0729,1.2e-4 -0.10957,0 0.0262,0.0523 0.0523,0.10448 0.0783,0.15654 0.0366,0.0836 0.0732,0.16709 0.10957,0.25045 0.0575,0.094 0.11492,0.18796 0.17219,0.28176 0.0575,0.14101 0.11491,0.28189 0.17219,0.42265 0.0366,0.11491 0.0732,0.2297 0.10957,0.34437 0.0575,0.15144 0.11492,0.30276 0.17219,0.45395 0.068,0.22971 0.13578,0.45929 0.20349,0.68875 0.0784,0.2558 0.15666,0.51147 0.23481,0.76702 0.0471,0.21406 0.094,0.42798 0.14088,0.64179 0.0523,0.23493 0.10447,0.46973 0.15653,0.70441 0.021,0.1984 0.0418,0.39667 0.0626,0.59483 0.0523,0.37059 0.10448,0.74105 0.15654,1.11139 0.0627,0.30798 0.12535,0.61583 0.18784,0.92356 0.0419,0.28189 0.0836,0.56364 0.12523,0.84528 0.0314,0.29233 0.0627,0.58452 0.0939,0.8766 0.0157,0.37059 0.0314,0.74105 0.047,1.11139 0.0158,0.48017 0.0314,0.9602 0.047,1.44012 0.0105,1.3411 0.021,2.68206 0.0313,4.02294 -0.0155,0.18796 -0.0312,0.3758 -0.047,0.56352 -0.005,0.14622 -0.0103,0.29232 -0.0156,0.4383 -0.0259,0.24014 -0.0521,0.48015 -0.0783,0.72006 -0.0312,0.141 -0.0625,0.28188 -0.0939,0.42264 -0.0312,0.14622 -0.0625,0.29232 -0.0939,0.4383 -0.0573,0.12535 -0.11467,0.25057 -0.17219,0.37568 -0.0677,0.0575 -0.13554,0.11491 -0.20349,0.17219 -0.0677,0.0627 -0.13554,0.12535 -0.2035,0.18784 -0.0573,0.0366 -0.11466,0.0732 -0.17219,0.10957 -0.2138,0.0471 -0.42773,0.094 -0.64179,0.14088 -0.18772,-0.0886 -0.37555,-0.17728 -0.56352,-0.26611 -0.30773,-0.36512 -0.61558,-0.73036 -0.92356,-1.09574 -0.23989,-0.37034 -0.47991,-0.7408 -0.72005,-1.11139 -0.22541,-0.31058 -0.45094,-0.62127 -0.6766,-0.9321 -0.17697,-0.20649 -0.35407,-0.4131 -0.5313,-0.61984 -0.31717,-0.47214 -0.63447,-0.9444 -0.9519,-1.41679 -0.656618,-0.78944 -1.313338,-1.57899 -1.970218,-2.36869 -0.3467,-0.39835 -0.69351,-0.79681 -1.04046,-1.19542 -0.47214,-0.56069 -0.94439,-1.12149 -1.41678,-1.68243 -0.37622,-0.39098 -0.75254,-0.78206 -1.12901,-1.17329 -0.28766,-0.16959 -0.57544,-0.33931 -0.86336,-0.50915 -0.45737,-0.27291 -0.91487,-0.54593 -1.37251,-0.81908 -0.47952,-0.18436 -0.95915,-0.36883 -1.43892,-0.55343 -0.70827,-0.18436 -1.41665,-0.36883 -2.12519,-0.55344 -0.61234,-0.0663 -1.22479,-0.1327 -1.83739,-0.19923 -0.75204,0.0161 -1.50419,0.0321 -2.2565,0.048 -0.28685,-0.0103 -0.57383,-0.0208 -0.86094,-0.0313 -0.60514,0.0888 -1.21039,0.17753 -1.81579,0.26611 -0.43818,0.12013 -0.87647,0.24014 -1.31489,0.36003 -0.34426,0.14622 -0.68863,0.29232 -1.03313,0.4383 -0.27642,0.13578 -0.55296,0.27144 -0.82964,0.40699 -0.28685,0.20362 -0.57383,0.4071 -0.86094,0.61048 -0.3151,0.27463 -0.63033,0.54913 -0.94569,0.82352 -0.0958,0.0776 -0.19173,0.15509 -0.28779,0.23244 -0.0847,0.0887 -0.16959,0.17723 -0.25458,0.26565 -0.0478,0.0555 -0.0958,0.11081 -0.14389,0.16603 -0.0552,0.085 -0.11056,0.16984 -0.16603,0.25458 -0.11056,0.36908 -0.22125,0.73803 -0.33206,1.10687 -0.0934,0.43315 -0.18693,0.86616 -0.28059,1.29907 -0.22424,0.14623 -0.4486,0.29232 -0.6731,0.4383 -0.24511,0.0993 -0.49034,0.1984 -0.73571,0.29742 -0.54253,-0.026 -1.08517,-0.0521 -1.62796,-0.0783 -0.28685,-0.10423 -0.57383,-0.20859 -0.86093,-0.31307 -0.43818,-0.26077 -0.87647,-0.52165 -1.3149,-0.78267 -0.73036,-0.78777 -1.46084,-1.57564 -2.19148,-2.36367 -0.46948,-0.80864 -0.93907,-1.61739 -1.40881,-2.42629 -0.41208,-0.35469 -0.82428,-0.70949 -1.23662,-1.06443 -0.20548,-0.2576 -0.41108,-0.51532 -0.6168,-0.77317 -0.1696,-0.36145 -0.33932,-0.72302 -0.50916,-1.08473 0.27315,-0.56069 0.54617,-1.12149 0.81908,-1.68243 -0.23601,-0.36146 -0.47214,-0.72302 -0.7084,-1.08473 -0.16959,-0.38359 -0.33931,-0.7673 -0.50916,-1.15114 -0.14745,-0.90012 -0.29503,-1.800358 -0.44274,-2.700755 0.29529,-0.302417 0.59045,-0.604956 0.88549,-0.907626 0.34694,0.0075 0.69377,0.01485 1.04045,0.02211 0.61943,0.547719 1.23868,1.09526 1.85797,1.642838 0.0817,0.07223 0.16338,0.144471 0.24508,0.216697 0.21072,-0.300355 0.42052,-0.599999 0.63076,-0.89998 0.62285,-0.888767 1.24563,-1.777469 1.86861,-2.666869 1.08702,-0.312702 2.17304,-0.62531 3.25951,-0.938143 0.12807,-0.03687 0.25618,-0.07361 0.38423,-0.110637 -0.18821,-0.331148 -0.37626,-0.661936 -0.5646,-0.993126 -0.5285,-1.93848 -1.05694,-3.876412 -1.58576,-5.815398 -0.64174,-0.883323 -1.28335,-1.766431 -1.92519,-2.64981 -0.41715,-0.537537 -1.25186,-1.61301 -1.25186,-1.61301 v 0 c 0,0 -1.03906,-0.921814 -1.55823,-1.382421 -0.55064,-0.24883 -1.10335,-0.498672 -1.65343,-0.747384 -0.36833,-0.08212 -0.73838,-0.164722 -1.10776,-0.24727 -0.20448,-0.04414 -0.40932,-0.08848 -0.61382,-0.132828 -1.54037,0.206507 -3.08417,0.413331 -4.6267,0.619847 -0.65276,-0.05086 -1.30557,-0.101894 -1.95845,-0.152928 -0.29169,-0.02282 -0.58357,-0.04554 -0.87513,-0.06844 0.0174,0.140282 0.0346,0.280588 0.0519,0.420879 0.0634,0.514199 0.12671,1.028375 0.18989,1.542541 0.17784,0.541183 0.35544,1.081878 0.53304,1.622827 0.14774,0.317504 0.29528,0.634718 0.44274,0.951904 -0.19171,0.339582 -0.5755,1.018343 -0.5755,1.018343"
       sodipodi:nodetypes="cccccccccccccccccccccccccccccccccccccccccccccccccccccccccccccccccccccccccccccccccccccccccccccccccccccccccccccccccccccccccccccccccccccccccccccccccccccccccccccccccccccccccccccccccccccccccccccccccccccccccccccccccccccccccccccccccccccccccccccccccccccccccccccccccccccccccccccccccccccccccccccccccccccccccccccccccccccccccccccccccccccccccccccccccccccccccccccccccccccccccccccccccccccccccccccccccccccccccccccccccccccccccccccccccccccccccccccccccccccc" />
  </g>
</svg>
