<?xml version="1.0" encoding="UTF-8" standalone="no"?>
<svg
   xmlns:dc="http://purl.org/dc/elements/1.1/"
   xmlns:cc="http://creativecommons.org/ns#"
   xmlns:rdf="http://www.w3.org/1999/02/22-rdf-syntax-ns#"
   xmlns:svg="http://www.w3.org/2000/svg"
   xmlns="http://www.w3.org/2000/svg"
   xmlns:sodipodi="http://sodipodi.sourceforge.net/DTD/sodipodi-0.dtd"
   xmlns:inkscape="http://www.inkscape.org/namespaces/inkscape"
   width="210mm"
   height="297mm"
   viewBox="0 0 210 297"
   version="1.1"
   id="svg8"
   inkscape:version="1.0.1 (3bc2e813f5, 2020-09-07)"
   sodipodi:docname="Silkscreen1.svg">
  <defs
     id="defs2">
    <inkscape:path-effect
       effect="bspline"
       id="path-effect3337"
       is_visible="true"
       lpeversion="1"
       weight="33.333333"
       steps="2"
       helper_size="0"
       apply_no_weight="true"
       apply_with_weight="true"
       only_selected="false" />
    <inkscape:path-effect
       effect="bspline"
       id="path-effect947"
       is_visible="true"
       lpeversion="1"
       weight="33.333333"
       steps="2"
       helper_size="0"
       apply_no_weight="true"
       apply_with_weight="true"
       only_selected="false" />
    <inkscape:path-effect
       effect="bspline"
       id="path-effect929"
       is_visible="true"
       lpeversion="1"
       weight="33.333333"
       steps="2"
       helper_size="0"
       apply_no_weight="true"
       apply_with_weight="true"
       only_selected="false" />
    <inkscape:path-effect
       effect="bspline"
       id="path-effect925"
       is_visible="true"
       lpeversion="1"
       weight="33.333333"
       steps="2"
       helper_size="0"
       apply_no_weight="true"
       apply_with_weight="true"
       only_selected="false" />
    <inkscape:path-effect
       effect="bspline"
       id="path-effect921"
       is_visible="true"
       lpeversion="1"
       weight="33.333333"
       steps="2"
       helper_size="0"
       apply_no_weight="true"
       apply_with_weight="true"
       only_selected="false" />
    <inkscape:path-effect
       effect="bspline"
       id="path-effect917"
       is_visible="true"
       lpeversion="1"
       weight="33.333333"
       steps="2"
       helper_size="0"
       apply_no_weight="true"
       apply_with_weight="true"
       only_selected="false" />
    <inkscape:path-effect
       effect="bspline"
       id="path-effect913"
       is_visible="true"
       lpeversion="1"
       weight="33.333333"
       steps="2"
       helper_size="0"
       apply_no_weight="true"
       apply_with_weight="true"
       only_selected="false" />
    <inkscape:path-effect
       effect="bspline"
       id="path-effect907"
       is_visible="true"
       lpeversion="1"
       weight="33.333333"
       steps="2"
       helper_size="0"
       apply_no_weight="true"
       apply_with_weight="true"
       only_selected="false" />
    <inkscape:path-effect
       effect="bspline"
       id="path-effect903"
       is_visible="true"
       lpeversion="1"
       weight="33.333333"
       steps="2"
       helper_size="0"
       apply_no_weight="true"
       apply_with_weight="true"
       only_selected="false" />
    <inkscape:path-effect
       effect="bspline"
       id="path-effect899"
       is_visible="true"
       lpeversion="1"
       weight="33.333333"
       steps="2"
       helper_size="0"
       apply_no_weight="true"
       apply_with_weight="true"
       only_selected="false" />
    <inkscape:path-effect
       effect="bspline"
       id="path-effect895"
       is_visible="true"
       lpeversion="1"
       weight="33.333333"
       steps="2"
       helper_size="0"
       apply_no_weight="true"
       apply_with_weight="true"
       only_selected="false" />
    <inkscape:path-effect
       effect="bspline"
       id="path-effect890"
       is_visible="true"
       lpeversion="1"
       weight="33.333333"
       steps="2"
       helper_size="0"
       apply_no_weight="true"
       apply_with_weight="true"
       only_selected="false" />
    <inkscape:path-effect
       effect="bspline"
       id="path-effect886"
       is_visible="true"
       lpeversion="1"
       weight="33.333333"
       steps="2"
       helper_size="0"
       apply_no_weight="true"
       apply_with_weight="true"
       only_selected="false" />
    <inkscape:path-effect
       effect="bspline"
       id="path-effect882"
       is_visible="true"
       lpeversion="1"
       weight="33.333333"
       steps="2"
       helper_size="0"
       apply_no_weight="true"
       apply_with_weight="true"
       only_selected="false" />
    <inkscape:path-effect
       effect="bspline"
       id="path-effect863"
       is_visible="true"
       lpeversion="1"
       weight="33.333333"
       steps="2"
       helper_size="0"
       apply_no_weight="true"
       apply_with_weight="true"
       only_selected="false" />
    <inkscape:path-effect
       effect="bspline"
       id="path-effect859"
       is_visible="true"
       lpeversion="1"
       weight="33.333333"
       steps="2"
       helper_size="0"
       apply_no_weight="true"
       apply_with_weight="true"
       only_selected="false" />
    <inkscape:path-effect
       effect="bspline"
       id="path-effect855"
       is_visible="true"
       lpeversion="1"
       weight="33.333333"
       steps="2"
       helper_size="0"
       apply_no_weight="true"
       apply_with_weight="true"
       only_selected="false" />
    <inkscape:path-effect
       effect="bspline"
       id="path-effect851"
       is_visible="true"
       lpeversion="1"
       weight="33.333333"
       steps="2"
       helper_size="0"
       apply_no_weight="true"
       apply_with_weight="true"
       only_selected="false" />
    <inkscape:path-effect
       effect="bspline"
       id="path-effect847"
       is_visible="true"
       lpeversion="1"
       weight="33.333333"
       steps="2"
       helper_size="0"
       apply_no_weight="true"
       apply_with_weight="true"
       only_selected="false" />
    <inkscape:path-effect
       effect="bspline"
       id="path-effect843"
       is_visible="true"
       lpeversion="1"
       weight="33.333333"
       steps="2"
       helper_size="0"
       apply_no_weight="true"
       apply_with_weight="true"
       only_selected="false" />
    <inkscape:path-effect
       effect="bspline"
       id="path-effect849"
       is_visible="true"
       lpeversion="1"
       weight="33.333333"
       steps="2"
       helper_size="0"
       apply_no_weight="true"
       apply_with_weight="true"
       only_selected="false" />
  </defs>
  <sodipodi:namedview
     id="base"
     pagecolor="#ffffff"
     bordercolor="#666666"
     borderopacity="1.0"
     inkscape:pageopacity="0.0"
     inkscape:pageshadow="2"
     inkscape:zoom="0.98994949"
     inkscape:cx="465.68318"
     inkscape:cy="700.6751"
     inkscape:document-units="mm"
     inkscape:current-layer="layer1"
     inkscape:document-rotation="0"
     showgrid="false"
     inkscape:window-width="1366"
     inkscape:window-height="705"
     inkscape:window-x="-8"
     inkscape:window-y="-8"
     inkscape:window-maximized="1" />
  <metadata
     id="metadata5">
    <rdf:RDF>
      <cc:Work
         rdf:about="">
        <dc:format>image/svg+xml</dc:format>
        <dc:type
           rdf:resource="http://purl.org/dc/dcmitype/StillImage" />
        <dc:title></dc:title>
      </cc:Work>
    </rdf:RDF>
  </metadata>
  <g
     inkscape:label="Layer 1"
     inkscape:groupmode="layer"
     id="layer1">
    <path
       style="fill:none;stroke:#000000;stroke-width:0.130118px;stroke-linecap:butt;stroke-linejoin:miter;stroke-opacity:1"
       d="m 47.004957,164.59334 c -0.170028,0.0621 -0.340074,0.12412 -0.506246,0.13968 -0.166172,0.0155 -0.32851,-0.0155 -0.475397,-0.0426 -0.146887,-0.0272 -0.278311,-0.0504 -0.459981,-0.11246 -0.181671,-0.062 -0.413593,-0.16292 -0.614599,-0.27542 -0.201007,-0.11249 -0.371082,-0.23664 -0.537301,-0.37631 -0.16622,-0.13966 -0.328564,-0.29485 -0.490902,-0.4229 -0.162337,-0.12805 -0.324681,-0.22892 -0.467707,-0.33754 -0.143027,-0.10861 -0.26672,-0.22501 -0.39428,-0.34915 -0.12756,-0.12415 -0.258983,-0.25606 -0.448402,-0.49272 -0.18942,-0.23666 -0.436796,-0.57807 -0.637805,-0.87294 -0.201008,-0.29486 -0.355618,-0.54315 -0.463875,-0.77593 -0.108256,-0.23278 -0.170103,-0.45007 -0.228079,-0.64793 -0.05798,-0.19785 -0.112096,-0.37633 -0.162356,-0.56257 -0.05026,-0.18624 -0.09664,-0.3802 -0.115992,-0.53931 -0.01936,-0.1591 -0.01164,-0.28321 -5.3e-5,-0.39573 0.01159,-0.11252 0.02706,-0.2134 0.01937,-0.31814 -0.0077,-0.10474 -0.03859,-0.21336 -0.0888,-0.322 -0.05022,-0.10863 -0.119783,-0.21726 -0.200909,-0.30263 -0.08113,-0.0854 -0.173941,-0.14747 -0.255122,-0.21341 -0.08118,-0.0659 -0.150756,-0.13576 -0.224218,-0.225 -0.07346,-0.0892 -0.150758,-0.19785 -0.239655,-0.31037 -0.0889,-0.11251 -0.189393,-0.2289 -0.274464,-0.37633 -0.08507,-0.14743 -0.154645,-0.32589 -0.259002,-0.55868 -0.104357,-0.23278 -0.24351,-0.51988 -0.344028,-0.78758 -0.100517,-0.2677 -0.162366,-0.51602 -0.197163,-0.73717 -0.0348,-0.22115 -0.04251,-0.41513 -0.06182,-0.64404 -0.0193,-0.2289 -0.05021,-0.49272 -0.03862,-0.69839 0.01158,-0.20567 0.06569,-0.35309 0.115947,-0.48888 0.05025,-0.1358 0.09664,-0.25995 0.143023,-0.38797 0.04638,-0.12803 0.09277,-0.25996 0.09667,-0.36858 0.0039,-0.10862 -0.03473,-0.19392 -0.08495,-0.27926 -0.05022,-0.0853 -0.112087,-0.17072 -0.185522,-0.27158 -0.07343,-0.10087 -0.158481,-0.21727 -0.278295,-0.3492 -0.119814,-0.13192 -0.274426,-0.27935 -0.432922,-0.46945 -0.158497,-0.19009 -0.320847,-0.42288 -0.460004,-0.6285 -0.139157,-0.20563 -0.255116,-0.38409 -0.305418,-0.55094 -0.0503,-0.16686 -0.03483,-0.32204 0.01155,-0.51992 0.04638,-0.19788 0.123689,-0.43844 0.313104,-0.71006 0.189415,-0.27162 0.490906,-0.57423 0.811734,-0.92341 0.320828,-0.34918 0.660976,-0.7449 1.062986,-1.16005 0.402011,-0.41514 0.865846,-0.84966 1.410881,-1.26869 0.545035,-0.41902 1.171219,-0.82251 1.770367,-1.16781 0.599148,-0.34531 1.171212,-0.6324 1.828348,-0.88459 0.657137,-0.25218 1.399275,-0.46944 2.207153,-0.67895 0.807879,-0.20951 1.681434,-0.41125 2.656223,-0.55166 0.974789,-0.14041 2.050707,-0.21949 2.971348,-0.29195 0.920642,-0.0725 1.685932,-0.13831 2.128716,-0.1822 0.442784,-0.0439 0.563038,-0.0658 0.563048,-0.14804 9e-6,-0.0822 -0.120246,-0.22486 -0.235063,-0.39495 -0.114816,-0.17008 -0.224145,-0.36761 -0.235132,-0.57615 -0.01099,-0.20854 0.07648,-0.42801 0.333414,-0.73531 0.25694,-0.3073 0.683316,-0.70233 1.131581,-1.06996 0.448264,-0.36763 0.918367,-0.7078 1.426769,-1.02055 0.508402,-0.31276 1.055043,-0.59807 1.596228,-0.87241 0.541186,-0.27434 1.076883,-0.5377 1.683691,-0.74621 0.606808,-0.2085 1.284634,-0.36212 1.782095,-0.46088 0.49746,-0.0988 0.814526,-0.14265 0.896548,-0.19748 0.08202,-0.0548 -0.07104,-0.12066 -0.240504,-0.18651 -0.169462,-0.0658 -0.35532,-0.13168 -0.617719,-0.18657 -0.262399,-0.0549 -0.601315,-0.0988 -0.951172,-0.16462 -0.349857,-0.0658 -0.710618,-0.15363 -1.153415,-0.23594 -0.442797,-0.0823 -0.967565,-0.15911 -1.344768,-0.19205 -0.377204,-0.0329 -0.606788,-0.022 -0.820012,-0.24136 -0.213224,-0.2194 -0.410006,-0.6693 -0.508439,-0.96562 -0.09843,-0.29631 -0.09843,-0.43895 0.03822,-0.66397 0.136657,-0.22502 0.409975,-0.53227 1.076293,-1.09352 0.666318,-0.56125 1.725572,-1.37644 2.819577,-2.1022 1.094005,-0.72575 2.222678,-1.36202 3.366851,-1.94399 1.144174,-0.58197 2.303755,-1.1096 3.710779,-1.62173 1.407025,-0.51214 3.061375,-1.00874 4.916782,-1.45879 1.855407,-0.45005 3.911741,-0.85354 5.890848,-1.10184 1.979106,-0.2483 3.880753,-0.34141 5.782519,-0.43452 0,0 6.308298,0.3259 6.308298,0.3259 0,0 1.7974,0.22114 1.7974,0.22114 0,0 0.904493,0.16295 0.904493,0.16295 0,0 1.37994,0.13968 1.37994,0.13968 0,0 2.771476,0.45392 2.771476,0.45392 0,0 1.240801,0.20952 1.240801,0.20952 0,0 0.904492,0.62852 0.904492,0.62852 0,0 0.23192,0.72163 0.23192,0.72163 0,0 -0.23192,0.65179 -0.23192,0.65179 0,0 -0.64938,0.62852 -0.64938,0.62852 0,0 1.32197,0.16295 1.32197,0.16295 0,0 3.24691,0.79147 3.24691,0.79147 0,0 5.17188,1.58293 5.17188,1.58293 0,0 5.21826,2.11834 5.21826,2.11834 0,0 2.67223,1.25355 2.67223,1.25355 0.8145,0.41699 1.62913,0.83405 2.25506,1.16601 0.62592,0.33196 1.06322,0.57886 1.39395,0.75992 0.33073,0.18106 0.55484,0.29628 0.77897,0.39778 0.22412,0.1015 0.44826,0.18929 0.63137,0.32102 0.18311,0.13172 0.32523,0.30729 0.43179,0.51031 0.10657,0.20303 0.17763,0.43347 0.21313,0.62001 0.0355,0.18654 0.0355,0.32919 -0.0192,0.47728 -0.0547,0.14809 -0.16401,0.30172 -0.25146,0.42789 -0.0874,0.12618 -0.15307,0.22499 -0.27057,0.31276 -0.1175,0.0878 -0.28693,0.16457 -0.45089,0.19204 -0.16395,0.0275 -0.32247,0.006 -0.50285,-0.0465 -0.18038,-0.0521 -0.38266,-0.1344 -0.62865,-0.20849 -0.24599,-0.0741 -0.53572,-0.13994 -0.91291,-0.24144 -0.37718,-0.1015 -0.84182,-0.23867 -1.21355,-0.32371 -0.37173,-0.085 -0.65052,-0.11795 -0.96757,-0.16732 -0.31706,-0.0494 -0.67237,-0.11521 -1.13702,-0.18929 -0.46465,-0.0741 -1.03864,-0.15637 -1.55249,-0.23318 -0.51384,-0.0768 -0.96756,-0.14815 -1.38576,-0.21125 -0.41819,-0.0631 -0.80082,-0.11797 -0.93747,-0.12343 -0.13665,-0.005 -0.0273,0.0384 0.10932,0.0878 0.13667,0.0494 0.30065,0.10425 0.45644,0.15638 0.1558,0.0521 0.30343,0.10152 0.62866,0.23595 0.32524,0.13443 0.82815,0.35389 1.24601,0.55718 0.41785,0.20328 0.75063,0.39036 1.00207,0.53047 0.25145,0.1401 0.4215,0.23321 0.62636,0.34766 0.20486,0.11445 0.44451,0.25024 0.68997,0.4035 0.24546,0.15326 0.4967,0.32397 0.77695,0.49661 0.28025,0.17265 0.58946,0.34722 0.92188,0.55868 0.33243,0.21146 0.68803,0.45975 1.27742,0.92683 0.5894,0.46708 1.41255,1.15289 1.90614,1.55067 0.4936,0.39778 0.65758,0.50752 0.8735,0.68859 0.21591,0.18108 0.48378,0.43348 0.75164,0.67764 0.26786,0.24415 0.53571,0.48009 0.89104,0.81753 0.35532,0.33744 0.79809,0.77637 1.19168,1.17417 0.39359,0.39781 0.73798,0.75444 1.01675,1.06719 0.27878,0.31275 0.49198,0.58161 0.71063,0.86967 0.21866,0.28806 0.44279,0.59532 0.66692,0.88337 0.22414,0.28806 0.44826,0.5569 0.74345,0.9108 0.29519,0.3539 0.66143,0.79282 0.94023,1.13301 0.27879,0.34019 0.47012,0.58161 0.64503,0.82303 0.17492,0.24143 0.33345,0.48285 0.48651,0.70781 0.15306,0.22496 0.30065,0.43345 0.46191,0.6831 0.16126,0.24966 0.33618,0.54045 0.50292,0.80107 0.16673,0.26062 0.32526,0.49107 0.51384,0.80107 0.18858,0.31001 0.40725,0.69957 0.66418,1.13029 0.25693,0.43072 0.55211,0.90256 0.73249,1.24 0.18037,0.33745 0.24596,0.54046 0.33072,0.73251 0.0848,0.19205 0.1886,0.37309 0.29521,0.54592 0.1066,0.17284 0.21593,0.33744 0.31704,0.5185 0.10111,0.18105 0.19406,0.37861 0.29246,0.57888 0.0984,0.20027 0.20226,0.40326 0.28426,0.57062 0.082,0.16736 0.14212,0.29901 0.22959,0.46636 0.0875,0.16735 0.20227,0.37037 0.31979,0.6063 0.11751,0.23593 0.23777,0.50478 0.34438,0.73524 0.1066,0.23045 0.19952,0.42248 0.26237,0.59805 0.0628,0.17557 0.0956,0.33468 0.10655,0.48008 0.0109,0.14539 -2e-5,0.27706 -0.0356,0.39775 -0.0356,0.1207 -0.0957,0.23038 -0.17221,0.34013 -0.0765,0.10975 -0.16943,0.21944 -0.27054,0.30447 -0.1011,0.085 -0.21042,0.14537 -0.33338,0.18104 -0.12296,0.0357 -0.25963,0.0466 -0.42087,0.0384 -0.16124,-0.008 -0.3471,-0.0356 -0.50563,-0.0987 -0.15852,-0.0631 -0.28971,-0.16181 -0.42911,-0.26606 -0.1394,-0.10426 -0.28701,-0.214 -0.45921,-0.3731 -0.17219,-0.1591 -0.36912,-0.36773 -0.56592,-0.57623 0,0 -0.45918,-0.46089 -0.45918,-0.46089 -0.1804,-0.17009 -0.36064,-0.34005 -0.58395,-0.5359 -0.2233,-0.19585 -0.48967,-0.41757 -0.75589,-0.63917 0,0 -0.30148,-0.20951 -0.30148,-0.20951 0,0 -0.20874,-0.2095 -0.20874,-0.2095 0,0 -0.44065,-0.46557 -0.44065,-0.46557 0,0 -0.5798,-0.48885 -0.5798,-0.48885 0,0 -0.55662,-0.41902 -0.55662,-0.41902 0,0 -0.69577,-0.5354 -0.69577,-0.5354 0,0 -0.69576,-0.48884 -0.69576,-0.48884 0,0 -0.78853,-0.58197 -0.78853,-0.58197 0,0 -1.13644,-0.79147 -1.13644,-0.79147 0,0 -0.50491,-0.14903 -0.50491,-0.14903 0,0 0.27879,0.26337 0.27879,0.26337 0,0 0.40999,0.7078 0.40999,0.7078 0,0 0.44279,0.77364 0.44279,0.77364 0,0 0.0656,0.47735 0.0656,0.47735 0,0 -0.0492,0.18106 -0.0492,0.18106 0,0 -0.1148,0.34566 -0.1148,0.34566 0,0 -0.29518,0.31276 -0.29518,0.31276 0,0 -0.164,0.14814 -0.164,0.14814 0,0 -0.27879,0.14814 -0.27879,0.14814 -0.082,0.005 -0.16387,0.0109 -0.24583,0.0219 -0.082,0.0109 -0.16405,0.0274 -0.19962,0.0494 -0.0356,0.022 -0.0247,0.0494 -0.0137,0.0768 0,0 0.24599,0.32921 0.24599,0.32921 0,0 0.31159,0.34566 0.31159,0.34566 0.16946,0.21399 0.33904,0.42811 0.49482,0.64484 0.15578,0.21673 0.2979,0.4362 0.45369,0.70506 0.15579,0.26886 0.32525,0.58708 0.50292,0.92453 0.17766,0.33744 0.36352,0.69407 0.53024,1.02603 0.16673,0.33195 0.31433,0.63922 0.43185,0.9163 0.11752,0.27708 0.20498,0.52398 0.32651,0.84548 0.12154,0.32149 0.27713,0.71756 0.3723,0.96795 0.0952,0.25039 0.12998,0.35518 0.16669,0.47932 0.0367,0.12415 0.0754,0.2677 0.10435,0.37438 0.029,0.10668 0.0483,0.17656 0.0772,0.3007 0.029,0.12414 0.0676,0.30261 0.10434,0.47139 0.0367,0.16877 0.0715,0.32784 0.10242,0.49273 0.0309,0.16489 0.058,0.33558 0.0909,0.53927 0.0329,0.20368 0.0715,0.44034 0.10245,0.62077 0.0309,0.18042 0.0541,0.30455 0.0734,0.44422 0.0193,0.13967 0.0348,0.29487 0.0445,0.421 0.01,0.12612 0.0135,0.223 0.01,0.31809 -0.004,0.0951 -0.0155,0.18815 -0.0464,0.2987 -0.0309,0.11055 -0.0812,0.23858 -0.15462,0.34913 -0.0734,0.11055 -0.17004,0.20363 -0.27438,0.27151 -0.10433,0.0679 -0.21644,0.11057 -0.36717,0.15131 -0.15073,0.0407 -0.34014,0.0795 -0.47724,0.0944 -0.1371,0.0149 -0.22197,0.006 -0.32452,-0.0233 -0.10254,-0.0292 -0.2228,-0.0786 -0.34584,-0.19649 -0.12303,-0.11792 -0.24875,-0.30446 -0.38541,-0.502 -0.13667,-0.19753 -0.28425,-0.40601 -0.40179,-0.59804 -0.11755,-0.19203 -0.20502,-0.36762 -0.31979,-0.54321 -0.11478,-0.17558 -0.25691,-0.35116 -0.41271,-0.53772 -0.1558,-0.18656 -0.32525,-0.38407 -0.51657,-0.57612 -0.19132,-0.19205 -0.4045,-0.37859 -0.58764,-0.56788 -0.18315,-0.1893 -0.3362,-0.38132 -0.51385,-0.54595 -0.17764,-0.16463 -0.37989,-0.30178 -0.58215,-0.42251 -0.20226,-0.12072 -0.40452,-0.22497 -0.60132,-0.35115 -0.1968,-0.12618 -0.38813,-0.27432 -0.59039,-0.42247 -0.20226,-0.14815 -0.41544,-0.29629 -0.5931,-0.42523 -0.17767,-0.12894 -0.31978,-0.23867 -0.50564,-0.35116 -0.18585,-0.1125 -0.41545,-0.22773 -0.68058,-0.35118 -0.26512,-0.12346 -0.56578,-0.25514 -0.8417,-0.37064 -0.27592,-0.11551 -0.52708,-0.21482 -0.72611,-0.28777 -0.19904,-0.0729 -0.34593,-0.1195 -0.58558,-0.19322 -0.23965,-0.0737 -0.57209,-0.17459 -0.86972,-0.25995 -0.29762,-0.0853 -0.56048,-0.15519 -0.84265,-0.22115 -0.28217,-0.066 -0.58368,-0.12804 -0.99728,-0.19012 -0.41359,-0.0621 -0.93928,-0.12415 -1.31422,-0.16296 -0.37495,-0.0388 -0.59914,-0.0543 -0.75758,-0.066 -0.15844,-0.0116 -0.2513,-0.0194 -0.27451,0.008 -0.0232,0.0272 0.0232,0.0893 0.0967,0.17467 0.0735,0.0854 0.17393,0.19397 0.32469,0.33751 0.15076,0.14355 0.35176,0.32202 0.53342,0.50438 0.18167,0.18236 0.344,0.36858 0.545,0.60525 0.201,0.23667 0.44066,0.52378 0.61846,0.74104 0.17781,0.21726 0.29377,0.36469 0.40587,0.4966 0.11211,0.1319 0.22034,0.2483 0.35948,0.43842 0.13914,0.19011 0.30921,0.45393 0.49475,0.73715 0.18554,0.28322 0.38655,0.58584 0.61073,0.95442 0.22419,0.36858 0.47156,0.8031 0.67643,1.17168 0.20486,0.36858 0.36721,0.67119 0.54115,1.00485 0.17394,0.33367 0.35948,0.69836 0.54114,1.11737 0.18167,0.41901 0.35948,0.89235 0.49476,1.29972 0.13528,0.40738 0.22805,0.74878 0.34401,1.15616 0.11596,0.40737 0.25511,0.8807 0.3556,1.32687 0.10049,0.44616 0.16233,0.86518 0.22419,1.20661 0.0619,0.34143 0.12369,0.60524 0.16428,0.79923 0.0406,0.19398 0.0599,0.3181 0.0715,0.44808 0.0116,0.12998 0.0155,0.26574 0.0328,0.42871 0.0174,0.16298 0.0483,0.35309 0.0676,0.51988 0.0193,0.1668 0.027,0.31041 0.0444,0.46755 0.0174,0.15715 0.0445,0.32782 0.0677,0.52957 0.0232,0.20176 0.0425,0.43453 0.0367,0.61686 -0.006,0.18234 -0.0367,0.31423 -0.0773,0.44419 -0.0406,0.12996 -0.0908,0.25799 -0.15651,0.35494 -0.0657,0.097 -0.14687,0.16291 -0.2628,0.21917 -0.11594,0.0562 -0.26669,0.1028 -0.42709,0.13772 -0.1604,0.0349 -0.33046,0.0582 -0.49471,0.0369 -0.16424,-0.0213 -0.32273,-0.0873 -0.47349,-0.15904 -0.15076,-0.0718 -0.29378,-0.14936 -0.40784,-0.25798 -0.11406,-0.10861 -0.19908,-0.24825 -0.27831,-0.36852 -0.0792,-0.12027 -0.15269,-0.22115 -0.2358,-0.34917 -0.0831,-0.12803 -0.17589,-0.28322 -0.28799,-0.48885 -0.11211,-0.20563 -0.24352,-0.46168 -0.39038,-0.66733 -0.14686,-0.20565 -0.3092,-0.36084 -0.49861,-0.55094 -0.1894,-0.19011 -0.40586,-0.41514 -0.71121,-0.69061 -0.30536,-0.27546 -0.69962,-0.60136 -0.89683,-0.76437 -0.19721,-0.16301 -0.8466,-0.8148 -0.99727,-0.90787 -0.15068,-0.0931 -0.45217,-0.2793 -0.71116,-0.46164 -0.25899,-0.18234 -0.47545,-0.3608 -0.77307,-0.54317 -0.29763,-0.18237 -0.67644,-0.36859 -1.0823,-0.55482 -0.40587,-0.18624 -0.83878,-0.37246 -1.20599,-0.51603 -0.36722,-0.14356 -0.66872,-0.24443 -1.00887,-0.35113 -0.34015,-0.1067 -0.71896,-0.21921 -0.92385,-0.28129 -0.20488,-0.0621 -0.23574,-0.0737 -0.30722,-0.095 -0.0715,-0.0213 -0.18359,-0.0524 -0.2841,-0.0873 -0.10052,-0.0349 -0.18941,-0.0737 -0.26671,-0.10474 -0.0773,-0.031 -0.143,-0.0543 -0.22224,-0.10856 -0.0792,-0.0543 -0.17204,-0.13964 -0.25517,-0.24632 -0.0831,-0.10667 -0.15657,-0.23471 -0.20493,-0.39378 -0.0484,-0.15908 -0.0716,-0.34917 -0.11594,-0.46753 -0.0444,-0.11835 -0.11011,-0.16492 -0.19707,-0.20181 -0.087,-0.0369 -0.19521,-0.0641 -0.31309,-0.0874 -0.11789,-0.0233 -0.24546,-0.0427 -0.39813,-0.0815 -0.15267,-0.0388 -0.33049,-0.097 -0.5083,-0.1397 -0.17781,-0.0427 -0.35563,-0.0699 -0.46391,-0.0835 -0.10827,-0.0136 -0.14687,-0.0136 -0.16816,0.0115 -0.0213,0.0251 -0.0251,0.075 0.0168,0.14389 0.0419,0.0689 0.12937,0.1567 0.21681,0.26093 0.0874,0.10423 0.17493,0.22499 0.26512,0.32921 0.0902,0.10422 0.18315,0.19204 0.28426,0.33197 0.10111,0.13993 0.21044,0.33197 0.31977,0.50205 0.10934,0.17009 0.21867,0.31823 0.33346,0.4801 0.1148,0.16186 0.23506,0.33744 0.32524,0.50205 0.0902,0.16461 0.15031,0.31822 0.19676,0.46362 0.0465,0.1454 0.0793,0.28257 0.0902,0.38402 0.0109,0.10145 -4e-5,0.16737 -0.0438,0.32921 -0.0437,0.16184 -0.12027,0.41973 -0.1421,0.62552 -0.0218,0.20578 0.011,0.35941 0.16676,0.89163 0.15581,0.53223 0.43459,1.44301 0.59314,1.93409 0.15854,0.49107 0.19682,0.56242 0.24051,0.72701 0.0437,0.16459 0.0929,0.42247 0.15303,0.72426 0.0601,0.30179 0.1312,0.64743 0.21866,1.10284 0.0875,0.45541 0.19133,1.02053 0.36626,2.06851 0.17493,1.04799 0.42091,2.57877 0.5439,3.37437 0.12299,0.7956 0.12299,0.85593 0.13393,0.96567 0.0109,0.10975 0.0328,0.26886 0.0492,0.42523 0.0164,0.15637 0.0273,0.31001 0.041,0.49107 0.0136,0.18106 0.03,0.38956 0.0437,0.60904 0.0136,0.21948 0.0246,0.44991 0.041,0.67487 0.0164,0.22496 0.0383,0.44442 0.0465,0.62273 0.008,0.17831 0.003,0.31551 0.011,0.46914 0.008,0.15363 0.0301,0.32371 0.041,0.46636 0.0109,0.14266 0.0109,0.2579 -10e-6,0.38134 -0.011,0.12344 -0.0328,0.25511 -0.0629,0.38953 -0.0301,0.13441 -0.0683,0.27159 -0.11478,0.38128 -0.0465,0.10968 -0.10114,0.19203 -0.18313,0.27157 -0.082,0.0796 -0.19129,0.15634 -0.31973,0.22218 -0.12844,0.0658 -0.27602,0.12071 -0.42084,0.14541 -0.14483,0.0247 -0.28697,0.0192 -0.44823,-0.0192 -0.16126,-0.0384 -0.34164,-0.10972 -0.48378,-0.19747 -0.14214,-0.0877 -0.24601,-0.19201 -0.35809,-0.34015 -0.11209,-0.14813 -0.23235,-0.34016 -0.3335,-0.54866 -0.10115,-0.20849 -0.18314,-0.43345 -0.2542,-0.61453 -0.0711,-0.18109 -0.13119,-0.31822 -0.20498,-0.47185 -0.0738,-0.15362 -0.16126,-0.32372 -0.25692,-0.4993 -0.0957,-0.17558 -0.19951,-0.35663 -0.3553,-0.59258 -0.15579,-0.23594 -0.3635,-0.52672 -0.5603,-0.81753 -0.1968,-0.29081 -0.38266,-0.5816 -0.56577,-0.82852 -0.18312,-0.24691 -0.36351,-0.44991 -0.58217,-0.70231 -0.21867,-0.25239 -0.47559,-0.55416 -0.72978,-0.83125 -0.25419,-0.27709 -0.50564,-0.52947 -0.7489,-0.76267 -0.24326,-0.2332 -0.47831,-0.44717 -0.7653,-0.71329 -0.287,-0.26611 -0.62591,-0.58434 -0.85551,-0.79011 -0.2296,-0.20577 -0.34984,-0.29903 -0.50017,-0.417 -0.15032,-0.11796 -0.33072,-0.26062 -0.48652,-0.39778 -0.1558,-0.13716 -0.28701,-0.26884 -0.44279,-0.39231 -0.15578,-0.12346 -0.33617,-0.23869 -0.57943,-0.40055 -0.24327,-0.16186 -0.54937,-0.37035 -0.819964,-0.54593 -0.270591,-0.17559 -0.505655,-0.31826 -0.740708,-0.46365 -0.235053,-0.1454 -0.470119,-0.29354 -0.653248,-0.40603 -0.18313,-0.11248 -0.31432,-0.18929 -0.464648,-0.26338 -0.150328,-0.0741 -0.319786,-0.1454 -0.513852,-0.26335 -0.194066,-0.11794 -0.412717,-0.28255 -0.554851,-0.38407 -0.142134,-0.10153 -0.207726,-0.13993 -0.259669,-0.15917 -0.05194,-0.0192 -0.09017,-0.0192 -0.09568,0.008 -0.0055,0.0275 0.02184,0.0824 0.05463,0.15369 0.03279,0.0713 0.07108,0.15916 0.120263,0.25239 0.04919,0.0932 0.109364,0.19206 0.16948,0.31552 0.06011,0.12345 0.120247,0.27159 0.169437,0.40602 0.04919,0.13442 0.08746,0.25515 0.13666,0.39505 0.0492,0.13991 0.109338,0.29904 0.174929,0.49931 0.06559,0.20027 0.136649,0.44167 0.213181,0.69681 0.07653,0.25514 0.15853,0.52398 0.224124,0.77089 0.06559,0.24691 0.114787,0.47185 0.166719,0.70779 0.05193,0.23594 0.106594,0.48284 0.144847,0.71054 0.03825,0.2277 0.06011,0.43618 0.09838,0.73522 0.03827,0.29905 0.09293,0.68859 0.153069,1.04524 0.06014,0.35664 0.125735,0.68037 0.180397,0.99038 0.05466,0.31001 0.09839,0.60627 0.136649,0.90805 0.03826,0.30178 0.07105,0.60903 0.09565,0.95744 0.0246,0.3484 0.04101,0.73797 0.05742,1.18515 0.01641,0.44717 0.03283,0.95194 0.0465,1.90939 0.01367,0.95745 0.0246,2.36753 0.02185,3.17135 -0.0027,0.80381 -0.01916,1.00134 -0.03009,1.17692 -0.01093,0.17558 -0.01637,0.32922 -0.03277,0.53222 -0.0164,0.203 -0.04374,0.4554 -0.07381,0.65566 -0.03007,0.20026 -0.06286,0.3484 -0.09565,0.49929 -0.03279,0.15089 -0.06558,0.30451 -0.112044,0.44716 -0.04647,0.14264 -0.106592,0.27431 -0.172173,0.3703 -0.06558,0.096 -0.13664,0.15634 -0.207689,0.21943 -0.07105,0.0631 -0.142145,0.12895 -0.207734,0.18107 -0.06559,0.0521 -0.125737,0.0905 -0.267821,0.13442 -0.142084,0.0439 -0.366191,0.0933 -0.576644,0.0714 -0.210453,-0.0219 -0.407214,-0.11517 -0.666894,-0.35381 -0.25968,-0.23864 -0.582201,-0.62271 -0.869203,-1.00953 -0.287003,-0.38682 -0.538453,-0.77637 -0.782317,-1.13451 -0.243864,-0.35814 -0.480142,-0.68485 -0.691048,-0.95685 -0.210906,-0.272 -0.396442,-0.48926 -0.655432,-0.84619 -0.258989,-0.35693 -0.591412,-0.85354 -1.101637,-1.51698 -0.510225,-0.66345 -1.198241,-1.49369 -1.723941,-2.11834 -0.5257,-0.62465 -0.889036,-1.04365 -1.3181,-1.54803 -0.429064,-0.50437 -0.923822,-1.09408 -1.368342,-1.59458 -0.444521,-0.5005 -0.838773,-0.91174 -1.186649,-1.20662 -0.347876,-0.29489 -0.649371,-0.47335 -1.039777,-0.70613 -0.390407,-0.23279 -0.869705,-0.51989 -1.360613,-0.76045 -0.490909,-0.24056 -0.993393,-0.43454 -1.615724,-0.62854 -0.622332,-0.194 -1.364469,-0.38798 -2.056387,-0.51991 -0.691918,-0.13193 -1.333556,-0.20176 -2.048398,-0.22827 -0.714842,-0.0265 -1.502837,-0.01 -2.047173,-0.007 -0.544337,0.003 -0.844998,-0.008 -1.312394,0.0331 -0.467397,0.0411 -1.101491,0.13442 -1.648156,0.24415 -0.546665,0.10973 -1.005843,0.23593 -1.415845,0.37584 -0.410002,0.13992 -0.770787,0.29354 -1.096046,0.44169 -0.325258,0.14814 -0.614975,0.2908 -0.910185,0.46913 -0.29521,0.17833 -0.595855,0.3923 -0.911322,0.64363 -0.315467,0.25133 -0.645711,0.53998 -0.861086,0.72504 -0.215375,0.18507 -0.315884,0.26655 -0.410603,0.35386 -0.09472,0.0873 -0.183611,0.18041 -0.253199,0.25607 -0.06959,0.0757 -0.119816,0.13385 -0.173943,0.20758 -0.05413,0.0737 -0.112094,0.16295 -0.199068,0.40158 -0.08697,0.23863 -0.202937,0.62661 -0.309909,1.04828 -0.106972,0.42167 -0.204958,0.87701 -0.371457,1.18144 -0.166498,0.30443 -0.401546,0.45806 -0.647531,0.587 -0.245984,0.12895 -0.502885,0.23319 -0.915577,0.27162 -0.412692,0.0384 -0.981189,0.011 -1.415765,-0.0576 -0.434576,-0.0686 -0.735232,-0.1783 -1.115157,-0.37032 -0.379924,-0.19202 -0.839097,-0.46635 -1.45136,-1.01775 -0.612264,-0.5514 -1.377555,-1.37989 -2.006226,-2.21937 -0.628671,-0.83949 -1.120643,-1.68992 -1.582536,-2.30172 -0.461894,-0.6118 -0.893742,-0.9849 -1.217383,-1.30694 -0.323642,-0.32205 -0.539034,-0.59305 -0.73566,-0.91866 -0.196626,-0.32561 -0.374428,-0.70582 -0.320365,-1.19084 0.05406,-0.48503 0.340098,-1.07473 0.359484,-1.55966 0.01939,-0.48493 -0.227986,-0.86512 -0.440601,-1.25698 -0.212614,-0.39185 -0.390424,-0.79535 -0.556656,-1.47043 -0.166233,-0.67507 -0.320845,-1.62172 -0.24355,-2.2542 0.07729,-0.63248 0.386523,-0.95062 0.722867,-1.10582 0.336345,-0.1552 0.699722,-0.14747 1.205797,0.14437 0.506076,0.29184 1.154833,0.86761 1.522014,1.19348 0.367181,0.32587 0.452788,0.40185 0.605889,0.28186 0.153102,-0.12 0.373044,-0.43499 0.809401,-1.06003 0.436358,-0.62504 1.088755,-1.55959 1.984551,-2.19166 0.895796,-0.63206 2.033576,-0.96075 2.669808,-1.14456 0.636232,-0.18381 0.770397,-0.22258 0.738885,-0.41607 -0.03151,-0.19349 -0.228526,-0.54133 -0.604048,-1.73466 -0.375523,-1.19334 -0.929149,-3.23118 -1.542284,-4.71508 -0.613136,-1.4839 -1.285328,-2.41253 -1.840059,-3.15962 -0.55473,-0.74708 -0.992018,-1.31261 -1.42919,-1.878 0,0 0,0 0,0 -0.544163,-0.48456 -1.08857,-0.96934 -1.648956,-1.34237 -0.560386,-0.37303 -1.139437,-0.63574 -1.620522,-0.80971 -0.481084,-0.17396 -0.868779,-0.26082 -1.169381,-0.32744 -0.300602,-0.0666 -0.515221,-0.11323 -1.429247,-0.028 -0.914026,0.0852 -2.531398,0.30272 -3.681337,0.38457 -1.149939,0.0819 -1.83386,0.0283 -2.328656,-0.0105 -0.494796,-0.0388 -0.800571,-0.0628 -0.944242,-9.8e-4 -0.143671,0.0618 -0.125547,0.20931 -0.08333,0.55343 0.04222,0.34412 0.108533,0.8848 0.234806,1.43969 0.126274,0.55488 0.312339,1.12345 0.482769,1.5748 0.170429,0.45135 0.325002,0.78492 0.301774,1.13017 -0.02323,0.34525 -0.224176,0.70215 -0.425151,1.05909"
       id="path847"
       inkscape:path-effect="#path-effect3337"
       inkscape:original-d="m 47.004957,164.59334 c -0.16994,0.0623 -0.340017,0.12428 -0.51023,0.18623 -0.162208,-0.0309 -0.324552,-0.0619 -0.487034,-0.0931 -0.131291,-0.0231 -0.262709,-0.0464 -0.394274,-0.0698 -0.231783,-0.10074 -0.463702,-0.20162 -0.695769,-0.30262 -0.169939,-0.12402 -0.340015,-0.24817 -0.510229,-0.37246 -0.162208,-0.15506 -0.324552,-0.31025 -0.487033,-0.46557 -0.162219,-0.10074 -0.324564,-0.20161 -0.487034,-0.30262 -0.123561,-0.11626 -0.247257,-0.23265 -0.37108,-0.34918 -0.131292,-0.13177 -0.26271,-0.26368 -0.394274,-0.39572 -0.247247,-0.3413 -0.49463,-0.68271 -0.742149,-1.02427 -0.154487,-0.24817 -0.309099,-0.49646 -0.463849,-0.7449 -0.0617,-0.21713 -0.12356,-0.43441 -0.18553,-0.65181 -0.05395,-0.17833 -0.108107,-0.35679 -0.162354,-0.5354 -0.04631,-0.19386 -0.09261,-0.38784 -0.13915,-0.58196 0.0084,-0.12402 0.01561,-0.24816 0.02315,-0.37245 0.01561,-0.10074 0.03101,-0.20163 0.04641,-0.30263 -0.03081,-0.1085 -0.0617,-0.21713 -0.09271,-0.32589 -0.06946,-0.10851 -0.139024,-0.21714 -0.208724,-0.32591 -0.09261,-0.0619 -0.185415,-0.12402 -0.27831,-0.18622 -0.06945,-0.0697 -0.139024,-0.13953 -0.208735,-0.2095 -0.07721,-0.1085 -0.154477,-0.21714 -0.231919,-0.3259 -0.100363,-0.11627 -0.200868,-0.23265 -0.301505,-0.34918 -0.06946,-0.17834 -0.139024,-0.35681 -0.208724,-0.53541 -0.139025,-0.28697 -0.278174,-0.57407 -0.417459,-0.86129 -0.0617,-0.24818 -0.123561,-0.49649 -0.18554,-0.74492 -0.0074,-0.19386 -0.0153,-0.38784 -0.02315,-0.58197 -0.03081,-0.26368 -0.0617,-0.5275 -0.09271,-0.79147 0.05427,-0.14729 0.108359,-0.29472 0.162345,-0.44229 0.04651,-0.12402 0.09293,-0.24816 0.13916,-0.37245 0.04651,-0.13177 0.09293,-0.26369 0.139149,-0.39573 -0.03856,-0.0853 -0.07721,-0.17058 -0.115964,-0.25607 -0.0617,-0.0852 -0.123561,-0.17058 -0.185541,-0.25606 -0.08486,-0.11627 -0.169939,-0.23265 -0.255114,-0.34918 -0.154477,-0.1473 -0.309089,-0.29473 -0.463838,-0.44229 -0.16222,-0.23265 -0.324564,-0.46544 -0.487045,-0.69835 -0.115829,-0.17834 -0.231783,-0.35681 -0.347885,-0.53541 0.01561,-0.15506 0.03101,-0.31025 0.04641,-0.46556 0.07742,-0.24042 0.154738,-0.48097 0.231919,-0.72164 0.301631,-0.30249 0.603124,-0.6051 0.904504,-0.90787 0.340278,-0.3956 0.680431,-0.79132 1.020458,-1.18719 0.463975,-0.43441 0.927814,-0.86893 1.391537,-1.3036 0.62632,-0.40336 1.252503,-0.80685 1.878572,-1.21048 0.572208,-0.28697 1.144269,-0.57407 1.716226,-0.8613 0.742284,-0.21714 1.484423,-0.4344 2.226466,-0.6518 0.873703,-0.20162 1.747259,-0.40336 2.620721,-0.60524 1.076088,-0.079 2.152009,-0.15803 3.227856,-0.23724 0.765439,-0.0657 1.530729,-0.13155 2.295915,-0.19753 0.120397,-0.0218 0.240657,-0.0437 0.360792,-0.0658 -0.120135,-0.14253 -0.240395,-0.28517 -0.360792,-0.42796 -0.109196,-0.1974 -0.21853,-0.39492 -0.327988,-0.59257 0.08759,-0.21935 0.175052,-0.43882 0.262395,-0.65843 0.426511,-0.39491 0.852886,-0.78995 1.279155,-1.18514 0.47024,-0.34005 0.940344,-0.68022 1.410343,-1.02054 0.546782,-0.28518 1.093417,-0.5705 1.639948,-0.85594 0.535843,-0.26323 1.071541,-0.52659 1.607145,-0.79011 0.677969,-0.15348 1.355791,-0.30712 2.033519,-0.46088 0.317188,-0.0437 0.634239,-0.0877 0.951166,-0.13168 -0.152927,-0.0657 -0.305988,-0.13155 -0.459177,-0.19752 -0.185738,-0.0657 -0.371593,-0.13155 -0.557583,-0.19752 -0.338791,-0.0438 -0.677707,-0.0877 -1.01676,-0.13169 -0.360666,-0.0877 -0.721436,-0.17545 -1.082364,-0.26338 -0.524655,-0.0767 -1.049425,-0.15349 -1.574343,-0.23042 -0.229467,0.0111 -0.45905,0.0221 -0.68878,0.0329 -0.196666,-0.4498 -0.393447,-0.8997 -0.590375,-1.34977 1.25e-4,-0.14253 1.25e-4,-0.28517 0,-0.42796 0.273449,-0.30713 0.546771,-0.61438 0.819969,-0.92178 1.059409,-0.81508 2.118662,-1.63027 3.177831,-2.44562 1.128817,-0.63615 2.257487,-1.27242 3.386073,-1.90883 1.159745,-0.52753 2.319331,-1.05515 3.478844,-1.58294 1.654509,-0.49649 3.308862,-0.99308 4.963141,-1.48983 2.056516,-0.40337 4.112853,-0.80684 6.169149,-1.21048 1.901892,-0.093 5.705299,-0.27934 5.705299,-0.27934 l 6.308298,0.3259 1.7974,0.22114 0.904493,0.16295 1.37994,0.13968 2.771476,0.45392 1.240801,0.20952 0.904492,0.62852 0.23192,0.72163 -0.23192,0.65179 -0.64938,0.62852 1.32197,0.16295 3.24691,0.79147 5.17188,1.58293 5.21826,2.11834 2.67223,1.25355 c 0,0 1.62911,0.8341 2.4435,1.25098 0.43745,0.24705 0.87476,0.49393 1.31196,0.74071 0.22425,0.11536 0.44836,0.23058 0.67238,0.34568 0.22424,0.0879 0.44837,0.1757 0.67237,0.26336 0.14226,0.17571 0.28438,0.35128 0.42639,0.52673 0.0712,0.23058 0.14225,0.46102 0.21318,0.69135 1.2e-4,0.14278 1.2e-4,0.28543 0,0.42796 -0.1092,0.15376 -0.21852,0.3074 -0.32799,0.46088 -0.0655,0.0988 -0.13106,0.19766 -0.19679,0.2963 -0.16933,0.077 -0.33878,0.15376 -0.50838,0.23045 -0.1584,-0.0218 -0.31692,-0.0437 -0.47559,-0.0658 -0.20212,-0.0821 -0.40438,-0.16447 -0.60677,-0.2469 -0.28959,-0.0657 -0.57931,-0.13157 -0.86916,-0.19754 -0.46453,-0.13703 -0.92917,-0.2742 -1.39396,-0.4115 -0.27865,-0.0328 -0.55744,-0.0657 -0.83637,-0.0987 -0.35519,-0.0657 -0.7105,-0.13156 -1.06596,-0.19754 -0.57385,-0.0821 -1.14783,-0.16445 -1.72194,-0.24689 -0.45358,-0.0712 -0.9073,-0.14253 -1.36115,-0.21399 -0.38253,-0.0548 -0.76517,-0.1096 -1.14797,-0.16461 0.10947,0.0441 0.2188,0.0879 0.328,0.13169 0.16413,0.055 0.32811,0.10987 0.49198,0.16461 0.14773,0.0495 0.29532,0.099 0.44277,0.14815 0.50306,0.21958 1.00597,0.43906 1.50875,0.6584 0.33293,0.18721 0.66571,0.37429 0.99836,0.56125 0.17021,0.0933 0.34029,0.18636 0.51024,0.27935 0.23977,0.13591 0.47942,0.2717 0.71896,0.40737 0.25138,0.17084 0.50262,0.34154 0.75373,0.51212 0.30938,0.17473 0.61859,0.34931 0.92771,0.52377 0.35574,0.24843 0.71134,0.49673 1.06684,0.74492 0.8233,0.68595 1.64645,1.37176 2.46951,2.05748 0.16412,0.10986 0.32811,0.21959 0.49197,0.32921 0.26798,0.25251 0.53585,0.50491 0.80358,0.75718 0.26798,0.23605 0.53584,0.47198 0.80357,0.70779 0.44292,0.43907 0.88568,0.87801 1.32836,1.31683 0.34451,0.35678 0.6889,0.71341 1.03316,1.06993 0.21331,0.26897 0.42651,0.53782 0.63957,0.80656 0.22426,0.30738 0.44838,0.61464 0.67238,0.92177 0.22426,0.26899 0.44838,0.53783 0.67239,0.80656 0.36636,0.43908 0.73261,0.878 1.09876,1.31683 0.19144,0.24154 0.38277,0.48296 0.57397,0.72425 0.15865,0.24155 0.31718,0.48297 0.47558,0.72427 0.14772,0.20862 0.29531,0.41711 0.44278,0.62549 0.17507,0.29092 0.34998,0.58172 0.52479,0.8724 0.15865,0.23056 0.31718,0.46101 0.47558,0.69134 0.21878,0.38967 0.43744,0.77924 0.65597,1.16867 0.29532,0.47201 0.5905,0.94385 0.88558,1.4156 0.0657,0.20314 0.13132,0.40614 0.19678,0.60904 0.10403,0.18119 0.20786,0.36224 0.3116,0.54319 0.10945,0.16473 0.21878,0.32933 0.32798,0.49381 0.093,0.19765 0.186,0.39518 0.27879,0.59257 0.10404,0.20314 0.20785,0.40615 0.3116,0.60903 0.0603,0.13182 0.12038,0.26349 0.18039,0.39505 0.11492,0.20314 0.22971,0.40616 0.34438,0.60903 0.12039,0.26899 0.24065,0.53784 0.36079,0.80657 0.0931,0.19216 0.18599,0.3842 0.27879,0.57612 0.0329,0.15924 0.0657,0.31835 0.0984,0.47733 -0.0108,0.13183 -0.0217,0.2635 -0.0328,0.39505 -0.0601,0.10987 -0.12013,0.2196 -0.1804,0.32921 -0.0929,0.10987 -0.18572,0.21961 -0.27879,0.32922 -0.1092,0.0605 -0.21852,0.12083 -0.328,0.18105 -0.13653,0.011 -0.27319,0.0221 -0.40998,0.0329 -0.18572,-0.0273 -0.37157,-0.0548 -0.55757,-0.0823 -0.13107,-0.0986 -0.26225,-0.19738 -0.39358,-0.29628 -0.14746,-0.10961 -0.29508,-0.21934 -0.44279,-0.32921 -0.19666,-0.20836 -0.59039,-0.62549 -0.59039,-0.62549 l -0.45918,-0.46089 c 0,0 -0.36064,-0.34005 -0.54119,-0.51028 -0.26607,-0.22146 -0.79865,-0.66479 -0.79865,-0.66479 l -0.30148,-0.20951 -0.20874,-0.2095 -0.44065,-0.46557 -0.5798,-0.48885 -0.55662,-0.41902 -0.69577,-0.5354 -0.69576,-0.48884 -0.78853,-0.58197 -1.13644,-0.79147 -0.50491,-0.14903 0.27879,0.26337 0.40999,0.7078 0.44279,0.77364 0.0656,0.47735 -0.0492,0.18106 -0.1148,0.34566 -0.29518,0.31276 -0.164,0.14814 -0.27879,0.14814 c 0,0 -0.16386,0.011 -0.24599,0.0164 -0.0818,0.0165 -0.16387,0.033 -0.24599,0.0494 0.011,0.0275 0.0328,0.0823 0.0328,0.0823 l 0.24599,0.32921 0.31159,0.34566 c 0,0 0.33905,0.4281 0.50839,0.64196 0.14225,0.21959 0.28437,0.43906 0.42637,0.65842 0.16959,0.31835 0.33905,0.63658 0.50839,0.95469 0.18599,0.35678 0.37184,0.71341 0.55758,1.06993 0.14772,0.30739 0.29532,0.61465 0.44279,0.92178 0.0876,0.24703 0.17504,0.49394 0.26239,0.74072 0.15573,0.3962 0.31132,0.79227 0.46678,1.18821 0.0349,0.10484 0.0697,0.20963 0.10435,0.31426 0.0387,0.14369 0.0774,0.28723 0.11597,0.43065 0.0195,0.0699 0.0388,0.13979 0.0579,0.2095 0.0387,0.17861 0.0774,0.35707 0.11595,0.53541 0.0349,0.1592 0.0697,0.31827 0.10435,0.47722 0.0273,0.17082 0.0542,0.34153 0.0812,0.51212 0.0387,0.23679 0.0774,0.47344 0.11597,0.70999 0.0234,0.12428 0.0465,0.24843 0.0696,0.37247 0.0156,0.1553 0.0311,0.31049 0.0464,0.46556 0.004,0.0972 0.007,0.19411 0.0116,0.29098 -0.0115,0.0933 -0.0231,0.18635 -0.0348,0.27934 -0.0501,0.12817 -0.10036,0.25619 -0.15074,0.3841 -0.0965,0.0933 -0.19314,0.18634 -0.28991,0.27933 -0.11196,0.0428 -0.22406,0.0855 -0.33629,0.12803 -0.18927,0.0389 -0.37868,0.0777 -0.56822,0.1164 -0.0848,-0.008 -0.16957,-0.018 -0.25456,-0.0271 -0.12014,-0.0492 -0.24039,-0.0986 -0.36079,-0.14814 -0.1256,-0.18642 -0.25132,-0.37296 -0.37718,-0.55965 -0.14747,-0.20838 -0.29506,-0.41686 -0.44279,-0.6255 -0.0873,-0.17544 -0.17479,-0.35102 -0.26239,-0.52673 -0.142,-0.17544 -0.28412,-0.35102 -0.42639,-0.52674 -0.16933,-0.1974 -0.33879,-0.3949 -0.50838,-0.59256 -0.21307,-0.18642 -0.42625,-0.37297 -0.63957,-0.55966 -0.15295,-0.19191 -0.306,-0.38394 -0.45919,-0.57612 -0.20214,-0.13703 -0.40438,-0.27419 -0.60678,-0.4115 -0.20213,-0.10411 -0.40439,-0.20837 -0.60678,-0.31275 -0.1912,-0.14801 -0.38252,-0.29615 -0.57398,-0.44442 -0.21307,-0.14802 -0.42625,-0.29616 -0.63957,-0.44444 -0.14201,-0.1096 -0.28412,-0.21933 -0.42638,-0.32921 -0.22946,-0.11509 -0.45906,-0.23031 -0.68878,-0.34567 -0.30053,-0.13154 -0.60119,-0.26323 -0.90198,-0.39504 -0.25104,-0.0992 -0.50221,-0.1985 -0.75353,-0.29796 -0.14675,-0.0464 -0.29363,-0.093 -0.44065,-0.13967 -0.33229,-0.10074 -0.66472,-0.20162 -0.99727,-0.30262 -0.26271,-0.0697 -0.52556,-0.13954 -0.78853,-0.20951 -0.30138,-0.0619 -0.60288,-0.12402 -0.90451,-0.18623 -0.52556,-0.0619 -1.05124,-0.12401 -1.57707,-0.18621 -0.22406,-0.0154 -0.44825,-0.0309 -0.67258,-0.0466 -0.0926,-0.007 -0.18541,-0.0153 -0.27831,-0.0232 0.0465,0.0622 0.0929,0.12428 0.13917,0.18622 0.10067,0.10876 0.20112,0.21739 0.30149,0.3259 0.20113,0.1786 0.40213,0.35707 0.603,0.53541 0.16248,0.18636 0.32481,0.37258 0.48703,0.55868 0.23979,0.28723 0.47945,0.57434 0.71896,0.86131 0.1161,0.14755 0.23207,0.29498 0.34789,0.44228 0.10836,0.11653 0.21659,0.23293 0.32469,0.34919 0.17021,0.26395 0.34029,0.52777 0.51024,0.79147 0.20112,0.30274 0.40212,0.60536 0.603,0.90785 0.2475,0.43467 0.49489,0.86918 0.74215,1.30361 0.16248,0.30273 0.32481,0.60535 0.48703,0.90784 0.18567,0.36483 0.37121,0.72953 0.55662,1.09409 0.17793,0.47346 0.35575,0.94679 0.53343,1.41999 0.0929,0.34156 0.18566,0.68296 0.27831,1.02426 0.13927,0.47345 0.27842,0.94678 0.41745,1.41998 0.0619,0.41915 0.12383,0.83815 0.18554,1.25704 0.062,0.26396 0.12382,0.52778 0.18553,0.79146 0.0195,0.12429 0.0387,0.24843 0.058,0.37247 0.004,0.13592 0.007,0.2717 0.0116,0.40737 0.0311,0.19023 0.062,0.38034 0.0927,0.57032 0.007,0.14368 0.0156,0.28724 0.0232,0.43067 0.0273,0.17084 0.0542,0.34153 0.0812,0.51212 0.0195,0.23291 0.0387,0.46569 0.0579,0.69834 -0.0308,0.13206 -0.0617,0.26395 -0.0927,0.39575 -0.0501,0.12816 -0.10036,0.25618 -0.15075,0.38408 -0.0811,0.066 -0.16221,0.13205 -0.24351,0.19787 -0.15064,0.0467 -0.30138,0.0933 -0.45226,0.13967 -0.16995,0.0235 -0.34002,0.0467 -0.51024,0.0698 -0.15832,-0.0658 -0.3168,-0.13179 -0.47542,-0.19787 -0.14289,-0.0775 -0.28592,-0.15507 -0.42906,-0.23279 -0.085,-0.13953 -0.16996,-0.2792 -0.25511,-0.41901 -0.0733,-0.10074 -0.14676,-0.20162 -0.22035,-0.30263 -0.0926,-0.15506 -0.18538,-0.31024 -0.2783,-0.46555 -0.1313,-0.25595 -0.2627,-0.512 -0.39427,-0.7682 -0.16221,-0.15507 -0.32456,-0.31025 -0.48702,-0.46557 -0.21635,-0.22489 -0.4328,-0.44993 -0.64939,-0.67509 -0.39413,-0.32576 -0.7884,-0.65165 -1.1828,-0.97769 l -0.64939,-0.65179 c -0.30137,-0.1861 -0.60286,-0.37234 -0.90449,-0.55869 -0.21635,-0.17834 -0.4328,-0.3568 -0.6494,-0.53541 -0.37867,-0.18609 -0.75747,-0.37232 -1.13642,-0.55868 -0.43278,-0.1861 -0.86569,-0.37233 -1.29877,-0.55869 -0.30136,-0.10073 -0.60286,-0.2016 -0.90449,-0.30262 -0.37867,-0.11238 -0.75748,-0.22488 -1.13642,-0.33754 -0.0308,-0.0116 -0.0617,-0.0231 -0.0927,-0.0349 -0.11195,-0.0309 -0.22406,-0.0619 -0.33628,-0.0931 -0.0888,-0.0387 -0.17769,-0.0775 -0.26671,-0.11639 -0.0656,-0.0231 -0.13129,-0.0464 -0.19714,-0.0698 -0.0926,-0.0852 -0.18541,-0.17057 -0.27831,-0.25606 -0.0733,-0.1279 -0.14675,-0.25593 -0.22032,-0.38409 -0.0231,-0.18998 -0.0462,-0.38008 -0.0696,-0.57032 -0.0656,-0.0464 -0.13129,-0.093 -0.19714,-0.13968 -0.10809,-0.027 -0.21633,-0.0542 -0.32469,-0.0815 -0.12742,-0.0192 -0.25498,-0.0387 -0.38267,-0.0583 -0.17768,-0.058 -0.35548,-0.11626 -0.53342,-0.17459 -0.17767,-0.027 -0.35549,-0.0542 -0.53342,-0.0815 -0.0386,1.3e-4 -0.0772,1.3e-4 -0.11597,0 -0.003,0.0502 -0.007,0.10011 -0.0114,0.14994 0.0876,0.0879 0.17506,0.17572 0.26239,0.26337 0.0875,0.12084 0.17506,0.24155 0.2624,0.36213 0.093,0.0879 0.18597,0.17571 0.27879,0.26337 0.10946,0.19216 0.21878,0.3842 0.32798,0.57612 0.10945,0.14827 0.21879,0.2964 0.32798,0.44442 0.1204,0.17571 0.24066,0.35129 0.3608,0.52674 0.0603,0.15375 0.12038,0.30738 0.18039,0.46088 0.0329,0.1373 0.0657,0.27447 0.0984,0.41151 -0.0108,0.0659 -0.0218,0.13181 -0.0328,0.19752 -0.0764,0.25801 -0.15293,0.5159 -0.22959,0.77364 0.0329,0.15377 0.0657,0.30739 0.0984,0.4609 0.27892,0.91093 0.5577,1.82172 0.83637,2.73241 0.0383,0.0715 0.0767,0.14279 0.11479,0.214 0.0493,0.258 0.0985,0.51587 0.14759,0.77363 0.0713,0.3458 0.14227,0.69146 0.21319,1.037 0.10403,0.56528 0.20787,1.1304 0.3116,1.69542 0.24612,1.53095 0.49211,3.06173 0.73798,4.59245 1.2e-4,0.0605 1.2e-4,0.12083 0,0.18106 0.022,0.15924 0.0438,0.31836 0.0656,0.47734 0.011,0.15377 0.022,0.3074 0.0328,0.4609 0.0165,0.20862 0.0329,0.41712 0.0491,0.62549 0.0111,0.23059 0.022,0.46102 0.0328,0.69133 0.022,0.21961 0.0438,0.43907 0.0656,0.65842 -0.005,0.1373 -0.0108,0.27448 -0.0163,0.41152 0.022,0.17021 0.0438,0.34029 0.0656,0.51027 1.5e-4,0.11534 1.5e-4,0.23058 0,0.34566 -0.0218,0.13181 -0.0436,0.2635 -0.0656,0.39505 -0.0381,0.1373 -0.0764,0.27447 -0.11479,0.41151 -0.0545,0.0824 -0.1092,0.16474 -0.164,0.24691 -0.1092,0.077 -0.21853,0.15375 -0.32799,0.23045 -0.14746,0.055 -0.29504,0.10986 -0.44278,0.16461 -0.14199,-0.005 -0.28412,-0.0108 -0.42638,-0.0165 -0.18028,-0.0712 -0.36066,-0.14253 -0.54119,-0.214 -0.10372,-0.1041 -0.20759,-0.20836 -0.31159,-0.31275 -0.12013,-0.19191 -0.24039,-0.38394 -0.36079,-0.5761 -0.0818,-0.22485 -0.16385,-0.44979 -0.24598,-0.67488 -0.0601,-0.13704 -0.12014,-0.27421 -0.1804,-0.41151 -0.0873,-0.16996 -0.17479,-0.34005 -0.26239,-0.51027 -0.10371,-0.18095 -0.20759,-0.36199 -0.31159,-0.54319 -0.2076,-0.29068 -0.41531,-0.58146 -0.62317,-0.87241 -0.18573,-0.29067 -0.37159,-0.58146 -0.55758,-0.8724 -0.18027,-0.20287 -0.36065,-0.40588 -0.54118,-0.60903 -0.2568,-0.30164 -0.51372,-0.60341 -0.77078,-0.90532 -0.25133,-0.25226 -0.50277,-0.50465 -0.75438,-0.75718 -0.23492,-0.21386 -0.46997,-0.42783 -0.70517,-0.64195 -0.33879,-0.31811 -0.67771,-0.63633 -1.01676,-0.9547 -0.12013,-0.0932 -0.2404,-0.18642 -0.36079,-0.27983 -0.18026,-0.14252 -0.36066,-0.28518 -0.54118,-0.42797 -0.13106,-0.13155 -0.26226,-0.26324 -0.39359,-0.39504 -0.18026,-0.11509 -0.36065,-0.23031 -0.54118,-0.34567 -0.30599,-0.20838 -0.6121,-0.41686 -0.918362,-0.62549 -0.234926,-0.14253 -0.469989,-0.2852 -0.705176,-0.42799 -0.234927,-0.14799 -0.469989,-0.29614 -0.705177,-0.44442 -0.131062,-0.0767 -0.26226,-0.1535 -0.393583,-0.23045 -0.169333,-0.0712 -0.338791,-0.14252 -0.508385,-0.21397 -0.21853,-0.16448 -0.437186,-0.32908 -0.655968,-0.49383 -0.06548,-0.0383 -0.131072,-0.0767 -0.196802,-0.11522 -0.03814,1.3e-4 -0.07637,1.3e-4 -0.114792,0 0.02745,0.055 0.05479,0.10987 0.08203,0.16461 0.03834,0.0879 0.07669,0.17571 0.114792,0.26337 0.06024,0.0988 0.120397,0.19765 0.180396,0.29628 0.06024,0.14828 0.120386,0.29642 0.180395,0.44444 0.03834,0.12084 0.07669,0.24154 0.114792,0.36212 0.06024,0.15925 0.120397,0.31837 0.180396,0.47735 0.07124,0.24155 0.14225,0.48297 0.213187,0.72426 0.08213,0.26898 0.164126,0.53783 0.246,0.80656 0.04934,0.22509 0.09848,0.45004 0.147593,0.67487 0.05479,0.24704 0.109449,0.49394 0.16399,0.74072 0.022,0.20863 0.0438,0.41711 0.06558,0.62549 0.0548,0.3897 0.109459,0.77925 0.164,1.16869 0.06569,0.32385 0.131324,0.64757 0.196792,0.97116 0.0439,0.29643 0.08759,0.59269 0.131198,0.88886 0.0329,0.3074 0.06569,0.61465 0.09837,0.92179 0.01644,0.38968 0.0329,0.77925 0.04924,1.16867 0.01656,0.50493 0.0329,1.0097 0.04924,1.51436 0.011,1.41024 0.022,2.82032 0.03279,4.23032 -0.01624,0.19765 -0.03269,0.39517 -0.04924,0.59257 -0.0052,0.15376 -0.0108,0.30739 -0.01634,0.46089 -0.02714,0.25252 -0.05458,0.50491 -0.08203,0.75718 -0.03269,0.14827 -0.06548,0.29641 -0.09837,0.44443 -0.03269,0.15376 -0.06548,0.30738 -0.09837,0.46089 -0.06003,0.13181 -0.120134,0.26349 -0.180395,0.39505 -0.07093,0.0605 -0.141999,0.12084 -0.213188,0.18107 -0.07093,0.0659 -0.141999,0.1318 -0.213197,0.19752 -0.06003,0.0385 -0.120124,0.077 -0.180396,0.11522 -0.223989,0.0495 -0.448113,0.0988 -0.672375,0.14814 -0.196666,-0.0932 -0.393447,-0.18642 -0.590375,-0.27983 -0.322394,-0.38394 -0.644915,-0.76801 -0.967572,-1.15222 -0.251321,-0.38944 -0.50278,-0.77899 -0.754364,-1.16869 -0.236152,-0.32658 -0.472429,-0.65329 -0.708843,-0.98014 -0.185404,-0.21714 -0.370944,-0.4344 -0.556619,-0.6518 -0.332286,-0.49647 -0.664706,-0.99308 -0.997264,-1.48982 -0.687911,-0.83014 -1.375926,-1.66038 -2.06411,-2.49079 -0.363222,-0.41889 -0.72656,-0.83789 -1.090044,-1.25705 -0.49464,-0.58959 -0.989394,-1.1793 -1.484297,-1.76915 -0.394149,-0.41114 -0.788402,-0.82238 -1.182813,-1.23378 -0.301368,-0.17833 -0.602863,-0.35679 -0.904503,-0.53539 -0.479166,-0.28698 -0.958469,-0.57407 -1.437918,-0.86131 -0.502371,-0.19386 -1.004858,-0.38783 -1.507492,-0.58195 -0.742022,-0.19387 -1.48416,-0.38785 -2.226465,-0.58197 -0.641522,-0.0697 -1.283159,-0.13954 -1.924952,-0.2095 -0.787878,0.0169 -1.575873,0.0337 -2.364034,0.0505 -0.300519,-0.0108 -0.601175,-0.0219 -0.901968,-0.0329 -0.633978,0.0934 -1.268071,0.18668 -1.902321,0.27982 -0.459062,0.12632 -0.918239,0.25252 -1.377552,0.37859 -0.360666,0.15376 -0.721447,0.3074 -1.082364,0.46089 -0.289593,0.14279 -0.579312,0.28544 -0.869177,0.42798 -0.30052,0.21412 -0.601176,0.42808 -0.901968,0.64195 -0.330116,0.28879 -0.660368,0.57743 -0.990757,0.86597 -0.100362,0.0816 -0.200866,0.16309 -0.301505,0.24443 -0.08874,0.0933 -0.177671,0.18636 -0.266711,0.27933 -0.05008,0.0584 -0.100362,0.11653 -0.150748,0.1746 -0.05783,0.0894 -0.115828,0.17859 -0.173942,0.2677 -0.115829,0.3881 -0.231793,0.77608 -0.347884,1.16393 -0.09785,0.45547 -0.195838,0.91081 -0.293961,1.36603 -0.234927,0.15377 -0.469979,0.30739 -0.705177,0.4609 -0.256791,0.10442 -0.513708,0.20862 -0.770771,0.31275 -0.568384,-0.0274 -1.136883,-0.0548 -1.70554,-0.0823 -0.30052,-0.1096 -0.601176,-0.21934 -0.901958,-0.32921 -0.459062,-0.27421 -0.918239,-0.54853 -1.377562,-0.82301 -0.765165,-0.82838 -1.530456,-1.65687 -2.295915,-2.48552 -0.491853,-0.85033 -0.983821,-1.70077 -1.475948,-2.55137 -0.431716,-0.37296 -0.86356,-0.74606 -1.295551,-1.11929 -0.215272,-0.27088 -0.430669,-0.54188 -0.646193,-0.81303 -0.177682,-0.38009 -0.355491,-0.76029 -0.533425,-1.14065 0.286168,-0.58959 0.572199,-1.1793 0.858114,-1.76915 -0.247257,-0.3801 -0.494639,-0.76029 -0.742159,-1.14065 -0.177672,-0.40336 -0.35548,-0.80686 -0.533424,-1.21048 -0.154476,-0.94652 -0.30909,-1.89317 -0.463839,-2.83997 0.309363,-0.31801 0.618588,-0.63615 0.927688,-0.95442 0.363474,0.007 0.726832,0.0156 1.090033,0.0232 0.648949,0.57595 1.297709,1.15172 1.946512,1.72753 0.08559,0.0759 0.171165,0.15191 0.25676,0.22787 0.220761,-0.31584 0.44056,-0.63093 0.660818,-0.94639 0.652532,-0.93457 1.304991,-1.86908 1.957659,-2.80433 1.138822,-0.32883 2.276597,-0.65754 3.414843,-0.98651 0.134173,-0.0388 0.268388,-0.0774 0.40254,-0.11633 -0.197179,-0.34822 -0.39419,-0.69606 -0.591506,-1.04433 -0.553685,-2.0384 -1.107308,-4.07624 -1.661329,-6.11518 -0.672323,-0.92885 -1.344509,-1.85749 -2.016936,-2.7864 -0.437029,-0.56526 -1.311517,-1.69616 -1.311517,-1.69616 v 0 c 0,0 -1.088577,-0.96933 -1.632488,-1.45368 -0.57688,-0.26166 -1.15593,-0.52438 -1.732225,-0.78591 -0.385882,-0.0863 -0.773567,-0.17321 -1.16055,-0.26002 -0.214225,-0.0464 -0.428826,-0.0931 -0.643071,-0.13968 -1.613777,0.21716 -3.231148,0.43465 -4.847187,0.65179 -0.683868,-0.0535 -1.367787,-0.10713 -2.051779,-0.16079 -0.305592,-0.024 -0.611381,-0.0478 -0.916835,-0.0719 0.01823,0.14751 0.03625,0.29505 0.05437,0.44257 0.06642,0.54071 0.132748,1.08139 0.198939,1.62206 0.186316,0.56908 0.372379,1.13766 0.558442,1.70649 0.154781,0.33386 0.309352,0.66743 0.463839,1.00097 -0.200846,0.35708 -0.602925,1.07083 -0.602925,1.07083"
       sodipodi:nodetypes="cccccccccccccccccccccccccccccccccccccccccccccccccccccccccccccccccccccccccccccccccccccccccccccccccccccccccccccccccccccccccccccccccccccccccccccccccccccccccccccccccccccccccccccccccccccccccccccccccccccccccccccccccccccccccccccccccccccccccccccccccccccccccccccccccccccccccccccccccccccccccccccccccccccccccccccccccccccccccccccccccccccccccccccccccccccccccccccccccccccccccccccccccccccccccccccccccccccccccccccccccccccccccccccccccccccccccccccccccccccc" />
  </g>
</svg>
