<?xml version="1.0" encoding="UTF-8" standalone="no"?>
<svg
   xmlns:dc="http://purl.org/dc/elements/1.1/"
   xmlns:cc="http://creativecommons.org/ns#"
   xmlns:rdf="http://www.w3.org/1999/02/22-rdf-syntax-ns#"
   xmlns:svg="http://www.w3.org/2000/svg"
   xmlns="http://www.w3.org/2000/svg"
   xmlns:sodipodi="http://sodipodi.sourceforge.net/DTD/sodipodi-0.dtd"
   xmlns:inkscape="http://www.inkscape.org/namespaces/inkscape"
   width="210mm"
   height="297mm"
   viewBox="0 0 210 297"
   version="1.1"
   id="svg8"
   inkscape:version="1.0.1 (3bc2e813f5, 2020-09-07)"
   sodipodi:docname="Silkscreen2.svg">
  <defs
     id="defs2">
    <inkscape:path-effect
       effect="bspline"
       id="path-effect2080"
       is_visible="true"
       lpeversion="1"
       weight="33.333333"
       steps="2"
       helper_size="0"
       apply_no_weight="true"
       apply_with_weight="true"
       only_selected="false" />
    <inkscape:path-effect
       effect="bspline"
       id="path-effect2076"
       is_visible="true"
       lpeversion="1"
       weight="33.333333"
       steps="2"
       helper_size="0"
       apply_no_weight="true"
       apply_with_weight="true"
       only_selected="false" />
    <inkscape:path-effect
       effect="bspline"
       id="path-effect2072"
       is_visible="true"
       lpeversion="1"
       weight="33.333333"
       steps="2"
       helper_size="0"
       apply_no_weight="true"
       apply_with_weight="true"
       only_selected="false" />
    <inkscape:path-effect
       effect="bspline"
       id="path-effect2068"
       is_visible="true"
       lpeversion="1"
       weight="33.333333"
       steps="2"
       helper_size="0"
       apply_no_weight="true"
       apply_with_weight="true"
       only_selected="false" />
    <inkscape:path-effect
       effect="bspline"
       id="path-effect2064"
       is_visible="true"
       lpeversion="1"
       weight="33.333333"
       steps="2"
       helper_size="0"
       apply_no_weight="true"
       apply_with_weight="true"
       only_selected="false" />
    <inkscape:path-effect
       effect="bspline"
       id="path-effect2060"
       is_visible="true"
       lpeversion="1"
       weight="33.333333"
       steps="2"
       helper_size="0"
       apply_no_weight="true"
       apply_with_weight="true"
       only_selected="false" />
    <inkscape:path-effect
       effect="bspline"
       id="path-effect2056"
       is_visible="true"
       lpeversion="1"
       weight="33.333333"
       steps="2"
       helper_size="0"
       apply_no_weight="true"
       apply_with_weight="true"
       only_selected="false" />
    <inkscape:path-effect
       effect="bspline"
       id="path-effect2052"
       is_visible="true"
       lpeversion="1"
       weight="33.333333"
       steps="2"
       helper_size="0"
       apply_no_weight="true"
       apply_with_weight="true"
       only_selected="false" />
    <inkscape:path-effect
       effect="bspline"
       id="path-effect2048"
       is_visible="true"
       lpeversion="1"
       weight="33.333333"
       steps="2"
       helper_size="0"
       apply_no_weight="true"
       apply_with_weight="true"
       only_selected="false" />
    <inkscape:path-effect
       effect="bspline"
       id="path-effect2041"
       is_visible="true"
       lpeversion="1"
       weight="33.333333"
       steps="2"
       helper_size="0"
       apply_no_weight="true"
       apply_with_weight="true"
       only_selected="false" />
    <inkscape:path-effect
       effect="bspline"
       id="path-effect2037"
       is_visible="true"
       lpeversion="1"
       weight="33.333333"
       steps="2"
       helper_size="0"
       apply_no_weight="true"
       apply_with_weight="true"
       only_selected="false" />
    <inkscape:path-effect
       effect="bspline"
       id="path-effect947"
       is_visible="true"
       lpeversion="1"
       weight="33.333333"
       steps="2"
       helper_size="0"
       apply_no_weight="true"
       apply_with_weight="true"
       only_selected="false" />
    <inkscape:path-effect
       effect="bspline"
       id="path-effect929"
       is_visible="true"
       lpeversion="1"
       weight="33.333333"
       steps="2"
       helper_size="0"
       apply_no_weight="true"
       apply_with_weight="true"
       only_selected="false" />
    <inkscape:path-effect
       effect="bspline"
       id="path-effect925"
       is_visible="true"
       lpeversion="1"
       weight="33.333333"
       steps="2"
       helper_size="0"
       apply_no_weight="true"
       apply_with_weight="true"
       only_selected="false" />
    <inkscape:path-effect
       effect="bspline"
       id="path-effect921"
       is_visible="true"
       lpeversion="1"
       weight="33.333333"
       steps="2"
       helper_size="0"
       apply_no_weight="true"
       apply_with_weight="true"
       only_selected="false" />
    <inkscape:path-effect
       effect="bspline"
       id="path-effect917"
       is_visible="true"
       lpeversion="1"
       weight="33.333333"
       steps="2"
       helper_size="0"
       apply_no_weight="true"
       apply_with_weight="true"
       only_selected="false" />
    <inkscape:path-effect
       effect="bspline"
       id="path-effect913"
       is_visible="true"
       lpeversion="1"
       weight="33.333333"
       steps="2"
       helper_size="0"
       apply_no_weight="true"
       apply_with_weight="true"
       only_selected="false" />
    <inkscape:path-effect
       effect="bspline"
       id="path-effect907"
       is_visible="true"
       lpeversion="1"
       weight="33.333333"
       steps="2"
       helper_size="0"
       apply_no_weight="true"
       apply_with_weight="true"
       only_selected="false" />
    <inkscape:path-effect
       effect="bspline"
       id="path-effect903"
       is_visible="true"
       lpeversion="1"
       weight="33.333333"
       steps="2"
       helper_size="0"
       apply_no_weight="true"
       apply_with_weight="true"
       only_selected="false" />
    <inkscape:path-effect
       effect="bspline"
       id="path-effect899"
       is_visible="true"
       lpeversion="1"
       weight="33.333333"
       steps="2"
       helper_size="0"
       apply_no_weight="true"
       apply_with_weight="true"
       only_selected="false" />
    <inkscape:path-effect
       effect="bspline"
       id="path-effect895"
       is_visible="true"
       lpeversion="1"
       weight="33.333333"
       steps="2"
       helper_size="0"
       apply_no_weight="true"
       apply_with_weight="true"
       only_selected="false" />
    <inkscape:path-effect
       effect="bspline"
       id="path-effect890"
       is_visible="true"
       lpeversion="1"
       weight="33.333333"
       steps="2"
       helper_size="0"
       apply_no_weight="true"
       apply_with_weight="true"
       only_selected="false" />
    <inkscape:path-effect
       effect="bspline"
       id="path-effect886"
       is_visible="true"
       lpeversion="1"
       weight="33.333333"
       steps="2"
       helper_size="0"
       apply_no_weight="true"
       apply_with_weight="true"
       only_selected="false" />
    <inkscape:path-effect
       effect="bspline"
       id="path-effect882"
       is_visible="true"
       lpeversion="1"
       weight="33.333333"
       steps="2"
       helper_size="0"
       apply_no_weight="true"
       apply_with_weight="true"
       only_selected="false" />
    <inkscape:path-effect
       effect="bspline"
       id="path-effect863"
       is_visible="true"
       lpeversion="1"
       weight="33.333333"
       steps="2"
       helper_size="0"
       apply_no_weight="true"
       apply_with_weight="true"
       only_selected="false" />
    <inkscape:path-effect
       effect="bspline"
       id="path-effect859"
       is_visible="true"
       lpeversion="1"
       weight="33.333333"
       steps="2"
       helper_size="0"
       apply_no_weight="true"
       apply_with_weight="true"
       only_selected="false" />
    <inkscape:path-effect
       effect="bspline"
       id="path-effect855"
       is_visible="true"
       lpeversion="1"
       weight="33.333333"
       steps="2"
       helper_size="0"
       apply_no_weight="true"
       apply_with_weight="true"
       only_selected="false" />
    <inkscape:path-effect
       effect="bspline"
       id="path-effect851"
       is_visible="true"
       lpeversion="1"
       weight="33.333333"
       steps="2"
       helper_size="0"
       apply_no_weight="true"
       apply_with_weight="true"
       only_selected="false" />
    <inkscape:path-effect
       effect="bspline"
       id="path-effect847"
       is_visible="true"
       lpeversion="1"
       weight="33.333333"
       steps="2"
       helper_size="0"
       apply_no_weight="true"
       apply_with_weight="true"
       only_selected="false" />
    <inkscape:path-effect
       effect="bspline"
       id="path-effect843"
       is_visible="true"
       lpeversion="1"
       weight="33.333333"
       steps="2"
       helper_size="0"
       apply_no_weight="true"
       apply_with_weight="true"
       only_selected="false" />
    <inkscape:path-effect
       effect="bspline"
       id="path-effect849"
       is_visible="true"
       lpeversion="1"
       weight="33.333333"
       steps="2"
       helper_size="0"
       apply_no_weight="true"
       apply_with_weight="true"
       only_selected="false" />
  </defs>
  <sodipodi:namedview
     id="base"
     pagecolor="#ffffff"
     bordercolor="#666666"
     borderopacity="1.0"
     inkscape:pageopacity="0.0"
     inkscape:pageshadow="2"
     inkscape:zoom="0.98994949"
     inkscape:cx="477.71522"
     inkscape:cy="606.40198"
     inkscape:document-units="mm"
     inkscape:current-layer="layer1"
     inkscape:document-rotation="0"
     showgrid="false"
     inkscape:window-width="1366"
     inkscape:window-height="705"
     inkscape:window-x="-8"
     inkscape:window-y="-8"
     inkscape:window-maximized="1" />
  <metadata
     id="metadata5">
    <rdf:RDF>
      <cc:Work
         rdf:about="">
        <dc:format>image/svg+xml</dc:format>
        <dc:type
           rdf:resource="http://purl.org/dc/dcmitype/StillImage" />
        <dc:title></dc:title>
      </cc:Work>
    </rdf:RDF>
  </metadata>
  <g
     inkscape:label="Layer 1"
     inkscape:groupmode="layer"
     id="layer1">
    <path
       id="path2039"
       style="fill:#000000;stroke:#000000;stroke-width:0.264583px;stroke-linecap:butt;stroke-linejoin:miter;stroke-opacity:1;fill-opacity:1"
       d="m 77.886993,140.76752 c 0.257826,0.0362 0.515351,0.0724 0.76801,0.16298 0.252659,0.0906 0.500436,0.23532 0.731514,0.37662 0.231078,0.1413 0.445443,0.27911 0.706161,0.46114 0.260719,0.18203 0.567778,0.40826 0.965414,0.74582 0.397636,0.33756 0.885848,0.7864 1.413432,1.32582 0.527584,0.53942 1.094534,1.16937 1.484306,1.63792 0.389771,0.46855 0.602379,0.77565 0.950671,1.24719 0.348293,0.47155 0.832232,1.10752 1.191114,1.63712 0.358883,0.52959 0.59274,0.95276 0.804347,1.30355 0.211607,0.35079 0.400919,0.62919 0.556802,0.8909 0.155883,0.2617 0.278383,0.5067 0.345147,0.65701 0.06676,0.15031 0.07791,0.20604 0.08066,0.26166 0.0027,0.0556 -0.0028,0.11135 -0.07503,0.1113 -0.07221,-5e-5 -0.211416,-0.0557 -0.41466,-0.11145 -0.203245,-0.0557 -0.470511,-0.1114 -0.732219,-0.15595 -0.261707,-0.0446 -0.517848,-0.078 -0.762876,-0.0808 -0.245028,-0.003 -0.478881,0.025 -0.748946,0.0668 -0.270064,0.0418 -0.57631,0.0974 -0.826921,0.16703 -0.250611,0.0696 -0.44549,0.15311 -0.559711,0.21718 -0.114222,0.0641 -0.147656,0.10866 0.217218,0.52081 0.364874,0.41215 1.127689,1.19167 1.628798,1.75128 0.501109,0.55962 0.740535,0.89927 0.952125,1.19995 0.211589,0.30068 0.395334,0.56238 0.662587,1.01341 0.267254,0.45103 0.618038,1.09135 0.89364,1.6593 0.275602,0.56796 0.476053,1.06351 0.645875,1.5034 0.169822,0.43988 0.309022,0.82407 0.464916,1.32799 0.155894,0.50392 0.328502,1.12754 0.414763,1.49779 0.08626,0.37026 0.08626,0.48718 0.07789,0.58178 -0.0084,0.0946 -0.02508,0.16704 -0.155755,0.14196 -0.130672,-0.0251 -0.375662,-0.14757 -0.623448,-0.27842 -0.247786,-0.13084 -0.498346,-0.27004 -0.734991,-0.40089 -0.236646,-0.13085 -0.459369,-0.25335 -0.643124,-0.34803 -0.183755,-0.0947 -0.328506,-0.16148 -0.476068,-0.21719 -0.147561,-0.0557 -0.297885,-0.10025 -0.406465,-0.13365 -0.10858,-0.0334 -0.175409,-0.0557 -0.08918,0.19501 0.08623,0.25068 0.325651,0.77407 0.489885,1.18612 0.164234,0.41204 0.253321,0.71271 0.339627,1.00783 0.08631,0.29511 0.169828,0.58465 0.22548,0.85191 0.05565,0.26726 0.08349,0.51225 0.128053,0.78231 0.04456,0.27007 0.105808,0.56517 0.144756,1.07743 0.03895,0.51226 0.05565,1.24167 0.05285,1.7567 -0.0028,0.51504 -0.02507,0.81571 -0.04735,1.0802 -0.02228,0.26448 -0.04455,0.49277 -0.06404,0.70715 -0.01949,0.21438 -0.03619,0.41482 -0.05569,0.57628 -0.0195,0.16147 -0.04177,0.28395 -0.05847,0.39254 -0.0167,0.10858 -0.02784,0.20326 -0.133505,0.12255 -0.105668,-0.0807 -0.306118,-0.33684 -0.531611,-0.59021 -0.225494,-0.25336 -0.476053,-0.50392 -0.743316,-0.74893 -0.267262,-0.24501 -0.551234,-0.48444 -0.821274,-0.67379 -0.270039,-0.18936 -0.526166,-0.32855 -0.80736,-0.47612 -0.281193,-0.14756 -0.587434,-0.30346 -0.782326,-0.39814 -0.194893,-0.0947 -0.278409,-0.12809 -0.300788,-0.0779 -0.02238,0.0502 0.0166,0.18385 0.09177,0.44834 0.07517,0.26449 0.186526,0.65981 0.297876,1.14703 0.111349,0.48721 0.222709,1.06628 0.309006,1.58133 0.0863,0.51505 0.147546,0.96606 0.178151,1.63423 0.0306,0.66816 0.0306,1.55348 0.0083,2.30238 -0.02228,0.74891 -0.06683,1.36139 -0.150354,2.14093 -0.08353,0.77953 -0.206024,1.72609 -0.303471,2.40818 -0.09745,0.6821 -0.169831,1.0997 -0.331317,1.69268 -0.161486,0.59299 -0.412049,1.36138 -0.623638,1.90702 -0.21159,0.54565 -0.384195,0.86859 -0.531603,1.0328 -0.147408,0.16421 -0.269898,0.16977 -0.392649,0.17535 m 2.5e-5,0 c 0.07822,-1.2804 0.156173,-2.56107 0.233863,-3.842 0.04481,-1.09111 0.08935,-2.18244 0.133633,-3.27405 -0.01087,-1.13566 -0.02201,-2.27153 -0.03341,-3.40769 -0.133371,-1.02429 -0.267005,-2.0488 -0.400902,-3.0736 -0.24474,-1.0577 -0.489731,-2.11562 -0.734992,-3.17382 -0.200191,-0.62338 -0.40064,-1.247 -0.601358,-1.87089 -0.200191,-0.32269 -0.40064,-0.64564 -0.601355,-0.96885 0.05058,-0.0201 0.100898,-0.0404 0.15095,-0.061 0.09968,-0.0165 0.199096,-0.0332 0.298249,-0.0502 0.163663,-0.0175 0.327056,-0.0352 0.490188,-0.0532 0.288496,0.0216 0.576717,0.043 0.864682,0.0641 0.228563,0.0504 0.456851,0.10049 0.684879,0.15034 0.222994,0.11163 0.445712,0.22299 0.668174,0.33409 0.222993,0.11163 0.445711,0.22299 0.668173,0.33408 0.200721,0.12834 0.401169,0.2564 0.601356,0.38421 0.133903,0.12833 0.267533,0.25639 0.400904,0.38419 0.111631,0.13947 0.222988,0.27867 0.334087,0.41761 0.08379,0.0615 0.167309,0.12277 0.250566,0.18375 0.06151,0.0726 0.122764,0.14504 0.183748,0.21716 0.01696,0.0225 0.03367,0.0448 0.05011,0.0668 2.64e-4,-0.0331 2.64e-4,-0.0666 0,-0.10022 -0.01643,-0.0499 -0.03315,-0.1 -0.05011,-0.15034 -0.01643,-0.0777 -0.03315,-0.15564 -0.05011,-0.23386 -0.03871,-0.16121 -0.07769,-0.32269 -0.116932,-0.48443 -0.08326,-0.24473 -0.166778,-0.48973 -0.250563,-0.73499 -0.08883,-0.26144 -0.177917,-0.52314 -0.267272,-0.7851 -0.0944,-0.24474 -0.18905,-0.48973 -0.283972,-0.73499 -0.166782,-0.41179 -0.333822,-0.82382 -0.501131,-1.23613 -0.111101,-0.23917 -0.222459,-0.47859 -0.334087,-0.71828 -0.133374,-0.18349 -0.267004,-0.36723 -0.400904,-0.55124 -0.183486,-0.26145 -0.367231,-0.52314 -0.551244,-0.78511 -0.172349,-0.2169 -0.344958,-0.43405 -0.517834,-0.65147 -0.283716,-0.23917 -0.567683,-0.47859 -0.851922,-0.71829 -0.200191,-0.13337 -0.40064,-0.267 -0.601355,-0.4009 -0.166783,-0.0721 -0.333822,-0.14451 -0.501132,-0.21716 -0.07769,-0.0721 -0.155644,-0.1445 -0.23386,-0.21715 -0.04428,-0.005 -0.08883,-0.0109 -0.133635,-0.0167 0.05038,-0.022 0.100491,-0.0443 0.150339,-0.0668 0.10606,-0.061 0.211851,-0.12223 0.317383,-0.18375 0.429017,-0.1 0.857753,-0.20018 1.286235,-0.30067 0.395608,-0.0554 0.790935,-0.1111 1.186008,-0.16705 0.312084,0.0337 0.623893,0.0671 0.935442,0.10023 0.217427,2.6e-4 0.434578,2.6e-4 0.651471,0 0.178448,0.0337 0.356623,0.0671 0.534537,0.10023 0.172882,0.0559 0.345488,0.11162 0.517835,0.16704 0.100494,0.0392 0.200718,0.0782 0.30068,0.11693 0.05595,0.0392 0.111625,0.0782 0.167042,0.11693 -0.03314,-0.0443 -0.06655,-0.0888 -0.100227,-0.13364 -0.04985,-0.0888 -0.09996,-0.17791 -0.150338,-0.26726 -0.07769,-0.14451 -0.155642,-0.28928 -0.23386,-0.43432 -0.08883,-0.16121 -0.177917,-0.32268 -0.267269,-0.48442 -0.461899,-0.77929 -0.924044,-1.55881 -1.386462,-2.33861 -0.250306,-0.28372 -0.500864,-0.56768 -0.751694,-0.85192 -0.211328,-0.29486 -0.422913,-0.58996 -0.634767,-0.88533 -0.250304,-0.20576 -0.500865,-0.41178 -0.751695,-0.61806 -0.228034,-0.21133 -0.456322,-0.42292 -0.684879,-0.63477 -0.233601,-0.11667 -0.467455,-0.2336 -0.701583,-0.35079 -0.13894,-0.0498 -0.27814,-0.1 -0.417607,-0.15034 0.07822,-0.061 0.156173,-0.12223 0.23386,-0.18375 0.156175,-0.0666 0.312081,-0.13337 0.467722,-0.20045 0.295381,-0.0944 0.590484,-0.18905 0.88533,-0.28397 0.267539,-0.1 0.534805,-0.20019 0.801809,-0.30068 0.184016,-0.0443 0.367761,-0.0888 0.551244,-0.13364 0.22856,-0.0554 0.456851,-0.11109 0.684877,-0.16704 0.228563,-0.0498 0.45685,-0.1 0.684879,-0.15034 0.145039,-0.0164 0.289806,-0.0331 0.434313,-0.0501 0.07822,-0.0109 0.156171,-0.022 0.23386,-0.0334 0.05595,-0.005 0.111628,-0.0109 0.167045,-0.0167 -0.06656,-0.061 -0.133371,-0.12223 -0.200454,-0.18374 -0.06655,-0.14451 -0.133368,-0.28928 -0.200451,-0.43431 -0.155646,-0.33383 -0.311549,-0.66791 -0.467722,-1.00227 -0.411784,-0.68462 -0.823817,-1.36949 -1.23612,-2.05463 -0.283716,-0.39508 -0.567685,-0.79041 -0.851924,-1.18601 -0.517578,-0.64565 -1.035405,-1.29154 -1.553504,-1.9377 -0.339397,-0.35611 -0.679045,-0.71246 -1.018963,-1.06908 -0.261443,-0.20019 -0.52314,-0.40064 -0.785106,-0.60136 -0.194622,-0.13894 -0.389504,-0.27814 -0.584653,-0.41761 -0.133371,-0.0833 -0.267004,-0.16677 -0.400902,-0.25056 -0.03315,-0.0276 -0.06655,-0.0554 -0.100226,-0.0835" />
    <path
       style="fill:#000000;stroke:#000000;stroke-width:0.264583px;stroke-linecap:butt;stroke-linejoin:miter;stroke-opacity:1;fill-opacity:1"
       d="m 93.846352,159.39385 c 0.02558,-0.15935 0.07676,-0.47827 0.0945,-0.74597 0.01774,-0.2677 0.002,-0.48425 -0.02752,-0.70276 -0.02951,-0.21851 -0.07282,-0.43899 -0.13383,-0.67916 -0.06101,-0.24017 -0.139754,-0.50002 -0.24801,-0.79138 -0.108256,-0.29135 -0.246056,-0.6142 -0.397607,-0.8977 -0.151551,-0.28349 -0.31691,-0.52759 -0.511797,-0.7973 -0.194887,-0.26971 -0.419307,-0.565 -0.633894,-0.85636 -0.214587,-0.29135 -0.419319,-0.57877 -0.655533,-0.85833 -0.236214,-0.27957 -0.503941,-0.55123 -0.763791,-0.78945 -0.25985,-0.23823 -0.511827,-0.44296 -0.744138,-0.64769 -0.23231,-0.20472 -0.444917,-0.40945 -0.592575,-0.5571 -0.147657,-0.14764 -0.230335,-0.23819 -0.271802,-0.313 -0.04147,-0.0748 -0.04147,-0.13387 -0.02165,-0.16552 0.01982,-0.0316 0.0592,-0.0356 0.139908,-0.0375 0.08071,-0.002 0.202762,-0.002 0.340591,0.0276 0.137829,0.0296 0.291384,0.0887 0.478416,0.15952 0.187031,0.0709 0.407498,0.15355 0.669328,0.25987 0.26183,0.10631 0.564993,0.23624 0.779572,0.33469 0.214578,0.0984 0.340567,0.16537 0.551201,0.21452 0.210635,0.0491 0.505923,0.0807 0.834653,0.0747 0.32873,-0.006 0.69096,-0.0493 1.108277,-0.14769 0.417316,-0.0984 0.889781,-0.252 1.267728,-0.40359 0.377946,-0.15158 0.661422,-0.3012 0.952949,-0.4763 0.291528,-0.1751 0.591129,-0.37569 0.920486,-0.63884 0.329357,-0.26316 0.688492,-0.58889 0.937647,-0.84082 0.249154,-0.25194 0.388351,-0.43011 0.484399,-0.5693 0.09605,-0.13919 0.148931,-0.23938 0.20741,-0.32712 0.05848,-0.0877 0.122515,-0.1629 0.172617,-0.24221 0.0501,-0.0793 0.08628,-0.1628 0.08087,-0.20462 -0.0054,-0.0418 -0.05273,-0.0418 -0.119569,-0.0363 -0.06684,0.006 -0.153141,0.0167 -0.256134,0.0223 -0.102994,0.006 -0.222707,0.006 -0.36468,-0.008 -0.141973,-0.0139 -0.306223,-0.0417 -0.448205,-0.0779 -0.141981,-0.0362 -0.261679,-0.0807 -0.385574,-0.14608 -0.123895,-0.0654 -0.251977,-0.15169 -0.367525,-0.22826 -0.115549,-0.0766 -0.218535,-0.14338 -0.286785,-0.19763 -0.06825,-0.0542 -0.101674,-0.096 -0.121249,-0.14333 -0.01958,-0.0473 -0.02514,-0.10023 0.0083,-0.14494 0.03344,-0.0447 0.105832,-0.0809 0.174062,-0.11292 0.06823,-0.032 0.13225,-0.0598 0.235308,-0.0835 0.103059,-0.0237 0.245042,-0.0431 0.385593,-0.0863 0.140552,-0.0432 0.279737,-0.10998 0.478765,-0.23944 0.199029,-0.12945 0.457937,-0.32154 0.658394,-0.4691 0.200458,-0.14756 0.342438,-0.25056 0.463509,-0.36746 0.12107,-0.11689 0.221291,-0.24774 0.299244,-0.36327 0.07795,-0.11553 0.133618,-0.21572 0.179562,-0.29787 0.04594,-0.0821 0.08212,-0.14615 0.09476,-0.18918 0.01263,-0.043 0.0015,-0.0653 -0.05559,-0.0558 -0.05707,0.01 -0.160096,0.0513 -0.267216,0.0722 -0.107121,0.0209 -0.218481,0.0209 -0.313126,0.0154 -0.09465,-0.006 -0.172595,-0.0167 -0.246365,-0.0486 -0.07377,-0.0319 -0.143386,-0.0848 -0.194987,-0.15441 -0.0516,-0.0696 -0.08499,-0.15583 -0.0962,-0.25332 -0.01121,-0.0975 -7.4e-5,-0.20606 0.0097,-0.29933 0.0097,-0.0933 0.0181,-0.17122 0.04313,-0.2534 0.02504,-0.0822 0.06681,-0.16851 0.108572,-0.26732 0.04176,-0.0988 0.08352,-0.21018 0.116936,-0.30623 0.03341,-0.0961 0.05846,-0.17677 0.08909,-0.27004 0.03062,-0.0933 0.06682,-0.19907 0.09745,-0.29234 0.03063,-0.0933 0.05568,-0.17399 0.07101,-0.29087 0.01533,-0.11689 0.02089,-0.27001 -0.02646,-0.2492 -0.04736,0.0208 -0.147577,0.21568 -0.242238,0.41197 -0.09466,0.19629 -0.183746,0.39395 -0.282581,0.60414 -0.09883,0.2102 -0.207411,0.43292 -0.37585,0.78511 -0.168439,0.35219 -0.396725,0.83382 -0.576294,1.1832 -0.179568,0.34938 -0.310415,0.56653 -0.487206,0.86861 -0.176792,0.30208 -0.399514,0.68906 -0.613878,1.01199 -0.214364,0.32293 -0.420381,0.58184 -0.604112,0.78645 -0.183731,0.2046 -0.3452,0.35494 -0.521983,0.51084 -0.176782,0.15591 -0.368878,0.31737 -0.608303,0.50669 -0.239426,0.18931 -0.526177,0.40646 -0.761405,0.55958 -0.235227,0.15312 -0.418957,0.2422 -0.576234,0.30623 -0.157277,0.064 -0.288106,0.10301 -0.288039,0.13648 6.8e-5,0.0335 0.13091,0.0613 0.258988,0.0989 0.128078,0.0376 0.253348,0.0849 0.363326,0.11274 0.109977,0.0278 0.204594,0.0362 0.279766,0.0613 0.07517,0.0252 0.130867,0.0669 0.16555,0.11707 0.03468,0.0501 0.04861,0.10863 0.04994,0.17264 0.0013,0.064 -0.0098,0.13356 -0.05564,0.18215 -0.04585,0.0486 -0.126568,0.0764 -0.229546,0.0973 -0.102977,0.0209 -0.228254,0.0348 -0.350756,0.0488 -0.122502,0.0139 -0.242211,0.0279 -0.476056,0.0279 -0.233844,2e-5 -0.581844,-0.0139 -0.825455,-0.0209 -0.243611,-0.007 -0.382811,-0.007 -0.645896,-0.0237 -0.263086,-0.0167 -0.650071,-0.0501 -0.902003,-0.0932 -0.251932,-0.0431 -0.368875,-0.096 -0.616661,-0.18649 -0.247786,-0.0905 -0.626409,-0.21857 -0.902043,-0.34936 -0.275634,-0.13079 -0.448246,-0.26443 -0.654275,-0.43703 -0.20603,-0.1726 -0.445453,-0.38419 -0.64871,-0.59019 -0.203258,-0.206 -0.370298,-0.40645 -0.548483,-0.62222 -0.178184,-0.21577 -0.367495,-0.44684 -0.483093,-0.61943 -0.115597,-0.1726 -0.157359,-0.28675 -0.207449,-0.40089 -0.05009,-0.11415 -0.108556,-0.2283 -0.148975,-0.34106 -0.04042,-0.11276 -0.06269,-0.22412 -0.08357,-0.32853 -0.02088,-0.10441 -0.04037,-0.20183 -0.0543,-0.29509 -0.01394,-0.0933 -0.02229,-0.18239 -0.02648,-0.25197 -0.0042,-0.0696 -0.0042,-0.11979 0.02098,-0.1114 0.02517,0.008 0.07528,0.0752 0.135129,0.15733 0.05985,0.0821 0.129456,0.17958 0.246419,0.30345 0.116964,0.12387 0.281217,0.2742 0.434352,0.40504 0.153135,0.13084 0.295119,0.2422 0.420422,0.32429 0.125302,0.0821 0.233864,0.13499 0.374453,0.20877 0.140589,0.0738 0.313212,0.16845 0.483048,0.25057 0.169836,0.0821 0.336866,0.1517 0.506695,0.20596 0.169829,0.0543 0.342422,0.0932 0.488588,0.12664 0.146166,0.0334 0.26587,0.0612 0.398112,0.0835 0.132242,0.0222 0.277008,0.0389 0.624998,0.032 0.347991,-0.007 0.899222,-0.0376 1.284794,-0.0766 0.385573,-0.039 0.605504,-0.0863 0.787829,-0.1434 0.182324,-0.0571 0.327074,-0.12389 0.484363,-0.20602 0.157289,-0.0821 0.327103,-0.17956 0.448183,-0.25751 0.121079,-0.0779 0.193467,-0.13641 0.448224,-0.31877 0.254756,-0.18237 0.69184,-0.48861 0.999457,-0.72663 0.307618,-0.23802 0.485798,-0.40785 0.644475,-0.57905 0.158677,-0.1712 0.297879,-0.34381 0.496941,-0.58742 0.199061,-0.24361 0.457977,-0.5582 0.659807,-0.85328 0.20183,-0.29508 0.3466,-0.5707 0.587423,-1.0412 0.240823,-0.47051 0.577688,-1.13589 0.785101,-1.59384 0.207414,-0.45795 0.285366,-0.70851 0.322972,-0.89221 0.0376,-0.1837 0.0348,-0.30062 0.02784,-0.42868 -0.007,-0.12806 -0.0181,-0.26726 -0.04857,-0.34946 -0.03048,-0.0822 -0.08056,-0.10725 -0.20602,-0.0224 -0.125458,0.0848 -0.325901,0.2797 -0.620334,0.59836 -0.294433,0.31866 -0.682806,0.76105 -1.056094,1.08066 -0.373288,0.3196 -0.731567,0.51646 -1.154824,0.74088 -0.423257,0.22443 -0.911463,0.4764 -1.318957,0.66933 -0.407494,0.19293 -0.734277,0.32679 -1.061067,0.45475 -0.326791,0.12797 -0.653574,0.25002 -0.913427,0.34648 -0.259854,0.0965 -0.452785,0.16733 -0.746085,0.24215 -0.293301,0.0748 -0.687022,0.15356 -1.049243,0.2146 -0.362221,0.061 -0.692944,0.10433 -1.175254,0.14765 -0.482309,0.0433 -1.116191,0.0866 -1.582749,0.10829 -0.466557,0.0217 -0.765782,0.0217 -1.005939,0.004 -0.240158,-0.0177 -0.421261,-0.0531 -0.58269,-0.0846 -0.16143,-0.0315 -0.303173,-0.0591 -0.364371,-0.11217 -0.0612,-0.0531 -0.04152,-0.13182 -0.01591,-0.18703 0.02561,-0.0552 0.0571,-0.0867 0.13796,-0.10049 0.08086,-0.0138 0.210784,-0.01 0.403695,-0.0217 0.192911,-0.0118 0.44883,-0.0394 0.694896,-0.0768 0.246066,-0.0374 0.482285,-0.0847 0.746081,-0.13979 0.263796,-0.0551 0.555154,-0.11812 0.807126,-0.17718 0.251972,-0.0591 0.464596,-0.11418 0.675234,-0.17521 0.210637,-0.061 0.4193,-0.12796 0.624041,-0.19489 0.204741,-0.0669 0.405528,-0.13387 0.596466,-0.20474 0.190938,-0.0709 0.372064,-0.14568 0.698861,-0.28152 0.326798,-0.13583 0.799253,-0.33269 1.14178,-0.48821 0.342526,-0.15552 0.555133,-0.2697 0.7185,-0.376 0.163367,-0.1063 0.27753,-0.20471 0.440944,-0.32678 0.163415,-0.12207 0.376027,-0.26774 0.767772,-0.57878 0.391746,-0.31104 0.962639,-0.78744 1.383919,-1.1536 0.421281,-0.36616 0.692942,-0.62207 0.958702,-0.88587 0.26576,-0.26379 0.525612,-0.53545 0.77567,-0.74612 0.250057,-0.21067 0.490227,-0.36029 0.669322,-0.51183 0.179094,-0.15155 0.297209,-0.3051 0.525721,-0.38386 0.228512,-0.0788 0.567109,-0.0827 0.836811,0.0178 0.269703,0.10054 0.470495,0.30527 0.690971,0.55333 0.220476,0.24807 0.460646,0.53942 0.688956,0.93316 0.22831,0.39375 0.44486,0.88983 0.60038,1.25995 0.15551,0.37011 0.25,0.61419 0.31492,0.93113 0.0649,0.31694 0.10035,0.70672 0.14169,1.14769 0.0413,0.44098 0.0886,0.93314 0.0905,1.4233 0.002,0.49017 -0.0414,0.97838 -0.0965,1.39572 -0.0551,0.41734 -0.12207,0.7638 -0.22247,1.17917 -0.10041,0.41537 -0.23427,0.89964 -0.37405,1.33273 -0.13978,0.43308 -0.28545,0.81499 -0.46262,1.15355 -0.17717,0.33856 -0.385838,0.63385 -0.574828,0.89764 -0.188989,0.2638 -0.358286,0.49609 -0.622059,0.77167 -0.263774,0.27558 -0.622055,0.59449 -0.942928,0.85631 -0.320872,0.26182 -0.604348,0.46656 -0.925215,0.66538 -0.320868,0.19883 -0.679151,0.39175 -0.980339,0.54136 -0.301187,0.14961 -0.545293,0.25592 -0.809107,0.38585 -0.263814,0.12994 -0.547289,0.28348 -0.801207,0.39176 -0.253919,0.10828 -0.47833,0.17127 -0.578685,0.21475 -0.100355,0.0435 -0.07675,0.0671 -0.03347,0.12815 0.04329,0.0611 0.106282,0.15949 0.186961,0.33274 0.08068,0.17324 0.179108,0.42128 0.275558,0.69295 0.09645,0.27167 0.190943,0.56696 0.251927,0.99217 0.06098,0.42521 0.08854,0.98035 0.07867,1.39964 -0.0099,0.41929 -0.05711,0.70277 -0.114212,0.9764 -0.0571,0.27362 -0.124028,0.53741 -0.214591,0.78346 -0.09056,0.24604 -0.204737,0.47439 -0.309053,0.63971 -0.104316,0.16532 -0.198811,0.26768 -0.259702,0.31886 -0.06089,0.0512 -0.08845,0.0512 -0.106269,0.0336 -0.01782,-0.0176 -0.02569,-0.053 -0.02966,-0.0708 -0.004,-0.0179 -0.0039,-0.0179 0.02166,-0.1772 z"
       id="path2046"
       inkscape:path-effect="#path-effect2048"
       inkscape:original-d="m 93.820778,159.5532 c 0.05145,-0.31865 0.102632,-0.63757 0.153551,-0.95675 -0.01548,-0.21629 -0.03123,-0.43284 -0.04725,-0.64965 -0.04304,-0.22023 -0.08635,-0.44071 -0.129929,-0.66146 -0.07848,-0.2596 -0.157226,-0.51945 -0.236236,-0.77957 -0.137541,-0.3226 -0.275341,-0.64545 -0.413411,-0.96857 -0.165103,-0.24385 -0.330465,-0.48795 -0.496094,-0.73233 -0.224163,-0.29503 -0.448582,-0.59032 -0.673269,-0.88588 -0.204475,-0.28716 -0.40921,-0.57457 -0.614212,-0.86226 -0.267472,-0.27141 -0.535202,-0.54307 -0.803198,-0.81501 -0.251725,-0.20448 -0.503703,-0.40921 -0.755954,-0.61421 -0.21235,-0.20448 -0.424958,-0.40921 -0.637834,-0.61421 -0.08242,-0.0903 -0.1651,-0.18085 -0.248047,-0.27167 2.65e-4,-0.0588 2.65e-4,-0.11785 0,-0.17718 0.03964,-0.004 0.07901,-0.008 0.118118,-0.0118 0.122322,2.7e-4 0.244374,2.7e-4 0.366165,0 0.153821,0.0593 0.307369,0.11838 0.460658,0.17718 0.220755,0.083 0.441238,0.16563 0.661458,0.24804 0.30344,0.1302 0.606602,0.26013 0.909505,0.38979 0.12626,0.0672 0.252249,0.13413 0.377976,0.2008 0.295564,0.0318 0.590852,0.0633 0.885881,0.0945 0.3625,-0.043 0.72472,-0.0864 1.086683,-0.12993 0.472744,-0.15329 0.945206,-0.30685 1.41741,-0.46066 0.283753,-0.14936 0.56723,-0.29897 0.850448,-0.44885 0.299876,-0.20033 0.599477,-0.40092 0.898821,-0.60178 0.359415,-0.32548 0.71855,-0.65121 1.077431,-0.97721 0.13947,-0.17792 0.27867,-0.35609 0.417608,-0.53454 0.05316,-0.1 0.106058,-0.20019 0.158692,-0.30067 0.0643,-0.0749 0.12833,-0.15008 0.192098,-0.22551 0.03646,-0.0833 0.07265,-0.16678 0.108579,-0.25057 -0.04707,2.6e-4 -0.09439,2.6e-4 -0.141988,0 -0.08604,0.0114 -0.172347,0.0225 -0.258916,0.0334 -0.119452,2.6e-4 -0.239165,2.6e-4 -0.359143,0 -0.163999,-0.0276 -0.328255,-0.0554 -0.492779,-0.0835 -0.119451,-0.0443 -0.239164,-0.0888 -0.359142,-0.13364 -0.127807,-0.086 -0.255871,-0.17234 -0.384202,-0.25891 -0.102748,-0.0666 -0.205756,-0.13337 -0.30903,-0.20046 -0.03315,-0.0415 -0.06655,-0.0833 -0.100225,-0.12528 -0.0053,-0.0526 -0.01087,-0.10553 -0.01669,-0.15869 0.07265,-0.0359 0.145037,-0.0721 0.217157,-0.10858 0.0643,-0.0276 0.128331,-0.0554 0.192101,-0.0835 0.142253,-0.0192 0.284236,-0.0387 0.42596,-0.0585 0.13947,-0.0666 0.27867,-0.13338 0.417608,-0.20046 0.259188,-0.19184 0.518099,-0.38393 0.776753,-0.5763 0.142253,-0.10275 0.284237,-0.20575 0.425961,-0.30903 0.100491,-0.13059 0.200715,-0.26143 0.300678,-0.39255 0.05595,-0.1 0.111627,-0.20019 0.167042,-0.30068 0.03646,-0.0638 0.07265,-0.1278 0.108579,-0.1921 -0.01087,-0.022 -0.02201,-0.0443 -0.03341,-0.0668 -0.102748,0.042 -0.205755,0.0838 -0.30903,0.12529 -0.111099,2.6e-4 -0.222459,2.6e-4 -0.334087,0 -0.07769,-0.0109 -0.155644,-0.022 -0.23386,-0.0334 -0.06934,-0.0526 -0.138938,-0.10553 -0.208804,-0.15869 -0.03315,-0.0861 -0.06655,-0.17235 -0.100227,-0.25892 0.0114,-0.10832 0.02254,-0.21689 0.03341,-0.32573 0.0086,-0.0777 0.01696,-0.15565 0.02506,-0.23387 0.04203,-0.086 0.08379,-0.17234 0.125283,-0.25891 0.04203,-0.1111 0.08379,-0.22246 0.125283,-0.33409 0.02532,-0.0805 0.05038,-0.16121 0.07517,-0.24221 0.03646,-0.10553 0.07265,-0.21133 0.10858,-0.31739 0.02532,-0.0805 0.05038,-0.16121 0.07517,-0.24221 0.0058,-0.15286 0.0114,-0.30598 0.01669,-0.45937 -0.09996,0.19516 -0.200189,0.39003 -0.30068,0.58465 -0.08883,0.19794 -0.177914,0.3956 -0.267269,0.59301 -0.108315,0.22299 -0.216892,0.44571 -0.325734,0.66817 -0.228034,0.48192 -0.456321,0.96355 -0.684879,1.44493 -0.130588,0.21742 -0.261435,0.43457 -0.392552,0.65147 -0.222464,0.38725 -0.445185,0.77423 -0.668173,1.16095 -0.205759,0.25919 -0.411777,0.5181 -0.618062,0.77675 -0.161213,0.15061 -0.322685,0.30094 -0.484425,0.45102 -0.191839,0.16174 -0.383934,0.32321 -0.5763,0.48442 -0.286499,0.21743 -0.573251,0.43458 -0.860274,0.65147 -0.183486,0.0894 -0.367231,0.17845 -0.551243,0.26727 -0.130588,0.0393 -0.261438,0.0782 -0.392552,0.11693 0.131117,0.0281 0.261966,0.0559 0.392552,0.0835 0.12555,0.0476 0.25083,0.0949 0.375848,0.14199 0.09493,0.009 0.189579,0.017 0.283975,0.0251 0.05595,0.042 0.111625,0.0838 0.167042,0.12528 0.01418,0.0587 0.0281,0.1172 0.04176,0.1754 -0.01087,0.0699 -0.02201,0.13946 -0.03341,0.2088 -0.08048,0.0281 -0.161211,0.0559 -0.242213,0.0835 -0.125021,0.0142 -0.250301,0.0281 -0.375849,0.0418 -0.119451,0.0142 -0.239164,0.0281 -0.359142,0.0418 -0.34775,-0.0137 -0.695751,-0.0276 -1.044022,-0.0418 -0.138941,2.7e-4 -0.278141,2.7e-4 -0.417608,0 -0.386728,-0.0331 -0.773705,-0.0666 -1.160952,-0.10022 -0.116668,-0.0526 -0.233598,-0.10553 -0.350793,-0.15869 -0.378375,-0.12781 -0.756999,-0.25587 -1.135896,-0.3842 -0.172349,-0.13337 -0.344958,-0.26701 -0.517834,-0.40091 -0.239168,-0.21133 -0.478592,-0.42291 -0.718286,-0.63476 -0.166782,-0.20019 -0.333822,-0.40064 -0.501131,-0.60136 -0.189055,-0.23082 -0.378367,-0.46189 -0.567947,-0.69323 -0.0415,-0.11388 -0.08326,-0.22803 -0.125283,-0.34244 -0.0582,-0.11388 -0.116665,-0.22803 -0.175397,-0.34244 -0.02201,-0.1111 -0.04428,-0.22246 -0.06681,-0.33408 -0.01924,-0.0972 -0.03871,-0.19462 -0.05847,-0.29233 -0.0081,-0.0888 -0.01643,-0.17792 -0.02506,-0.26727 2.64e-4,-0.0498 2.64e-4,-0.1 0,-0.15034 0.05038,0.0671 0.100491,0.1339 0.150338,0.20045 0.06987,0.0977 0.13947,0.19515 0.208807,0.29233 0.164526,0.15061 0.328782,0.30094 0.492779,0.45102 0.142253,0.11163 0.284236,0.22299 0.42596,0.33408 0.108844,0.0532 0.217419,0.10606 0.325734,0.15869 0.172879,0.0949 0.345488,0.18959 0.517835,0.28398 0.167311,0.0699 0.334351,0.13947 0.501131,0.2088 0.172879,0.0393 0.345488,0.0782 0.517835,0.11693 0.11998,0.0281 0.239691,0.0559 0.359142,0.0835 0.14504,0.017 0.289806,0.0337 0.434314,0.0501 0.551518,-0.0304 1.102751,-0.061 1.65373,-0.0919 0.220208,-0.0471 0.440145,-0.0944 0.659821,-0.14198 0.145039,-0.0666 0.289806,-0.13337 0.434313,-0.20045 0.170096,-0.0972 0.339919,-0.19462 0.509482,-0.29233 0.07265,-0.0582 0.145037,-0.11667 0.217157,-0.1754 0.437369,-0.30599 0.874458,-0.61222 1.311291,-0.91874 0.178448,-0.16956 0.356624,-0.33939 0.53454,-0.50948 0.13947,-0.17235 0.27867,-0.34496 0.417608,-0.51783 0.259186,-0.31434 0.518099,-0.62894 0.776753,-0.9438 0.145037,-0.27536 0.289806,-0.55098 0.434311,-0.82686 0.337142,-0.66514 0.674007,-1.33052 1.010613,-1.99617 0.07822,-0.25031 0.156173,-0.50087 0.233862,-0.7517 -0.0026,-0.11667 -0.0053,-0.2336 -0.0084,-0.35079 -0.01087,-0.13894 -0.02201,-0.27814 -0.03341,-0.41761 -0.04985,-0.0248 -0.09996,-0.0498 -0.150339,-0.0752 -0.200192,0.19516 -0.40064,0.39003 -0.601356,0.58465 -0.388128,0.44268 -0.776504,0.88507 -1.165151,1.32721 -0.358031,0.19714 -0.716314,0.39399 -1.074869,0.59059 -0.487966,0.25226 -0.976175,0.50423 -1.464657,0.75595 -0.326536,0.13414 -0.65332,0.268 -0.980377,0.4016 -0.326535,0.12233 -0.653319,0.24438 -0.980376,0.36617 -0.192664,0.0711 -0.385585,0.142 -0.578776,0.21261 -0.393467,0.079 -0.787186,0.15776 -1.181177,0.23624 -0.33047,0.0436 -0.661194,0.0869 -0.992187,0.12992 -0.633646,0.0436 -1.267529,0.0869 -1.901693,0.12993 -0.298971,2.7e-4 -0.598196,2.7e-4 -0.897692,0 -0.180853,-0.0352 -0.361963,-0.0706 -0.54334,-0.1063 -0.141481,-0.0273 -0.283218,-0.0549 -0.425225,-0.0827 0.01995,-0.0785 0.03964,-0.15722 0.05906,-0.23623 0.03176,-0.0312 0.06326,-0.0627 0.09449,-0.0945 0.130196,0.004 0.260122,0.008 0.389786,0.0118 0.256194,-0.0273 0.512109,-0.0549 0.767766,-0.0827 0.236505,-0.047 0.472733,-0.0942 0.708705,-0.14174 0.291626,-0.0627 0.582977,-0.12573 0.874069,-0.18899 0.212881,-0.0548 0.42549,-0.10998 0.637836,-0.16536 0.208942,-0.0667 0.417614,-0.1336 0.626023,-0.2008 0.201068,-0.0667 0.401865,-0.1336 0.602398,-0.2008 0.181383,-0.0745 0.362493,-0.14935 0.543343,-0.22442 0.472744,-0.19661 0.945203,-0.39346 1.41741,-0.59059 0.212881,-0.11392 0.425487,-0.2281 0.637834,-0.34254 0.114448,-0.0982 0.228626,-0.1966 0.342543,-0.2953 0.212878,-0.14541 0.425487,-0.29109 0.637833,-0.43703 0.571178,-0.47615 1.142069,-0.95255 1.712706,-1.42922 0.271939,-0.25567 0.543605,-0.51158 0.81501,-0.76777 0.260127,-0.27141 0.519983,-0.54307 0.779576,-0.81501 0.240443,-0.14935 0.48061,-0.29897 0.720519,-0.44885 0.118382,-0.15329 0.236497,-0.30684 0.354351,-0.46066 0.338875,-0.004 0.677471,-0.008 1.015812,-0.0118 0.201067,0.20501 0.401862,0.40974 0.602398,0.61422 0.240443,0.29162 0.480612,0.58297 0.720512,0.87406 0.21682,0.49637 0.43336,0.99246 0.64965,1.48829 0.0948,0.24438 0.18925,0.48848 0.28348,0.73233 0.0357,0.39006 0.0711,0.77984 0.10631,1.16936 0.0475,0.49243 0.0948,0.98458 0.14174,1.47647 -0.0431,0.48849 -0.0864,0.9767 -0.12993,1.46466 -0.0667,0.34675 -0.1336,0.69322 -0.2008,1.03943 -0.13361,0.48456 -0.26747,0.96883 -0.4016,1.45285 -0.14542,0.38218 -0.29109,0.76409 -0.43704,1.14574 -0.20841,0.29556 -0.417076,0.59085 -0.626015,0.88588 -0.169042,0.23257 -0.338339,0.46486 -0.507905,0.69689 -0.358034,0.31919 -0.716317,0.6381 -1.07487,0.95676 -0.283223,0.205 -0.5667,0.40973 -0.850447,0.61421 -0.358032,0.19319 -0.716315,0.38611 -1.07487,0.57877 -0.243851,0.10657 -0.487955,0.21288 -0.73233,0.31892 -0.283223,0.15382 -0.566697,0.30737 -0.850445,0.46066 -0.224162,0.0633 -0.448582,0.12626 -0.673271,0.18899 0.02389,0.0239 0.04751,0.0475 0.07087,0.0709 0.06326,0.0987 0.126256,0.19713 0.188989,0.29529 0.0987,0.24832 0.197125,0.49636 0.295294,0.74414 0.09476,0.29556 0.189251,0.59085 0.283482,0.88588 0.02783,0.55543 0.05539,1.11057 0.08268,1.66546 -0.04698,0.28375 -0.09423,0.56723 -0.141742,0.85045 -0.06667,0.26406 -0.133602,0.52785 -0.2008,0.79138 -0.113917,0.22864 -0.228095,0.45699 -0.342541,0.68509 -0.09423,0.10263 -0.188722,0.205 -0.283482,0.3071 -0.0273,2.7e-4 -0.05486,2.7e-4 -0.08268,0 -0.0076,-0.0352 -0.01548,-0.0706 -0.02363,-0.1063 z" />
    <path
       style="fill:#000000;stroke:#000000;stroke-width:0.264583px;stroke-linecap:butt;stroke-linejoin:miter;stroke-opacity:1;fill-opacity:1"
       d="m 45.16036,162.73072 c -0.17316,-0.34239 -0.519638,-1.02747 -0.795265,-1.63381 -0.275627,-0.60634 -0.480359,-1.13392 -0.578855,-1.53949 -0.0985,-0.40557 -0.09062,-0.68905 -0.02764,-0.92538 0.06298,-0.23633 0.181097,-0.42531 0.318984,-0.5553 0.137887,-0.12999 0.295376,-0.20086 0.437173,-0.24415 0.141797,-0.0433 0.267783,-0.059 0.425233,-0.10234 0.157449,-0.0433 0.346435,-0.11418 0.468404,-0.18895 0.121969,-0.0748 0.177082,-0.15349 0.157541,-0.24394 -0.01954,-0.0904 -0.114036,-0.19281 -0.149621,-0.26771 -0.03559,-0.0749 -0.01198,-0.1221 0.338598,-0.16155 0.350579,-0.0394 1.027775,-0.0709 1.901863,-0.0828 0.874088,-0.0118 1.945,-0.004 3.193127,0.0276 1.248127,0.0315 2.673385,0.0866 3.870327,0.16931 1.196942,0.0827 2.165486,0.19294 2.956892,0.33077 0.791406,0.13783 1.405603,0.3032 1.976513,0.50403 0.570909,0.20083 1.098491,0.43706 1.535522,0.67333 0.437031,0.23627 0.783502,0.4725 1.43708,1.03556 0.653578,0.56306 1.614247,1.45286 2.244162,2.1616 0.629915,0.70874 0.929141,1.23632 1.287406,2.06316 0.358265,0.82683 0.775605,1.95286 1.027559,2.76 0.251953,0.80714 0.33857,1.29534 0.389721,1.40162 0.05115,0.10627 0.0669,-0.16933 0.04724,-0.54728 -0.01966,-0.37796 -0.07478,-0.8583 -0.271617,-1.64182 -0.196834,-0.78351 -0.535429,-1.87016 -0.846451,-2.72061 -0.311022,-0.85046 -0.594498,-1.46466 -0.999999,-2.10645 -0.405501,-0.64179 -0.933085,-1.31111 -1.480342,-1.89385 -0.547257,-0.58274 -1.114211,-1.07883 -1.649664,-1.47259 -0.535453,-0.39376 -1.03941,-0.68511 -1.511883,-0.92137 -0.472472,-0.23627 -0.913437,-0.41738 -1.45679,-0.57884 -0.543352,-0.16146 -1.189051,-0.30319 -1.787526,-0.41738 -0.598476,-0.1142 -1.149673,-0.20081 -1.622152,-0.26775 -0.472478,-0.0669 -0.866189,-0.11419 -1.830848,-0.13783 -0.964658,-0.0236 -2.500154,-0.0236 -3.567159,-0.0158 -1.067005,0.008 -1.665457,0.0236 -2.35055,0.0551 -0.685093,0.0315 -1.456784,0.0787 -2.204868,0.12597 -0.748085,0.0472 -1.472527,0.0945 -2.019798,0.11813 -0.547271,0.0236 -0.917365,0.0236 -1.153582,0.0118 -0.236217,-0.0118 -0.338577,-0.0354 -0.43711,-0.18492 -0.09853,-0.1495 -0.193024,-0.4251 -0.25605,-0.6574 -0.06303,-0.23231 -0.09453,-0.4213 -0.004,-0.85841 0.09051,-0.43711 0.303117,-1.12218 0.629923,-1.75614 0.326806,-0.63396 0.767768,-1.21666 1.039434,-1.59069 0.271666,-0.37403 0.374031,-0.53939 0.460672,-0.65755 0.08664,-0.11815 0.15751,-0.18902 0.09858,-0.22445 -0.05893,-0.0354 -0.247911,-0.0354 -0.476366,0.0433 -0.228455,0.0787 -0.496184,0.23621 -0.779704,0.45672 -0.28352,0.22051 -0.582747,0.50399 -0.921369,0.87411 -0.338622,0.37012 -0.716595,0.82684 -0.956784,1.18913 -0.240189,0.36229 -0.342552,0.63001 -0.437039,1.00803 -0.09449,0.37802 -0.181106,0.86623 -0.216515,1.25998 -0.03541,0.39376 -0.01966,0.69299 0.09458,1.10249 0.114243,0.4095 0.326849,0.9292 0.504072,1.28355 0.177223,0.35434 0.318964,0.54333 0.413466,0.66933 0.0945,0.12601 0.141732,0.18898 0.165244,0.39371 0.02351,0.20472 0.02351,0.55119 0.09837,0.96463 0.07486,0.41344 0.224471,0.89378 0.441064,1.37806 0.216592,0.48429 0.50007,0.9725 0.811165,1.37407 0.311094,0.40158 0.649689,0.71655 0.972564,0.9685 0.322875,0.25195 0.629975,0.44094 0.838656,0.56298 0.208681,0.12204 0.318918,0.17716 0.366029,0.16146 0.04711,-0.0157 0.03137,-0.10227 0.02347,-0.14574 -0.0079,-0.0435 -0.0079,-0.0434 -0.181069,-0.38578 z"
       id="path2050"
       inkscape:path-effect="#path-effect2052"
       inkscape:original-d="m 45.33352,163.0731 c -0.346215,-0.68482 -0.692692,-1.3699 -1.039434,-2.05524 -0.204478,-0.52734 -0.40921,-1.05492 -0.614212,-1.58278 0.0081,-0.28322 0.01601,-0.5667 0.02363,-0.85045 0.118386,-0.18872 0.236501,-0.37771 0.354354,-0.56696 0.157758,-0.0706 0.315243,-0.14148 0.472469,-0.21261 0.126259,-0.0155 0.252249,-0.0312 0.377976,-0.0472 0.189257,-0.0706 0.378243,-0.14147 0.566965,-0.21261 0.05539,-0.0785 0.110509,-0.15723 0.165365,-0.23624 -0.09423,-0.1021 -0.188722,-0.20447 -0.283483,-0.3071 0.02389,-0.047 0.04751,-0.0942 0.07087,-0.14174 0.677485,-0.0312 1.35468,-0.0627 2.031622,-0.0945 1.071219,0.008 2.14213,0.016 3.212798,0.0236 1.425578,0.0554 2.850836,0.11051 4.275855,0.16536 0.968849,0.11051 1.937393,0.22075 2.905694,0.33073 0.614487,0.16564 1.228685,0.331 1.842632,0.4961 0.527868,0.2365 1.055449,0.47273 1.582775,0.7087 0.346749,0.23651 0.693221,0.47274 1.039436,0.70871 0.960972,0.8901 1.921643,1.7799 2.882067,2.66946 0.299503,0.52786 0.598728,1.05544 0.897694,1.58277 0.417621,1.12634 0.834962,2.25237 1.252046,3.37816 0.08689,0.4885 0.173503,0.9767 0.25986,1.46466 0.01601,-0.27535 0.03176,-0.55095 0.04725,-0.82682 -0.05486,-0.48009 -0.10998,-0.96043 -0.165365,-1.44104 -0.338346,-1.08644 -0.676944,-2.17309 -1.015812,-3.26004 -0.283223,-0.61396 -0.5667,-1.22816 -0.850445,-1.84264 -0.527338,-0.66908 -1.05492,-1.3384 -1.582777,-2.00799 -0.566711,-0.49584 -1.133663,-0.99193 -1.700893,-1.48829 -0.503713,-0.29109 -1.00767,-0.58244 -1.511903,-0.87407 -0.440716,-0.18085 -0.881681,-0.36196 -1.322916,-0.54334 -0.645459,-0.14147 -1.291157,-0.28321 -1.937129,-0.42522 -0.550963,-0.0864 -1.102167,-0.17297 -1.653646,-0.25986 -0.393469,-0.047 -0.787185,-0.0942 -1.181176,-0.14174 -1.535295,2.7e-4 -3.070791,2.7e-4 -4.606584,0 -0.59821,0.016 -1.19666,0.0318 -1.795388,0.0472 -0.771451,0.0475 -1.543138,0.0948 -2.315104,0.14174 -0.724205,0.0475 -1.448644,0.0948 -2.173362,0.14174 -0.369845,2.6e-4 -0.739939,2.6e-4 -1.110305,0 -0.102106,-0.0234 -0.204473,-0.047 -0.307108,-0.0709 -0.09423,-0.27535 -0.188722,-0.55095 -0.283479,-0.82682 -0.03123,-0.18873 -0.06273,-0.37772 -0.0945,-0.56697 0.212881,-0.68483 0.425489,-1.3699 0.637836,-2.05524 0.441246,-0.58246 0.882208,-1.16516 1.322917,-1.74814 0.102634,-0.16511 0.205001,-0.33047 0.307104,-0.4961 0.07114,-0.0706 0.142007,-0.14147 0.212611,-0.21261 -0.188727,2.7e-4 -0.377711,2.7e-4 -0.566962,0 -0.267475,0.15776 -0.535202,0.31525 -0.803201,0.47247 -0.298971,0.28375 -0.598196,0.56723 -0.897694,0.85045 -0.377719,0.45699 -0.755687,0.91371 -1.133928,1.37016 -0.102105,0.26801 -0.204472,0.53573 -0.307104,0.8032 -0.08636,0.4885 -0.172977,0.97671 -0.259861,1.46466 0.01601,0.2995 0.03176,0.59873 0.04725,0.89769 0.212881,0.52 0.42549,1.0397 0.637836,1.55915 0.142007,0.18926 0.283747,0.37825 0.425223,0.56697 0.04751,0.0633 0.09476,0.12626 0.141742,0.18899 2.65e-4,0.34675 2.65e-4,0.69322 0,1.03943 0.149882,0.48062 0.299495,0.96096 0.448845,1.44104 0.283752,0.48849 0.567229,0.9767 0.850447,1.46465 0.338876,0.31526 0.677471,0.63023 1.015812,0.94494 0.307375,0.18926 0.614474,0.37825 0.921317,0.56697 0.110508,0.0554 0.220749,0.11051 0.330729,0.16536 -0.01548,-0.0864 -0.03123,-0.17297 -0.04725,-0.25986 z" />
    <path
       style="fill:#000000;stroke:#000000;stroke-width:0.264583px;stroke-linecap:butt;stroke-linejoin:miter;stroke-opacity:1;fill-opacity:1"
       d="m 68.351378,145.90421 c 0.0139,-0.0751 0.04174,-0.22541 0.139231,-0.35916 0.09749,-0.13376 0.26453,-0.25069 0.423305,-0.32028 0.158776,-0.0696 0.309117,-0.0919 0.464987,-0.13364 0.15587,-0.0418 0.317339,-0.10302 0.431403,-0.18371 0.114063,-0.0807 0.180862,-0.18089 0.09749,-0.33949 -0.08337,-0.1586 -0.317223,-0.37575 -0.595608,-0.56233 -0.278386,-0.18659 -0.601334,-0.34249 -0.968848,-0.44278 -0.367515,-0.10028 -0.779541,-0.14483 -1.138698,-0.17267 -0.359156,-0.0279 -0.665395,-0.039 -0.952242,0.025 -0.286848,0.064 -0.554113,0.2032 -0.804729,0.38698 -0.250616,0.18377 -0.484475,0.41206 -0.632054,0.64323 -0.14758,0.23117 -0.208828,0.46503 -0.203198,0.72958 0.0056,0.26456 0.07802,0.55966 0.197823,0.79629 0.119808,0.23663 0.286846,0.4148 0.556934,0.56784 0.270088,0.15304 0.643144,0.28111 0.971617,0.3228 0.328473,0.0417 0.612433,-0.003 0.882434,-0.0892 0.270002,-0.0863 0.526134,-0.21439 0.709814,-0.35354 0.18368,-0.13916 0.295038,-0.28949 0.350736,-0.36468 0.0557,-0.0752 0.0557,-0.0752 0.0696,-0.15029 z"
       id="path2054"
       inkscape:path-effect="#path-effect2056"
       inkscape:original-d="m 68.337477,145.97928 c 0.0281,-0.15008 0.05595,-0.30042 0.08352,-0.45102 0.167312,-0.11667 0.334351,-0.2336 0.501131,-0.35079 0.150606,-0.022 0.300943,-0.0443 0.451017,-0.0668 0.161742,-0.061 0.323215,-0.12224 0.484425,-0.18375 0.06709,-0.1 0.133901,-0.20019 0.200454,-0.30068 -0.233601,-0.2169 -0.467458,-0.43405 -0.701582,-0.65147 -0.322694,-0.15564 -0.645639,-0.31155 -0.968854,-0.46772 -0.411784,-0.0443 -0.823815,-0.0888 -1.23612,-0.13363 -0.305988,-0.0109 -0.612228,-0.022 -0.918739,-0.0334 -0.26701,0.13947 -0.534276,0.27867 -0.80181,0.41761 -0.2336,0.22856 -0.467457,0.45685 -0.701582,0.68487 -0.06099,0.23413 -0.122235,0.46799 -0.183748,0.70159 0.07265,0.29538 0.145037,0.59048 0.217157,0.88533 0.167312,0.17845 0.334351,0.35662 0.501131,0.53453 0.373335,0.12834 0.746393,0.2564 1.11919,0.38421 0.284245,-0.0443 0.568212,-0.0888 0.851922,-0.13364 0.256402,-0.1278 0.512532,-0.25587 0.7684,-0.3842 0.111628,-0.15008 0.222988,-0.30041 0.334087,-0.45101 z" />
    <path
       style="fill:#000000;stroke:#000000;stroke-width:0.264583px;stroke-linecap:butt;stroke-linejoin:miter;stroke-opacity:1;fill-opacity:1"
       d="m 69.779923,135.18175 c -0.0039,-0.0628 -0.01181,-0.18884 -0.295157,-0.46449 -0.283351,-0.27564 -0.842427,-0.70085 -1.555091,-1.31899 -0.712665,-0.61815 -1.578844,-1.4292 -1.960914,-1.92538 -0.38207,-0.49618 -0.279703,-0.6773 0.09441,-0.95297 0.374111,-0.27568 1.019805,-0.64578 1.779716,-1.04345 0.759911,-0.39767 1.633963,-0.82288 2.964793,-1.35835 1.330829,-0.53548 3.118302,-1.18117 4.40186,-1.63396 1.283558,-0.45278 2.063118,-0.71264 2.815149,-0.94493 0.752031,-0.2323 1.476471,-0.43703 2.007985,-0.60634 0.531514,-0.1693 0.87011,-0.30317 0.866245,-0.38581 -0.0039,-0.0826 -0.350335,-0.11414 -0.775593,-0.10236 -0.425258,0.0118 -0.929214,0.0669 -1.779682,0.19684 -0.850468,0.12992 -2.047369,0.33466 -3.323075,0.6457 -1.275706,0.31104 -2.630094,0.72838 -3.827046,1.1536 -1.196952,0.42523 -2.236369,0.85832 -3.181335,1.30323 -0.944966,0.44492 -1.795395,0.90163 -2.515929,1.31111 -0.720535,0.40948 -1.311112,0.7717 -1.75999,1.0867 -0.448878,0.31499 -0.755974,0.58272 -1.004011,0.78745 -0.248038,0.20473 -0.437022,0.34647 -0.543366,0.43707 -0.106343,0.0906 -0.129979,0.12999 -0.07467,0.18122 0.05531,0.0512 0.189162,0.11421 0.342723,0.19298 0.153561,0.0788 0.32678,0.17324 1.165431,0.57877 0.838652,0.40554 2.342654,1.1221 3.433277,1.66152 1.090623,0.53942 1.767815,0.90164 2.153641,1.08267 0.385826,0.18103 0.48032,0.18103 0.527435,0.18103 0.04711,0 0.04712,0 0.04319,-0.0629 z"
       id="path2058"
       inkscape:path-effect="#path-effect2060"
       inkscape:original-d="m 69.783853,135.24461 c -0.0076,-0.12573 -0.01548,-0.25172 -0.02363,-0.37798 -0.558837,-0.42497 -1.117915,-0.85018 -1.67727,-1.27567 -0.86595,-0.81083 -1.732127,-1.62189 -2.598587,-2.43322 0.102634,-0.18086 0.205002,-0.36197 0.307107,-0.54334 0.645986,-0.36985 1.291683,-0.73994 1.937126,-1.11031 0.874352,-0.42497 1.748406,-0.85018 2.622211,-1.27567 1.787813,-0.64546 3.575288,-1.29115 5.362538,-1.93713 0.779854,-0.2596 1.559414,-0.51945 2.338726,-0.77957 0.724733,-0.20448 1.449173,-0.40921 2.173364,-0.61421 0.338873,-0.13361 0.677471,-0.26747 1.01581,-0.4016 -0.346221,-0.0312 -0.69269,-0.0627 -1.039434,-0.0945 -0.503714,0.0554 -1.007671,0.11051 -1.511904,0.16537 -1.196684,0.205 -2.393584,0.40974 -3.590774,0.61421 -1.354177,0.41762 -2.708566,0.83496 -4.063246,1.25205 -1.03919,0.43336 -2.078603,0.86646 -3.118302,1.29929 -0.850199,0.45699 -1.700628,0.9137 -2.55134,1.37016 -0.590333,0.3625 -1.18091,0.72472 -1.771764,1.08668 -0.306845,0.26801 -0.613944,0.53573 -0.921316,0.8032 -0.188727,0.14201 -0.377711,0.28375 -0.566965,0.42523 -0.02336,0.0396 -0.04698,0.079 -0.07087,0.11811 0.134133,0.0633 0.267997,0.12626 0.401598,0.18899 0.173509,0.0948 0.346745,0.18925 0.519719,0.28348 1.504325,0.71686 3.008325,1.43343 4.51209,2.14974 0.677487,0.3625 1.35468,0.72472 2.031621,1.08669 0.09476,2.6e-4 0.189254,2.6e-4 0.283483,0 z" />
    <path
       style="fill:#000000;stroke:#000000;stroke-width:0.264583px;stroke-linecap:butt;stroke-linejoin:miter;stroke-opacity:1;fill-opacity:1"
       d="m 74.591259,130.25609 c 0.318937,-0.24019 0.956774,-0.72054 2.047443,-1.32689 1.090668,-0.60635 2.634043,-1.33867 3.756207,-1.78357 1.122164,-0.44491 1.822983,-0.60239 2.531685,-0.78351 0.708703,-0.18112 1.425268,-0.38585 2.445051,-0.59058 1.019783,-0.20473 2.342673,-0.40947 3.641983,-0.59058 1.29931,-0.18111 2.574957,-0.33861 3.953025,-0.42521 1.378068,-0.0866 2.858446,-0.10233 3.775832,-0.10626 0.917387,-0.004 1.271736,0.004 1.936727,0.49576 0.664991,0.49183 1.640588,1.46732 1.599248,1.88849 -0.0413,0.42117 -1.099613,0.28824 -2.079593,0.18436 -0.97998,-0.10387 -1.881588,-0.17868 -3.078575,-0.24585 -1.196987,-0.0672 -2.68926,-0.12671 -4.098046,-0.11194 -1.408786,0.0148 -2.733967,0.10385 -4.106084,0.2537 -1.372116,0.14984 -2.791059,0.36045 -4.016347,0.58387 -1.225288,0.22342 -2.256826,0.45965 -3.197858,0.72344 -0.941031,0.2638 -1.79146,0.55515 -2.681304,0.90557 -0.889844,0.35042 -1.819017,0.75988 -2.283674,0.96465 -0.464657,0.20476 -0.464657,0.20474 -0.14572,-0.0354 z"
       id="path2062"
       inkscape:path-effect="#path-effect2064"
       inkscape:original-d="m 74.272322,130.49628 c 0.638098,-0.48008 1.275934,-0.96043 1.913503,-1.44104 1.543699,-0.73207 3.087071,-1.46439 4.630209,-2.19698 0.701108,-0.15723 1.401926,-0.31472 2.102492,-0.47247 0.71686,-0.20448 1.433426,-0.40921 2.14974,-0.61421 1.323208,-0.20448 2.646098,-0.40921 3.96875,-0.61421 1.275958,-0.15723 2.551605,-0.31472 3.827007,-0.47248 1.480701,-0.0155 2.961079,-0.0312 4.441222,-0.0472 0.354624,0.008 0.70897,0.016 1.063059,0.0236 0.9759,0.97579 1.951496,1.95128 2.926846,2.92652 -1.05805,-0.13267 -2.116332,-0.2656 -3.174893,-0.3988 -0.901385,-0.0746 -1.802998,-0.14935 -2.704894,-0.22442 -1.492067,-0.0593 -2.984341,-0.11879 -4.476906,-0.17859 -1.324975,0.0894 -2.650159,0.17845 -3.975634,0.26727 -1.418733,0.21088 -2.837675,0.42149 -4.256908,0.63183 -1.031316,0.23651 -2.062855,0.47274 -3.09468,0.70871 -0.850199,0.29163 -1.700628,0.58298 -2.55134,0.87407 -0.928944,0.40975 -1.858119,0.81921 -2.787573,1.22842 z" />
    <path
       style="fill:#000000;stroke:#000000;stroke-width:0.264583px;stroke-linecap:butt;stroke-linejoin:miter;stroke-opacity:1;fill-opacity:1"
       d="m 70.531914,135.50843 c 0.110223,-0.1614 0.330712,-0.48425 0.992225,-1.04733 0.661512,-0.56308 1.763919,-1.36627 2.988447,-2.10255 1.224529,-0.73628 2.571043,-1.4056 3.882178,-1.98045 1.311134,-0.57484 2.586779,-1.05518 3.842811,-1.39377 1.256031,-0.3386 2.492305,-0.53545 4.189299,-0.68506 1.696994,-0.1496 3.854565,-0.25197 5.535799,-0.25195 1.681235,2e-5 2.88601,0.10238 4.185326,0.27564 1.299316,0.17325 2.693076,0.41736 3.771901,0.69694 1.07882,0.27959 1.84264,0.59456 2.31901,0.85844 0.47638,0.26387 0.66536,0.47647 0.45276,0.55116 -0.21259,0.0747 -0.8268,0.0117 -1.90955,-0.11824 -1.082764,-0.12993 -2.63401,-0.32679 -4.051438,-0.46854 -1.417428,-0.14175 -2.700948,-0.22837 -3.756152,-0.26383 -1.055204,-0.0354 -1.882009,-0.0197 -3.264015,0.0748 -1.382005,0.0945 -3.319093,0.26772 -4.732601,0.46457 -1.413507,0.19685 -2.303311,0.41734 -3.472129,0.79019 -1.168818,0.37286 -2.61654,0.89808 -3.404518,1.21918 -0.787979,0.3211 -0.916041,0.43803 -0.824085,0.44637 0.09196,0.008 0.403755,-0.0919 1.010709,-0.23109 0.606954,-0.1392 1.508972,-0.31738 2.424953,-0.45658 0.915981,-0.13919 1.845831,-0.23942 2.658795,-0.30066 0.812963,-0.0612 1.508963,-0.0835 2.19387,-0.0445 0.684907,0.039 1.358633,0.13923 1.990626,0.2506 0.631992,0.11138 1.222199,0.23387 1.662088,0.34805 0.43989,0.11417 0.729426,0.21996 0.88523,0.30638 0.155804,0.0864 0.178072,0.15321 0.147459,0.20592 -0.03061,0.0527 -0.114139,0.0917 -0.320088,0.10842 -0.205948,0.0167 -0.534466,0.0112 -1.096854,0.006 -0.562388,-0.006 -1.358613,-0.0111 -2.207767,0.008 -0.849153,0.0195 -1.751169,0.064 -2.720035,0.11971 -0.968865,0.0557 -2.004515,0.1225 -2.731179,0.19209 -0.726664,0.0696 -1.144257,0.14197 -1.288982,0.21725 -0.144726,0.0753 -0.01665,0.15324 0.04723,0.25072 0.06388,0.0975 0.06388,0.21441 -1.11e-4,0.30613 -0.06399,0.0917 -0.192047,0.15853 -0.520483,0.18084 -0.328435,0.0223 -0.857397,4e-5 -1.469923,0.0334 -0.612526,0.0334 -1.30852,0.12248 -1.848656,0.21991 -0.540135,0.0974 -0.924329,0.20323 -1.225051,0.31459 -0.300722,0.11136 -0.517876,0.22829 -0.33404,0.27843 0.183836,0.0501 0.768475,0.0334 1.392119,0.0334 0.623644,1e-5 1.286235,0.0167 1.904316,0.0613 0.61808,0.0446 1.19158,0.11694 1.85977,0.24224 0.668189,0.12531 1.431003,0.30348 2.132597,0.50674 0.701593,0.20326 1.341914,0.43155 1.907082,0.66543 0.565169,0.23389 1.055152,0.47331 1.489467,0.69605 0.434315,0.22273 0.812941,0.42875 1.049591,0.56799 0.23665,0.13924 0.331277,0.2116 0.367292,0.27281 0.03601,0.0612 0.01375,0.1113 -0.100241,0.13908 -0.113994,0.0278 -0.320004,0.0333 -0.681934,0.0361 -0.361929,0.003 -0.879753,0.003 -1.269535,0.0139 -0.389782,0.0111 -0.65148,0.0334 -0.835181,0.0196 -0.183701,-0.0138 -0.289526,-0.064 -0.47327,-0.15305 -0.183745,-0.0891 -0.445439,-0.21715 -0.935442,-0.39814 -0.490003,-0.181 -1.208273,-0.41485 -2.007312,-0.61811 -0.799039,-0.20326 -1.678785,-0.37587 -2.488957,-0.51508 -0.810172,-0.13921 -1.550717,-0.245 -2.546034,-0.3255 -0.995318,-0.0805 -2.245323,-0.13567 -3.071148,-0.16129 -0.825825,-0.0256 -1.227415,-0.0217 -1.457774,-0.0668 -0.230359,-0.0451 -0.289428,-0.13963 -0.319054,-0.18703 -0.02963,-0.0474 -0.02963,-0.0474 0.08059,-0.20876 z"
       id="path2066"
       inkscape:path-effect="#path-effect2068"
       inkscape:original-d="m 70.42169,135.66983 c 0.220749,-0.32259 0.441235,-0.64545 0.661458,-0.96856 1.102717,-0.80296 2.205125,-1.60614 3.307292,-2.4096 1.346829,-0.66909 2.693344,-1.33841 4.039618,-2.008 1.275961,-0.48009 2.551605,-0.96043 3.82701,-1.44104 1.236586,-0.1966 2.472859,-0.39346 3.708892,-0.59058 2.157921,-0.10211 4.315492,-0.20448 6.472841,-0.30711 1.205087,0.10263 2.409862,0.205 3.614399,0.30711 1.394079,0.24437 2.787838,0.48848 4.18136,0.73232 0.76411,0.31525 1.52792,0.63023 2.29148,0.94494 0.18926,0.21289 0.37824,0.42549 0.56697,0.63784 -0.61396,-0.0627 -1.22816,-0.12573 -1.84264,-0.18899 -1.551043,-0.1966 -3.102289,-0.39346 -4.65383,-0.59059 -1.283306,-0.0863 -2.566823,-0.17297 -3.850632,-0.25986 -0.826577,0.016 -1.653381,0.0318 -2.480469,0.0472 -1.936903,0.17351 -3.873992,0.34674 -5.811385,0.51972 -0.889571,0.22075 -1.779373,0.44124 -2.669458,0.66146 -1.447514,0.5255 -2.895234,1.05072 -4.343251,1.57568 -0.127805,0.1172 -0.255868,0.23413 -0.384199,0.3508 0.312084,-0.1 0.623893,-0.20019 0.935442,-0.30068 0.902317,-0.17792 1.804334,-0.3561 2.706106,-0.53454 0.930158,-0.1 1.860012,-0.20019 2.789623,-0.30068 0.696294,-0.022 1.392293,-0.0443 2.088044,-0.0668 0.674021,0.1005 1.347748,0.20072 2.021226,0.30068 0.590498,0.12277 1.180706,0.24526 1.770661,0.3675 0.289811,0.10606 0.579347,0.21185 0.868624,0.31738 0.02254,0.0671 0.04481,0.1339 0.06682,0.20045 -0.08326,0.0392 -0.166777,0.0782 -0.250566,0.11693 -0.32826,-0.005 -0.656772,-0.0109 -0.985554,-0.0167 -0.795994,-0.005 -1.592217,-0.0109 -2.388722,-0.0167 -0.901787,0.0448 -1.803805,0.0893 -2.706105,0.13364 -1.035423,0.0671 -2.071074,0.1339 -3.107007,0.20045 -0.417352,0.0727 -0.834954,0.14503 -1.252826,0.21715 0.128333,0.0782 0.256397,0.15618 0.384201,0.23387 2.65e-4,0.11719 2.65e-4,0.23412 0,0.35079 -0.127807,0.0671 -0.25587,0.1339 -0.384201,0.20045 -0.528717,-0.022 -1.057677,-0.0443 -1.586913,-0.0668 -0.695764,0.0894 -1.391764,0.17844 -2.088044,0.26727 -0.383942,0.10606 -0.768136,0.21185 -1.152599,0.31738 -0.216895,0.1172 -0.434049,0.23413 -0.65147,0.35079 0.58493,-0.0164 1.169569,-0.0331 1.753957,-0.0501 0.662884,0.017 1.325475,0.0337 1.987817,0.0501 0.573791,0.0727 1.147297,0.14504 1.720549,0.21716 0.763111,0.17845 1.525926,0.35662 2.288495,0.53454 0.640609,0.22856 1.280929,0.45685 1.920999,0.68488 0.490267,0.2397 0.980252,0.47912 1.469983,0.71829 0.378904,0.20628 0.757528,0.4123 1.135895,0.61806 0.09493,0.0727 0.18958,0.14503 0.283972,0.21715 -0.02201,0.0504 -0.04428,0.10049 -0.06681,0.15034 -0.205761,0.006 -0.411776,0.0114 -0.618061,0.0167 -0.517581,2.6e-4 -1.035405,2.6e-4 -1.553504,0 -0.261443,0.0225 -0.523139,0.0448 -0.785106,0.0668 -0.105532,-0.0498 -0.211323,-0.1 -0.317381,-0.15034 -0.261443,-0.12781 -0.523139,-0.25587 -0.785106,-0.3842 -0.718037,-0.23361 -1.436309,-0.46746 -2.154859,-0.70159 -0.879515,-0.17235 -1.75926,-0.34496 -2.639288,-0.51783 -0.740309,-0.10553 -1.480854,-0.21132 -2.221677,-0.31738 -1.249791,-0.0549 -2.499796,-0.11008 -3.75009,-0.16551 -0.401344,0.004 -0.802934,0.008 -1.204799,0.0118 -0.0588,-0.0942 -0.117853,-0.18872 -0.177175,-0.28348 z" />
    <path
       style="fill:#000000;stroke:#000000;stroke-width:0.264583px;stroke-linecap:butt;stroke-linejoin:miter;stroke-opacity:1;fill-opacity:1"
       d="m 76.004771,139.70695 c 0,-0.0416 0,-0.12518 0.110024,-0.22278 0.110025,-0.0976 0.32996,-0.20896 0.630669,-0.33007 0.300709,-0.12111 0.682118,-0.25195 0.953562,-0.34383 0.271443,-0.0919 0.432925,-0.14477 0.616748,-0.14888 0.183823,-0.004 0.389829,0.0404 0.769859,0.10445 0.380031,0.064 0.934046,0.14754 1.408728,0.21714 0.474682,0.0696 0.870016,0.12528 1.195766,0.20746 0.32575,0.0822 0.581874,0.19075 1.145653,0.36613 0.563779,0.17537 1.435173,0.41758 2.064375,0.63756 0.629203,0.21998 1.016181,0.41764 1.362799,0.57492 0.346619,0.15728 0.652858,0.27421 1.073251,0.50115 0.420392,0.22694 0.954924,0.56381 1.276478,0.77402 0.321553,0.21022 0.430124,0.29373 0.457851,0.35485 0.02773,0.0611 -0.02518,0.10009 -0.111365,0.1085 -0.08618,0.008 -0.205901,-0.0139 -0.36597,-0.0598 -0.160069,-0.0459 -0.36053,-0.11551 -0.583264,-0.18234 -0.222733,-0.0668 -0.467719,-0.13087 -1.027323,-0.26868 -0.559604,-0.13782 -1.433779,-0.3494 -2.081076,-0.5081 -0.647298,-0.15869 -1.067684,-0.26448 -1.444923,-0.36192 -0.377239,-0.0974 -0.711326,-0.18653 -1.236129,-0.31599 -0.524804,-0.12947 -1.240292,-0.29929 -1.735869,-0.39398 -0.495577,-0.0947 -0.771194,-0.11419 -1.216647,-0.16569 -0.445452,-0.0515 -1.0607,-0.13502 -1.525653,-0.19349 -0.464953,-0.0585 -0.779541,-0.0919 -1.044016,-0.13918 -0.264476,-0.0473 -0.478839,-0.10855 -0.586183,-0.13922 -0.107345,-0.0307 -0.107345,-0.0307 -0.107345,-0.0723 z"
       id="path2070"
       inkscape:path-effect="#path-effect2072"
       inkscape:original-d="m 76.004771,139.74855 c 2.65e-4,-0.0832 2.65e-4,-0.16678 0,-0.25056 0.22021,-0.1111 0.440145,-0.22246 0.659823,-0.33409 0.381688,-0.13059 0.763096,-0.26144 1.144246,-0.39255 0.161743,-0.0526 0.323215,-0.10553 0.484426,-0.15869 0.20629,0.0448 0.412305,0.0893 0.618061,0.13363 0.554302,0.0838 1.108319,0.16731 1.662084,0.25057 0.395607,0.0559 0.790934,0.11163 1.186008,0.16704 0.256402,0.10885 0.512529,0.21742 0.7684,0.32574 0.871691,0.24248 1.743083,0.48469 2.614229,0.72663 0.387257,0.19794 0.774234,0.39561 1.160952,0.59301 0.306517,0.1172 0.612759,0.23412 0.918739,0.35079 0.534815,0.33714 1.069343,0.67401 1.603618,1.01061 0.108845,0.0838 0.217422,0.16731 0.325734,0.25057 -0.05263,0.0392 -0.105529,0.0782 -0.158692,0.11693 -0.119451,-0.022 -0.239164,-0.0443 -0.359142,-0.0668 -0.200192,-0.0693 -0.40064,-0.13894 -0.601356,-0.2088 -0.24474,-0.0638 -0.489731,-0.12781 -0.734991,-0.1921 -0.873948,-0.21133 -1.748124,-0.42291 -2.622582,-0.63477 -0.420137,-0.10553 -0.840523,-0.21132 -1.261179,-0.31738 -0.33383,-0.0888 -0.667909,-0.17792 -1.00226,-0.26727 -0.715253,-0.16957 -1.430742,-0.33939 -2.146509,-0.50948 -0.275362,-0.0192 -0.550979,-0.0387 -0.826865,-0.0585 -0.615024,-0.0833 -1.230277,-0.16678 -1.845831,-0.25056 -0.314341,-0.0332 -0.62893,-0.0666 -0.943796,-0.10023 -0.214111,-0.061 -0.428479,-0.12223 -0.643117,-0.18375 z"
       sodipodi:nodetypes="sccccccccccccccccccccccccss" />
    <path
       style="fill:#000000;stroke:#000000;stroke-width:0.264583px;stroke-linecap:butt;stroke-linejoin:miter;stroke-opacity:1;fill-opacity:1"
       d="m 83.335985,138.61291 c 0.464706,-0.0689 1.393898,-0.20673 2.201044,-0.32091 0.807147,-0.11418 1.492212,-0.20473 2.4529,-0.32275 0.960687,-0.11803 2.196922,-0.26351 2.97376,-0.34181 0.776838,-0.0783 1.094213,-0.0894 1.342028,-0.0755 0.247815,0.014 0.425977,0.0529 0.63477,0.18388 0.208792,0.13095 0.448215,0.35367 0.581742,0.53744 0.133527,0.18378 0.161367,0.32855 0.0083,0.40634 -0.153029,0.0778 -0.487107,0.0889 -0.868533,0.10841 -0.381425,0.0195 -0.810159,0.0473 -1.361392,0.0278 -0.551233,-0.0195 -1.224958,-0.0863 -1.951616,-0.11971 -0.726658,-0.0334 -1.506179,-0.0334 -2.20777,-0.0279 -0.701592,0.006 -1.325206,0.0167 -2.001745,0.0445 -0.676539,0.0278 -1.405945,0.0724 -1.792768,0.0701 -0.386824,-0.002 -0.431011,-0.0516 -0.453238,-0.0764 -0.02223,-0.0248 -0.02223,-0.0248 0.44248,-0.0937 z"
       id="path2074"
       inkscape:path-effect="#path-effect2076"
       inkscape:original-d="m 82.87128,138.68183 c 0.929455,-0.13754 1.858647,-0.27535 2.787573,-0.41342 0.685361,-0.0903 1.370428,-0.18084 2.055246,-0.27167 1.236552,-0.14522 2.472786,-0.29071 3.708784,-0.43646 0.317653,-0.0109 0.635029,-0.022 0.952148,-0.0334 0.178446,0.0393 0.356624,0.0782 0.534538,0.11693 0.239699,0.223 0.479123,0.44572 0.718288,0.66818 0.0281,0.14504 0.05594,0.28981 0.08352,0.43431 -0.33383,0.0114 -0.667909,0.0225 -1.00226,0.0334 -0.42849,0.0281 -0.857226,0.0559 -1.286235,0.0835 -0.673492,-0.0666 -1.347221,-0.13337 -2.021226,-0.20045 -0.779288,2.7e-4 -1.558809,2.7e-4 -2.33861,0 -0.623377,0.0114 -1.246992,0.0225 -1.870885,0.0334 -0.729173,0.0448 -1.458581,0.0893 -2.18827,0.13364 -0.04394,-0.0491 -0.08814,-0.0984 -0.132612,-0.14799 z" />
    <path
       style="fill:#000000;stroke:#000000;stroke-width:0.264583px;stroke-linecap:butt;stroke-linejoin:miter;stroke-opacity:1;fill-opacity:1"
       d="m 95.24622,133.27603 c -0.523497,-0.17319 -1.570803,-0.51966 -2.17321,-0.72046 -0.602408,-0.2008 -0.759884,-0.25592 -0.543352,-0.27566 0.216532,-0.0197 0.807111,-0.004 1.437093,0.0708 0.629982,0.0748 1.299303,0.2087 1.874153,0.36622 0.57485,0.15753 1.055185,0.33864 1.673341,0.59063 0.618156,0.252 1.374093,0.57484 1.858371,0.80717 0.484278,0.23234 0.696884,0.37407 0.767624,0.47239 0.0707,0.0983 -1.4e-4,0.15344 -0.216557,0.13774 -0.216422,-0.0157 -0.578633,-0.10232 -1.275531,-0.33066 -0.696898,-0.22834 -1.72844,-0.59844 -2.263951,-0.77963 -0.535512,-0.1812 -0.574907,-0.17333 -0.594696,-0.16937 -0.01979,0.004 -0.01979,0.004 -0.543285,-0.16918 z"
       id="path2078"
       inkscape:path-effect="#path-effect2080"
       inkscape:original-d="m 95.769717,133.44922 c -1.047046,-0.34622 -2.094354,-0.69269 -3.141927,-1.03944 -0.157228,-0.0549 -0.314716,-0.10998 -0.472472,-0.16536 0.590865,0.016 1.181442,0.0318 1.771764,0.0472 0.66961,0.13414 1.338932,0.268 2.008,0.40161 0.480618,0.18138 0.960953,0.36249 1.441034,0.54334 0.756232,0.32312 1.512168,0.64597 2.267855,0.96856 0.212881,0.14201 0.425489,0.28375 0.637839,0.42522 -0.0706,0.0554 -0.14148,0.11051 -0.21261,0.16537 -0.361975,-0.0864 -0.724195,-0.17298 -1.086687,-0.25986 -1.031314,-0.36984 -2.062853,-0.73994 -3.094678,-1.1103 -0.03911,0.008 -0.07848,0.016 -0.118118,0.0236 z" />
  </g>
</svg>
