<?xml version="1.0" encoding="UTF-8" standalone="no"?>
<svg
   xmlns:dc="http://purl.org/dc/elements/1.1/"
   xmlns:cc="http://creativecommons.org/ns#"
   xmlns:rdf="http://www.w3.org/1999/02/22-rdf-syntax-ns#"
   xmlns:svg="http://www.w3.org/2000/svg"
   xmlns="http://www.w3.org/2000/svg"
   xmlns:sodipodi="http://sodipodi.sourceforge.net/DTD/sodipodi-0.dtd"
   xmlns:inkscape="http://www.inkscape.org/namespaces/inkscape"
   width="210mm"
   height="297mm"
   viewBox="0 0 210 297"
   version="1.1"
   id="svg8"
   inkscape:version="1.0.1 (3bc2e813f5, 2020-09-07)"
   sodipodi:docname="Solder mask.svg">
  <defs
     id="defs2">
    <inkscape:path-effect
       effect="bspline"
       id="path-effect947"
       is_visible="true"
       lpeversion="1"
       weight="33.333333"
       steps="2"
       helper_size="0"
       apply_no_weight="true"
       apply_with_weight="true"
       only_selected="false" />
    <inkscape:path-effect
       effect="bspline"
       id="path-effect929"
       is_visible="true"
       lpeversion="1"
       weight="33.333333"
       steps="2"
       helper_size="0"
       apply_no_weight="true"
       apply_with_weight="true"
       only_selected="false" />
    <inkscape:path-effect
       effect="bspline"
       id="path-effect925"
       is_visible="true"
       lpeversion="1"
       weight="33.333333"
       steps="2"
       helper_size="0"
       apply_no_weight="true"
       apply_with_weight="true"
       only_selected="false" />
    <inkscape:path-effect
       effect="bspline"
       id="path-effect921"
       is_visible="true"
       lpeversion="1"
       weight="33.333333"
       steps="2"
       helper_size="0"
       apply_no_weight="true"
       apply_with_weight="true"
       only_selected="false" />
    <inkscape:path-effect
       effect="bspline"
       id="path-effect917"
       is_visible="true"
       lpeversion="1"
       weight="33.333333"
       steps="2"
       helper_size="0"
       apply_no_weight="true"
       apply_with_weight="true"
       only_selected="false" />
    <inkscape:path-effect
       effect="bspline"
       id="path-effect913"
       is_visible="true"
       lpeversion="1"
       weight="33.333333"
       steps="2"
       helper_size="0"
       apply_no_weight="true"
       apply_with_weight="true"
       only_selected="false" />
    <inkscape:path-effect
       effect="bspline"
       id="path-effect907"
       is_visible="true"
       lpeversion="1"
       weight="33.333333"
       steps="2"
       helper_size="0"
       apply_no_weight="true"
       apply_with_weight="true"
       only_selected="false" />
    <inkscape:path-effect
       effect="bspline"
       id="path-effect903"
       is_visible="true"
       lpeversion="1"
       weight="33.333333"
       steps="2"
       helper_size="0"
       apply_no_weight="true"
       apply_with_weight="true"
       only_selected="false" />
    <inkscape:path-effect
       effect="bspline"
       id="path-effect899"
       is_visible="true"
       lpeversion="1"
       weight="33.333333"
       steps="2"
       helper_size="0"
       apply_no_weight="true"
       apply_with_weight="true"
       only_selected="false" />
    <inkscape:path-effect
       effect="bspline"
       id="path-effect895"
       is_visible="true"
       lpeversion="1"
       weight="33.333333"
       steps="2"
       helper_size="0"
       apply_no_weight="true"
       apply_with_weight="true"
       only_selected="false" />
    <inkscape:path-effect
       effect="bspline"
       id="path-effect890"
       is_visible="true"
       lpeversion="1"
       weight="33.333333"
       steps="2"
       helper_size="0"
       apply_no_weight="true"
       apply_with_weight="true"
       only_selected="false" />
    <inkscape:path-effect
       effect="bspline"
       id="path-effect886"
       is_visible="true"
       lpeversion="1"
       weight="33.333333"
       steps="2"
       helper_size="0"
       apply_no_weight="true"
       apply_with_weight="true"
       only_selected="false" />
    <inkscape:path-effect
       effect="bspline"
       id="path-effect882"
       is_visible="true"
       lpeversion="1"
       weight="33.333333"
       steps="2"
       helper_size="0"
       apply_no_weight="true"
       apply_with_weight="true"
       only_selected="false" />
    <inkscape:path-effect
       effect="bspline"
       id="path-effect863"
       is_visible="true"
       lpeversion="1"
       weight="33.333333"
       steps="2"
       helper_size="0"
       apply_no_weight="true"
       apply_with_weight="true"
       only_selected="false" />
    <inkscape:path-effect
       effect="bspline"
       id="path-effect859"
       is_visible="true"
       lpeversion="1"
       weight="33.333333"
       steps="2"
       helper_size="0"
       apply_no_weight="true"
       apply_with_weight="true"
       only_selected="false" />
    <inkscape:path-effect
       effect="bspline"
       id="path-effect855"
       is_visible="true"
       lpeversion="1"
       weight="33.333333"
       steps="2"
       helper_size="0"
       apply_no_weight="true"
       apply_with_weight="true"
       only_selected="false" />
    <inkscape:path-effect
       effect="bspline"
       id="path-effect851"
       is_visible="true"
       lpeversion="1"
       weight="33.333333"
       steps="2"
       helper_size="0"
       apply_no_weight="true"
       apply_with_weight="true"
       only_selected="false" />
    <inkscape:path-effect
       effect="bspline"
       id="path-effect847"
       is_visible="true"
       lpeversion="1"
       weight="33.333333"
       steps="2"
       helper_size="0"
       apply_no_weight="true"
       apply_with_weight="true"
       only_selected="false" />
    <inkscape:path-effect
       effect="bspline"
       id="path-effect843"
       is_visible="true"
       lpeversion="1"
       weight="33.333333"
       steps="2"
       helper_size="0"
       apply_no_weight="true"
       apply_with_weight="true"
       only_selected="false" />
    <inkscape:path-effect
       effect="bspline"
       id="path-effect849"
       is_visible="true"
       lpeversion="1"
       weight="33.333333"
       steps="2"
       helper_size="0"
       apply_no_weight="true"
       apply_with_weight="true"
       only_selected="false" />
  </defs>
  <sodipodi:namedview
     id="base"
     pagecolor="#ffffff"
     bordercolor="#666666"
     borderopacity="1.0"
     inkscape:pageopacity="0.0"
     inkscape:pageshadow="2"
     inkscape:zoom="0.98994949"
     inkscape:cx="377.67711"
     inkscape:cy="467.66236"
     inkscape:document-units="mm"
     inkscape:current-layer="layer1"
     inkscape:document-rotation="0"
     showgrid="false"
     inkscape:window-width="1366"
     inkscape:window-height="705"
     inkscape:window-x="-8"
     inkscape:window-y="-8"
     inkscape:window-maximized="1" />
  <metadata
     id="metadata5">
    <rdf:RDF>
      <cc:Work
         rdf:about="">
        <dc:format>image/svg+xml</dc:format>
        <dc:type
           rdf:resource="http://purl.org/dc/dcmitype/StillImage" />
        <dc:title />
      </cc:Work>
    </rdf:RDF>
  </metadata>
  <g
     inkscape:label="Layer 1"
     inkscape:groupmode="layer"
     id="layer1">
    <path
       id="path847-5"
       style="fill:#cf0000;fill-opacity:1;stroke:#000000;stroke-width:0.492703px;stroke-linecap:butt;stroke-linejoin:miter;stroke-opacity:1"
       d="M 363.22656 299.72461 C 356.01197 300.07648 348.79893 300.42869 341.29102 301.36719 C 333.78302 302.30564 325.98209 303.82828 318.94336 305.5293 C 311.90467 307.23031 305.62678 309.10732 300.28906 311.04297 C 294.95139 312.97862 290.55341 314.9723 286.21289 317.17188 C 281.87237 319.37141 277.58971 321.77845 273.43945 324.52148 C 269.28923 327.26451 265.27189 330.34358 262.74414 332.46484 C 260.21639 334.5861 259.17856 335.74914 258.66016 336.59961 C 258.14164 337.45012 258.14022 337.98946 258.51367 339.10938 C 258.88709 340.22914 259.63646 341.92863 260.44531 342.75781 C 261.25421 343.58701 262.12368 343.54547 263.55469 343.66992 C 264.98569 343.79427 266.97648 344.08348 268.65625 344.39453 C 270.33602 344.70559 271.70403 345.04022 273.03125 345.28906 C 274.35847 345.53813 275.64524 345.7027 276.64062 345.91016 C 277.63608 346.11765 278.34155 346.36635 278.98438 346.61523 C 279.6272 346.86431 280.20773 347.11312 279.89648 347.32031 C 279.58505 347.52743 278.38133 347.69306 276.49414 348.06641 C 274.60695 348.43945 272.03634 349.02056 269.73438 349.80859 C 267.43242 350.59663 265.4007 351.59203 263.34766 352.62891 C 261.29458 353.66582 259.21967 354.7437 257.29102 355.92578 C 255.36232 357.10783 253.57943 358.39374 251.87891 359.7832 C 250.17838 361.17265 248.56068 362.66675 247.58594 363.82812 C 246.61108 364.98957 246.27855 365.81924 246.32031 366.60742 C 246.36227 367.39557 246.77734 368.14034 247.21289 368.7832 C 247.64844 369.42603 248.10554 369.96659 248.10547 370.27734 C 248.10543 370.5884 247.64849 370.67193 245.96875 370.83789 C 244.28898 371.00381 241.38513 371.24957 237.89258 371.52344 C 234.40003 371.79708 230.32101 372.09826 226.62305 372.62891 C 222.92516 373.15963 219.60963 373.921 216.54492 374.71289 C 213.48014 375.50474 210.66478 376.32805 208.17188 377.28125 C 205.67894 378.23439 203.50926 379.31794 201.23633 380.62305 C 198.9634 381.92816 196.5872 383.45337 194.51953 385.03711 C 192.45187 386.62084 190.69308 388.26296 189.16797 389.83203 C 187.64293 391.40106 186.35185 392.89515 185.13477 394.21484 C 183.91768 395.53458 182.77325 396.6804 182.05469 397.70703 C 181.33612 398.73363 181.04309 399.64078 180.86719 400.38867 C 180.69144 401.1366 180.63335 401.72489 180.82422 402.35547 C 181.01508 402.98608 181.4545 403.66028 181.98242 404.4375 C 182.51027 405.21465 183.12528 406.09397 183.72656 406.8125 C 184.32785 407.53099 184.91458 408.0893 185.36914 408.58789 C 185.82367 409.08652 186.147 409.52692 186.42578 409.9082 C 186.70471 410.28944 186.9383 410.61094 187.12891 410.93359 C 187.31939 411.25637 187.46667 411.57978 187.45117 411.99023 C 187.43605 412.40065 187.26206 412.89896 187.08594 413.38281 C 186.91019 413.86674 186.73147 414.33643 186.54102 414.84961 C 186.35053 415.36283 186.14563 415.91997 186.10156 416.69727 C 186.05734 417.47456 186.17435 418.47084 186.24805 419.33594 C 186.32137 420.20107 186.35247 420.93373 186.48438 421.76953 C 186.61659 422.60541 186.84945 423.54283 187.23047 424.55469 C 187.61167 425.56654 188.13929 426.65333 188.53516 427.5332 C 188.9311 428.41304 189.19668 429.08735 189.51953 429.64453 C 189.8423 430.20167 190.22341 430.64113 190.56055 431.06641 C 190.89768 431.49172 191.18997 431.90306 191.46875 432.24023 C 191.74768 432.57737 192.01258 432.84276 192.32031 433.0918 C 192.62797 433.34087 192.97934 433.57555 193.28711 433.89844 C 193.59476 434.22083 193.86018 434.63056 194.05078 435.04102 C 194.24127 435.45155 194.35768 435.86206 194.38867 436.25781 C 194.41891 436.65364 194.35792 437.03555 194.31445 437.46094 C 194.27023 437.88625 194.24113 438.35575 194.31445 438.95703 C 194.38778 439.55839 194.56346 440.29219 194.75391 440.99609 C 194.94439 441.69999 195.14913 442.37328 195.36914 443.12109 C 195.58911 443.86902 195.82369 444.6904 196.23438 445.57031 C 196.64499 446.45015 197.23158 447.38748 197.99414 448.50195 C 198.75666 449.61642 199.69546 450.90835 200.41406 451.80273 C 201.13263 452.69724 201.63326 453.19483 202.11719 453.66406 C 202.60108 454.13325 203.06874 454.57193 203.61133 454.98242 C 204.15392 455.39295 204.76889 455.7758 205.38477 456.25977 C 206.00064 456.74373 206.61747 457.33153 207.24805 457.85938 C 207.87859 458.38715 208.52264 458.85605 209.28516 459.28125 C 210.04768 459.70641 210.92799 460.08759 211.61719 460.32227 C 212.30638 460.55697 212.80599 460.64303 213.36328 460.74609 C 213.92053 460.8489 214.53559 460.96679 215.16602 460.9082 C 215.7958 460.84962 216.44164 460.61504 217.08594 460.38086 C 217.84834 459.03176 218.60909 457.68187 218.69727 456.37695 C 218.78533 455.072 218.19926 453.80944 217.55273 452.10352 C 216.90617 450.39763 216.20171 448.2496 215.72266 446.15234 C 215.24368 444.05512 214.99209 442.01155 214.83203 440.71094 C 214.67216 439.41036 214.60148 438.85264 215.14648 438.61914 C 215.69153 438.38557 216.85333 438.4764 218.73047 438.62305 C 220.60757 438.76969 223.20009 438.97361 227.5625 438.66406 C 231.92494 438.3549 238.06184 437.53108 241.5293 437.20898 C 244.99675 436.88697 245.81081 437.06274 246.95117 437.31445 C 248.09157 437.56617 249.56166 437.89525 251.38672 438.55273 C 253.21178 439.21026 255.40929 440.2034 257.53516 441.61328 C 259.66103 443.02316 261.72668 444.85609 263.79102 446.6875 C 265.44951 448.82441 267.10845 450.96151 269.21289 453.78516 C 271.31733 456.6088 273.86736 460.11801 276.19336 465.72656 C 278.51936 471.335 280.62034 479.03853 282.04492 483.54883 C 283.4695 488.05913 284.21451 489.37221 284.33398 490.10352 C 284.45342 490.83478 283.94685 490.9811 281.5332 491.67578 C 279.11956 492.37053 274.80067 493.61303 271.40234 496.00195 C 268.00406 498.39088 265.53043 501.92276 263.875 504.28516 C 262.21968 506.64759 261.38748 507.83939 260.80664 508.29297 C 260.22584 508.74644 259.89884 508.45823 258.50586 507.22656 C 257.11288 505.99493 254.65227 503.81797 252.73242 502.71484 C 250.8125 501.61171 249.43425 501.58334 248.1582 502.16992 C 246.88216 502.75643 245.70908 503.9591 245.41602 506.34961 C 245.1231 508.74012 245.70961 512.31762 246.33984 514.86914 C 246.9705 517.42066 247.64458 518.94669 248.45117 520.42773 C 249.25772 521.90878 250.19648 523.34688 250.12305 525.17969 C 250.06106 526.71765 249.29237 528.53029 248.92383 530.1582 C 247.69461 530.15839 241.11955 530.16602 239.66602 530.16602 C 231.47657 530.16602 215.09672 530.16483 205.29297 530.56055 C 195.48921 530.9563 192.26164 531.7494 189.58203 533.05859 C 186.90242 534.36786 184.77288 536.19354 183.3418 537.68555 C 181.91068 539.17759 181.18026 540.33413 180.38867 541.82617 C 179.59701 543.31814 178.74454 545.14579 178.31836 546.75977 C 177.89226 548.3737 177.89258 549.77394 177.89258 568.36914 C 177.89258 586.96434 177.89207 622.75253 177.92578 640.66602 C 177.9598 658.57946 178.02446 658.61797 178.10156 658.63672 C 178.17791 658.65562 178.26684 658.6543 178.34961 658.6543 C 178.43238 658.6543 178.51009 658.6554 178.74219 658.70703 C 178.97425 658.75881 179.36053 658.86071 243.14648 658.91211 C 306.93259 658.96351 434.11306 658.9625 497.80664 658.9043 C 561.50026 658.84571 561.70313 658.72888 561.82812 658.64648 C 561.95285 658.56447 561.99963 658.51738 562.02344 658.45312 C 562.04611 658.38819 562.04686 658.30693 562.04688 658.15234 L 562.04688 639.57031 C 562.04688 621.37034 562.0456 585.19916 562.03906 566.97266 C 562.0315 548.74619 562.01969 548.46461 561.88477 547.80273 C 561.74908 547.14086 561.49117 546.09749 561.23828 545.23633 C 560.98543 544.3752 560.73691 543.69672 560.45703 543.0293 C 560.17697 542.36183 559.86492 541.7056 559.44531 541.00586 C 559.02556 540.30619 558.49889 539.56381 557.82617 538.71875 C 557.15349 537.87372 556.33609 536.92707 555.50195 536.10352 C 554.66781 535.27996 553.81579 534.57961 552.90625 533.91211 C 551.99671 533.24468 551.0295 532.60882 550.45898 532.26953 C 549.88846 531.93013 549.7166 531.88682 548.85547 531.62305 C 547.99419 531.35924 546.44291 530.87626 545.00586 530.55859 C 543.56877 530.24074 542.24462 530.09105 540.83984 529.99414 C 539.43507 529.89701 537.95033 529.85194 533.07031 529.85156 C 528.19015 529.85118 519.91455 529.89348 471.8125 529.95312 C 467.88202 529.9569 461.52207 529.96119 457.10547 529.96875 C 456.61473 527.09329 456.25576 525.10453 455.97656 523.65625 C 455.64472 521.93502 455.37462 520.62887 455.14648 519.48828 C 454.9182 518.34766 454.73233 517.37215 454.56641 516.75 C 454.40048 516.12785 454.25562 515.85804 453.6543 514.00195 C 453.0529 512.1459 451.99538 508.7049 451.4043 506.69336 C 450.8131 504.68178 450.68676 504.10201 450.76953 503.32422 C 450.8523 502.54639 451.14455 501.5707 451.31055 500.95898 C 451.47685 500.34727 451.51776 500.09839 451.47656 499.71484 C 451.43537 499.3313 451.31089 498.81126 451.13477 498.26172 C 450.95864 497.71221 450.73091 497.13191 450.38867 496.50977 C 450.04662 495.88762 449.58974 495.22507 449.1543 494.61328 C 448.71882 494.00153 448.30344 493.44173 447.88867 492.79883 C 447.47383 492.15593 447.05937 491.43125 446.67578 490.90234 C 446.29223 490.37347 445.93982 490.04046 445.59766 489.64648 C 445.25561 489.25258 444.92552 488.7964 444.59375 488.40234 C 444.26191 488.00833 443.9285 487.67661 443.76953 487.41602 C 443.61041 487.15523 443.6242 486.96581 443.70508 486.87109 C 443.78596 486.77623 443.9354 486.77868 444.3457 486.83008 C 444.75642 486.8811 445.42895 486.98119 446.10352 487.14258 C 446.77805 487.30396 447.45196 487.52523 448.03125 487.67188 C 448.6105 487.81883 449.09378 487.89241 449.54102 487.98047 C 449.98828 488.06853 450.40067 488.1707 450.73047 488.31055 C 451.0608 488.45001 451.30995 488.62691 451.47852 489.07422 C 451.64708 489.52156 451.73466 490.23863 451.91797 490.83984 C 452.10128 491.44105 452.37976 491.92507 452.69531 492.32812 C 453.01053 492.73133 453.36329 493.05446 453.66406 493.25977 C 453.96491 493.46499 454.21441 493.55211 454.50781 493.66992 C 454.8011 493.78709 455.13645 493.93454 455.51758 494.06641 C 455.89882 494.19831 456.32629 494.3156 456.59766 494.39648 C 456.86903 494.47737 456.98457 494.52115 457.76172 494.75586 C 458.5389 494.99057 459.97521 495.41505 461.26562 495.81836 C 462.55603 496.2216 463.70065 496.60382 465.09375 497.14648 C 466.48685 497.68907 468.1283 498.3918 469.66797 499.0957 C 471.20775 499.7996 472.64438 500.50409 473.77344 501.19336 C 474.9025 501.88263 475.72458 502.55693 476.70703 503.24609 C 477.6896 503.93525 478.8346 504.6384 479.40625 504.99023 C 479.97779 505.34211 482.43942 507.80577 483.1875 508.42188 C 483.9357 509.03798 485.43337 510.27128 486.5918 511.3125 C 487.75022 512.35361 488.57054 513.20339 489.28906 513.92188 C 490.00759 514.64033 490.6227 515.22469 491.17969 516.00195 C 491.7369 516.77921 492.23492 517.75016 492.66016 518.52734 C 493.08543 519.30453 493.43843 519.88912 493.75391 520.37305 C 494.06912 520.85694 494.34797 521.23872 494.64844 521.69336 C 494.94891 522.14792 495.27055 522.67548 495.70312 523.08594 C 496.13584 523.49639 496.67816 523.78914 497.25 524.06055 C 497.82196 524.33154 498.42367 524.58176 499.04688 524.66211 C 499.67001 524.74261 500.31536 524.65377 500.92383 524.52148 C 501.53241 524.38958 502.10517 524.21267 502.54492 524 C 502.98471 523.78721 503.29397 523.54037 503.54297 523.17383 C 503.79242 522.80721 503.98094 522.32326 504.13477 521.83203 C 504.28897 521.34084 504.40625 520.84143 504.42969 520.15234 C 504.45236 519.46322 504.37713 518.58283 504.28906 517.82031 C 504.201 517.05783 504.09934 516.41423 504.0332 515.82031 C 503.96706 515.22636 503.93623 514.68327 503.86328 514.05273 C 503.79034 513.4222 503.67507 512.70376 503.60938 512.08789 C 503.54323 511.47198 503.52815 510.96001 503.48438 510.46875 C 503.44053 509.97752 503.36672 509.50667 503.21289 508.77344 C 503.05906 508.04028 502.82455 507.04431 502.58984 505.75391 C 502.35514 504.4635 502.11945 502.87967 501.73828 501.19336 C 501.35708 499.50697 500.83049 497.7174 500.39062 496.17773 C 499.9508 494.63803 499.59916 493.3483 499.08594 491.80859 C 498.57272 490.26893 497.89818 488.48018 497.20898 486.89648 C 496.51986 485.31286 495.81616 483.93284 495.15625 482.67188 C 494.49642 481.41076 493.8807 480.26611 493.10352 478.87305 C 492.32626 477.47995 491.3857 475.83837 490.53516 474.44531 C 489.68469 473.05222 488.9246 471.91036 488.2207 470.83984 C 487.51677 469.76941 486.86961 468.7713 486.3418 468.05273 C 485.81391 467.33421 485.40383 466.89508 484.97852 466.39648 C 484.55324 465.89793 484.11399 465.33879 483.43945 464.51758 C 482.76488 463.69644 481.85627 462.61329 481.09375 461.71875 C 480.33119 460.82425 479.71459 460.12091 479.02539 459.43164 C 478.33623 458.74244 477.57391 458.06794 477.00195 457.52539 C 476.43011 456.98288 476.04985 456.57052 475.77148 456.24805 C 475.49293 455.92565 475.31428 455.69268 475.40234 455.58984 C 475.49041 455.48553 475.84422 455.51248 476.44531 455.55859 C 477.04652 455.60281 477.89605 455.66195 479.31836 455.80859 C 480.74082 455.95524 482.73565 456.18927 484.30469 456.42383 C 485.87376 456.65854 487.01745 456.8932 488.08789 457.14258 C 489.15837 457.39203 490.15606 457.65608 491.28516 457.97852 C 492.41425 458.30091 493.67486 458.68216 494.58398 458.96094 C 495.49315 459.23987 496.04961 459.41573 496.80469 459.69141 C 497.55976 459.96693 498.51381 460.34276 499.56055 460.7793 C 500.60736 461.21587 501.74825 461.71303 502.75391 462.17969 C 503.75971 462.64627 504.6309 463.08262 505.33594 463.50781 C 506.04097 463.93297 506.57987 464.34864 507.25391 464.83594 C 507.92787 465.32327 508.7367 465.88143 509.50391 466.44141 C 510.27115 467.00134 510.9955 467.56216 511.74219 468.03906 C 512.48861 468.51596 513.25815 468.90897 514.02539 469.36523 C 514.79271 469.82154 515.55861 470.34067 516.23242 470.96289 C 516.90639 471.58508 517.48685 472.30996 518.18164 473.02539 C 518.87636 473.74082 519.68625 474.44793 520.41211 475.17383 C 521.13789 475.89969 521.78001 476.64454 522.37109 477.34961 C 522.96221 478.05472 523.50199 478.7192 523.9375 479.38281 C 524.37283 480.04642 524.70253 480.70973 525.14844 481.43555 C 525.59435 482.16137 526.15535 482.95066 526.67383 483.69727 C 527.19227 484.44384 527.66998 485.14807 528.13672 485.59375 C 528.60349 486.03943 529.05824 486.2258 529.44727 486.33594 C 529.83629 486.44743 530.15951 486.48052 530.67969 486.42383 C 531.19975 486.36789 531.91835 486.22023 532.49023 486.06641 C 533.06208 485.91258 533.48706 485.75073 533.88281 485.49414 C 534.27876 485.23751 534.6455 484.88646 534.92383 484.46875 C 535.20238 484.051 535.39222 483.5663 535.50977 483.14844 C 535.62731 482.73054 535.672 482.3787 535.6875 482.01953 C 535.70262 481.66048 535.68538 481.29503 535.65234 480.81836 C 535.61379 480.34169 535.55763 479.75449 535.48438 479.22656 C 535.41105 478.69871 535.32262 478.23065 535.20508 477.54883 C 535.08791 476.86696 534.94327 475.97106 534.81836 475.20117 C 534.69326 474.43136 534.58982 473.78727 534.47266 473.16406 C 534.35549 472.54086 534.22326 471.93861 534.08398 471.30078 C 533.9449 470.66295 533.79932 469.9888 533.68945 469.51953 C 533.57909 469.0503 533.50489 468.78804 533.39453 468.38477 C 533.28492 467.98153 533.13736 467.43603 532.99805 466.9668 C 532.85896 466.49753 532.72648 466.10272 532.36523 465.15625 C 532.00429 464.20986 531.41419 462.71313 530.95312 461.49805 C 530.49213 460.28297 530.16064 459.34993 529.71484 458.30273 C 529.2689 457.25547 528.70868 456.0945 528.07617 454.83984 C 527.44367 453.58523 526.73834 452.2363 526.06445 450.96094 C 525.39049 449.68554 524.74917 448.48296 524.1582 447.4668 C 523.5672 446.45067 523.02659 445.61996 522.43555 444.80078 C 521.84458 443.98161 521.20153 443.17402 520.55859 442.36523 L 519.37695 441.05859 L 518.44336 439.81445 C 518.40216 439.71089 518.36116 439.60854 518.49609 439.52539 C 518.63102 439.44224 518.94105 439.37909 519.25195 439.33789 C 519.56301 439.29632 519.87468 439.27513 520.18555 439.25586 L 521.24219 438.69336 L 521.86523 438.13477 L 522.98438 436.95117 L 523.41992 435.64648 L 523.60547 434.96094 L 523.35742 433.15625 L 521.67773 430.23438 L 520.12305 427.55859 L 519.06445 426.5625 L 520.98047 427.125 L 525.29297 430.11719 L 528.2832 432.31641 L 530.92188 434.16406 L 533.5625 436.1875 L 535.67383 437.77344 L 537.87305 439.61914 L 539.54492 441.37891 L 540.33789 442.16992 L 541.48047 442.96289 C 542.49043 443.80043 543.50066 444.63869 544.34766 445.37891 C 545.19484 446.11916 545.87814 446.76144 546.5625 447.4043 L 548.30469 449.14453 C 549.05126 449.93252 549.7999 450.72094 550.45312 451.32227 C 551.10638 451.92363 551.66449 452.34036 552.19336 452.73438 C 552.72212 453.12832 553.22087 453.50013 553.82227 453.73828 C 554.42355 453.97677 555.12852 454.08034 555.74023 454.11133 C 556.35199 454.14156 556.86954 454.10135 557.33594 453.9668 C 557.80241 453.83187 558.21805 453.60484 558.60156 453.2832 C 558.98511 452.96194 559.3386 452.54746 559.62891 452.13281 C 559.91917 451.71816 560.14628 451.30377 560.28125 450.84766 C 560.41618 450.39151 560.45721 449.89134 560.41602 449.3418 C 560.37444 448.79229 560.25021 448.19287 560.01172 447.5293 C 559.77361 446.86573 559.42195 446.14049 559.01758 445.26953 C 558.61317 444.39854 558.15493 443.38194 557.70898 442.49023 C 557.26319 441.59849 556.82978 440.82981 556.49805 440.19727 C 556.1662 439.56476 555.9359 439.06809 555.625 438.43555 C 555.31432 437.80304 554.92041 437.03423 554.54688 436.27734 C 554.17384 435.52042 553.82105 434.7742 553.4375 434.08984 C 553.05395 433.40548 552.6407 432.78607 552.23633 432.13281 C 551.83184 431.47956 551.43687 430.79422 551.11523 430.06836 C 550.7936 429.34254 550.54561 428.57427 549.86133 427.29883 C 549.17704 426.02343 548.05677 424.23925 547.08203 422.61133 C 546.10737 420.98345 545.27785 419.51157 544.5625 418.33984 C 543.84711 417.16815 543.24586 416.29752 542.61328 415.3125 C 541.98074 414.32748 541.31687 413.22875 540.70508 412.28516 C 540.09336 411.3416 539.53385 410.55341 538.95312 409.70312 C 538.37255 408.85295 537.76908 407.9398 537.10547 407.02734 C 536.44186 406.11489 535.71771 405.20373 534.66016 403.91797 C 533.60249 402.63221 532.21163 400.97238 531.0918 399.63477 C 529.972 398.29719 529.1236 397.28014 528.27344 396.19141 C 527.42316 395.10264 526.57371 393.94225 525.74414 392.85352 C 524.91461 391.76475 524.10435 390.74849 523.04688 389.56641 C 521.98921 388.38432 520.68252 387.0367 519.18945 385.5332 C 517.69631 384.02967 516.01594 382.36911 514.66797 381.09375 C 513.32008 379.81835 512.3053 378.92867 511.28906 378.00586 C 510.27294 377.083 509.2566 376.12776 508.4375 375.44336 C 507.61844 374.759 506.99745 374.34526 505.125 372.8418 C 503.25243 371.33834 500.12851 368.74577 497.89258 366.98047 C 495.65665 365.21509 494.30784 364.2777 493.04688 363.47852 C 491.78576 362.6793 490.61201 362.01969 489.54883 361.36719 C 488.48572 360.71469 487.53464 360.06752 486.60352 359.48828 C 485.67239 358.90903 484.76149 358.39546 483.98438 357.96289 C 483.20727 357.53029 482.56115 357.17986 481.60742 356.65039 C 480.65358 356.12088 479.39189 355.41291 477.80664 354.64453 C 476.22154 353.87623 474.31402 353.04718 473.08008 352.53906 C 471.84629 352.03098 471.28643 351.8455 470.69531 351.64844 C 470.10435 351.45115 469.48133 351.24327 468.96289 351.05664 C 468.44464 350.86993 468.03047 350.7042 468.54883 350.72461 C 469.06727 350.74351 470.51901 350.95066 472.10547 351.18945 C 473.69189 351.42794 475.41192 351.69993 477.36133 351.99023 C 479.3107 352.2805 481.48926 352.59111 483.25195 352.87109 C 485.01461 353.15116 486.36361 353.39927 487.56641 353.58594 C 488.76924 353.77265 489.82615 353.89719 491.23633 354.21875 C 492.64655 354.54039 494.40888 355.05778 495.83984 355.44141 C 497.27066 355.82495 498.36957 356.07544 499.30273 356.35547 C 500.23598 356.63553 501.0031 356.94563 501.6875 357.14258 C 502.37175 357.33987 502.97371 357.42387 503.5957 357.32031 C 504.2177 357.21675 504.86096 356.92544 505.30664 356.59375 C 505.75232 356.26191 506.00038 355.88905 506.33203 355.41211 C 506.66387 354.9351 507.07789 354.35272 507.28516 353.79297 C 507.49227 353.23322 507.49197 352.69527 507.35742 351.99023 C 507.22287 351.28516 506.95508 350.41579 506.55078 349.64844 C 506.14652 348.88108 505.60682 348.21663 504.91211 347.71875 C 504.21755 347.22087 503.36778 346.88948 502.51758 346.50586 C 501.66737 346.12231 500.81719 345.68436 499.5625 345 C 498.30792 344.31572 496.648 343.38352 494.27344 342.12891 C 491.89902 340.87425 488.80866 339.29872 485.71875 337.72266 L 475.58203 332.98438 L 455.78516 324.97852 L 436.16406 318.99414 L 423.84766 316.00391 L 418.83203 315.38867 L 421.29492 313.01172 L 422.17578 310.54883 L 421.29492 307.82227 L 417.86523 305.44531 L 413.1582 304.6543 L 402.64453 302.9375 L 397.4082 302.41016 L 393.97656 301.79297 L 387.16016 300.95898 L 363.22656 299.72461 z M 360.14844 306.3125 C 365.57452 306.44513 370.99863 306.57558 376.42383 306.70703 C 377.20152 306.70753 377.97913 306.70753 378.75586 306.70703 C 380.12008 306.83963 381.48442 306.97206 382.84766 307.10352 C 384.24121 307.30932 385.63474 307.51382 387.02734 307.71875 C 388.72881 307.86598 390.42838 308.014 392.12891 308.16016 C 393.47842 308.2777 394.82909 308.39497 396.17773 308.51172 C 397.32195 308.73214 398.46408 308.95225 399.60742 309.17188 C 400.63436 309.36289 401.66151 309.55196 402.6875 309.74219 C 404.19837 309.96261 405.70887 310.18275 407.21875 310.40234 C 408.02575 310.60811 408.83265 310.81461 409.63867 311.01953 C 409.09661 310.97626 408.55285 310.93117 408.00977 310.88672 C 407.08643 310.94591 406.1626 311.00452 405.23828 311.0625 C 403.43511 310.9894 401.63232 310.9176 399.82812 310.84375 C 398.67025 310.97635 397.51243 311.10683 396.35352 311.23828 C 393.6998 311.4147 391.04533 311.59206 388.39062 311.76758 C 384.53458 312.03204 380.67745 312.29527 376.82031 312.55859 C 375.41307 312.7644 374.00591 312.9689 372.59766 313.17383 C 371.39571 313.33569 370.19318 313.49735 368.99023 313.6582 C 367.36303 314.01063 365.73563 314.36339 364.10742 314.71484 C 362.72952 314.96461 361.35156 315.21427 359.97266 315.46289 C 359.16663 315.68335 358.35973 315.9015 357.55273 316.12109 C 356.45344 316.34155 355.35416 316.56166 354.25391 316.78125 C 353.5945 316.98706 352.93382 317.19351 352.27344 317.39844 C 351.90733 317.50128 351.54074 317.60299 351.17383 317.70508 C 351.28442 317.59566 351.39449 317.48559 351.50391 317.375 C 351.67028 317.29227 351.83453 317.21048 352 317.12695 C 352.09392 317.06508 352.18846 317.00208 352.28125 316.93945 C 352.60317 316.78448 352.92322 316.62886 353.24414 316.47266 C 353.52457 316.37987 353.80445 316.28732 354.08398 316.19336 C 354.56144 316.01756 355.03919 315.84076 355.51562 315.66406 C 356.00344 315.56084 356.49166 315.45753 356.97852 315.35352 C 359.00353 314.68618 361.02673 314.01791 363.05078 313.34961 C 363.49116 313.26185 363.93164 313.17449 364.37109 313.08594 C 365.17809 312.91065 365.98499 312.73491 366.79102 312.55859 C 367.4074 312.22183 368.0233 311.88474 368.63867 311.54688 C 369.4897 311.37121 370.33943 311.19389 371.18945 311.01758 C 371.74718 310.87152 372.30457 310.72504 372.86133 310.57812 C 373.08179 310.52021 373.30189 310.46149 373.52148 310.40234 C 373.8006 310.24165 374.07944 310.07958 374.35742 309.91797 C 373.84466 309.85999 373.33209 309.80134 372.81836 309.74219 C 372.14433 309.65443 371.468 309.56707 370.79297 309.47852 C 368.45891 309.50868 366.12608 309.53737 363.79102 309.56836 C 361.4689 309.44462 359.14546 309.31823 356.82227 309.19336 C 354.89418 309.29775 352.96624 309.40264 351.03711 309.50586 C 347.38774 309.79669 343.7383 310.08699 340.08789 310.37695 C 338.57455 310.54332 337.05927 310.70953 335.54492 310.875 C 333.05686 311.35246 330.56914 311.82819 328.08008 312.30469 C 325.92383 312.76142 323.76657 313.21806 321.60938 313.67383 C 319.43237 314.19274 317.2561 314.71054 315.07812 315.22852 C 313.2123 315.85112 311.34544 316.47403 309.47852 317.0957 C 306.82459 318.25751 304.17056 319.41923 301.51562 320.58008 C 298.69825 321.79277 295.87899 323.00507 293.06055 324.2168 C 291.9906 324.73052 290.9206 325.2431 289.84961 325.75586 C 288.80897 326.29889 287.76821 326.84071 286.72656 327.38281 C 285.39266 328.16046 284.0576 328.93812 282.72266 329.71484 C 281.43275 330.7271 280.14247 331.73867 278.85156 332.75 C 278.04554 333.33703 277.23867 333.9237 276.43164 334.50977 C 275.66962 335.1408 274.90756 335.77228 274.14453 336.40234 C 274.32099 336.59342 274.49635 336.78243 274.67188 336.97266 C 275.39081 337.39838 276.11016 337.82524 276.82812 338.25 C 277.88442 338.71977 278.9408 339.18749 279.99609 339.65625 C 281.06704 340.02333 282.13705 340.3897 283.20703 340.75586 C 283.73541 341.16697 284.2636 341.57821 284.79102 341.98828 C 285.55405 342.35539 286.31616 342.72173 287.07812 343.08789 C 288.33973 343.67489 289.60073 344.26159 290.86133 344.84766 C 291.49236 345.17077 292.12384 345.49435 292.75391 345.81641 C 293.54624 346.19818 294.33753 346.57814 295.12891 346.95898 C 295.73059 347.38475 296.33092 347.80961 296.93164 348.23438 C 297.51868 348.55743 298.1053 348.88109 298.69141 349.20312 C 299.05848 349.40889 299.42485 349.61343 299.79102 349.81836 C 300.14343 350.03882 300.4962 350.25889 300.84766 350.47852 C 301.14147 350.68428 301.43388 350.89078 301.72656 351.0957 C 301.31645 350.87621 300.90717 350.65631 300.49609 350.43555 C 299.82207 350.15748 299.14769 349.87877 298.47266 349.59961 C 297.72528 349.24815 296.97689 348.89518 296.22852 348.54297 C 293.79482 347.64898 291.36052 346.75431 288.92578 345.85938 C 287.22531 345.27331 285.52378 344.68668 283.82227 344.09961 C 282.23906 343.5722 280.65648 343.04401 279.07227 342.51562 C 277.63571 342.04693 276.19737 341.57908 274.75977 341.10938 C 272.97129 340.81661 271.18405 340.52237 269.39453 340.22852 C 267.78202 340.05281 266.16825 339.87749 264.55469 339.70117 C 263.96862 339.67256 263.38195 339.64427 262.79492 339.61328 C 263.26465 339.02725 263.73443 338.44055 264.20312 337.85352 C 265.52334 336.73953 266.84282 335.62476 268.16211 334.50977 C 271.21265 332.45733 274.26289 330.40504 277.3125 328.35156 C 281.03761 326.12317 284.76214 323.8935 288.48633 321.66406 C 292.68457 320.10007 296.88273 318.5357 301.08008 316.9707 C 302.76033 316.24537 304.43985 315.51931 306.11914 314.79297 C 308.73259 314.0884 311.34451 313.38331 313.95703 312.67773 C 317.27555 311.80721 320.59452 310.93793 323.91211 310.06641 C 330.16986 309.2262 336.42673 308.38418 342.68359 307.54297 C 343.27066 307.48495 343.85725 307.42634 344.44336 307.36719 C 345.71957 307.22113 346.99424 307.07464 348.26953 306.92773 C 350.98281 306.78168 353.69586 306.63519 356.4082 306.48828 C 357.65511 306.43027 358.90249 306.37165 360.14844 306.3125 z M 393.0918 318.83789 C 398.29742 319.35684 403.50423 319.87464 408.70898 320.39258 C 411.21874 320.74562 413.72752 321.09896 416.23633 321.45117 C 419.07789 322.03233 421.91915 322.61317 424.75977 323.19336 C 428.20273 323.98187 431.64392 324.7691 435.08594 325.55664 C 437.28464 326.24145 439.48388 326.92553 441.68164 327.60938 C 443.81809 328.27345 445.95434 328.93844 448.08984 329.60156 C 449.77011 330.14123 451.44955 330.68005 453.12891 331.21875 C 454.20773 331.61328 455.28536 332.00687 456.36328 332.40039 C 454.0741 331.90182 451.78435 331.40192 449.49414 330.90234 C 447.64701 330.63885 445.79929 330.37578 443.95117 330.11133 C 441.54679 329.64261 439.1417 329.17289 436.73633 328.70312 C 430.75398 327.82384 424.77251 326.94479 418.78906 326.06445 C 416.15012 325.77165 413.50922 325.47745 410.86914 325.18359 C 407.2917 324.97879 403.71525 324.77404 400.13672 324.56836 C 396.52995 324.36355 392.92228 324.15881 389.31445 323.95312 C 385.67836 323.95359 382.04145 323.95359 378.4043 323.95312 C 373.82371 324.30179 369.24374 324.64849 364.66211 324.99609 C 362.23626 325.12101 359.80967 325.24502 357.38281 325.36914 C 353.25653 325.76363 349.12936 326.15921 345.00195 326.55273 C 338.34562 328.04636 331.68855 329.53863 325.03125 331.03125 C 325.95937 330.373 326.88729 329.71395 327.81445 329.05469 C 330.55707 328.0874 333.29936 327.12068 336.04102 326.15234 C 342.55225 324.42253 349.06193 322.6918 355.57227 320.96094 C 358.75481 320.50687 361.93749 320.05273 365.11914 319.59766 C 371.31275 319.40724 377.50645 319.21679 383.69922 319.02539 C 386.83109 318.96352 389.9608 318.90052 393.0918 318.83789 z M 291.37305 352.50195 L 291.375 352.50195 C 291.90301 352.50195 292.76599 352.50021 293.59375 352.51562 C 294.42228 352.53033 295.21342 352.56288 296.05664 352.59766 C 296.89978 352.63439 297.79444 352.67804 298.74023 352.74414 C 299.68611 352.81028 300.68318 352.89778 301.54102 352.94922 C 302.39881 353.00066 303.11841 353.0163 303.76367 353.11914 C 304.40889 353.222 304.9803 353.41073 305.69141 353.50586 C 306.40259 353.60012 307.25303 353.59987 308.99805 353.63086 C 310.74307 353.65864 313.38151 353.72045 315.56641 353.68945 C 317.7513 353.6605 319.48237 353.54364 321.33008 353.64648 C 323.17779 353.74922 325.14183 354.07101 326.82812 354.29102 C 328.51441 354.51111 329.92215 354.62765 331.50586 354.84766 C 333.08957 355.06762 334.84994 355.39132 336.375 355.64062 C 337.90005 355.88989 339.19106 356.06497 340.4375 356.34375 C 341.68395 356.62244 342.88526 357.00442 344.26367 357.42969 C 345.64208 357.85495 347.19719 358.32271 348.20898 358.63086 C 349.22082 358.9389 349.68888 359.08578 350.2168 359.26172 C 350.74467 359.4376 351.33254 359.64253 351.78711 359.78906 C 352.24168 359.93559 352.56366 360.0246 352.63672 360.09766 C 352.70982 360.17071 352.53408 360.22682 352.31445 360.25781 C 352.09461 360.28559 351.83057 360.28541 351.41992 360.31641 C 351.00931 360.34577 350.45234 360.40627 349.33789 360.52344 C 348.22341 360.64074 346.55135 360.81515 345.12891 361.03516 C 343.70654 361.25511 342.53363 361.52023 341.19922 361.74023 C 339.86481 361.96019 338.36871 362.13559 337.01953 362.44336 C 335.67043 362.75128 334.46897 363.19197 333.25195 363.58789 C 332.03485 363.98385 330.80287 364.33474 329.84961 364.67188 C 328.89639 365.00907 328.2223 365.33351 327.65039 365.62695 C 327.07843 365.92026 326.6079 366.18234 326.31445 366.40234 C 326.02135 366.62238 325.90412 366.79842 325.96289 367.0625 C 326.02182 367.32665 326.25761 367.67964 326.58008 367.82617 C 326.90273 367.97229 327.31188 367.91393 327.86914 367.89844 C 328.42644 367.88415 329.13079 367.91381 330.11328 368.00195 C 331.09577 368.09009 332.35717 368.23635 333.54492 368.35352 C 334.73268 368.47092 335.84713 368.55837 337.32812 368.76367 C 338.80922 368.96901 340.65668 369.29141 343.04688 369.83398 C 345.43705 370.3766 348.36956 371.13901 350.75977 371.74023 C 353.14997 372.34142 354.99861 372.78257 357.21289 373.36914 C 359.42713 373.95571 362.00865 374.68789 363.98828 375.25977 C 365.96791 375.83168 367.34499 376.24205 369.01562 376.70312 C 370.68633 377.16427 372.64891 377.67383 374.64648 377.66211 C 376.64405 377.64827 378.67708 377.11038 380.20117 376.48828 C 381.7253 375.86614 382.74236 375.16014 383.64453 374.58984 C 384.54663 374.01955 385.33302 373.58335 386.12109 373.1582 C 386.90913 372.73309 387.69676 372.31935 388.41211 371.83203 C 389.12754 371.34471 389.77029 370.78546 392.64258 368.86719 C 395.51483 366.94888 400.61729 363.67152 403.46875 361.89844 C 406.32029 360.12542 406.92101 359.8573 407.03516 359.96094 C 407.14903 360.06471 406.77676 360.54147 405.94727 361.33984 C 405.11777 362.13821 403.83052 363.25727 402.64844 364.27344 C 401.46643 365.2896 400.38867 366.20165 399.24805 367.30078 C 398.10742 368.39992 396.90511 369.68538 395.68164 370.76367 C 394.45813 371.84201 393.21435 372.71253 391.8457 373.625 C 390.47699 374.53751 388.98371 375.49169 387.01367 376.50781 C 385.04359 377.52398 382.59694 378.60329 380.46094 379.41211 C 378.32501 380.22089 376.49847 380.7596 374.61133 381.29883 C 372.72418 381.83798 370.77632 382.37699 368.57812 382.8125 C 366.38004 383.24801 363.93232 383.57926 362.8125 383.89062 C 361.69264 384.20202 361.90039 384.49228 362.33594 384.6582 C 362.77153 384.82412 363.43436 384.86537 364.5957 384.92773 C 365.75705 384.98972 367.41574 385.0724 369.46875 385.13477 C 371.5218 385.19713 373.9709 385.23949 376.25195 384.94922 C 378.53305 384.6588 380.64688 384.03512 382.28516 383.59961 C 383.92351 383.16413 385.08551 382.91521 386.53711 382.45898 C 387.98875 382.00272 389.72978 381.3408 391.55469 380.55273 C 393.37959 379.7647 395.28755 378.85146 396.92578 377.98047 C 398.56406 377.10947 399.93351 376.28084 401.17773 375.34766 C 402.42195 374.4145 403.54103 373.37731 404.51562 372.46484 C 405.49029 371.55238 406.32032 370.76486 407.02539 370.03906 C 407.73042 369.31323 408.31091 368.64869 408.80859 368.00586 C 409.30628 367.36303 409.72038 366.74106 409.99023 366.55469 C 410.26021 366.36829 410.38472 366.61755 410.48828 367.11523 C 410.59449 367.61292 410.67625 368.35823 410.46875 369.35352 C 410.26129 370.34876 409.76437 371.59437 408.64453 374 C 407.52466 376.40555 405.78261 379.97259 404.24805 382.62695 C 402.71341 385.28135 401.38696 387.02238 400.03906 388.45312 C 398.69113 389.88402 397.32309 391.00477 395.66406 392.33203 C 394.00504 393.65925 392.05466 395.19209 390.375 396.1875 C 388.69534 397.18291 387.28456 397.63992 385.75 398.05469 C 384.21547 398.46919 382.55769 398.84361 380.42188 398.78125 C 378.28595 398.71915 375.67179 398.22004 373.39062 397.39062 C 371.10956 396.56132 369.16153 395.40172 367.89648 394.57227 C 366.63144 393.74281 366.04977 393.24361 365.53125 392.58008 C 365.01269 391.91647 364.55627 391.08734 364.05859 390.25781 C 363.56091 389.42828 363.02133 388.59822 362.58594 388.12109 C 362.15054 387.6451 361.81975 387.51893 361.36328 387.66406 C 360.90682 387.80908 360.32625 388.22482 359.89062 388.72266 C 359.45511 389.2205 359.16433 389.80198 358.88672 390.26758 C 358.60907 390.73325 358.34481 391.0839 358.0293 390.98828 C 357.71372 390.89262 357.34569 390.34857 356.92773 389.73633 C 356.50985 389.12412 356.04205 388.44443 355.64258 387.98242 C 355.24306 387.52037 354.91292 387.27709 354.53516 386.94336 C 354.15756 386.60982 353.73197 386.18538 353.42383 385.79688 C 353.11583 385.40834 352.92491 385.05649 352.28711 384.33789 C 351.64931 383.61933 350.56488 382.53339 349.67773 381.70117 C 348.79059 380.86896 348.10014 380.28961 347.48438 379.79102 C 346.86846 379.29242 346.32697 378.8737 345.83203 378.4375 C 345.33709 378.0013 344.88985 377.54853 344.43164 377.15625 C 343.9734 376.76393 343.50385 376.43265 343.08594 376.15039 C 342.66802 375.86807 342.30131 375.63341 342.01172 375.46484 C 341.72213 375.29619 341.50942 375.19411 340.9375 374.84961 C 340.36559 374.50508 339.43591 373.91757 338.60742 373.375 C 337.77885 372.83243 337.05225 372.33446 336.53906 372.04102 C 336.0258 371.74736 335.72476 371.65996 335.39844 371.56445 C 335.07219 371.46894 334.72134 371.36584 334.40234 371.31055 C 334.08337 371.25465 333.79729 371.24744 333.64648 371.30273 C 333.4961 371.35803 333.47974 371.47516 333.56055 371.60352 C 333.64151 371.73183 333.81942 371.87246 334.07227 372.04492 C 334.32524 372.21717 334.6545 372.42202 335.01367 372.66406 C 335.37294 372.90606 335.76209 373.18387 336.1543 373.51367 C 336.54654 373.84367 336.94188 374.22538 337.36719 374.56641 C 337.79245 374.9073 338.24669 375.2078 338.67188 375.57812 C 339.09703 375.94845 339.49237 376.3888 339.97266 376.80664 C 340.45294 377.22452 341.01928 377.62141 341.52148 378.01367 C 342.02373 378.40599 342.4642 378.79366 342.7793 379.10547 C 343.09452 379.41713 343.28425 379.65027 344.64062 381.34766 C 345.99703 383.045 348.5192 386.20612 350.0332 388.24805 C 351.54716 390.29005 352.05263 391.21272 352.58789 392.10352 C 353.12315 392.99435 353.68712 393.85368 354.21875 394.63086 C 354.7503 395.40804 355.25065 396.10297 355.61719 396.63086 C 355.98376 397.15875 356.21753 397.51869 356.91406 398.75781 C 357.61059 399.99693 358.76841 402.11518 359.40625 403.30664 C 360.04406 404.49806 360.16279 404.76352 360.22852 404.96875 C 360.29504 405.17386 360.31029 405.31945 360.2793 405.42188 C 360.24993 405.52385 360.17687 405.58324 360.01953 405.63086 C 359.86205 405.67848 359.61944 405.7158 359.38477 405.75586 C 359.15012 405.7963 358.92167 405.83879 358.5625 405.91211 C 358.20323 405.98505 357.71292 406.09018 357.17773 406.18164 C 356.64251 406.27311 356.06238 406.35278 355.52344 406.45898 C 354.9845 406.56504 354.48591 406.69723 354.00195 406.84766 C 353.51803 406.99823 353.04965 407.16661 352.67578 407.32422 C 352.30182 407.48167 352.02268 407.62964 351.26758 407.84961 C 350.51247 408.06958 349.28055 408.3612 348.13672 408.68359 C 346.99292 409.00618 345.93835 409.35949 345.17578 409.63086 C 344.41325 409.90215 343.94314 410.0919 343.46289 410.30469 C 342.98261 410.51729 342.49168 410.7528 342.2168 410.91797 C 341.94357 411.08302 341.88124 411.17694 341.91602 411.31641 C 341.94928 411.45625 342.07363 411.63933 342.24609 411.76367 C 342.41853 411.8884 342.63907 411.95624 342.94336 412.0957 C 343.2476 412.23509 343.63748 412.44661 343.97461 412.64844 C 344.31188 412.85011 344.59701 413.04057 345.00391 413.33008 C 345.41088 413.61974 345.93772 414.00736 346.92188 414.83398 C 347.90591 415.6606 349.34694 416.92532 350.35742 417.91016 C 351.3679 418.89503 351.9492 419.60051 352.51953 420.22266 C 353.08986 420.84477 353.64884 421.38412 354.14648 421.96484 C 354.64413 422.54553 355.08018 423.1674 355.51562 423.74805 C 355.95113 424.32873 356.38692 424.86886 356.85352 425.51172 C 357.32011 426.15465 357.81856 426.90058 358.28516 427.63672 C 358.75175 428.37293 359.18714 429.09886 359.5293 429.64844 C 359.87147 430.19798 360.12011 430.572 360.44141 431.08008 C 360.76286 431.58816 361.1565 432.22929 361.54492 432.96875 C 361.93338 433.70818 362.31606 434.54407 362.625 435.24805 C 362.93377 435.95195 363.16792 436.52498 363.31445 436.93555 C 363.46099 437.34585 363.51932 437.59593 363.16016 437.5957 C 362.80112 437.59551 362.02426 437.34604 361.23242 437.11133 C 360.44055 436.87654 359.63555 436.65572 358.93164 436.52344 C 358.22776 436.39153 357.62573 436.34766 356.98047 436.34766 C 356.33521 436.34728 355.64449 436.39139 355.19727 436.41406 C 354.75004 436.43636 354.54609 436.43531 353.05273 436.50977 C 351.55942 436.58456 348.77796 436.73415 347.07617 436.90234 C 345.37438 437.07046 344.75286 437.25761 344.23438 437.49609 C 343.71577 437.73454 343.29998 438.02423 342.99414 438.21094 C 342.68843 438.39738 342.49144 438.48126 342.5332 438.66797 C 342.57484 438.85494 342.85466 439.14528 343.25391 439.43555 C 343.65319 439.72578 344.173 440.01664 344.69141 440.38477 C 345.20985 440.75293 345.72646 441.1991 346.28125 441.55664 C 346.836 441.91426 347.42652 442.18404 348.00195 442.54688 C 348.57742 442.90979 349.13861 443.36713 349.67773 443.9375 C 350.21687 444.50783 350.73454 445.19146 351.20117 445.76172 C 351.66777 446.33201 352.08228 446.78874 352.56445 447.28125 C 353.04663 447.7738 353.59842 448.30133 354.19141 449.1543 C 354.78432 450.00722 355.41831 451.18298 355.97852 452.24805 C 356.53872 453.31312 357.02404 454.26853 357.41992 455.17773 C 357.8158 456.08686 358.12473 456.95165 358.47656 457.88281 C 358.82848 458.81397 359.22386 459.81099 359.56836 460.77148 C 359.91293 461.73198 360.20652 462.65484 360.5 463.52734 C 360.79326 464.39981 361.08523 465.22054 361.2832 465.84375 C 361.48118 466.46696 361.58418 466.89264 361.67969 467.31055 C 361.7752 467.72849 361.8631 468.13921 361.92188 468.53516 C 361.9802 468.93106 362.00981 469.31213 361.86328 469.37109 C 361.7169 469.42971 361.39447 469.16463 361.00586 468.82031 C 360.61725 468.4757 360.1622 468.05133 359.56836 467.55273 C 358.97448 467.0541 358.24046 466.4829 357.58789 465.98438 C 356.9354 465.48578 356.36444 465.05905 355.72656 464.64844 C 355.08869 464.23779 354.38405 463.844 353.62891 463.51367 C 352.87373 463.18368 352.06625 462.91919 351.28906 462.69922 C 350.51188 462.47936 349.76458 462.30333 348.94336 462.13477 C 348.12218 461.9659 347.22829 461.80461 346.53906 461.70898 C 345.8498 461.61336 345.36709 461.5847 344.61914 461.6875 C 343.87119 461.79008 342.85767 462.02284 342.26367 462.19141 C 341.66815 462.36005 341.49519 462.46327 341.63477 462.80078 C 341.77418 463.13841 342.2272 463.71068 342.65234 464.42188 C 343.07753 465.13307 343.47363 465.98322 343.93555 467.09766 C 344.39742 468.21209 344.92634 469.59042 345.35156 470.91016 C 345.77675 472.22989 346.09841 473.491 346.43555 474.60547 C 346.77285 475.7199 347.12453 476.68852 347.41797 477.56836 C 347.71123 478.44816 347.94711 479.23893 348.12305 480.05273 C 348.29907 480.86662 348.41579 481.70313 348.62109 483.10352 C 348.82636 484.50391 349.11891 486.46792 349.32422 488.18359 C 349.52955 489.8992 349.64716 491.36731 349.75 492.62109 C 349.85288 493.87488 349.94002 494.9155 350.07227 495.86133 C 350.20433 496.80719 350.38051 497.65734 350.46094 498.50781 C 350.54216 499.35824 350.52734 500.20975 350.52734 500.84766 C 350.52734 501.48556 350.54259 501.91071 350.51953 502.36523 C 350.4975 502.8198 350.4392 503.30278 350.43164 505.48047 C 350.42786 507.65808 350.46996 511.52985 350.39648 514.30859 C 350.32301 517.08738 350.13214 518.77327 350.0293 520.29102 C 349.92445 521.80872 349.91381 523.15757 349.90625 524.2793 C 349.8985 525.4011 349.89758 526.29618 349.85352 527 C 349.80945 527.70382 349.72235 528.21675 349.65625 529.58789 C 349.59015 530.95903 349.54657 533.1874 349.48047 534.375 C 349.41447 535.56196 349.32542 535.70871 348.33594 535.58398 C 347.34641 535.4593 345.45531 535.06452 343.87891 534.76367 C 342.30254 534.46316 341.04143 534.25728 339.73633 534.125 C 338.43119 533.99347 337.08171 533.93421 335.97461 533.88281 C 334.86747 533.83145 334.00217 533.78819 332.90234 533.83203 C 331.80251 533.87625 330.46859 534.00832 328.94141 534.04688 C 327.41414 534.08384 325.69498 534.02717 324.18164 534.0918 C 322.6683 534.15643 321.36215 534.34273 319.70312 534.5918 C 318.04413 534.8406 316.03182 535.15028 314.31055 535.55469 C 312.58923 535.95902 311.15713 536.45777 309.36328 537.18359 C 307.56939 537.90941 305.41369 538.86236 303.77539 539.65039 C 302.13705 540.43842 301.01765 541.06002 299.60742 541.94141 C 298.19727 542.82275 296.49678 543.96406 294.52148 545.92578 C 292.54615 547.88755 290.29571 550.67004 288.82617 552.58203 C 287.3566 554.49398 286.66797 555.53544 286.2207 556.19531 C 285.77348 556.85514 285.56869 557.13311 285.07031 557.375 C 284.57194 557.61685 283.77878 557.82235 282.78906 557.91797 C 281.79931 558.01359 280.61141 557.99953 279.57031 557.8457 C 278.52925 557.6918 277.63616 557.39851 276.76367 557.09766 C 275.89115 556.79707 275.03958 556.4902 274.09375 556.04297 C 273.14792 555.59578 272.10626 555.00877 271.40234 554.51758 C 270.69843 554.02643 270.33297 553.62986 269.68945 553 C 269.04593 552.3701 268.12442 551.50627 267.125 550.53516 C 266.12558 549.56412 265.04754 548.48716 264.33203 547.68359 C 263.61652 546.88003 263.26487 546.35056 262.92773 545.84766 C 262.59074 545.34475 262.26948 544.8676 262 544.39062 C 261.73038 543.91376 261.51255 543.43628 261.36719 543.05273 C 261.2222 542.66907 261.14869 542.3798 261.06055 542.11523 C 260.97241 541.85086 260.86889 541.6118 260.80664 541.45117 C 260.74439 541.29092 260.7224 541.20657 260.70312 541.12305 C 268.28658 546.19472 273.3004 541.48015 274.51367 536.96875 C 275.76905 532.30062 277.8439 527.74154 284.05664 526.67383 C 288.91031 525.83969 296.7801 529.72415 296.00195 528.10938 C 294.90032 525.82329 296.51248 521.73293 295.90039 516.04297 C 295.42003 511.57749 296.53682 505.02468 296.69727 499.2168 C 297.33916 475.99901 291.13847 452.35863 281.46094 440.5332 C 271.72928 430.70243 271.90307 425.45344 234.63477 425.77734 C 226.06349 425.85188 215.33593 426.5167 202.25195 427.15234 C 201.99712 427.11946 201.75249 427.07944 201.53906 427.02539 C 200.31547 426.71464 199.8998 426.03076 199.57812 425.36719 C 199.2565 424.70358 199.02942 424.05987 198.92578 423.46875 C 198.82177 422.87771 198.84288 422.33928 199.06055 421.34375 C 199.0791 421.25871 199.1039 421.15434 199.12695 421.0625 L 195.66406 414.30859 C 192.49714 410.43787 189.33001 406.56676 187.7168 404.36719 C 186.10363 402.16758 186.045 401.63926 186.04492 401.16992 C 186.04488 400.70062 186.10284 400.28999 186.68945 399.61523 C 187.27606 398.94044 188.39049 398.00174 190.35547 396.38867 C 192.32044 394.77565 195.13585 392.48834 197.77539 390.55273 C 200.41493 388.61705 202.87879 387.03439 204.81445 385.91992 C 206.75012 384.80545 208.15849 384.15888 209.71289 383.51367 C 211.26729 382.86847 212.9669 382.22323 214.69727 381.66602 C 216.42767 381.1088 218.18905 380.64111 220.38867 380.20117 C 222.5883 379.76131 225.22641 379.35022 229.06836 378.79297 C 232.91031 378.23575 237.95546 377.53152 241.26953 377.17969 C 244.5836 376.82806 246.16743 376.82837 248.51367 376.74023 C 250.85987 376.65224 253.96763 376.47484 256.87109 376.26953 C 259.77456 376.06418 262.47258 375.83006 264.37891 375.71289 C 266.28523 375.59576 267.39946 375.59548 268.2793 375.80078 C 269.15917 376.00624 269.80556 376.41799 270.20117 376.53516 C 270.59563 376.65227 270.74316 376.47581 270.61133 376.13867 C 270.4796 375.80164 270.06904 375.30262 269.45312 374.49609 C 268.83732 373.6896 268.01451 372.57636 267.28125 371.47656 C 266.54803 370.37681 265.90292 369.29196 265.375 368.38281 C 264.84708 367.47367 264.4379 366.7388 264.17383 366.24023 C 263.91013 365.7417 263.79164 365.4791 264.04102 365.15625 C 264.29025 364.83333 264.90641 364.45267 265.68359 363.96875 C 266.46078 363.48483 267.40029 362.89799 268.38281 362.38477 C 269.36534 361.8715 270.39076 361.43113 271.25586 360.97656 C 272.12096 360.52199 272.82646 360.05177 275.72266 358.66602 C 278.61889 357.28027 283.70463 354.97872 286.35156 353.82031 C 288.99845 352.66189 289.2056 352.64818 289.48438 352.61719 C 289.76292 352.5874 290.11336 352.54454 290.38477 352.52148 C 290.65557 352.50124 290.8475 352.50195 291.37305 352.50195 z M 444.78711 384.66016 C 445.82875 384.86599 446.8695 385.07054 447.91016 385.27539 C 449.45035 385.8331 450.99005 386.39054 452.5293 386.94727 C 453.67351 387.43169 454.81763 387.91504 455.96094 388.39844 C 457.35452 388.91219 458.74814 389.42672 460.14062 389.93945 C 462.37009 390.95176 464.59769 391.96328 466.82617 392.97461 C 468.66839 393.84273 470.51029 394.71099 472.35156 395.57812 C 473.75188 396.30444 475.15149 397.03049 476.55078 397.75586 C 477.81632 398.48213 479.08115 399.20631 480.3457 399.93164 C 481.74598 400.80312 483.14559 401.67446 484.54492 402.54492 C 485.54083 403.25048 486.53633 403.95558 487.53125 404.66016 C 488.92117 405.64571 490.3122 406.63067 491.70117 407.61523 C 494.17982 409.46138 496.65706 411.30714 499.13477 413.15234 C 499.67444 413.74388 500.21326 414.33527 500.75195 414.92578 C 501.28128 415.51732 501.80955 416.10871 502.33789 416.69922 C 505.1135 419.84813 507.88928 422.99656 510.66406 426.14453 C 511.09712 426.90017 511.53078 427.65542 511.96289 428.41016 C 512.49131 428.92383 513.01753 429.43649 513.54492 429.94922 C 513.80204 430.35299 514.06053 430.75538 514.31641 431.1582 C 514.60286 431.71587 514.88847 432.27332 515.17383 432.83008 C 515.43824 433.20448 515.70141 433.57975 515.96484 433.95312 C 515.81858 433.92444 515.67241 433.89547 515.52539 433.86523 C 515.06399 433.3965 514.6011 432.92675 514.13867 432.45703 C 513.53795 432.17156 512.93771 431.8861 512.33594 431.59961 C 511.66193 431.24082 510.98752 430.8813 510.3125 430.52148 C 507.92278 429.23886 505.53328 427.95544 503.14258 426.67188 C 502.82049 426.52602 502.49698 426.37945 502.17383 426.23242 C 501.68309 425.87363 501.19293 425.51373 500.70117 425.1543 C 499.8292 424.61953 498.95503 424.08458 498.08203 423.54883 C 497.30538 423.21207 496.52963 422.87462 495.75195 422.53711 C 495.31251 422.35422 494.87211 422.17001 494.43164 421.98633 C 494.03623 422.00863 493.64058 422.03384 493.24414 422.05273 C 493.4426 422.30252 493.64022 422.55171 493.83789 422.80078 C 494.54224 423.36586 495.24585 423.93008 495.94922 424.49414 C 497.15678 425.64966 498.3637 426.80441 499.57031 427.95898 C 500.88767 429.11038 502.20507 430.26166 503.52148 431.41211 C 505.95864 434.32631 508.39383 437.23908 510.83008 440.15234 C 511.59785 441.1275 512.36598 442.10395 513.13281 443.07812 C 513.82802 444.06367 514.52257 445.04864 515.2168 446.0332 C 516.07792 447.23653 516.93868 448.43836 517.79883 449.64062 C 518.64956 451.11347 519.49986 452.58669 520.34961 454.05859 C 521.22019 455.66433 522.08935 457.26826 522.95898 458.87305 C 523.17941 459.29881 523.39955 459.72362 523.61914 460.14844 C 524.01561 460.98477 524.41119 461.8209 524.80664 462.65625 C 525.05643 463.4193 525.30562 464.18328 525.55469 464.94531 C 526.00974 466.17755 526.46581 467.40738 526.91992 468.63867 C 527.31628 470.25219 527.71201 471.86598 528.10742 473.47852 C 528.5037 475.61929 528.89962 477.76064 529.29492 479.90039 C 528.9785 479.67479 528.66123 479.44905 528.34375 479.22266 C 527.84655 478.33141 527.34974 477.43907 526.85156 476.54688 C 526.29212 475.59341 525.73223 474.63999 525.17188 473.68555 C 524.30137 472.37953 523.43012 471.07262 522.55859 469.76562 C 521.21115 467.60944 519.86213 465.45408 518.51367 463.29688 C 517.20773 461.431 515.9027 459.5642 514.5957 457.69727 C 512.06618 454.44196 509.53445 451.18605 507.00391 447.92969 C 505.92602 446.91402 504.8484 445.89751 503.76953 444.88086 C 502.67094 443.55417 501.57223 442.22615 500.47266 440.89844 C 498.93855 439.40575 497.40423 437.91355 495.86914 436.41992 C 490.55883 431.52857 485.24692 426.63659 479.93555 421.74414 C 478.73362 421.02611 477.53107 420.30691 476.32812 419.58789 C 475.21422 418.75254 474.10129 417.91837 472.98633 417.08203 C 472.03366 416.46661 471.0806 415.85066 470.12695 415.23438 C 467.39999 413.48986 464.67135 411.74358 461.94336 409.99805 C 461.10801 409.58801 460.27192 409.17872 459.43555 408.76758 C 458.38026 408.09357 457.32583 407.4192 456.26953 406.74414 C 454.99428 406.15812 453.71764 405.57141 452.44141 404.98438 C 451.62072 404.44235 450.80022 403.89855 449.97852 403.35547 C 449.3925 403.048 448.80579 402.74005 448.21875 402.43164 C 448.83515 402.47662 449.45099 402.52099 450.06641 402.56445 C 450.9614 402.69696 451.85595 402.82941 452.75 402.96094 C 453.77694 403.12281 454.80217 403.2843 455.82812 403.44531 C 457.13372 403.76842 458.43956 404.09009 459.74414 404.41211 C 461.21105 404.76451 462.67665 405.11725 464.14258 405.46875 C 465.56542 405.79186 466.98826 406.11353 468.41016 406.43555 C 469.95039 406.91986 471.49005 407.40332 473.0293 407.88672 C 474.23221 408.38581 475.43475 408.88475 476.63672 409.38281 C 477.34107 409.66193 478.04464 409.94095 478.74805 410.21875 C 479.02713 410.1167 479.30619 410.01529 479.58398 409.91211 C 479.32055 409.59002 479.05754 409.26651 478.79297 408.94336 C 478.42688 408.57731 478.06073 408.21074 477.69336 407.84375 C 477.15126 407.37501 476.6075 406.90527 476.06445 406.43555 C 475.58101 405.93744 475.09767 405.43854 474.61328 404.93945 C 473.96853 404.55867 473.32343 404.17845 472.67773 403.79688 C 471.54909 402.84425 470.42064 401.89115 469.29102 400.9375 C 468.41171 400.27809 467.53076 399.61743 466.65039 398.95703 C 465.85907 398.42964 465.06777 397.90142 464.27539 397.37305 C 463.3081 396.72834 462.33937 396.08316 461.37109 395.4375 C 460.3891 394.83678 459.40681 394.23643 458.42383 393.63477 C 457.57385 393.09267 456.72408 392.55086 455.87305 392.00781 C 454.9937 391.42176 454.11474 390.83508 453.23438 390.24805 C 452.38443 389.8233 451.5326 389.39647 450.68164 388.9707 C 449.59699 388.29666 448.51137 387.62233 447.42578 386.94727 C 446.88368 386.59585 446.34191 386.24483 445.79883 385.89258 C 445.46203 385.57045 445.125 385.24698 444.78711 384.92383 C 444.7876 384.83577 444.7876 384.7486 444.78711 384.66016 z M 464.76172 438.75391 C 466.21381 438.87901 467.66608 439.00336 469.11719 439.12695 C 469.70872 439.14812 470.3001 439.17056 470.89062 439.18945 C 471.26438 439.25257 471.6371 439.31497 472.00977 439.37695 C 472.17599 439.42911 472.34227 439.47985 472.50781 439.53125 C 472.6641 439.70787 472.81965 439.8848 472.97461 440.06055 C 469.57413 441.48154 466.17302 442.90222 462.77148 444.32227 C 463.42523 444.3336 464.07771 444.34218 464.73047 444.35352 C 465.65381 444.38489 466.57764 444.41508 467.5 444.44531 C 468.75511 444.50805 470.00951 444.57083 471.26367 444.63281 C 472.82072 444.83453 474.37749 445.03564 475.93359 445.23633 C 476.35932 445.26619 476.78424 445.29776 477.20898 445.32422 C 478.5732 445.58867 479.93754 445.8518 481.30078 446.11523 C 483.42752 446.90757 485.55389 447.70083 487.67969 448.49219 C 489.71844 449.34319 491.7552 450.19295 493.79297 451.04297 C 496.0077 452.34853 498.22176 453.65437 500.43555 454.95898 C 502.25437 456.38186 504.07282 457.80275 505.89062 459.22461 L 505.89062 459.22656 C 504.71802 458.74316 503.54471 458.25981 502.37109 457.77539 C 501.25715 457.248 500.14422 456.71978 499.0293 456.19141 C 497.32874 455.6933 495.62732 455.1944 493.92578 454.69531 C 491.7854 454.10926 489.6434 453.52262 487.50195 452.93555 C 486.27066 452.67211 485.03896 452.4091 483.80664 452.14453 C 481.81362 451.98477 479.82033 451.82507 477.82617 451.66406 C 476.06397 451.70564 474.30233 451.74629 472.53906 451.78711 C 470.90132 451.70472 469.26181 451.62259 467.62305 451.53906 C 466.21336 451.56061 464.80325 451.58266 463.39258 451.60156 C 463.72487 451.31171 464.05721 451.02111 464.38867 450.73047 C 465.07352 450.46137 465.75758 450.19208 466.44141 449.92188 C 467.0433 449.63199 467.64515 449.34143 468.24609 449.05078 C 467.99774 449.05127 467.74945 449.05127 467.5 449.05078 C 466.89906 449.05127 466.29724 449.05127 465.69531 449.05078 C 463.9124 449.03075 462.12972 449.00718 460.3457 448.98828 C 459.2075 448.88245 458.06887 448.77493 456.92969 448.66797 C 455.43443 448.82985 453.93761 448.99171 452.44141 449.15234 C 450.72622 449.29971 449.01113 449.44553 447.29492 449.5918 C 445.85836 449.78285 444.42189 449.97395 442.98438 450.16406 C 441.3865 450.44314 439.78831 450.72183 438.18945 451 C 436.72356 451.38177 435.25597 451.76371 433.78906 452.14453 C 432.3525 452.42361 430.9161 452.70072 429.47852 452.97852 C 428.23259 453.36029 426.98519 453.74222 425.73828 454.12305 C 424.56565 454.44616 423.39233 454.76978 422.21875 455.0918 C 422.39514 454.82836 422.57268 454.5634 422.74805 454.29883 C 423.62641 453.73179 424.5034 453.16373 425.38086 452.5957 C 426.35602 452.03622 427.33048 451.47644 428.30469 450.91602 C 429.9642 450.02484 431.62467 449.13446 433.2832 448.24219 C 435.48191 447.14355 437.67923 446.04301 439.87695 444.94336 C 441.55722 444.28024 443.23673 443.61723 444.91602 442.95312 C 446.7622 442.31075 448.60795 441.66874 450.45312 441.02539 C 452.11264 440.59037 453.77116 440.15472 455.42969 439.71875 C 456.57076 439.55324 457.71147 439.38738 458.85156 439.2207 C 459.50531 439.1077 460.15974 438.99343 460.8125 438.87891 C 462.12982 438.83809 463.44527 438.79548 464.76172 438.75391 z M 405.06836 462.51953 C 405.20367 462.53843 405.33852 462.56124 405.47266 462.58203 C 405.65974 462.65498 405.8471 462.72702 406.0332 462.79883 C 406.27207 462.81773 406.51001 462.84054 406.74805 462.86133 C 407.27737 463.12098 407.80568 463.3819 408.33398 463.64062 C 409.04994 464.12845 409.76553 464.61472 410.48047 465.10156 C 411.30013 465.56867 412.12085 466.03586 412.93945 466.50195 C 413.49988 466.81339 414.05969 467.12498 414.61914 467.43555 C 415.80172 468.35889 416.98247 469.28083 418.16406 470.20312 C 418.86962 470.76355 419.57472 471.32337 420.2793 471.88281 C 420.7153 472.25661 421.15095 472.62918 421.58594 473.00195 C 421.93895 473.27219 422.29251 473.5434 422.64453 473.8125 C 422.99754 473.97918 423.34911 474.14313 423.70117 474.30859 C 424.31342 474.24661 424.92577 474.18616 425.53711 474.12305 C 427.1154 473.89439 428.69226 473.66496 430.26953 473.43555 C 431.97107 473.34824 433.6726 473.2603 435.37305 473.17188 C 436.76667 473.21645 438.16021 473.26084 439.55273 473.30469 C 440.91699 473.34929 442.27934 473.3917 443.64258 473.43555 C 445.08016 473.61167 446.51856 473.78959 447.95508 473.96484 C 449.72994 474.36128 451.5035 474.75689 453.27734 475.15234 C 454.90553 475.66606 456.53299 476.17868 458.16016 476.69141 C 459.04048 476.94123 459.9214 477.19068 460.80078 477.43945 C 461.84238 477.99724 462.88317 478.55457 463.92383 479.11133 C 464.9361 479.71303 465.9477 480.31334 466.95898 480.91406 C 467.75132 481.47177 468.54259 482.02918 469.33398 482.58594 C 469.7156 482.95293 470.09769 483.3195 470.47852 483.68555 C 470.69886 483.87679 470.91919 484.06751 471.13867 484.25781 C 470.90472 484.24269 470.66872 484.23223 470.43359 484.21484 C 470.14106 484.12754 469.84843 484.03804 469.55469 483.94922 C 468.51399 483.71527 467.47324 483.48122 466.43164 483.24609 C 465.84555 483.07072 465.25889 482.89518 464.67188 482.71875 C 463.90985 482.54338 463.14582 482.36584 462.38281 482.18945 C 461.65011 482.04319 460.91728 481.89736 460.18359 481.75 C 459.87632 481.72354 459.56818 481.69235 459.25977 481.66211 C 459.75881 481.92668 460.25776 482.19165 460.75586 482.45508 C 461.5482 482.95416 462.33954 483.45111 463.13086 483.94922 C 463.9379 484.33084 464.74476 484.71296 465.55078 485.09375 C 466.35782 485.68079 467.16472 486.26746 467.9707 486.85352 C 468.88036 487.30861 469.78863 487.76272 470.69727 488.2168 C 471.37233 488.78921 472.04862 489.36224 472.72266 489.93359 C 474.13454 490.82329 475.54418 491.711 476.95508 492.59961 C 478.53167 493.92732 480.10802 495.2553 481.68359 496.58203 C 482.84542 497.76457 484.00716 498.94735 485.16797 500.12891 C 485.93582 500.81372 486.70395 501.49777 487.4707 502.18164 C 488.54961 503.36422 489.62723 504.54504 490.70508 505.72656 C 491.53514 507.01285 492.36428 508.29872 493.19336 509.58398 C 493.87817 510.70431 494.56219 511.82401 495.24609 512.94336 C 495.8687 514.04294 496.49166 515.14164 497.11328 516.24023 C 497.07246 516.69695 497.02986 517.15364 496.98828 517.60938 C 495.99336 516.28261 494.9979 514.95662 494.00195 513.62891 C 492.38488 511.8252 490.76844 510.01949 489.15039 508.21484 C 487.42961 506.72216 485.70802 505.22992 483.98633 503.73633 C 482.01667 502.3681 480.04674 500.99999 478.07617 499.63086 C 476.39685 498.6774 474.71737 497.72206 473.03711 496.76758 C 471.503 496.10446 469.96865 495.44144 468.43359 494.77734 C 467.06537 494.15569 465.69534 493.53471 464.32617 492.91211 C 463.28975 492.53945 462.2542 492.16477 461.2168 491.79102 C 460.09745 491.45955 458.97775 491.12919 457.85742 490.79688 C 458.07059 490.75076 458.28207 490.70312 458.49414 490.65625 C 459.2412 490.65682 459.98826 490.65682 460.73438 490.65625 C 461.33103 490.60485 461.92775 490.55216 462.52344 490.5 C 463.14608 490.50045 463.76702 490.50045 464.38867 490.5 C 464.64303 490.43802 464.89682 490.37719 465.15039 490.31445 C 464.69983 490.04535 464.2484 489.77598 463.79688 489.50586 C 463.44462 489.32482 463.09328 489.14319 462.74023 488.96094 C 462.18083 488.67634 461.62098 488.39109 461.06055 488.10547 C 460.53221 487.87265 460.00389 487.64005 459.47461 487.40625 C 458.22343 486.92946 456.97087 486.45242 455.71875 485.97461 C 454.39951 485.52791 453.07999 485.08054 451.75977 484.63281 C 450.56513 484.25195 449.36944 483.87005 448.17383 483.48828 C 447.06722 483.22485 445.96114 482.96172 444.85352 482.69727 C 443.05767 482.30185 441.26167 481.90425 439.46484 481.50781 C 438.30687 481.35436 437.14724 481.20148 435.98828 481.04688 C 435.03561 480.95957 434.08252 480.87202 433.12891 480.7832 C 432.19087 480.8278 431.2534 480.87022 430.31445 480.91406 C 430.13908 480.91452 429.9635 480.91452 429.78711 480.91406 C 430.69677 481.85305 431.605 482.79247 432.51367 483.73047 C 433.5993 484.97741 434.68488 486.22287 435.76953 487.46875 C 436.66452 488.40774 437.5591 489.34712 438.45312 490.28516 C 439.20151 491.59076 439.94799 492.89655 440.69531 494.20117 C 441.57568 495.49211 442.45659 496.78231 443.33594 498.07227 C 443.66627 498.53023 443.99487 498.98634 444.32422 499.44336 C 444.51131 499.93118 444.69862 500.41941 444.88477 500.90625 C 444.42903 500.92515 443.97234 500.94796 443.51562 500.96875 C 443.14298 500.94985 442.77024 500.92742 442.39648 500.90625 C 442.3243 500.91759 442.25263 500.92421 442.17969 500.93555 C 442.46013 501.53747 442.74004 502.13929 443.01953 502.74023 C 443.90137 505.19814 444.78125 507.65632 445.66211 510.11328 C 446.13958 511.67948 446.61726 513.24537 447.09375 514.81055 C 447.54007 516.13833 447.98626 517.46433 448.43164 518.79102 C 449.18906 522.39997 449.94474 526.00929 450.70117 529.61719 C 451.07497 531.58776 451.44949 533.55776 451.82227 535.52734 C 452.19606 537.49795 452.56859 539.46791 452.94141 541.4375 C 453.14928 543.01409 453.35756 544.59044 453.56445 546.16602 C 453.54556 547.61819 453.5235 549.06834 453.50195 550.51953 C 453.3991 551.14013 453.29538 551.7612 453.19141 552.38086 C 452.36263 548.5254 451.53093 544.6709 450.70117 540.81445 C 449.78396 537.39009 448.86738 533.96433 447.94922 530.53906 C 446.50328 527.32824 445.05627 524.11802 443.60938 520.90625 C 441.70196 517.21535 439.79504 513.52384 437.88672 509.83203 C 436.22815 507.05359 434.56776 504.27544 432.9082 501.49609 C 431.40524 499.31912 429.90242 497.14084 428.39844 494.96289 C 427.73532 494.09235 427.0723 493.22109 426.4082 492.34961 C 426.24304 492.16366 426.07642 491.97825 425.91016 491.79102 C 424.95186 490.4754 423.9926 489.15836 423.0332 487.8418 C 422.76259 487.59273 422.4905 487.34358 422.21875 487.09375 C 422.30001 487.03592 422.38119 486.97693 422.46094 486.91797 C 422.60078 486.96257 422.74031 487.00694 422.87891 487.05078 C 423.14347 487.09538 423.4084 487.13975 423.67188 487.18359 C 423.995 487.25011 424.31654 487.3151 424.63867 487.38086 C 424.93234 487.4693 425.22669 487.55647 425.51953 487.64453 C 425.80602 487.69631 426.09149 487.74818 426.37695 487.79883 C 426.57538 487.85061 426.77319 487.9025 426.9707 487.95312 C 426.83918 487.76303 426.70635 487.57188 426.57422 487.38086 C 426.49409 487.23459 426.41291 487.08885 426.33203 486.94141 C 426.2228 486.78796 426.11427 486.6331 426.00391 486.47852 C 425.89468 486.28841 425.78419 486.09731 425.67383 485.90625 C 425.5646 485.74524 425.45411 485.58574 425.34375 485.42383 C 425.1903 485.21898 425.03552 485.0124 424.88086 484.80664 C 424.76407 484.68267 424.64722 484.55832 424.5293 484.43359 C 423.19614 482.55241 421.86336 480.67123 420.5293 478.78906 C 419.01117 476.99057 417.49169 475.19205 415.97266 473.39258 C 415.00529 472.39595 414.03867 471.398 413.07031 470.40039 C 412.24963 469.52105 411.42714 468.64201 410.60547 467.76172 C 410.03404 467.21958 409.463 466.67589 408.89062 466.13281 C 407.61721 464.92884 406.34274 463.72448 405.06836 462.51953 z M 359.0625 478.41406 C 359.74735 479.18187 360.43135 479.95001 361.11523 480.7168 C 361.84158 481.48461 362.56767 482.25079 363.29297 483.01758 C 363.81195 483.4743 364.32975 483.93098 364.84766 484.38672 C 365.53251 485.07157 366.21658 485.75562 366.90039 486.43945 C 367.31568 486.99988 367.73025 487.55969 368.14453 488.11914 C 369.26486 489.07355 370.38455 490.02705 371.50391 490.98047 C 372.14727 491.74824 372.79123 492.51637 373.43359 493.2832 C 373.91105 493.76071 374.38679 494.23836 374.86328 494.71484 C 375.40295 495.25452 375.94372 495.79334 376.48242 496.33203 C 377.16723 497.28648 377.85132 498.2399 378.53516 499.19336 C 379.22001 499.87817 379.90402 500.56219 380.58789 501.24609 C 380.9409 501.86873 381.29247 502.49162 381.64453 503.11328 C 382.20496 503.83963 382.76477 504.56569 383.32422 505.29102 C 383.57367 505.83069 383.82384 506.36947 384.07227 506.9082 C 384.46673 507.53084 384.86034 508.15178 385.25391 508.77344 C 385.37863 508.25545 385.50336 507.73768 385.62695 507.21875 C 385.66853 506.61784 385.70918 506.01595 385.75 505.41406 C 385.7311 504.52281 385.711 503.63243 385.68945 502.74023 C 385.68994 501.80752 385.68994 500.87315 385.68945 499.93945 C 385.68994 498.90303 385.68994 497.86748 385.68945 496.83008 C 385.67056 496.33284 385.6485 495.83412 385.62695 495.33594 C 385.62744 494.96328 385.62744 494.59055 385.62695 494.2168 C 386.74732 496.64363 387.86702 499.07032 388.98633 501.49609 C 389.89927 503.36303 390.81066 505.2278 391.72266 507.09375 C 392.0133 508.00669 392.30386 508.92007 392.59375 509.83203 C 393.17489 511.07686 393.75574 512.32072 394.33594 513.56445 C 394.86178 514.85214 395.38728 516.13915 395.91211 517.42578 C 396.35254 518.80463 396.79301 520.18264 397.23242 521.56055 C 397.84883 522.93947 398.46473 524.31936 399.08008 525.69727 C 399.43271 526.92954 399.78335 528.16132 400.13477 529.39258 C 400.48702 530.24358 400.83995 531.09334 401.19141 531.94336 C 401.36753 533.14635 401.54312 534.34882 401.71875 535.55078 C 402.12985 536.9297 402.54109 538.30768 402.95117 539.68555 C 403.15678 540.71252 403.36159 541.73964 403.56641 542.76562 C 403.71343 543.90991 403.85967 545.05403 404.00586 546.19727 C 403.94803 546.843 403.88904 547.4881 403.83008 548.13281 C 404.37781 551.64577 404.92595 555.15806 405.47266 558.66992 C 405.49155 559.74886 405.51475 560.82645 405.53516 561.9043 C 405.51626 562.63061 405.4942 563.3567 405.47266 564.08203 C 405.45376 564.66325 405.4317 565.24402 405.41016 565.82422 C 405.61765 566.9653 405.82436 568.10596 406.03125 569.24609 C 406.26558 573.48529 406.50095 577.72284 406.73438 581.96094 C 406.63233 583.11989 406.52858 584.27953 406.42578 585.4375 C 406.29425 586.77243 406.16372 588.10551 406.03125 589.43945 C 405.62113 587.40168 405.20989 585.36297 404.79883 583.32422 C 404.52103 582.04897 404.24201 580.77424 403.96289 579.49805 C 403.49415 577.31356 403.02444 575.12876 402.55469 572.94336 C 401.68199 568.84941 400.80926 564.75501 399.93555 560.66016 C 399.56289 558.56611 399.19016 556.47191 398.81641 554.37695 C 398.40213 552.82209 397.98752 551.26682 397.57227 549.71094 C 397.42751 549.35906 397.28234 549.00539 397.13672 548.65234 C 396.84683 547.38779 396.55646 546.12292 396.26562 544.85742 C 395.60255 542.88776 394.93949 540.91784 394.27539 538.94727 C 394.08944 538.32561 393.90212 537.70467 393.71484 537.08203 C 393.5493 536.52259 393.38298 535.96277 393.2168 535.40234 C 392.98889 535.92131 392.76183 536.43908 392.5332 536.95703 C 392.38845 537.49667 392.24328 538.03552 392.09766 538.57422 C 391.55896 539.7153 391.02015 540.856 390.48047 541.99609 C 390.29452 542.61873 390.1072 543.24162 389.91992 543.86328 C 389.54726 544.46517 389.17454 545.06507 388.80078 545.66602 C 388.40726 546.03981 388.01166 546.41433 387.61719 546.78711 C 387.41045 546.62194 387.20393 546.45532 386.99609 546.28906 C 386.91332 545.3771 386.82962 544.46373 386.74609 543.55078 C 386.49778 542.74253 386.2493 541.93427 386 541.125 C 385.87641 540.39967 385.75168 539.67358 385.62695 538.94727 C 385.4822 538.55374 385.33703 538.16013 385.19141 537.76562 C 384.98467 537.06102 384.77815 536.35595 384.57031 535.65039 C 384.36357 535.09094 384.1551 534.53113 383.94727 533.9707 C 383.90607 533.76396 383.86384 533.55549 383.82227 533.34766 C 383.24211 531.31578 382.66129 529.28473 382.08008 527.25195 C 381.66584 525.96669 381.25116 524.68082 380.83594 523.39453 C 380.54605 522.50332 380.25564 521.61095 379.96484 520.71875 C 379.55057 519.93117 379.13596 519.14407 378.7207 518.35547 C 378.47239 517.40205 378.22394 516.44858 377.97461 515.49414 C 377.66412 514.76881 377.35257 514.04272 377.04102 513.31641 C 376.77191 512.59108 376.50249 511.86498 376.23242 511.13867 C 375.82765 510.15565 375.42336 509.1715 375.01758 508.1875 C 374.72489 507.67477 374.43049 507.16219 374.13672 506.64844 C 373.8734 506.23832 373.61013 505.82708 373.3457 505.41602 C 373.03831 506.22306 372.73029 507.02995 372.42188 507.83594 C 372.27572 508.56966 372.12965 509.30246 371.98242 510.03516 C 371.8069 510.62219 371.62958 511.20887 371.45312 511.79492 C 371.24821 512.48465 371.0437 513.1745 370.83789 513.86328 C 370.69174 514.25964 370.54567 514.65529 370.39844 515.05078 C 370.16452 515.46184 369.92851 515.87309 369.69336 516.2832 C 369.57661 515.56513 369.45972 514.84601 369.3418 514.12695 C 369.29811 513.43825 369.2558 512.74828 369.21094 512.05859 C 369.06478 511.42855 368.91676 510.799 368.76953 510.16797 C 368.71155 509.44993 368.65294 508.73074 368.59375 508.01172 C 368.50637 507.55765 368.41863 507.10353 368.33008 506.64844 C 368.19863 506.12104 368.06619 505.59287 367.93359 505.06445 C 366.98814 500.99265 366.04208 496.92044 365.0957 492.84766 C 364.57772 491.45872 364.05993 490.06961 363.54102 488.67969 C 362.9401 487.37367 362.33821 486.06673 361.73633 484.75977 C 361.34277 483.78555 360.94921 482.81109 360.55469 481.83594 C 360.3687 481.19353 360.18133 480.55155 359.99414 479.9082 C 359.68369 479.41097 359.37409 478.91224 359.0625 478.41406 z M 278.18555 513.06641 C 279.61692 513.23259 281.04807 513.39891 282.47852 513.56445 C 281.56655 513.75169 280.65317 513.93905 279.74023 514.125 C 278.41348 514.68543 277.08553 515.2452 275.75781 515.80469 C 276.83665 515.95024 277.91623 516.09548 278.99414 516.24023 C 283.5569 516.88362 288.11781 517.52556 292.67969 518.16797 C 293.07421 518.50023 293.46976 518.8326 293.86328 519.16406 C 293.22088 520.92725 292.57692 522.68893 291.93359 524.45117 C 291.51931 524.43983 291.10471 524.43321 290.68945 524.42188 C 290.07818 524.19427 289.4658 523.96499 288.85352 523.73633 C 288.31485 523.57082 287.77604 523.40458 287.23633 523.23828 C 286.24549 523.17781 285.25357 523.11787 284.26172 523.05664 C 283.45569 523.2477 282.65078 523.4388 281.84375 523.62891 C 280.99376 524.04001 280.14201 524.45121 279.29102 524.86133 C 278.58764 525.38971 277.88406 525.91589 277.17969 526.44336 C 276.78423 526.9864 276.38861 527.53021 275.99219 528.07227 C 274.69494 529.47315 273.39787 530.87346 272.09961 532.27344 C 271.80685 532.58181 271.51261 532.88999 271.21875 533.19727 C 270.47872 533.46901 269.73908 533.73915 268.99805 534.00977 C 268.25802 534.17894 267.51642 534.34744 266.77539 534.51562 C 265.83006 534.26682 264.88579 534.01936 263.93945 533.76953 C 263.26543 533.4621 262.59105 533.15411 261.91602 532.8457 C 261.39595 532.47962 260.87459 532.11113 260.35352 531.74414 C 260.11206 531.36335 259.86937 530.98318 259.62695 530.60156 C 259.37084 529.83224 259.11454 529.06136 258.85742 528.29102 C 258.99002 528.33599 259.12245 528.37999 259.25391 528.42383 C 259.53302 528.49035 259.81186 528.55766 260.08984 528.62305 C 260.55222 528.68957 261.0132 528.75493 261.47461 528.82031 C 261.81968 528.90119 262.16564 528.982 262.50977 529.0625 C 262.41505 529.40024 262.31854 529.73746 262.22266 530.07422 C 261.59993 530.36071 260.97724 530.64629 260.35352 530.93164 C 260.68397 530.9906 261.01433 531.0496 261.34375 531.10742 C 261.93813 531.0787 262.53159 531.04977 263.125 531.01953 C 263.95399 530.87372 264.7833 530.7271 265.61133 530.58008 C 266.77028 530.19196 267.92795 529.80316 269.08594 529.41406 C 269.7346 529.1086 270.38355 528.80261 271.03125 528.49609 C 271.28059 527.97815 271.5291 527.46034 271.77734 526.94141 C 271.75724 526.65155 271.73412 526.36096 271.71484 526.07031 C 271.27984 525.822 270.84422 525.57171 270.4082 525.32227 C 270.11838 525.07395 269.82787 524.82562 269.53711 524.57617 C 269.01917 524.1619 268.50137 523.74729 267.98242 523.33203 C 267.73405 523.10443 267.48375 522.87748 267.23438 522.64844 C 267.04831 522.10978 266.86291 521.56898 266.67578 521.0293 C 266.71792 520.44914 266.75981 519.87028 266.80078 519.28906 C 267.21603 518.60523 267.63064 517.91919 268.04492 517.23438 C 268.62608 516.69568 269.20501 516.15687 269.78516 515.61719 C 271.09215 515.1407 272.39905 514.66497 273.70508 514.1875 C 275.1987 513.81476 276.69289 513.4402 278.18555 513.06641 z "
       transform="scale(0.26458333)" />
  </g>
</svg>
